G04 MADE WITH FRITZING*
G04 WWW.FRITZING.ORG*
G04 DOUBLE SIDED*
G04 HOLES PLATED*
G04 CONTOUR ON CENTER OF CONTOUR VECTOR*
%ASAXBY*%
%FSLAX23Y23*%
%MOIN*%
%OFA0B0*%
%SFA1.0B1.0*%
%ADD10C,0.077778*%
%ADD11C,0.075000*%
%ADD12C,0.065000*%
%ADD13C,0.078000*%
%ADD14C,0.024000*%
%ADD15R,0.001000X0.001000*%
%LNCOPPER1*%
G90*
G70*
G54D10*
X230Y1699D03*
X230Y1599D03*
X230Y1499D03*
X230Y1399D03*
X230Y1299D03*
X230Y1199D03*
X230Y1099D03*
X230Y999D03*
X1130Y999D03*
X1130Y1099D03*
X1130Y1199D03*
X1130Y1299D03*
X1130Y1399D03*
X1130Y1499D03*
X1130Y1599D03*
X1130Y1699D03*
G54D11*
X1630Y299D03*
X1630Y699D03*
X1630Y299D03*
X1630Y699D03*
X1530Y699D03*
X1530Y299D03*
X1530Y699D03*
X1530Y299D03*
G54D12*
X1530Y899D03*
X1430Y899D03*
X1530Y899D03*
X1430Y899D03*
G54D11*
X1430Y699D03*
X1430Y299D03*
X1430Y699D03*
X1430Y299D03*
G54D13*
X2230Y1799D03*
X2230Y1699D03*
X2130Y1799D03*
X2130Y1699D03*
X2030Y1799D03*
X2030Y1699D03*
X1630Y1799D03*
X1630Y1699D03*
X1530Y1799D03*
X1530Y1699D03*
X1430Y1799D03*
X1430Y1699D03*
G54D14*
X1330Y1799D02*
X1399Y1799D01*
D02*
X1330Y299D02*
X1330Y1799D01*
D02*
X1401Y299D02*
X1330Y299D01*
D02*
X1430Y1799D02*
X1430Y1999D01*
D02*
X1430Y1999D02*
X2230Y1999D01*
D02*
X2230Y1999D02*
X2230Y1799D01*
D02*
X1660Y1799D02*
X1999Y1799D01*
D02*
X1530Y1899D02*
X2130Y1899D01*
D02*
X2130Y1899D02*
X2130Y1829D01*
D02*
X1530Y1829D02*
X1530Y1899D01*
D02*
X1730Y1799D02*
X1730Y299D01*
D02*
X1660Y1799D02*
X1730Y1799D01*
D02*
X1730Y299D02*
X1658Y299D01*
D02*
X330Y99D02*
X330Y1199D01*
D02*
X1630Y99D02*
X330Y99D01*
D02*
X330Y1199D02*
X259Y1199D01*
D02*
X1630Y270D02*
X1630Y99D01*
D02*
X1530Y199D02*
X430Y199D01*
D02*
X430Y199D02*
X430Y1299D01*
D02*
X430Y1299D02*
X259Y1299D01*
D02*
X1530Y270D02*
X1530Y199D01*
D02*
X530Y1499D02*
X259Y1499D01*
D02*
X1401Y299D02*
X530Y299D01*
D02*
X530Y299D02*
X530Y1499D01*
G54D15*
X1497Y931D02*
X1561Y931D01*
X1497Y930D02*
X1561Y930D01*
X1497Y929D02*
X1561Y929D01*
X1497Y928D02*
X1561Y928D01*
X1497Y927D02*
X1561Y927D01*
X1497Y926D02*
X1561Y926D01*
X1497Y925D02*
X1561Y925D01*
X1497Y924D02*
X1561Y924D01*
X1497Y923D02*
X1561Y923D01*
X1497Y922D02*
X1561Y922D01*
X1497Y921D02*
X1561Y921D01*
X1497Y920D02*
X1561Y920D01*
X1497Y919D02*
X1561Y919D01*
X1497Y918D02*
X1561Y918D01*
X1497Y917D02*
X1561Y917D01*
X1497Y916D02*
X1561Y916D01*
X1497Y915D02*
X1561Y915D01*
X1497Y914D02*
X1561Y914D01*
X1497Y913D02*
X1561Y913D01*
X1497Y912D02*
X1523Y912D01*
X1534Y912D02*
X1561Y912D01*
X1497Y911D02*
X1521Y911D01*
X1536Y911D02*
X1561Y911D01*
X1497Y910D02*
X1520Y910D01*
X1537Y910D02*
X1561Y910D01*
X1497Y909D02*
X1519Y909D01*
X1539Y909D02*
X1561Y909D01*
X1497Y908D02*
X1518Y908D01*
X1539Y908D02*
X1561Y908D01*
X1497Y907D02*
X1517Y907D01*
X1540Y907D02*
X1561Y907D01*
X1497Y906D02*
X1516Y906D01*
X1541Y906D02*
X1561Y906D01*
X1497Y905D02*
X1516Y905D01*
X1541Y905D02*
X1561Y905D01*
X1497Y904D02*
X1515Y904D01*
X1542Y904D02*
X1561Y904D01*
X1497Y903D02*
X1515Y903D01*
X1542Y903D02*
X1561Y903D01*
X1497Y902D02*
X1515Y902D01*
X1542Y902D02*
X1561Y902D01*
X1497Y901D02*
X1514Y901D01*
X1543Y901D02*
X1561Y901D01*
X1497Y900D02*
X1514Y900D01*
X1543Y900D02*
X1561Y900D01*
X1497Y899D02*
X1514Y899D01*
X1543Y899D02*
X1561Y899D01*
X1497Y898D02*
X1514Y898D01*
X1543Y898D02*
X1561Y898D01*
X1497Y897D02*
X1514Y897D01*
X1543Y897D02*
X1561Y897D01*
X1497Y896D02*
X1515Y896D01*
X1542Y896D02*
X1561Y896D01*
X1497Y895D02*
X1515Y895D01*
X1542Y895D02*
X1561Y895D01*
X1497Y894D02*
X1515Y894D01*
X1542Y894D02*
X1561Y894D01*
X1497Y893D02*
X1516Y893D01*
X1541Y893D02*
X1561Y893D01*
X1497Y892D02*
X1516Y892D01*
X1541Y892D02*
X1561Y892D01*
X1497Y891D02*
X1517Y891D01*
X1540Y891D02*
X1561Y891D01*
X1497Y890D02*
X1518Y890D01*
X1539Y890D02*
X1561Y890D01*
X1497Y889D02*
X1519Y889D01*
X1538Y889D02*
X1561Y889D01*
X1497Y888D02*
X1520Y888D01*
X1537Y888D02*
X1561Y888D01*
X1497Y887D02*
X1522Y887D01*
X1536Y887D02*
X1561Y887D01*
X1497Y886D02*
X1524Y886D01*
X1533Y886D02*
X1561Y886D01*
X1497Y885D02*
X1561Y885D01*
X1497Y884D02*
X1561Y884D01*
X1497Y883D02*
X1561Y883D01*
X1497Y882D02*
X1561Y882D01*
X1497Y881D02*
X1561Y881D01*
X1497Y880D02*
X1561Y880D01*
X1497Y879D02*
X1561Y879D01*
X1497Y878D02*
X1561Y878D01*
X1497Y877D02*
X1561Y877D01*
X1497Y876D02*
X1561Y876D01*
X1497Y875D02*
X1561Y875D01*
X1497Y874D02*
X1561Y874D01*
X1497Y873D02*
X1561Y873D01*
X1497Y872D02*
X1561Y872D01*
X1497Y871D02*
X1561Y871D01*
X1497Y870D02*
X1561Y870D01*
X1497Y869D02*
X1561Y869D01*
X1497Y868D02*
X1561Y868D01*
X1497Y867D02*
X1560Y867D01*
D02*
G04 End of Copper1*
M02*