G04 MADE WITH FRITZING*
G04 WWW.FRITZING.ORG*
G04 DOUBLE SIDED*
G04 HOLES PLATED*
G04 CONTOUR ON CENTER OF CONTOUR VECTOR*
%ASAXBY*%
%FSLAX23Y23*%
%MOIN*%
%OFA0B0*%
%SFA1.0B1.0*%
%ADD10C,0.077778*%
%ADD11C,0.075000*%
%ADD12C,0.065000*%
%ADD13C,0.078000*%
%ADD14C,0.024000*%
%ADD15R,0.001000X0.001000*%
%LNCOPPER1*%
G90*
G70*
G54D10*
X901Y1102D03*
X901Y1002D03*
X901Y902D03*
X901Y802D03*
X901Y702D03*
X901Y602D03*
X901Y502D03*
X901Y402D03*
X1801Y402D03*
X1801Y502D03*
X1801Y602D03*
X1801Y702D03*
X1801Y802D03*
X1801Y902D03*
X1801Y1002D03*
X1801Y1102D03*
G54D11*
X501Y402D03*
X501Y802D03*
X401Y402D03*
X401Y802D03*
G54D12*
X401Y1002D03*
X301Y1002D03*
X401Y1002D03*
X301Y1002D03*
G54D11*
X301Y402D03*
X301Y802D03*
G54D13*
X501Y1602D03*
X501Y1502D03*
X401Y1402D03*
X401Y1302D03*
X501Y1402D03*
X501Y1302D03*
X501Y2102D03*
X501Y2002D03*
X401Y2102D03*
X401Y2002D03*
X501Y2302D03*
X501Y2202D03*
G54D14*
X201Y402D02*
X200Y1601D01*
D02*
X200Y1601D02*
X470Y1602D01*
D02*
X272Y402D02*
X201Y402D01*
D02*
X601Y2102D02*
X531Y2102D01*
D02*
X601Y1402D02*
X601Y2102D01*
D02*
X531Y1402D02*
X600Y1402D01*
D02*
X601Y1402D02*
X601Y402D01*
D02*
X601Y402D02*
X529Y402D01*
D02*
X531Y1402D02*
X601Y1402D01*
D02*
X601Y602D02*
X871Y602D01*
D02*
X501Y402D02*
X601Y402D01*
D02*
X601Y402D02*
X601Y602D01*
D02*
X1001Y702D02*
X930Y702D01*
D02*
X401Y302D02*
X1001Y302D01*
D02*
X1001Y302D02*
X1001Y702D01*
D02*
X401Y373D02*
X401Y302D01*
D02*
X1101Y902D02*
X930Y902D01*
D02*
X1101Y202D02*
X1101Y902D01*
D02*
X301Y202D02*
X1101Y202D01*
D02*
X301Y373D02*
X301Y202D01*
D02*
X200Y1601D02*
X200Y2302D01*
D02*
X200Y2302D02*
X470Y2302D01*
D02*
X470Y1602D02*
X200Y1601D01*
G54D15*
X368Y1035D02*
X432Y1035D01*
X368Y1034D02*
X432Y1034D01*
X368Y1033D02*
X432Y1033D01*
X368Y1032D02*
X432Y1032D01*
X368Y1031D02*
X432Y1031D01*
X368Y1030D02*
X432Y1030D01*
X368Y1029D02*
X432Y1029D01*
X368Y1028D02*
X432Y1028D01*
X368Y1027D02*
X432Y1027D01*
X368Y1026D02*
X432Y1026D01*
X368Y1025D02*
X432Y1025D01*
X368Y1024D02*
X432Y1024D01*
X368Y1023D02*
X432Y1023D01*
X368Y1022D02*
X432Y1022D01*
X368Y1021D02*
X432Y1021D01*
X368Y1020D02*
X432Y1020D01*
X368Y1019D02*
X432Y1019D01*
X368Y1018D02*
X432Y1018D01*
X368Y1017D02*
X432Y1017D01*
X368Y1016D02*
X395Y1016D01*
X405Y1016D02*
X432Y1016D01*
X368Y1015D02*
X393Y1015D01*
X407Y1015D02*
X432Y1015D01*
X368Y1014D02*
X391Y1014D01*
X409Y1014D02*
X432Y1014D01*
X368Y1013D02*
X390Y1013D01*
X410Y1013D02*
X432Y1013D01*
X368Y1012D02*
X389Y1012D01*
X411Y1012D02*
X432Y1012D01*
X368Y1011D02*
X388Y1011D01*
X412Y1011D02*
X432Y1011D01*
X368Y1010D02*
X388Y1010D01*
X412Y1010D02*
X432Y1010D01*
X368Y1009D02*
X387Y1009D01*
X413Y1009D02*
X432Y1009D01*
X368Y1008D02*
X387Y1008D01*
X413Y1008D02*
X432Y1008D01*
X368Y1007D02*
X386Y1007D01*
X414Y1007D02*
X432Y1007D01*
X368Y1006D02*
X386Y1006D01*
X414Y1006D02*
X432Y1006D01*
X368Y1005D02*
X386Y1005D01*
X414Y1005D02*
X432Y1005D01*
X368Y1004D02*
X386Y1004D01*
X414Y1004D02*
X432Y1004D01*
X368Y1003D02*
X386Y1003D01*
X414Y1003D02*
X432Y1003D01*
X368Y1002D02*
X386Y1002D01*
X414Y1002D02*
X432Y1002D01*
X368Y1001D02*
X386Y1001D01*
X414Y1001D02*
X432Y1001D01*
X368Y1000D02*
X386Y1000D01*
X414Y1000D02*
X432Y1000D01*
X368Y999D02*
X386Y999D01*
X414Y999D02*
X432Y999D01*
X368Y998D02*
X387Y998D01*
X413Y998D02*
X432Y998D01*
X368Y997D02*
X387Y997D01*
X413Y997D02*
X432Y997D01*
X368Y996D02*
X388Y996D01*
X412Y996D02*
X432Y996D01*
X368Y995D02*
X388Y995D01*
X412Y995D02*
X432Y995D01*
X368Y994D02*
X389Y994D01*
X411Y994D02*
X432Y994D01*
X368Y993D02*
X390Y993D01*
X410Y993D02*
X432Y993D01*
X368Y992D02*
X391Y992D01*
X409Y992D02*
X432Y992D01*
X368Y991D02*
X393Y991D01*
X407Y991D02*
X432Y991D01*
X368Y990D02*
X395Y990D01*
X405Y990D02*
X432Y990D01*
X368Y989D02*
X432Y989D01*
X368Y988D02*
X432Y988D01*
X368Y987D02*
X432Y987D01*
X368Y986D02*
X432Y986D01*
X368Y985D02*
X432Y985D01*
X368Y984D02*
X432Y984D01*
X368Y983D02*
X432Y983D01*
X368Y982D02*
X432Y982D01*
X368Y981D02*
X432Y981D01*
X368Y980D02*
X432Y980D01*
X368Y979D02*
X432Y979D01*
X368Y978D02*
X432Y978D01*
X368Y977D02*
X432Y977D01*
X368Y976D02*
X432Y976D01*
X368Y975D02*
X432Y975D01*
X368Y974D02*
X432Y974D01*
X368Y973D02*
X432Y973D01*
X368Y972D02*
X432Y972D01*
X368Y971D02*
X432Y971D01*
D02*
G04 End of Copper1*
M02*