G04 MADE WITH FRITZING*
G04 WWW.FRITZING.ORG*
G04 DOUBLE SIDED*
G04 HOLES PLATED*
G04 CONTOUR ON CENTER OF CONTOUR VECTOR*
%ASAXBY*%
%FSLAX23Y23*%
%MOIN*%
%OFA0B0*%
%SFA1.0B1.0*%
%ADD10C,0.075000*%
%ADD11C,0.077778*%
%ADD12C,0.065000*%
%ADD13C,0.078000*%
%ADD14C,0.024000*%
%ADD15R,0.001000X0.001000*%
%LNCOPPER0*%
G90*
G70*
G54D10*
X123Y1979D03*
G54D11*
X230Y1699D03*
X230Y1599D03*
X230Y1499D03*
X230Y1399D03*
X230Y1299D03*
X230Y1199D03*
X230Y1099D03*
X230Y999D03*
X1130Y999D03*
X1130Y1099D03*
X1130Y1199D03*
X1130Y1299D03*
X1130Y1399D03*
X1130Y1499D03*
X1130Y1599D03*
X1130Y1699D03*
G54D10*
X1630Y299D03*
X1630Y699D03*
X1630Y299D03*
X1630Y699D03*
X1530Y699D03*
X1530Y299D03*
X1530Y699D03*
X1530Y299D03*
G54D12*
X1530Y899D03*
X1430Y899D03*
G54D10*
X1430Y699D03*
X1430Y299D03*
X1430Y699D03*
X1430Y299D03*
G54D13*
X1530Y1799D03*
X1530Y1699D03*
X1430Y1799D03*
X1430Y1699D03*
X1630Y1799D03*
X1630Y1699D03*
X2130Y1799D03*
X2130Y1699D03*
X2230Y1799D03*
X2230Y1699D03*
X2030Y1799D03*
X2030Y1699D03*
G54D14*
X1499Y1699D02*
X1460Y1699D01*
D02*
X1599Y1699D02*
X1560Y1699D01*
D02*
X1330Y1099D02*
X1430Y1099D01*
D02*
X1430Y1099D02*
X1430Y1668D01*
D02*
X1159Y1099D02*
X1330Y1099D01*
D02*
X1430Y1099D02*
X1430Y923D01*
D02*
X1159Y1099D02*
X1430Y1099D01*
D02*
X1430Y727D02*
X1430Y874D01*
D02*
X1530Y699D02*
X1458Y699D01*
D02*
X1630Y699D02*
X1558Y699D01*
D02*
X1530Y899D02*
X1554Y899D01*
D02*
X1830Y899D02*
X1530Y899D01*
D02*
X230Y499D02*
X1830Y499D01*
D02*
X1830Y499D02*
X1830Y899D01*
D02*
X230Y899D02*
X230Y499D01*
D02*
X230Y969D02*
X230Y899D01*
D02*
X2130Y1899D02*
X1930Y1899D01*
D02*
X1930Y1899D02*
X1930Y399D01*
D02*
X1930Y399D02*
X1530Y399D01*
D02*
X2130Y1829D02*
X2130Y1899D01*
D02*
X1530Y399D02*
X1530Y327D01*
D02*
X2099Y1699D02*
X2060Y1699D01*
D02*
X2199Y1699D02*
X2160Y1699D01*
D02*
X2330Y1699D02*
X2260Y1699D01*
D02*
X1159Y1099D02*
X1330Y1099D01*
D02*
X1330Y1999D02*
X2330Y1999D01*
D02*
X2330Y1999D02*
X2330Y1699D01*
D02*
X1330Y1099D02*
X1330Y1999D01*
G36*
X40Y2054D02*
X40Y1920D01*
X2138Y1920D01*
X2138Y1918D01*
X2142Y1918D01*
X2142Y1916D01*
X2144Y1916D01*
X2144Y1914D01*
X2146Y1914D01*
X2146Y1912D01*
X2148Y1912D01*
X2148Y1908D01*
X2150Y1908D01*
X2150Y1904D01*
X2152Y1904D01*
X2152Y1848D01*
X2236Y1848D01*
X2236Y1846D01*
X2244Y1846D01*
X2244Y1844D01*
X2250Y1844D01*
X2250Y1842D01*
X2254Y1842D01*
X2254Y1840D01*
X2256Y1840D01*
X2256Y1838D01*
X2260Y1838D01*
X2260Y1836D01*
X2262Y1836D01*
X2262Y1834D01*
X2264Y1834D01*
X2264Y1832D01*
X2266Y1832D01*
X2266Y1830D01*
X2268Y1830D01*
X2268Y1828D01*
X2270Y1828D01*
X2270Y1824D01*
X2272Y1824D01*
X2272Y1820D01*
X2274Y1820D01*
X2274Y1816D01*
X2276Y1816D01*
X2276Y1810D01*
X2278Y1810D01*
X2278Y1788D01*
X2276Y1788D01*
X2276Y1780D01*
X2274Y1780D01*
X2274Y1776D01*
X2272Y1776D01*
X2272Y1772D01*
X2270Y1772D01*
X2270Y1770D01*
X2268Y1770D01*
X2268Y1768D01*
X2266Y1768D01*
X2266Y1764D01*
X2264Y1764D01*
X2264Y1762D01*
X2260Y1762D01*
X2260Y1760D01*
X2258Y1760D01*
X2258Y1758D01*
X2256Y1758D01*
X2256Y1738D01*
X2260Y1738D01*
X2260Y1736D01*
X2262Y1736D01*
X2262Y1734D01*
X2264Y1734D01*
X2264Y1732D01*
X2266Y1732D01*
X2266Y1730D01*
X2268Y1730D01*
X2268Y1728D01*
X2270Y1728D01*
X2270Y1724D01*
X2272Y1724D01*
X2272Y1720D01*
X2274Y1720D01*
X2274Y1716D01*
X2276Y1716D01*
X2276Y1710D01*
X2278Y1710D01*
X2278Y1688D01*
X2276Y1688D01*
X2276Y1680D01*
X2274Y1680D01*
X2274Y1676D01*
X2272Y1676D01*
X2272Y1672D01*
X2270Y1672D01*
X2270Y1670D01*
X2268Y1670D01*
X2268Y1668D01*
X2266Y1668D01*
X2266Y1664D01*
X2264Y1664D01*
X2264Y1662D01*
X2260Y1662D01*
X2260Y1660D01*
X2258Y1660D01*
X2258Y1658D01*
X2256Y1658D01*
X2256Y1656D01*
X2252Y1656D01*
X2252Y1654D01*
X2248Y1654D01*
X2248Y1652D01*
X2240Y1652D01*
X2240Y1650D01*
X2390Y1650D01*
X2390Y2054D01*
X40Y2054D01*
G37*
D02*
G36*
X40Y1920D02*
X40Y1848D01*
X1636Y1848D01*
X1636Y1846D01*
X1644Y1846D01*
X1644Y1844D01*
X1650Y1844D01*
X1650Y1842D01*
X1654Y1842D01*
X1654Y1840D01*
X1656Y1840D01*
X1656Y1838D01*
X1660Y1838D01*
X1660Y1836D01*
X1662Y1836D01*
X1662Y1834D01*
X1664Y1834D01*
X1664Y1832D01*
X1666Y1832D01*
X1666Y1830D01*
X1668Y1830D01*
X1668Y1828D01*
X1670Y1828D01*
X1670Y1824D01*
X1672Y1824D01*
X1672Y1820D01*
X1674Y1820D01*
X1674Y1816D01*
X1676Y1816D01*
X1676Y1810D01*
X1678Y1810D01*
X1678Y1788D01*
X1676Y1788D01*
X1676Y1780D01*
X1674Y1780D01*
X1674Y1776D01*
X1672Y1776D01*
X1672Y1772D01*
X1670Y1772D01*
X1670Y1770D01*
X1668Y1770D01*
X1668Y1768D01*
X1666Y1768D01*
X1666Y1764D01*
X1664Y1764D01*
X1664Y1762D01*
X1660Y1762D01*
X1660Y1760D01*
X1658Y1760D01*
X1658Y1758D01*
X1656Y1758D01*
X1656Y1738D01*
X1660Y1738D01*
X1660Y1736D01*
X1662Y1736D01*
X1662Y1734D01*
X1664Y1734D01*
X1664Y1732D01*
X1666Y1732D01*
X1666Y1730D01*
X1668Y1730D01*
X1668Y1728D01*
X1670Y1728D01*
X1670Y1724D01*
X1672Y1724D01*
X1672Y1720D01*
X1674Y1720D01*
X1674Y1716D01*
X1676Y1716D01*
X1676Y1710D01*
X1678Y1710D01*
X1678Y1688D01*
X1676Y1688D01*
X1676Y1680D01*
X1674Y1680D01*
X1674Y1676D01*
X1672Y1676D01*
X1672Y1672D01*
X1670Y1672D01*
X1670Y1670D01*
X1668Y1670D01*
X1668Y1668D01*
X1666Y1668D01*
X1666Y1664D01*
X1664Y1664D01*
X1664Y1662D01*
X1660Y1662D01*
X1660Y1660D01*
X1658Y1660D01*
X1658Y1658D01*
X1656Y1658D01*
X1656Y1656D01*
X1652Y1656D01*
X1652Y1654D01*
X1648Y1654D01*
X1648Y1652D01*
X1640Y1652D01*
X1640Y1650D01*
X1908Y1650D01*
X1908Y1906D01*
X1910Y1906D01*
X1910Y1910D01*
X1912Y1910D01*
X1912Y1912D01*
X1914Y1912D01*
X1914Y1914D01*
X1916Y1914D01*
X1916Y1916D01*
X1918Y1916D01*
X1918Y1918D01*
X1922Y1918D01*
X1922Y1920D01*
X40Y1920D01*
G37*
D02*
G36*
X1952Y1876D02*
X1952Y1848D01*
X2036Y1848D01*
X2036Y1846D01*
X2044Y1846D01*
X2044Y1844D01*
X2050Y1844D01*
X2050Y1842D01*
X2054Y1842D01*
X2054Y1840D01*
X2056Y1840D01*
X2056Y1838D01*
X2060Y1838D01*
X2060Y1836D01*
X2062Y1836D01*
X2062Y1834D01*
X2064Y1834D01*
X2064Y1832D01*
X2066Y1832D01*
X2066Y1830D01*
X2068Y1830D01*
X2068Y1828D01*
X2070Y1828D01*
X2070Y1826D01*
X2090Y1826D01*
X2090Y1828D01*
X2092Y1828D01*
X2092Y1830D01*
X2094Y1830D01*
X2094Y1834D01*
X2098Y1834D01*
X2098Y1836D01*
X2100Y1836D01*
X2100Y1838D01*
X2102Y1838D01*
X2102Y1840D01*
X2106Y1840D01*
X2106Y1842D01*
X2108Y1842D01*
X2108Y1876D01*
X1952Y1876D01*
G37*
D02*
G36*
X40Y1848D02*
X40Y1748D01*
X1136Y1748D01*
X1136Y1746D01*
X1144Y1746D01*
X1144Y1744D01*
X1150Y1744D01*
X1150Y1742D01*
X1154Y1742D01*
X1154Y1740D01*
X1156Y1740D01*
X1156Y1738D01*
X1160Y1738D01*
X1160Y1736D01*
X1162Y1736D01*
X1162Y1734D01*
X1164Y1734D01*
X1164Y1732D01*
X1166Y1732D01*
X1166Y1730D01*
X1168Y1730D01*
X1168Y1728D01*
X1170Y1728D01*
X1170Y1724D01*
X1172Y1724D01*
X1172Y1720D01*
X1174Y1720D01*
X1174Y1716D01*
X1176Y1716D01*
X1176Y1710D01*
X1178Y1710D01*
X1178Y1688D01*
X1176Y1688D01*
X1176Y1680D01*
X1174Y1680D01*
X1174Y1676D01*
X1172Y1676D01*
X1172Y1674D01*
X1170Y1674D01*
X1170Y1670D01*
X1168Y1670D01*
X1168Y1668D01*
X1166Y1668D01*
X1166Y1666D01*
X1164Y1666D01*
X1164Y1664D01*
X1162Y1664D01*
X1162Y1662D01*
X1160Y1662D01*
X1160Y1660D01*
X1158Y1660D01*
X1158Y1658D01*
X1156Y1658D01*
X1156Y1650D01*
X1418Y1650D01*
X1418Y1652D01*
X1412Y1652D01*
X1412Y1654D01*
X1408Y1654D01*
X1408Y1656D01*
X1404Y1656D01*
X1404Y1658D01*
X1400Y1658D01*
X1400Y1660D01*
X1398Y1660D01*
X1398Y1662D01*
X1396Y1662D01*
X1396Y1664D01*
X1394Y1664D01*
X1394Y1666D01*
X1392Y1666D01*
X1392Y1668D01*
X1390Y1668D01*
X1390Y1672D01*
X1388Y1672D01*
X1388Y1674D01*
X1386Y1674D01*
X1386Y1678D01*
X1384Y1678D01*
X1384Y1684D01*
X1382Y1684D01*
X1382Y1692D01*
X1380Y1692D01*
X1380Y1704D01*
X1382Y1704D01*
X1382Y1712D01*
X1384Y1712D01*
X1384Y1718D01*
X1386Y1718D01*
X1386Y1722D01*
X1388Y1722D01*
X1388Y1726D01*
X1390Y1726D01*
X1390Y1728D01*
X1392Y1728D01*
X1392Y1730D01*
X1394Y1730D01*
X1394Y1734D01*
X1398Y1734D01*
X1398Y1736D01*
X1400Y1736D01*
X1400Y1738D01*
X1402Y1738D01*
X1402Y1758D01*
X1400Y1758D01*
X1400Y1760D01*
X1398Y1760D01*
X1398Y1762D01*
X1396Y1762D01*
X1396Y1764D01*
X1394Y1764D01*
X1394Y1766D01*
X1392Y1766D01*
X1392Y1768D01*
X1390Y1768D01*
X1390Y1772D01*
X1388Y1772D01*
X1388Y1774D01*
X1386Y1774D01*
X1386Y1778D01*
X1384Y1778D01*
X1384Y1784D01*
X1382Y1784D01*
X1382Y1792D01*
X1380Y1792D01*
X1380Y1804D01*
X1382Y1804D01*
X1382Y1812D01*
X1384Y1812D01*
X1384Y1818D01*
X1386Y1818D01*
X1386Y1822D01*
X1388Y1822D01*
X1388Y1826D01*
X1390Y1826D01*
X1390Y1828D01*
X1392Y1828D01*
X1392Y1830D01*
X1394Y1830D01*
X1394Y1834D01*
X1398Y1834D01*
X1398Y1836D01*
X1400Y1836D01*
X1400Y1838D01*
X1402Y1838D01*
X1402Y1840D01*
X1406Y1840D01*
X1406Y1842D01*
X1410Y1842D01*
X1410Y1844D01*
X1414Y1844D01*
X1414Y1846D01*
X1424Y1846D01*
X1424Y1848D01*
X40Y1848D01*
G37*
D02*
G36*
X1436Y1848D02*
X1436Y1846D01*
X1444Y1846D01*
X1444Y1844D01*
X1450Y1844D01*
X1450Y1842D01*
X1454Y1842D01*
X1454Y1840D01*
X1456Y1840D01*
X1456Y1838D01*
X1460Y1838D01*
X1460Y1836D01*
X1462Y1836D01*
X1462Y1834D01*
X1464Y1834D01*
X1464Y1832D01*
X1466Y1832D01*
X1466Y1830D01*
X1468Y1830D01*
X1468Y1828D01*
X1470Y1828D01*
X1470Y1826D01*
X1490Y1826D01*
X1490Y1828D01*
X1492Y1828D01*
X1492Y1830D01*
X1494Y1830D01*
X1494Y1834D01*
X1498Y1834D01*
X1498Y1836D01*
X1500Y1836D01*
X1500Y1838D01*
X1502Y1838D01*
X1502Y1840D01*
X1506Y1840D01*
X1506Y1842D01*
X1510Y1842D01*
X1510Y1844D01*
X1514Y1844D01*
X1514Y1846D01*
X1524Y1846D01*
X1524Y1848D01*
X1436Y1848D01*
G37*
D02*
G36*
X1536Y1848D02*
X1536Y1846D01*
X1544Y1846D01*
X1544Y1844D01*
X1550Y1844D01*
X1550Y1842D01*
X1554Y1842D01*
X1554Y1840D01*
X1556Y1840D01*
X1556Y1838D01*
X1560Y1838D01*
X1560Y1836D01*
X1562Y1836D01*
X1562Y1834D01*
X1564Y1834D01*
X1564Y1832D01*
X1566Y1832D01*
X1566Y1830D01*
X1568Y1830D01*
X1568Y1828D01*
X1570Y1828D01*
X1570Y1826D01*
X1590Y1826D01*
X1590Y1828D01*
X1592Y1828D01*
X1592Y1830D01*
X1594Y1830D01*
X1594Y1834D01*
X1598Y1834D01*
X1598Y1836D01*
X1600Y1836D01*
X1600Y1838D01*
X1602Y1838D01*
X1602Y1840D01*
X1606Y1840D01*
X1606Y1842D01*
X1610Y1842D01*
X1610Y1844D01*
X1614Y1844D01*
X1614Y1846D01*
X1624Y1846D01*
X1624Y1848D01*
X1536Y1848D01*
G37*
D02*
G36*
X1952Y1848D02*
X1952Y1650D01*
X2018Y1650D01*
X2018Y1652D01*
X2012Y1652D01*
X2012Y1654D01*
X2008Y1654D01*
X2008Y1656D01*
X2004Y1656D01*
X2004Y1658D01*
X2000Y1658D01*
X2000Y1660D01*
X1998Y1660D01*
X1998Y1662D01*
X1996Y1662D01*
X1996Y1664D01*
X1994Y1664D01*
X1994Y1666D01*
X1992Y1666D01*
X1992Y1668D01*
X1990Y1668D01*
X1990Y1672D01*
X1988Y1672D01*
X1988Y1674D01*
X1986Y1674D01*
X1986Y1678D01*
X1984Y1678D01*
X1984Y1684D01*
X1982Y1684D01*
X1982Y1692D01*
X1980Y1692D01*
X1980Y1704D01*
X1982Y1704D01*
X1982Y1712D01*
X1984Y1712D01*
X1984Y1718D01*
X1986Y1718D01*
X1986Y1722D01*
X1988Y1722D01*
X1988Y1726D01*
X1990Y1726D01*
X1990Y1728D01*
X1992Y1728D01*
X1992Y1730D01*
X1994Y1730D01*
X1994Y1734D01*
X1998Y1734D01*
X1998Y1736D01*
X2000Y1736D01*
X2000Y1738D01*
X2002Y1738D01*
X2002Y1758D01*
X2000Y1758D01*
X2000Y1760D01*
X1998Y1760D01*
X1998Y1762D01*
X1996Y1762D01*
X1996Y1764D01*
X1994Y1764D01*
X1994Y1766D01*
X1992Y1766D01*
X1992Y1768D01*
X1990Y1768D01*
X1990Y1772D01*
X1988Y1772D01*
X1988Y1774D01*
X1986Y1774D01*
X1986Y1778D01*
X1984Y1778D01*
X1984Y1784D01*
X1982Y1784D01*
X1982Y1792D01*
X1980Y1792D01*
X1980Y1804D01*
X1982Y1804D01*
X1982Y1812D01*
X1984Y1812D01*
X1984Y1818D01*
X1986Y1818D01*
X1986Y1822D01*
X1988Y1822D01*
X1988Y1826D01*
X1990Y1826D01*
X1990Y1828D01*
X1992Y1828D01*
X1992Y1830D01*
X1994Y1830D01*
X1994Y1834D01*
X1998Y1834D01*
X1998Y1836D01*
X2000Y1836D01*
X2000Y1838D01*
X2002Y1838D01*
X2002Y1840D01*
X2006Y1840D01*
X2006Y1842D01*
X2010Y1842D01*
X2010Y1844D01*
X2014Y1844D01*
X2014Y1846D01*
X2024Y1846D01*
X2024Y1848D01*
X1952Y1848D01*
G37*
D02*
G36*
X2152Y1848D02*
X2152Y1842D01*
X2154Y1842D01*
X2154Y1840D01*
X2156Y1840D01*
X2156Y1838D01*
X2160Y1838D01*
X2160Y1836D01*
X2162Y1836D01*
X2162Y1834D01*
X2164Y1834D01*
X2164Y1832D01*
X2166Y1832D01*
X2166Y1830D01*
X2168Y1830D01*
X2168Y1828D01*
X2170Y1828D01*
X2170Y1826D01*
X2190Y1826D01*
X2190Y1828D01*
X2192Y1828D01*
X2192Y1830D01*
X2194Y1830D01*
X2194Y1834D01*
X2198Y1834D01*
X2198Y1836D01*
X2200Y1836D01*
X2200Y1838D01*
X2202Y1838D01*
X2202Y1840D01*
X2206Y1840D01*
X2206Y1842D01*
X2210Y1842D01*
X2210Y1844D01*
X2214Y1844D01*
X2214Y1846D01*
X2224Y1846D01*
X2224Y1848D01*
X2152Y1848D01*
G37*
D02*
G36*
X40Y1748D02*
X40Y476D01*
X226Y476D01*
X226Y478D01*
X220Y478D01*
X220Y480D01*
X216Y480D01*
X216Y482D01*
X214Y482D01*
X214Y484D01*
X212Y484D01*
X212Y486D01*
X210Y486D01*
X210Y490D01*
X208Y490D01*
X208Y956D01*
X204Y956D01*
X204Y958D01*
X202Y958D01*
X202Y960D01*
X198Y960D01*
X198Y962D01*
X196Y962D01*
X196Y964D01*
X194Y964D01*
X194Y966D01*
X192Y966D01*
X192Y968D01*
X190Y968D01*
X190Y972D01*
X188Y972D01*
X188Y976D01*
X186Y976D01*
X186Y978D01*
X184Y978D01*
X184Y984D01*
X182Y984D01*
X182Y994D01*
X180Y994D01*
X180Y1004D01*
X182Y1004D01*
X182Y1012D01*
X184Y1012D01*
X184Y1018D01*
X186Y1018D01*
X186Y1022D01*
X188Y1022D01*
X188Y1026D01*
X190Y1026D01*
X190Y1028D01*
X192Y1028D01*
X192Y1030D01*
X194Y1030D01*
X194Y1032D01*
X196Y1032D01*
X196Y1034D01*
X198Y1034D01*
X198Y1036D01*
X200Y1036D01*
X200Y1038D01*
X202Y1038D01*
X202Y1060D01*
X198Y1060D01*
X198Y1062D01*
X196Y1062D01*
X196Y1064D01*
X194Y1064D01*
X194Y1066D01*
X192Y1066D01*
X192Y1068D01*
X190Y1068D01*
X190Y1072D01*
X188Y1072D01*
X188Y1076D01*
X186Y1076D01*
X186Y1078D01*
X184Y1078D01*
X184Y1084D01*
X182Y1084D01*
X182Y1094D01*
X180Y1094D01*
X180Y1104D01*
X182Y1104D01*
X182Y1112D01*
X184Y1112D01*
X184Y1118D01*
X186Y1118D01*
X186Y1122D01*
X188Y1122D01*
X188Y1126D01*
X190Y1126D01*
X190Y1128D01*
X192Y1128D01*
X192Y1130D01*
X194Y1130D01*
X194Y1132D01*
X196Y1132D01*
X196Y1134D01*
X198Y1134D01*
X198Y1136D01*
X200Y1136D01*
X200Y1138D01*
X202Y1138D01*
X202Y1160D01*
X198Y1160D01*
X198Y1162D01*
X196Y1162D01*
X196Y1164D01*
X194Y1164D01*
X194Y1166D01*
X192Y1166D01*
X192Y1168D01*
X190Y1168D01*
X190Y1172D01*
X188Y1172D01*
X188Y1176D01*
X186Y1176D01*
X186Y1178D01*
X184Y1178D01*
X184Y1184D01*
X182Y1184D01*
X182Y1194D01*
X180Y1194D01*
X180Y1204D01*
X182Y1204D01*
X182Y1212D01*
X184Y1212D01*
X184Y1218D01*
X186Y1218D01*
X186Y1222D01*
X188Y1222D01*
X188Y1226D01*
X190Y1226D01*
X190Y1228D01*
X192Y1228D01*
X192Y1230D01*
X194Y1230D01*
X194Y1232D01*
X196Y1232D01*
X196Y1234D01*
X198Y1234D01*
X198Y1236D01*
X200Y1236D01*
X200Y1238D01*
X202Y1238D01*
X202Y1260D01*
X198Y1260D01*
X198Y1262D01*
X196Y1262D01*
X196Y1264D01*
X194Y1264D01*
X194Y1266D01*
X192Y1266D01*
X192Y1268D01*
X190Y1268D01*
X190Y1272D01*
X188Y1272D01*
X188Y1276D01*
X186Y1276D01*
X186Y1278D01*
X184Y1278D01*
X184Y1284D01*
X182Y1284D01*
X182Y1294D01*
X180Y1294D01*
X180Y1304D01*
X182Y1304D01*
X182Y1312D01*
X184Y1312D01*
X184Y1318D01*
X186Y1318D01*
X186Y1322D01*
X188Y1322D01*
X188Y1326D01*
X190Y1326D01*
X190Y1328D01*
X192Y1328D01*
X192Y1330D01*
X194Y1330D01*
X194Y1332D01*
X196Y1332D01*
X196Y1334D01*
X198Y1334D01*
X198Y1336D01*
X200Y1336D01*
X200Y1338D01*
X202Y1338D01*
X202Y1360D01*
X198Y1360D01*
X198Y1362D01*
X196Y1362D01*
X196Y1364D01*
X194Y1364D01*
X194Y1366D01*
X192Y1366D01*
X192Y1368D01*
X190Y1368D01*
X190Y1372D01*
X188Y1372D01*
X188Y1376D01*
X186Y1376D01*
X186Y1378D01*
X184Y1378D01*
X184Y1384D01*
X182Y1384D01*
X182Y1394D01*
X180Y1394D01*
X180Y1404D01*
X182Y1404D01*
X182Y1412D01*
X184Y1412D01*
X184Y1418D01*
X186Y1418D01*
X186Y1422D01*
X188Y1422D01*
X188Y1426D01*
X190Y1426D01*
X190Y1428D01*
X192Y1428D01*
X192Y1430D01*
X194Y1430D01*
X194Y1432D01*
X196Y1432D01*
X196Y1434D01*
X198Y1434D01*
X198Y1436D01*
X200Y1436D01*
X200Y1438D01*
X202Y1438D01*
X202Y1460D01*
X198Y1460D01*
X198Y1462D01*
X196Y1462D01*
X196Y1464D01*
X194Y1464D01*
X194Y1466D01*
X192Y1466D01*
X192Y1468D01*
X190Y1468D01*
X190Y1472D01*
X188Y1472D01*
X188Y1476D01*
X186Y1476D01*
X186Y1478D01*
X184Y1478D01*
X184Y1484D01*
X182Y1484D01*
X182Y1494D01*
X180Y1494D01*
X180Y1504D01*
X182Y1504D01*
X182Y1512D01*
X184Y1512D01*
X184Y1518D01*
X186Y1518D01*
X186Y1522D01*
X188Y1522D01*
X188Y1526D01*
X190Y1526D01*
X190Y1528D01*
X192Y1528D01*
X192Y1530D01*
X194Y1530D01*
X194Y1532D01*
X196Y1532D01*
X196Y1534D01*
X198Y1534D01*
X198Y1536D01*
X200Y1536D01*
X200Y1538D01*
X202Y1538D01*
X202Y1560D01*
X198Y1560D01*
X198Y1562D01*
X196Y1562D01*
X196Y1564D01*
X194Y1564D01*
X194Y1566D01*
X192Y1566D01*
X192Y1568D01*
X190Y1568D01*
X190Y1572D01*
X188Y1572D01*
X188Y1576D01*
X186Y1576D01*
X186Y1578D01*
X184Y1578D01*
X184Y1584D01*
X182Y1584D01*
X182Y1594D01*
X180Y1594D01*
X180Y1604D01*
X182Y1604D01*
X182Y1612D01*
X184Y1612D01*
X184Y1618D01*
X186Y1618D01*
X186Y1622D01*
X188Y1622D01*
X188Y1626D01*
X190Y1626D01*
X190Y1628D01*
X192Y1628D01*
X192Y1630D01*
X194Y1630D01*
X194Y1632D01*
X196Y1632D01*
X196Y1634D01*
X198Y1634D01*
X198Y1636D01*
X200Y1636D01*
X200Y1638D01*
X202Y1638D01*
X202Y1660D01*
X198Y1660D01*
X198Y1662D01*
X196Y1662D01*
X196Y1664D01*
X194Y1664D01*
X194Y1666D01*
X192Y1666D01*
X192Y1668D01*
X190Y1668D01*
X190Y1672D01*
X188Y1672D01*
X188Y1676D01*
X186Y1676D01*
X186Y1678D01*
X184Y1678D01*
X184Y1684D01*
X182Y1684D01*
X182Y1694D01*
X180Y1694D01*
X180Y1704D01*
X182Y1704D01*
X182Y1712D01*
X184Y1712D01*
X184Y1718D01*
X186Y1718D01*
X186Y1722D01*
X188Y1722D01*
X188Y1726D01*
X190Y1726D01*
X190Y1728D01*
X192Y1728D01*
X192Y1730D01*
X194Y1730D01*
X194Y1732D01*
X196Y1732D01*
X196Y1734D01*
X198Y1734D01*
X198Y1736D01*
X200Y1736D01*
X200Y1738D01*
X202Y1738D01*
X202Y1740D01*
X206Y1740D01*
X206Y1742D01*
X210Y1742D01*
X210Y1744D01*
X216Y1744D01*
X216Y1746D01*
X224Y1746D01*
X224Y1748D01*
X40Y1748D01*
G37*
D02*
G36*
X236Y1748D02*
X236Y1746D01*
X244Y1746D01*
X244Y1744D01*
X250Y1744D01*
X250Y1742D01*
X254Y1742D01*
X254Y1740D01*
X256Y1740D01*
X256Y1738D01*
X260Y1738D01*
X260Y1736D01*
X262Y1736D01*
X262Y1734D01*
X264Y1734D01*
X264Y1732D01*
X266Y1732D01*
X266Y1730D01*
X268Y1730D01*
X268Y1728D01*
X270Y1728D01*
X270Y1724D01*
X272Y1724D01*
X272Y1720D01*
X274Y1720D01*
X274Y1716D01*
X276Y1716D01*
X276Y1710D01*
X278Y1710D01*
X278Y1688D01*
X276Y1688D01*
X276Y1680D01*
X274Y1680D01*
X274Y1676D01*
X272Y1676D01*
X272Y1674D01*
X270Y1674D01*
X270Y1670D01*
X268Y1670D01*
X268Y1668D01*
X266Y1668D01*
X266Y1666D01*
X264Y1666D01*
X264Y1664D01*
X262Y1664D01*
X262Y1662D01*
X260Y1662D01*
X260Y1660D01*
X258Y1660D01*
X258Y1658D01*
X256Y1658D01*
X256Y1638D01*
X260Y1638D01*
X260Y1636D01*
X262Y1636D01*
X262Y1634D01*
X264Y1634D01*
X264Y1632D01*
X266Y1632D01*
X266Y1630D01*
X268Y1630D01*
X268Y1628D01*
X270Y1628D01*
X270Y1624D01*
X272Y1624D01*
X272Y1620D01*
X274Y1620D01*
X274Y1616D01*
X276Y1616D01*
X276Y1610D01*
X278Y1610D01*
X278Y1588D01*
X276Y1588D01*
X276Y1580D01*
X274Y1580D01*
X274Y1576D01*
X272Y1576D01*
X272Y1574D01*
X270Y1574D01*
X270Y1570D01*
X268Y1570D01*
X268Y1568D01*
X266Y1568D01*
X266Y1566D01*
X264Y1566D01*
X264Y1564D01*
X262Y1564D01*
X262Y1562D01*
X260Y1562D01*
X260Y1560D01*
X258Y1560D01*
X258Y1558D01*
X256Y1558D01*
X256Y1538D01*
X260Y1538D01*
X260Y1536D01*
X262Y1536D01*
X262Y1534D01*
X264Y1534D01*
X264Y1532D01*
X266Y1532D01*
X266Y1530D01*
X268Y1530D01*
X268Y1528D01*
X270Y1528D01*
X270Y1524D01*
X272Y1524D01*
X272Y1520D01*
X274Y1520D01*
X274Y1516D01*
X276Y1516D01*
X276Y1510D01*
X278Y1510D01*
X278Y1488D01*
X276Y1488D01*
X276Y1480D01*
X274Y1480D01*
X274Y1476D01*
X272Y1476D01*
X272Y1474D01*
X270Y1474D01*
X270Y1470D01*
X268Y1470D01*
X268Y1468D01*
X266Y1468D01*
X266Y1466D01*
X264Y1466D01*
X264Y1464D01*
X262Y1464D01*
X262Y1462D01*
X260Y1462D01*
X260Y1460D01*
X258Y1460D01*
X258Y1458D01*
X256Y1458D01*
X256Y1438D01*
X260Y1438D01*
X260Y1436D01*
X262Y1436D01*
X262Y1434D01*
X264Y1434D01*
X264Y1432D01*
X266Y1432D01*
X266Y1430D01*
X268Y1430D01*
X268Y1428D01*
X270Y1428D01*
X270Y1424D01*
X272Y1424D01*
X272Y1420D01*
X274Y1420D01*
X274Y1416D01*
X276Y1416D01*
X276Y1410D01*
X278Y1410D01*
X278Y1388D01*
X276Y1388D01*
X276Y1380D01*
X274Y1380D01*
X274Y1376D01*
X272Y1376D01*
X272Y1374D01*
X270Y1374D01*
X270Y1370D01*
X268Y1370D01*
X268Y1368D01*
X266Y1368D01*
X266Y1366D01*
X264Y1366D01*
X264Y1364D01*
X262Y1364D01*
X262Y1362D01*
X260Y1362D01*
X260Y1360D01*
X258Y1360D01*
X258Y1358D01*
X256Y1358D01*
X256Y1338D01*
X260Y1338D01*
X260Y1336D01*
X262Y1336D01*
X262Y1334D01*
X264Y1334D01*
X264Y1332D01*
X266Y1332D01*
X266Y1330D01*
X268Y1330D01*
X268Y1328D01*
X270Y1328D01*
X270Y1324D01*
X272Y1324D01*
X272Y1320D01*
X274Y1320D01*
X274Y1316D01*
X276Y1316D01*
X276Y1310D01*
X278Y1310D01*
X278Y1288D01*
X276Y1288D01*
X276Y1280D01*
X274Y1280D01*
X274Y1276D01*
X272Y1276D01*
X272Y1274D01*
X270Y1274D01*
X270Y1270D01*
X268Y1270D01*
X268Y1268D01*
X266Y1268D01*
X266Y1266D01*
X264Y1266D01*
X264Y1264D01*
X262Y1264D01*
X262Y1262D01*
X260Y1262D01*
X260Y1260D01*
X258Y1260D01*
X258Y1258D01*
X256Y1258D01*
X256Y1238D01*
X260Y1238D01*
X260Y1236D01*
X262Y1236D01*
X262Y1234D01*
X264Y1234D01*
X264Y1232D01*
X266Y1232D01*
X266Y1230D01*
X268Y1230D01*
X268Y1228D01*
X270Y1228D01*
X270Y1224D01*
X272Y1224D01*
X272Y1220D01*
X274Y1220D01*
X274Y1216D01*
X276Y1216D01*
X276Y1210D01*
X278Y1210D01*
X278Y1188D01*
X276Y1188D01*
X276Y1180D01*
X274Y1180D01*
X274Y1176D01*
X272Y1176D01*
X272Y1174D01*
X270Y1174D01*
X270Y1170D01*
X268Y1170D01*
X268Y1168D01*
X266Y1168D01*
X266Y1166D01*
X264Y1166D01*
X264Y1164D01*
X262Y1164D01*
X262Y1162D01*
X260Y1162D01*
X260Y1160D01*
X258Y1160D01*
X258Y1158D01*
X256Y1158D01*
X256Y1138D01*
X260Y1138D01*
X260Y1136D01*
X262Y1136D01*
X262Y1134D01*
X264Y1134D01*
X264Y1132D01*
X266Y1132D01*
X266Y1130D01*
X268Y1130D01*
X268Y1128D01*
X270Y1128D01*
X270Y1124D01*
X272Y1124D01*
X272Y1120D01*
X274Y1120D01*
X274Y1116D01*
X276Y1116D01*
X276Y1110D01*
X278Y1110D01*
X278Y1088D01*
X276Y1088D01*
X276Y1080D01*
X274Y1080D01*
X274Y1076D01*
X272Y1076D01*
X272Y1074D01*
X270Y1074D01*
X270Y1070D01*
X268Y1070D01*
X268Y1068D01*
X266Y1068D01*
X266Y1066D01*
X264Y1066D01*
X264Y1064D01*
X262Y1064D01*
X262Y1062D01*
X260Y1062D01*
X260Y1060D01*
X258Y1060D01*
X258Y1058D01*
X256Y1058D01*
X256Y1038D01*
X260Y1038D01*
X260Y1036D01*
X262Y1036D01*
X262Y1034D01*
X264Y1034D01*
X264Y1032D01*
X266Y1032D01*
X266Y1030D01*
X268Y1030D01*
X268Y1028D01*
X270Y1028D01*
X270Y1024D01*
X272Y1024D01*
X272Y1020D01*
X274Y1020D01*
X274Y1016D01*
X276Y1016D01*
X276Y1010D01*
X278Y1010D01*
X278Y988D01*
X276Y988D01*
X276Y980D01*
X274Y980D01*
X274Y976D01*
X272Y976D01*
X272Y974D01*
X270Y974D01*
X270Y970D01*
X268Y970D01*
X268Y968D01*
X266Y968D01*
X266Y966D01*
X264Y966D01*
X264Y964D01*
X262Y964D01*
X262Y962D01*
X260Y962D01*
X260Y960D01*
X258Y960D01*
X258Y958D01*
X254Y958D01*
X254Y956D01*
X252Y956D01*
X252Y950D01*
X1118Y950D01*
X1118Y952D01*
X1112Y952D01*
X1112Y954D01*
X1108Y954D01*
X1108Y956D01*
X1104Y956D01*
X1104Y958D01*
X1102Y958D01*
X1102Y960D01*
X1098Y960D01*
X1098Y962D01*
X1096Y962D01*
X1096Y964D01*
X1094Y964D01*
X1094Y966D01*
X1092Y966D01*
X1092Y968D01*
X1090Y968D01*
X1090Y972D01*
X1088Y972D01*
X1088Y974D01*
X1086Y974D01*
X1086Y978D01*
X1084Y978D01*
X1084Y984D01*
X1082Y984D01*
X1082Y994D01*
X1080Y994D01*
X1080Y1004D01*
X1082Y1004D01*
X1082Y1012D01*
X1084Y1012D01*
X1084Y1018D01*
X1086Y1018D01*
X1086Y1022D01*
X1088Y1022D01*
X1088Y1026D01*
X1090Y1026D01*
X1090Y1028D01*
X1092Y1028D01*
X1092Y1030D01*
X1094Y1030D01*
X1094Y1034D01*
X1098Y1034D01*
X1098Y1036D01*
X1100Y1036D01*
X1100Y1038D01*
X1102Y1038D01*
X1102Y1060D01*
X1098Y1060D01*
X1098Y1062D01*
X1096Y1062D01*
X1096Y1064D01*
X1094Y1064D01*
X1094Y1066D01*
X1092Y1066D01*
X1092Y1068D01*
X1090Y1068D01*
X1090Y1072D01*
X1088Y1072D01*
X1088Y1074D01*
X1086Y1074D01*
X1086Y1078D01*
X1084Y1078D01*
X1084Y1084D01*
X1082Y1084D01*
X1082Y1094D01*
X1080Y1094D01*
X1080Y1104D01*
X1082Y1104D01*
X1082Y1112D01*
X1084Y1112D01*
X1084Y1118D01*
X1086Y1118D01*
X1086Y1122D01*
X1088Y1122D01*
X1088Y1126D01*
X1090Y1126D01*
X1090Y1128D01*
X1092Y1128D01*
X1092Y1130D01*
X1094Y1130D01*
X1094Y1134D01*
X1098Y1134D01*
X1098Y1136D01*
X1100Y1136D01*
X1100Y1138D01*
X1102Y1138D01*
X1102Y1160D01*
X1098Y1160D01*
X1098Y1162D01*
X1096Y1162D01*
X1096Y1164D01*
X1094Y1164D01*
X1094Y1166D01*
X1092Y1166D01*
X1092Y1168D01*
X1090Y1168D01*
X1090Y1172D01*
X1088Y1172D01*
X1088Y1174D01*
X1086Y1174D01*
X1086Y1178D01*
X1084Y1178D01*
X1084Y1184D01*
X1082Y1184D01*
X1082Y1194D01*
X1080Y1194D01*
X1080Y1204D01*
X1082Y1204D01*
X1082Y1212D01*
X1084Y1212D01*
X1084Y1218D01*
X1086Y1218D01*
X1086Y1222D01*
X1088Y1222D01*
X1088Y1226D01*
X1090Y1226D01*
X1090Y1228D01*
X1092Y1228D01*
X1092Y1230D01*
X1094Y1230D01*
X1094Y1234D01*
X1098Y1234D01*
X1098Y1236D01*
X1100Y1236D01*
X1100Y1238D01*
X1102Y1238D01*
X1102Y1260D01*
X1098Y1260D01*
X1098Y1262D01*
X1096Y1262D01*
X1096Y1264D01*
X1094Y1264D01*
X1094Y1266D01*
X1092Y1266D01*
X1092Y1268D01*
X1090Y1268D01*
X1090Y1272D01*
X1088Y1272D01*
X1088Y1274D01*
X1086Y1274D01*
X1086Y1278D01*
X1084Y1278D01*
X1084Y1284D01*
X1082Y1284D01*
X1082Y1294D01*
X1080Y1294D01*
X1080Y1304D01*
X1082Y1304D01*
X1082Y1312D01*
X1084Y1312D01*
X1084Y1318D01*
X1086Y1318D01*
X1086Y1322D01*
X1088Y1322D01*
X1088Y1326D01*
X1090Y1326D01*
X1090Y1328D01*
X1092Y1328D01*
X1092Y1330D01*
X1094Y1330D01*
X1094Y1334D01*
X1098Y1334D01*
X1098Y1336D01*
X1100Y1336D01*
X1100Y1338D01*
X1102Y1338D01*
X1102Y1360D01*
X1098Y1360D01*
X1098Y1362D01*
X1096Y1362D01*
X1096Y1364D01*
X1094Y1364D01*
X1094Y1366D01*
X1092Y1366D01*
X1092Y1368D01*
X1090Y1368D01*
X1090Y1372D01*
X1088Y1372D01*
X1088Y1374D01*
X1086Y1374D01*
X1086Y1378D01*
X1084Y1378D01*
X1084Y1384D01*
X1082Y1384D01*
X1082Y1394D01*
X1080Y1394D01*
X1080Y1404D01*
X1082Y1404D01*
X1082Y1412D01*
X1084Y1412D01*
X1084Y1418D01*
X1086Y1418D01*
X1086Y1422D01*
X1088Y1422D01*
X1088Y1426D01*
X1090Y1426D01*
X1090Y1428D01*
X1092Y1428D01*
X1092Y1430D01*
X1094Y1430D01*
X1094Y1434D01*
X1098Y1434D01*
X1098Y1436D01*
X1100Y1436D01*
X1100Y1438D01*
X1102Y1438D01*
X1102Y1460D01*
X1098Y1460D01*
X1098Y1462D01*
X1096Y1462D01*
X1096Y1464D01*
X1094Y1464D01*
X1094Y1466D01*
X1092Y1466D01*
X1092Y1468D01*
X1090Y1468D01*
X1090Y1472D01*
X1088Y1472D01*
X1088Y1474D01*
X1086Y1474D01*
X1086Y1478D01*
X1084Y1478D01*
X1084Y1484D01*
X1082Y1484D01*
X1082Y1494D01*
X1080Y1494D01*
X1080Y1504D01*
X1082Y1504D01*
X1082Y1512D01*
X1084Y1512D01*
X1084Y1518D01*
X1086Y1518D01*
X1086Y1522D01*
X1088Y1522D01*
X1088Y1526D01*
X1090Y1526D01*
X1090Y1528D01*
X1092Y1528D01*
X1092Y1530D01*
X1094Y1530D01*
X1094Y1534D01*
X1098Y1534D01*
X1098Y1536D01*
X1100Y1536D01*
X1100Y1538D01*
X1102Y1538D01*
X1102Y1560D01*
X1098Y1560D01*
X1098Y1562D01*
X1096Y1562D01*
X1096Y1564D01*
X1094Y1564D01*
X1094Y1566D01*
X1092Y1566D01*
X1092Y1568D01*
X1090Y1568D01*
X1090Y1572D01*
X1088Y1572D01*
X1088Y1574D01*
X1086Y1574D01*
X1086Y1578D01*
X1084Y1578D01*
X1084Y1584D01*
X1082Y1584D01*
X1082Y1594D01*
X1080Y1594D01*
X1080Y1604D01*
X1082Y1604D01*
X1082Y1612D01*
X1084Y1612D01*
X1084Y1618D01*
X1086Y1618D01*
X1086Y1622D01*
X1088Y1622D01*
X1088Y1626D01*
X1090Y1626D01*
X1090Y1628D01*
X1092Y1628D01*
X1092Y1630D01*
X1094Y1630D01*
X1094Y1634D01*
X1098Y1634D01*
X1098Y1636D01*
X1100Y1636D01*
X1100Y1638D01*
X1102Y1638D01*
X1102Y1660D01*
X1098Y1660D01*
X1098Y1662D01*
X1096Y1662D01*
X1096Y1664D01*
X1094Y1664D01*
X1094Y1666D01*
X1092Y1666D01*
X1092Y1668D01*
X1090Y1668D01*
X1090Y1672D01*
X1088Y1672D01*
X1088Y1674D01*
X1086Y1674D01*
X1086Y1678D01*
X1084Y1678D01*
X1084Y1684D01*
X1082Y1684D01*
X1082Y1694D01*
X1080Y1694D01*
X1080Y1704D01*
X1082Y1704D01*
X1082Y1712D01*
X1084Y1712D01*
X1084Y1718D01*
X1086Y1718D01*
X1086Y1722D01*
X1088Y1722D01*
X1088Y1726D01*
X1090Y1726D01*
X1090Y1728D01*
X1092Y1728D01*
X1092Y1730D01*
X1094Y1730D01*
X1094Y1734D01*
X1098Y1734D01*
X1098Y1736D01*
X1100Y1736D01*
X1100Y1738D01*
X1102Y1738D01*
X1102Y1740D01*
X1106Y1740D01*
X1106Y1742D01*
X1110Y1742D01*
X1110Y1744D01*
X1116Y1744D01*
X1116Y1746D01*
X1124Y1746D01*
X1124Y1748D01*
X236Y1748D01*
G37*
D02*
G36*
X1470Y1672D02*
X1470Y1670D01*
X1468Y1670D01*
X1468Y1668D01*
X1466Y1668D01*
X1466Y1664D01*
X1464Y1664D01*
X1464Y1662D01*
X1460Y1662D01*
X1460Y1660D01*
X1458Y1660D01*
X1458Y1658D01*
X1456Y1658D01*
X1456Y1656D01*
X1452Y1656D01*
X1452Y1654D01*
X1448Y1654D01*
X1448Y1652D01*
X1440Y1652D01*
X1440Y1650D01*
X1518Y1650D01*
X1518Y1652D01*
X1512Y1652D01*
X1512Y1654D01*
X1508Y1654D01*
X1508Y1656D01*
X1504Y1656D01*
X1504Y1658D01*
X1500Y1658D01*
X1500Y1660D01*
X1498Y1660D01*
X1498Y1662D01*
X1496Y1662D01*
X1496Y1664D01*
X1494Y1664D01*
X1494Y1666D01*
X1492Y1666D01*
X1492Y1668D01*
X1490Y1668D01*
X1490Y1672D01*
X1470Y1672D01*
G37*
D02*
G36*
X1570Y1672D02*
X1570Y1670D01*
X1568Y1670D01*
X1568Y1668D01*
X1566Y1668D01*
X1566Y1664D01*
X1564Y1664D01*
X1564Y1662D01*
X1560Y1662D01*
X1560Y1660D01*
X1558Y1660D01*
X1558Y1658D01*
X1556Y1658D01*
X1556Y1656D01*
X1552Y1656D01*
X1552Y1654D01*
X1548Y1654D01*
X1548Y1652D01*
X1540Y1652D01*
X1540Y1650D01*
X1618Y1650D01*
X1618Y1652D01*
X1612Y1652D01*
X1612Y1654D01*
X1608Y1654D01*
X1608Y1656D01*
X1604Y1656D01*
X1604Y1658D01*
X1600Y1658D01*
X1600Y1660D01*
X1598Y1660D01*
X1598Y1662D01*
X1596Y1662D01*
X1596Y1664D01*
X1594Y1664D01*
X1594Y1666D01*
X1592Y1666D01*
X1592Y1668D01*
X1590Y1668D01*
X1590Y1672D01*
X1570Y1672D01*
G37*
D02*
G36*
X2070Y1672D02*
X2070Y1670D01*
X2068Y1670D01*
X2068Y1668D01*
X2066Y1668D01*
X2066Y1664D01*
X2064Y1664D01*
X2064Y1662D01*
X2060Y1662D01*
X2060Y1660D01*
X2058Y1660D01*
X2058Y1658D01*
X2056Y1658D01*
X2056Y1656D01*
X2052Y1656D01*
X2052Y1654D01*
X2048Y1654D01*
X2048Y1652D01*
X2040Y1652D01*
X2040Y1650D01*
X2118Y1650D01*
X2118Y1652D01*
X2112Y1652D01*
X2112Y1654D01*
X2108Y1654D01*
X2108Y1656D01*
X2104Y1656D01*
X2104Y1658D01*
X2100Y1658D01*
X2100Y1660D01*
X2098Y1660D01*
X2098Y1662D01*
X2096Y1662D01*
X2096Y1664D01*
X2094Y1664D01*
X2094Y1666D01*
X2092Y1666D01*
X2092Y1668D01*
X2090Y1668D01*
X2090Y1672D01*
X2070Y1672D01*
G37*
D02*
G36*
X2170Y1672D02*
X2170Y1670D01*
X2168Y1670D01*
X2168Y1668D01*
X2166Y1668D01*
X2166Y1664D01*
X2164Y1664D01*
X2164Y1662D01*
X2160Y1662D01*
X2160Y1660D01*
X2158Y1660D01*
X2158Y1658D01*
X2156Y1658D01*
X2156Y1656D01*
X2152Y1656D01*
X2152Y1654D01*
X2148Y1654D01*
X2148Y1652D01*
X2140Y1652D01*
X2140Y1650D01*
X2218Y1650D01*
X2218Y1652D01*
X2212Y1652D01*
X2212Y1654D01*
X2208Y1654D01*
X2208Y1656D01*
X2204Y1656D01*
X2204Y1658D01*
X2200Y1658D01*
X2200Y1660D01*
X2198Y1660D01*
X2198Y1662D01*
X2196Y1662D01*
X2196Y1664D01*
X2194Y1664D01*
X2194Y1666D01*
X2192Y1666D01*
X2192Y1668D01*
X2190Y1668D01*
X2190Y1672D01*
X2170Y1672D01*
G37*
D02*
G36*
X1156Y1650D02*
X1156Y1648D01*
X1908Y1648D01*
X1908Y1650D01*
X1156Y1650D01*
G37*
D02*
G36*
X1156Y1650D02*
X1156Y1648D01*
X1908Y1648D01*
X1908Y1650D01*
X1156Y1650D01*
G37*
D02*
G36*
X1156Y1650D02*
X1156Y1648D01*
X1908Y1648D01*
X1908Y1650D01*
X1156Y1650D01*
G37*
D02*
G36*
X1156Y1650D02*
X1156Y1648D01*
X1908Y1648D01*
X1908Y1650D01*
X1156Y1650D01*
G37*
D02*
G36*
X1952Y1650D02*
X1952Y1648D01*
X2390Y1648D01*
X2390Y1650D01*
X1952Y1650D01*
G37*
D02*
G36*
X1952Y1650D02*
X1952Y1648D01*
X2390Y1648D01*
X2390Y1650D01*
X1952Y1650D01*
G37*
D02*
G36*
X1952Y1650D02*
X1952Y1648D01*
X2390Y1648D01*
X2390Y1650D01*
X1952Y1650D01*
G37*
D02*
G36*
X1952Y1650D02*
X1952Y1648D01*
X2390Y1648D01*
X2390Y1650D01*
X1952Y1650D01*
G37*
D02*
G36*
X1156Y1648D02*
X1156Y1638D01*
X1160Y1638D01*
X1160Y1636D01*
X1162Y1636D01*
X1162Y1634D01*
X1164Y1634D01*
X1164Y1632D01*
X1166Y1632D01*
X1166Y1630D01*
X1168Y1630D01*
X1168Y1628D01*
X1170Y1628D01*
X1170Y1624D01*
X1172Y1624D01*
X1172Y1620D01*
X1174Y1620D01*
X1174Y1616D01*
X1176Y1616D01*
X1176Y1610D01*
X1178Y1610D01*
X1178Y1588D01*
X1176Y1588D01*
X1176Y1580D01*
X1174Y1580D01*
X1174Y1576D01*
X1172Y1576D01*
X1172Y1574D01*
X1170Y1574D01*
X1170Y1570D01*
X1168Y1570D01*
X1168Y1568D01*
X1166Y1568D01*
X1166Y1566D01*
X1164Y1566D01*
X1164Y1564D01*
X1162Y1564D01*
X1162Y1562D01*
X1160Y1562D01*
X1160Y1560D01*
X1158Y1560D01*
X1158Y1558D01*
X1156Y1558D01*
X1156Y1538D01*
X1160Y1538D01*
X1160Y1536D01*
X1162Y1536D01*
X1162Y1534D01*
X1164Y1534D01*
X1164Y1532D01*
X1166Y1532D01*
X1166Y1530D01*
X1168Y1530D01*
X1168Y1528D01*
X1170Y1528D01*
X1170Y1524D01*
X1172Y1524D01*
X1172Y1520D01*
X1174Y1520D01*
X1174Y1516D01*
X1176Y1516D01*
X1176Y1510D01*
X1178Y1510D01*
X1178Y1488D01*
X1176Y1488D01*
X1176Y1480D01*
X1174Y1480D01*
X1174Y1476D01*
X1172Y1476D01*
X1172Y1474D01*
X1170Y1474D01*
X1170Y1470D01*
X1168Y1470D01*
X1168Y1468D01*
X1166Y1468D01*
X1166Y1466D01*
X1164Y1466D01*
X1164Y1464D01*
X1162Y1464D01*
X1162Y1462D01*
X1160Y1462D01*
X1160Y1460D01*
X1158Y1460D01*
X1158Y1458D01*
X1156Y1458D01*
X1156Y1438D01*
X1160Y1438D01*
X1160Y1436D01*
X1162Y1436D01*
X1162Y1434D01*
X1164Y1434D01*
X1164Y1432D01*
X1166Y1432D01*
X1166Y1430D01*
X1168Y1430D01*
X1168Y1428D01*
X1170Y1428D01*
X1170Y1424D01*
X1172Y1424D01*
X1172Y1420D01*
X1174Y1420D01*
X1174Y1416D01*
X1176Y1416D01*
X1176Y1410D01*
X1178Y1410D01*
X1178Y1388D01*
X1176Y1388D01*
X1176Y1380D01*
X1174Y1380D01*
X1174Y1376D01*
X1172Y1376D01*
X1172Y1374D01*
X1170Y1374D01*
X1170Y1370D01*
X1168Y1370D01*
X1168Y1368D01*
X1166Y1368D01*
X1166Y1366D01*
X1164Y1366D01*
X1164Y1364D01*
X1162Y1364D01*
X1162Y1362D01*
X1160Y1362D01*
X1160Y1360D01*
X1158Y1360D01*
X1158Y1358D01*
X1156Y1358D01*
X1156Y1338D01*
X1160Y1338D01*
X1160Y1336D01*
X1162Y1336D01*
X1162Y1334D01*
X1164Y1334D01*
X1164Y1332D01*
X1166Y1332D01*
X1166Y1330D01*
X1168Y1330D01*
X1168Y1328D01*
X1170Y1328D01*
X1170Y1324D01*
X1172Y1324D01*
X1172Y1320D01*
X1174Y1320D01*
X1174Y1316D01*
X1176Y1316D01*
X1176Y1310D01*
X1178Y1310D01*
X1178Y1288D01*
X1176Y1288D01*
X1176Y1280D01*
X1174Y1280D01*
X1174Y1276D01*
X1172Y1276D01*
X1172Y1274D01*
X1170Y1274D01*
X1170Y1270D01*
X1168Y1270D01*
X1168Y1268D01*
X1166Y1268D01*
X1166Y1266D01*
X1164Y1266D01*
X1164Y1264D01*
X1162Y1264D01*
X1162Y1262D01*
X1160Y1262D01*
X1160Y1260D01*
X1158Y1260D01*
X1158Y1258D01*
X1156Y1258D01*
X1156Y1238D01*
X1160Y1238D01*
X1160Y1236D01*
X1162Y1236D01*
X1162Y1234D01*
X1164Y1234D01*
X1164Y1232D01*
X1166Y1232D01*
X1166Y1230D01*
X1168Y1230D01*
X1168Y1228D01*
X1170Y1228D01*
X1170Y1224D01*
X1172Y1224D01*
X1172Y1220D01*
X1174Y1220D01*
X1174Y1216D01*
X1176Y1216D01*
X1176Y1210D01*
X1178Y1210D01*
X1178Y1188D01*
X1176Y1188D01*
X1176Y1180D01*
X1174Y1180D01*
X1174Y1176D01*
X1172Y1176D01*
X1172Y1174D01*
X1170Y1174D01*
X1170Y1170D01*
X1168Y1170D01*
X1168Y1168D01*
X1166Y1168D01*
X1166Y1166D01*
X1164Y1166D01*
X1164Y1164D01*
X1162Y1164D01*
X1162Y1162D01*
X1160Y1162D01*
X1160Y1160D01*
X1158Y1160D01*
X1158Y1158D01*
X1156Y1158D01*
X1156Y1138D01*
X1160Y1138D01*
X1160Y1136D01*
X1162Y1136D01*
X1162Y1134D01*
X1164Y1134D01*
X1164Y1132D01*
X1166Y1132D01*
X1166Y1130D01*
X1168Y1130D01*
X1168Y1128D01*
X1170Y1128D01*
X1170Y1124D01*
X1172Y1124D01*
X1172Y1120D01*
X1174Y1120D01*
X1174Y1116D01*
X1176Y1116D01*
X1176Y1110D01*
X1178Y1110D01*
X1178Y1088D01*
X1176Y1088D01*
X1176Y1080D01*
X1174Y1080D01*
X1174Y1076D01*
X1172Y1076D01*
X1172Y1074D01*
X1170Y1074D01*
X1170Y1070D01*
X1168Y1070D01*
X1168Y1068D01*
X1166Y1068D01*
X1166Y1066D01*
X1164Y1066D01*
X1164Y1064D01*
X1162Y1064D01*
X1162Y1062D01*
X1160Y1062D01*
X1160Y1060D01*
X1158Y1060D01*
X1158Y1058D01*
X1156Y1058D01*
X1156Y1038D01*
X1160Y1038D01*
X1160Y1036D01*
X1162Y1036D01*
X1162Y1034D01*
X1164Y1034D01*
X1164Y1032D01*
X1166Y1032D01*
X1166Y1030D01*
X1168Y1030D01*
X1168Y1028D01*
X1170Y1028D01*
X1170Y1024D01*
X1172Y1024D01*
X1172Y1020D01*
X1174Y1020D01*
X1174Y1016D01*
X1176Y1016D01*
X1176Y1010D01*
X1178Y1010D01*
X1178Y988D01*
X1176Y988D01*
X1176Y980D01*
X1174Y980D01*
X1174Y976D01*
X1172Y976D01*
X1172Y974D01*
X1170Y974D01*
X1170Y970D01*
X1168Y970D01*
X1168Y968D01*
X1166Y968D01*
X1166Y966D01*
X1164Y966D01*
X1164Y964D01*
X1162Y964D01*
X1162Y962D01*
X1160Y962D01*
X1160Y960D01*
X1158Y960D01*
X1158Y958D01*
X1154Y958D01*
X1154Y956D01*
X1152Y956D01*
X1152Y954D01*
X1148Y954D01*
X1148Y952D01*
X1140Y952D01*
X1140Y950D01*
X1908Y950D01*
X1908Y1648D01*
X1156Y1648D01*
G37*
D02*
G36*
X1952Y1648D02*
X1952Y394D01*
X1950Y394D01*
X1950Y388D01*
X1948Y388D01*
X1948Y386D01*
X1946Y386D01*
X1946Y382D01*
X1942Y382D01*
X1942Y380D01*
X1940Y380D01*
X1940Y378D01*
X1934Y378D01*
X1934Y376D01*
X1552Y376D01*
X1552Y346D01*
X1638Y346D01*
X1638Y344D01*
X1646Y344D01*
X1646Y342D01*
X1650Y342D01*
X1650Y340D01*
X1654Y340D01*
X1654Y338D01*
X1658Y338D01*
X1658Y336D01*
X1660Y336D01*
X1660Y334D01*
X1662Y334D01*
X1662Y332D01*
X1664Y332D01*
X1664Y330D01*
X1666Y330D01*
X1666Y328D01*
X1668Y328D01*
X1668Y324D01*
X1670Y324D01*
X1670Y322D01*
X1672Y322D01*
X1672Y318D01*
X1674Y318D01*
X1674Y312D01*
X1676Y312D01*
X1676Y300D01*
X1678Y300D01*
X1678Y298D01*
X1676Y298D01*
X1676Y286D01*
X1674Y286D01*
X1674Y280D01*
X1672Y280D01*
X1672Y276D01*
X1670Y276D01*
X1670Y272D01*
X1668Y272D01*
X1668Y270D01*
X1666Y270D01*
X1666Y268D01*
X1664Y268D01*
X1664Y264D01*
X1660Y264D01*
X1660Y262D01*
X1658Y262D01*
X1658Y260D01*
X1656Y260D01*
X1656Y258D01*
X1652Y258D01*
X1652Y256D01*
X1648Y256D01*
X1648Y254D01*
X1642Y254D01*
X1642Y252D01*
X2390Y252D01*
X2390Y1648D01*
X1952Y1648D01*
G37*
D02*
G36*
X252Y950D02*
X252Y948D01*
X1908Y948D01*
X1908Y950D01*
X252Y950D01*
G37*
D02*
G36*
X252Y950D02*
X252Y948D01*
X1908Y948D01*
X1908Y950D01*
X252Y950D01*
G37*
D02*
G36*
X252Y948D02*
X252Y942D01*
X1572Y942D01*
X1572Y920D01*
X1838Y920D01*
X1838Y918D01*
X1842Y918D01*
X1842Y916D01*
X1844Y916D01*
X1844Y914D01*
X1846Y914D01*
X1846Y912D01*
X1848Y912D01*
X1848Y908D01*
X1850Y908D01*
X1850Y904D01*
X1852Y904D01*
X1852Y494D01*
X1850Y494D01*
X1850Y488D01*
X1848Y488D01*
X1848Y486D01*
X1846Y486D01*
X1846Y482D01*
X1842Y482D01*
X1842Y480D01*
X1840Y480D01*
X1840Y478D01*
X1834Y478D01*
X1834Y476D01*
X1908Y476D01*
X1908Y948D01*
X252Y948D01*
G37*
D02*
G36*
X252Y942D02*
X252Y940D01*
X1442Y940D01*
X1442Y938D01*
X1448Y938D01*
X1448Y936D01*
X1450Y936D01*
X1450Y934D01*
X1454Y934D01*
X1454Y932D01*
X1456Y932D01*
X1456Y930D01*
X1460Y930D01*
X1460Y926D01*
X1462Y926D01*
X1462Y924D01*
X1464Y924D01*
X1464Y922D01*
X1466Y922D01*
X1466Y918D01*
X1468Y918D01*
X1468Y914D01*
X1488Y914D01*
X1488Y942D01*
X252Y942D01*
G37*
D02*
G36*
X252Y940D02*
X252Y856D01*
X1422Y856D01*
X1422Y858D01*
X1414Y858D01*
X1414Y860D01*
X1410Y860D01*
X1410Y862D01*
X1406Y862D01*
X1406Y864D01*
X1404Y864D01*
X1404Y866D01*
X1402Y866D01*
X1402Y868D01*
X1400Y868D01*
X1400Y870D01*
X1398Y870D01*
X1398Y872D01*
X1396Y872D01*
X1396Y874D01*
X1394Y874D01*
X1394Y878D01*
X1392Y878D01*
X1392Y880D01*
X1390Y880D01*
X1390Y886D01*
X1388Y886D01*
X1388Y910D01*
X1390Y910D01*
X1390Y916D01*
X1392Y916D01*
X1392Y920D01*
X1394Y920D01*
X1394Y922D01*
X1396Y922D01*
X1396Y926D01*
X1398Y926D01*
X1398Y928D01*
X1400Y928D01*
X1400Y930D01*
X1402Y930D01*
X1402Y932D01*
X1404Y932D01*
X1404Y934D01*
X1408Y934D01*
X1408Y936D01*
X1412Y936D01*
X1412Y938D01*
X1418Y938D01*
X1418Y940D01*
X252Y940D01*
G37*
D02*
G36*
X1468Y882D02*
X1468Y878D01*
X1466Y878D01*
X1466Y876D01*
X1464Y876D01*
X1464Y872D01*
X1462Y872D01*
X1462Y870D01*
X1460Y870D01*
X1460Y868D01*
X1458Y868D01*
X1458Y866D01*
X1456Y866D01*
X1456Y864D01*
X1452Y864D01*
X1452Y862D01*
X1450Y862D01*
X1450Y860D01*
X1444Y860D01*
X1444Y858D01*
X1438Y858D01*
X1438Y856D01*
X1488Y856D01*
X1488Y882D01*
X1468Y882D01*
G37*
D02*
G36*
X1572Y876D02*
X1572Y856D01*
X1808Y856D01*
X1808Y876D01*
X1572Y876D01*
G37*
D02*
G36*
X252Y856D02*
X252Y854D01*
X1808Y854D01*
X1808Y856D01*
X252Y856D01*
G37*
D02*
G36*
X252Y856D02*
X252Y854D01*
X1808Y854D01*
X1808Y856D01*
X252Y856D01*
G37*
D02*
G36*
X252Y856D02*
X252Y854D01*
X1808Y854D01*
X1808Y856D01*
X252Y856D01*
G37*
D02*
G36*
X252Y854D02*
X252Y746D01*
X1638Y746D01*
X1638Y744D01*
X1646Y744D01*
X1646Y742D01*
X1650Y742D01*
X1650Y740D01*
X1654Y740D01*
X1654Y738D01*
X1658Y738D01*
X1658Y736D01*
X1660Y736D01*
X1660Y734D01*
X1662Y734D01*
X1662Y732D01*
X1664Y732D01*
X1664Y730D01*
X1666Y730D01*
X1666Y728D01*
X1668Y728D01*
X1668Y724D01*
X1670Y724D01*
X1670Y722D01*
X1672Y722D01*
X1672Y718D01*
X1674Y718D01*
X1674Y712D01*
X1676Y712D01*
X1676Y700D01*
X1678Y700D01*
X1678Y698D01*
X1676Y698D01*
X1676Y686D01*
X1674Y686D01*
X1674Y680D01*
X1672Y680D01*
X1672Y676D01*
X1670Y676D01*
X1670Y672D01*
X1668Y672D01*
X1668Y670D01*
X1666Y670D01*
X1666Y668D01*
X1664Y668D01*
X1664Y664D01*
X1660Y664D01*
X1660Y662D01*
X1658Y662D01*
X1658Y660D01*
X1656Y660D01*
X1656Y658D01*
X1652Y658D01*
X1652Y656D01*
X1648Y656D01*
X1648Y654D01*
X1642Y654D01*
X1642Y652D01*
X1808Y652D01*
X1808Y854D01*
X252Y854D01*
G37*
D02*
G36*
X252Y746D02*
X252Y652D01*
X1416Y652D01*
X1416Y654D01*
X1410Y654D01*
X1410Y656D01*
X1408Y656D01*
X1408Y658D01*
X1404Y658D01*
X1404Y660D01*
X1400Y660D01*
X1400Y662D01*
X1398Y662D01*
X1398Y664D01*
X1396Y664D01*
X1396Y666D01*
X1394Y666D01*
X1394Y668D01*
X1392Y668D01*
X1392Y672D01*
X1390Y672D01*
X1390Y674D01*
X1388Y674D01*
X1388Y678D01*
X1386Y678D01*
X1386Y682D01*
X1384Y682D01*
X1384Y690D01*
X1382Y690D01*
X1382Y708D01*
X1384Y708D01*
X1384Y714D01*
X1386Y714D01*
X1386Y720D01*
X1388Y720D01*
X1388Y722D01*
X1390Y722D01*
X1390Y726D01*
X1392Y726D01*
X1392Y728D01*
X1394Y728D01*
X1394Y730D01*
X1396Y730D01*
X1396Y732D01*
X1398Y732D01*
X1398Y734D01*
X1400Y734D01*
X1400Y736D01*
X1402Y736D01*
X1402Y738D01*
X1406Y738D01*
X1406Y740D01*
X1408Y740D01*
X1408Y742D01*
X1414Y742D01*
X1414Y744D01*
X1420Y744D01*
X1420Y746D01*
X252Y746D01*
G37*
D02*
G36*
X1438Y746D02*
X1438Y744D01*
X1446Y744D01*
X1446Y742D01*
X1450Y742D01*
X1450Y740D01*
X1454Y740D01*
X1454Y738D01*
X1458Y738D01*
X1458Y736D01*
X1460Y736D01*
X1460Y734D01*
X1462Y734D01*
X1462Y732D01*
X1464Y732D01*
X1464Y730D01*
X1466Y730D01*
X1466Y728D01*
X1468Y728D01*
X1468Y724D01*
X1470Y724D01*
X1470Y722D01*
X1490Y722D01*
X1490Y726D01*
X1492Y726D01*
X1492Y728D01*
X1494Y728D01*
X1494Y730D01*
X1496Y730D01*
X1496Y732D01*
X1498Y732D01*
X1498Y734D01*
X1500Y734D01*
X1500Y736D01*
X1502Y736D01*
X1502Y738D01*
X1506Y738D01*
X1506Y740D01*
X1508Y740D01*
X1508Y742D01*
X1514Y742D01*
X1514Y744D01*
X1520Y744D01*
X1520Y746D01*
X1438Y746D01*
G37*
D02*
G36*
X1538Y746D02*
X1538Y744D01*
X1546Y744D01*
X1546Y742D01*
X1550Y742D01*
X1550Y740D01*
X1554Y740D01*
X1554Y738D01*
X1558Y738D01*
X1558Y736D01*
X1560Y736D01*
X1560Y734D01*
X1562Y734D01*
X1562Y732D01*
X1564Y732D01*
X1564Y730D01*
X1566Y730D01*
X1566Y728D01*
X1568Y728D01*
X1568Y724D01*
X1570Y724D01*
X1570Y722D01*
X1590Y722D01*
X1590Y726D01*
X1592Y726D01*
X1592Y728D01*
X1594Y728D01*
X1594Y730D01*
X1596Y730D01*
X1596Y732D01*
X1598Y732D01*
X1598Y734D01*
X1600Y734D01*
X1600Y736D01*
X1602Y736D01*
X1602Y738D01*
X1606Y738D01*
X1606Y740D01*
X1608Y740D01*
X1608Y742D01*
X1614Y742D01*
X1614Y744D01*
X1620Y744D01*
X1620Y746D01*
X1538Y746D01*
G37*
D02*
G36*
X1470Y674D02*
X1470Y672D01*
X1468Y672D01*
X1468Y670D01*
X1466Y670D01*
X1466Y668D01*
X1464Y668D01*
X1464Y664D01*
X1460Y664D01*
X1460Y662D01*
X1458Y662D01*
X1458Y660D01*
X1456Y660D01*
X1456Y658D01*
X1452Y658D01*
X1452Y656D01*
X1448Y656D01*
X1448Y654D01*
X1442Y654D01*
X1442Y652D01*
X1516Y652D01*
X1516Y654D01*
X1510Y654D01*
X1510Y656D01*
X1508Y656D01*
X1508Y658D01*
X1504Y658D01*
X1504Y660D01*
X1500Y660D01*
X1500Y662D01*
X1498Y662D01*
X1498Y664D01*
X1496Y664D01*
X1496Y666D01*
X1494Y666D01*
X1494Y668D01*
X1492Y668D01*
X1492Y672D01*
X1490Y672D01*
X1490Y674D01*
X1470Y674D01*
G37*
D02*
G36*
X1570Y674D02*
X1570Y672D01*
X1568Y672D01*
X1568Y670D01*
X1566Y670D01*
X1566Y668D01*
X1564Y668D01*
X1564Y664D01*
X1560Y664D01*
X1560Y662D01*
X1558Y662D01*
X1558Y660D01*
X1556Y660D01*
X1556Y658D01*
X1552Y658D01*
X1552Y656D01*
X1548Y656D01*
X1548Y654D01*
X1542Y654D01*
X1542Y652D01*
X1616Y652D01*
X1616Y654D01*
X1610Y654D01*
X1610Y656D01*
X1608Y656D01*
X1608Y658D01*
X1604Y658D01*
X1604Y660D01*
X1600Y660D01*
X1600Y662D01*
X1598Y662D01*
X1598Y664D01*
X1596Y664D01*
X1596Y666D01*
X1594Y666D01*
X1594Y668D01*
X1592Y668D01*
X1592Y672D01*
X1590Y672D01*
X1590Y674D01*
X1570Y674D01*
G37*
D02*
G36*
X252Y652D02*
X252Y650D01*
X1808Y650D01*
X1808Y652D01*
X252Y652D01*
G37*
D02*
G36*
X252Y652D02*
X252Y650D01*
X1808Y650D01*
X1808Y652D01*
X252Y652D01*
G37*
D02*
G36*
X252Y652D02*
X252Y650D01*
X1808Y650D01*
X1808Y652D01*
X252Y652D01*
G37*
D02*
G36*
X252Y652D02*
X252Y650D01*
X1808Y650D01*
X1808Y652D01*
X252Y652D01*
G37*
D02*
G36*
X252Y650D02*
X252Y520D01*
X1808Y520D01*
X1808Y650D01*
X252Y650D01*
G37*
D02*
G36*
X40Y476D02*
X40Y474D01*
X1908Y474D01*
X1908Y476D01*
X40Y476D01*
G37*
D02*
G36*
X40Y476D02*
X40Y474D01*
X1908Y474D01*
X1908Y476D01*
X40Y476D01*
G37*
D02*
G36*
X40Y474D02*
X40Y346D01*
X1438Y346D01*
X1438Y344D01*
X1446Y344D01*
X1446Y342D01*
X1450Y342D01*
X1450Y340D01*
X1454Y340D01*
X1454Y338D01*
X1458Y338D01*
X1458Y336D01*
X1460Y336D01*
X1460Y334D01*
X1462Y334D01*
X1462Y332D01*
X1464Y332D01*
X1464Y330D01*
X1466Y330D01*
X1466Y328D01*
X1468Y328D01*
X1468Y324D01*
X1470Y324D01*
X1470Y322D01*
X1490Y322D01*
X1490Y326D01*
X1492Y326D01*
X1492Y328D01*
X1494Y328D01*
X1494Y330D01*
X1496Y330D01*
X1496Y332D01*
X1498Y332D01*
X1498Y334D01*
X1500Y334D01*
X1500Y336D01*
X1502Y336D01*
X1502Y338D01*
X1506Y338D01*
X1506Y340D01*
X1508Y340D01*
X1508Y406D01*
X1510Y406D01*
X1510Y410D01*
X1512Y410D01*
X1512Y412D01*
X1514Y412D01*
X1514Y414D01*
X1516Y414D01*
X1516Y416D01*
X1518Y416D01*
X1518Y418D01*
X1522Y418D01*
X1522Y420D01*
X1908Y420D01*
X1908Y474D01*
X40Y474D01*
G37*
D02*
G36*
X40Y346D02*
X40Y252D01*
X1416Y252D01*
X1416Y254D01*
X1410Y254D01*
X1410Y256D01*
X1408Y256D01*
X1408Y258D01*
X1404Y258D01*
X1404Y260D01*
X1400Y260D01*
X1400Y262D01*
X1398Y262D01*
X1398Y264D01*
X1396Y264D01*
X1396Y266D01*
X1394Y266D01*
X1394Y268D01*
X1392Y268D01*
X1392Y272D01*
X1390Y272D01*
X1390Y274D01*
X1388Y274D01*
X1388Y278D01*
X1386Y278D01*
X1386Y282D01*
X1384Y282D01*
X1384Y290D01*
X1382Y290D01*
X1382Y308D01*
X1384Y308D01*
X1384Y314D01*
X1386Y314D01*
X1386Y320D01*
X1388Y320D01*
X1388Y322D01*
X1390Y322D01*
X1390Y326D01*
X1392Y326D01*
X1392Y328D01*
X1394Y328D01*
X1394Y330D01*
X1396Y330D01*
X1396Y332D01*
X1398Y332D01*
X1398Y334D01*
X1400Y334D01*
X1400Y336D01*
X1402Y336D01*
X1402Y338D01*
X1406Y338D01*
X1406Y340D01*
X1408Y340D01*
X1408Y342D01*
X1414Y342D01*
X1414Y344D01*
X1420Y344D01*
X1420Y346D01*
X40Y346D01*
G37*
D02*
G36*
X1552Y346D02*
X1552Y340D01*
X1554Y340D01*
X1554Y338D01*
X1558Y338D01*
X1558Y336D01*
X1560Y336D01*
X1560Y334D01*
X1562Y334D01*
X1562Y332D01*
X1564Y332D01*
X1564Y330D01*
X1566Y330D01*
X1566Y328D01*
X1568Y328D01*
X1568Y324D01*
X1570Y324D01*
X1570Y322D01*
X1590Y322D01*
X1590Y326D01*
X1592Y326D01*
X1592Y328D01*
X1594Y328D01*
X1594Y330D01*
X1596Y330D01*
X1596Y332D01*
X1598Y332D01*
X1598Y334D01*
X1600Y334D01*
X1600Y336D01*
X1602Y336D01*
X1602Y338D01*
X1606Y338D01*
X1606Y340D01*
X1608Y340D01*
X1608Y342D01*
X1614Y342D01*
X1614Y344D01*
X1620Y344D01*
X1620Y346D01*
X1552Y346D01*
G37*
D02*
G36*
X1470Y274D02*
X1470Y272D01*
X1468Y272D01*
X1468Y270D01*
X1466Y270D01*
X1466Y268D01*
X1464Y268D01*
X1464Y264D01*
X1460Y264D01*
X1460Y262D01*
X1458Y262D01*
X1458Y260D01*
X1456Y260D01*
X1456Y258D01*
X1452Y258D01*
X1452Y256D01*
X1448Y256D01*
X1448Y254D01*
X1442Y254D01*
X1442Y252D01*
X1516Y252D01*
X1516Y254D01*
X1510Y254D01*
X1510Y256D01*
X1508Y256D01*
X1508Y258D01*
X1504Y258D01*
X1504Y260D01*
X1500Y260D01*
X1500Y262D01*
X1498Y262D01*
X1498Y264D01*
X1496Y264D01*
X1496Y266D01*
X1494Y266D01*
X1494Y268D01*
X1492Y268D01*
X1492Y272D01*
X1490Y272D01*
X1490Y274D01*
X1470Y274D01*
G37*
D02*
G36*
X1570Y274D02*
X1570Y272D01*
X1568Y272D01*
X1568Y270D01*
X1566Y270D01*
X1566Y268D01*
X1564Y268D01*
X1564Y264D01*
X1560Y264D01*
X1560Y262D01*
X1558Y262D01*
X1558Y260D01*
X1556Y260D01*
X1556Y258D01*
X1552Y258D01*
X1552Y256D01*
X1548Y256D01*
X1548Y254D01*
X1542Y254D01*
X1542Y252D01*
X1616Y252D01*
X1616Y254D01*
X1610Y254D01*
X1610Y256D01*
X1608Y256D01*
X1608Y258D01*
X1604Y258D01*
X1604Y260D01*
X1600Y260D01*
X1600Y262D01*
X1598Y262D01*
X1598Y264D01*
X1596Y264D01*
X1596Y266D01*
X1594Y266D01*
X1594Y268D01*
X1592Y268D01*
X1592Y272D01*
X1590Y272D01*
X1590Y274D01*
X1570Y274D01*
G37*
D02*
G36*
X40Y252D02*
X40Y250D01*
X2390Y250D01*
X2390Y252D01*
X40Y252D01*
G37*
D02*
G36*
X40Y252D02*
X40Y250D01*
X2390Y250D01*
X2390Y252D01*
X40Y252D01*
G37*
D02*
G36*
X40Y252D02*
X40Y250D01*
X2390Y250D01*
X2390Y252D01*
X40Y252D01*
G37*
D02*
G36*
X40Y252D02*
X40Y250D01*
X2390Y250D01*
X2390Y252D01*
X40Y252D01*
G37*
D02*
G36*
X40Y250D02*
X40Y40D01*
X2390Y40D01*
X2390Y250D01*
X40Y250D01*
G37*
D02*
G36*
X1076Y1123D02*
X1108Y1123D01*
X1108Y1078D01*
X1076Y1078D01*
X1076Y1123D01*
G37*
D02*
G36*
X1384Y920D02*
X1414Y920D01*
X1414Y881D01*
X1384Y881D01*
X1384Y920D01*
G37*
D02*
G36*
X1406Y684D02*
X1449Y684D01*
X1449Y652D01*
X1406Y652D01*
X1406Y684D01*
G37*
D02*
G36*
X1378Y722D02*
X1410Y722D01*
X1410Y679D01*
X1378Y679D01*
X1378Y722D01*
G37*
D02*
G36*
X1606Y750D02*
X1649Y750D01*
X1649Y718D01*
X1606Y718D01*
X1606Y750D01*
G37*
D02*
G36*
X1606Y684D02*
X1649Y684D01*
X1649Y652D01*
X1606Y652D01*
X1606Y684D01*
G37*
D02*
G36*
X1644Y722D02*
X1678Y722D01*
X1678Y679D01*
X1644Y679D01*
X1644Y722D01*
G37*
D02*
G36*
X1506Y750D02*
X1549Y750D01*
X1549Y718D01*
X1506Y718D01*
X1506Y750D01*
G37*
D02*
G36*
X1506Y684D02*
X1549Y684D01*
X1549Y652D01*
X1506Y652D01*
X1506Y684D01*
G37*
D02*
G36*
X1505Y1682D02*
X1550Y1682D01*
X1550Y1650D01*
X1505Y1650D01*
X1505Y1682D01*
G37*
D02*
G36*
X2203Y1682D02*
X2248Y1682D01*
X2248Y1650D01*
X2203Y1650D01*
X2203Y1682D01*
G37*
D02*
G36*
X1605Y1682D02*
X1650Y1682D01*
X1650Y1650D01*
X1605Y1650D01*
X1605Y1682D01*
G37*
D02*
G36*
X1646Y1723D02*
X1678Y1723D01*
X1678Y1678D01*
X1646Y1678D01*
X1646Y1723D01*
G37*
D02*
G36*
X2103Y1682D02*
X2148Y1682D01*
X2148Y1650D01*
X2103Y1650D01*
X2103Y1682D01*
G37*
D02*
G36*
X2005Y1682D02*
X2050Y1682D01*
X2050Y1650D01*
X2005Y1650D01*
X2005Y1682D01*
G37*
D02*
G54D15*
X1497Y931D02*
X1561Y931D01*
X1497Y930D02*
X1561Y930D01*
X1497Y929D02*
X1561Y929D01*
X1497Y928D02*
X1561Y928D01*
X1497Y927D02*
X1561Y927D01*
X1497Y926D02*
X1561Y926D01*
X1497Y925D02*
X1561Y925D01*
X1497Y924D02*
X1561Y924D01*
X1497Y923D02*
X1561Y923D01*
X1497Y922D02*
X1561Y922D01*
X1497Y921D02*
X1561Y921D01*
X1497Y920D02*
X1561Y920D01*
X1497Y919D02*
X1561Y919D01*
X1497Y918D02*
X1561Y918D01*
X1497Y917D02*
X1561Y917D01*
X1497Y916D02*
X1561Y916D01*
X1497Y915D02*
X1561Y915D01*
X1497Y914D02*
X1561Y914D01*
X1497Y913D02*
X1561Y913D01*
X1497Y912D02*
X1523Y912D01*
X1534Y912D02*
X1561Y912D01*
X1497Y911D02*
X1521Y911D01*
X1536Y911D02*
X1561Y911D01*
X1497Y910D02*
X1520Y910D01*
X1537Y910D02*
X1561Y910D01*
X1497Y909D02*
X1519Y909D01*
X1539Y909D02*
X1561Y909D01*
X1497Y908D02*
X1518Y908D01*
X1539Y908D02*
X1561Y908D01*
X1497Y907D02*
X1517Y907D01*
X1540Y907D02*
X1561Y907D01*
X1497Y906D02*
X1516Y906D01*
X1541Y906D02*
X1561Y906D01*
X1497Y905D02*
X1516Y905D01*
X1541Y905D02*
X1561Y905D01*
X1497Y904D02*
X1515Y904D01*
X1542Y904D02*
X1561Y904D01*
X1497Y903D02*
X1515Y903D01*
X1542Y903D02*
X1561Y903D01*
X1497Y902D02*
X1515Y902D01*
X1542Y902D02*
X1561Y902D01*
X1497Y901D02*
X1514Y901D01*
X1543Y901D02*
X1561Y901D01*
X1497Y900D02*
X1514Y900D01*
X1543Y900D02*
X1561Y900D01*
X1497Y899D02*
X1514Y899D01*
X1543Y899D02*
X1561Y899D01*
X1497Y898D02*
X1514Y898D01*
X1543Y898D02*
X1561Y898D01*
X1497Y897D02*
X1514Y897D01*
X1543Y897D02*
X1561Y897D01*
X1497Y896D02*
X1515Y896D01*
X1542Y896D02*
X1561Y896D01*
X1497Y895D02*
X1515Y895D01*
X1542Y895D02*
X1561Y895D01*
X1497Y894D02*
X1515Y894D01*
X1542Y894D02*
X1561Y894D01*
X1497Y893D02*
X1516Y893D01*
X1541Y893D02*
X1561Y893D01*
X1497Y892D02*
X1516Y892D01*
X1541Y892D02*
X1561Y892D01*
X1497Y891D02*
X1517Y891D01*
X1540Y891D02*
X1561Y891D01*
X1497Y890D02*
X1518Y890D01*
X1539Y890D02*
X1561Y890D01*
X1497Y889D02*
X1519Y889D01*
X1538Y889D02*
X1561Y889D01*
X1497Y888D02*
X1520Y888D01*
X1537Y888D02*
X1561Y888D01*
X1497Y887D02*
X1522Y887D01*
X1536Y887D02*
X1561Y887D01*
X1497Y886D02*
X1524Y886D01*
X1533Y886D02*
X1561Y886D01*
X1497Y885D02*
X1561Y885D01*
X1497Y884D02*
X1561Y884D01*
X1497Y883D02*
X1561Y883D01*
X1497Y882D02*
X1561Y882D01*
X1497Y881D02*
X1561Y881D01*
X1497Y880D02*
X1561Y880D01*
X1497Y879D02*
X1561Y879D01*
X1497Y878D02*
X1561Y878D01*
X1497Y877D02*
X1561Y877D01*
X1497Y876D02*
X1561Y876D01*
X1497Y875D02*
X1561Y875D01*
X1497Y874D02*
X1561Y874D01*
X1497Y873D02*
X1561Y873D01*
X1497Y872D02*
X1561Y872D01*
X1497Y871D02*
X1561Y871D01*
X1497Y870D02*
X1561Y870D01*
X1497Y869D02*
X1561Y869D01*
X1497Y868D02*
X1561Y868D01*
X1497Y867D02*
X1560Y867D01*
D02*
G04 End of Copper0*
M02*