; NON-PLATED HOLES START AT T1
; THROUGH (PLATED) HOLES START AT T100
M48
INCH
T100C0.035000
T101C0.027559
T102C0.036111
T103C0.038000
%
T100
X015295Y002985
X016295Y006985
X015295Y006985
X014295Y006985
X016295Y002985
X014295Y002985
T101
X014295Y008985
X015295Y008985
T102
X002295Y011985
X002295Y016985
X011295Y010985
X011295Y015985
X002295Y015985
X002295Y013985
X011295Y009985
X011295Y011985
X011295Y012985
X002295Y009985
X002295Y014985
X011295Y014985
X011295Y016985
X011295Y013985
X002295Y012985
X002295Y010985
T103
X022295Y016985
X021295Y016985
X016295Y017985
X014295Y017985
X015295Y016985
X015295Y017985
X016295Y016985
X020295Y017985
X014295Y016985
X020295Y016985
X021295Y017985
X022295Y017985
T00
M30
