G04 MADE WITH FRITZING*
G04 WWW.FRITZING.ORG*
G04 DOUBLE SIDED*
G04 HOLES PLATED*
G04 CONTOUR ON CENTER OF CONTOUR VECTOR*
%ASAXBY*%
%FSLAX23Y23*%
%MOIN*%
%OFA0B0*%
%SFA1.0B1.0*%
%ADD10C,0.075000*%
%ADD11C,0.077778*%
%ADD12C,0.065000*%
%ADD13C,0.078000*%
%ADD14C,0.024000*%
%ADD15R,0.001000X0.001000*%
%LNCOPPER0*%
G90*
G70*
G54D10*
X588Y2383D03*
G54D11*
X901Y1102D03*
X901Y1002D03*
X901Y902D03*
X901Y802D03*
X901Y702D03*
X901Y602D03*
X901Y502D03*
X901Y402D03*
X1801Y402D03*
X1801Y502D03*
X1801Y602D03*
X1801Y702D03*
X1801Y802D03*
X1801Y902D03*
X1801Y1002D03*
X1801Y1102D03*
G54D10*
X501Y402D03*
X501Y802D03*
X401Y402D03*
X401Y802D03*
G54D12*
X401Y1002D03*
X301Y1002D03*
G54D10*
X301Y402D03*
X301Y802D03*
G54D13*
X501Y1602D03*
X501Y1502D03*
X401Y1402D03*
X401Y1302D03*
X501Y1402D03*
X501Y1302D03*
X501Y2102D03*
X501Y2002D03*
X401Y2102D03*
X401Y2002D03*
X501Y2302D03*
X501Y2202D03*
G54D14*
X800Y1501D02*
X531Y1502D01*
D02*
X800Y1302D02*
X800Y1501D01*
D02*
X431Y1302D02*
X800Y1302D01*
D02*
X470Y1302D02*
X431Y1302D01*
D02*
X1700Y2402D02*
X101Y2402D01*
D02*
X101Y2402D02*
X101Y1702D01*
D02*
X1700Y1702D02*
X800Y1702D01*
D02*
X800Y1702D02*
X800Y1501D01*
D02*
X101Y2402D02*
X1700Y2402D01*
D02*
X800Y1501D02*
X531Y1502D01*
D02*
X1700Y2402D02*
X1700Y1702D01*
D02*
X101Y1702D02*
X101Y2402D01*
D02*
X1701Y502D02*
X1700Y1702D01*
D02*
X101Y1302D02*
X101Y1702D01*
D02*
X1700Y1702D02*
X1700Y2402D01*
D02*
X101Y1702D02*
X101Y1302D01*
D02*
X1771Y502D02*
X1701Y502D01*
D02*
X101Y1002D02*
X276Y1002D01*
D02*
X101Y1702D02*
X101Y1002D01*
D02*
X1700Y2402D02*
X101Y2402D01*
D02*
X101Y2402D02*
X101Y1702D01*
D02*
X1701Y502D02*
X1700Y1702D01*
D02*
X1700Y1702D02*
X1700Y2402D01*
D02*
X1771Y502D02*
X1701Y502D01*
D02*
X401Y802D02*
X329Y802D01*
D02*
X501Y802D02*
X429Y802D01*
D02*
X401Y1002D02*
X425Y1002D01*
D02*
X701Y402D02*
X701Y1002D01*
D02*
X701Y1002D02*
X401Y1002D01*
D02*
X871Y402D02*
X701Y402D01*
D02*
X431Y2002D02*
X470Y2002D01*
D02*
X1701Y502D02*
X1700Y1702D01*
D02*
X1700Y1702D02*
X1701Y2202D01*
D02*
X1701Y2202D02*
X531Y2202D01*
D02*
X1771Y502D02*
X1701Y502D01*
D02*
X301Y802D02*
X301Y977D01*
D02*
X372Y802D02*
X301Y802D01*
D02*
X800Y1101D02*
X801Y702D01*
D02*
X300Y1402D02*
X300Y1101D01*
D02*
X801Y702D02*
X871Y702D01*
D02*
X300Y1101D02*
X800Y1101D01*
D02*
X370Y1402D02*
X300Y1402D01*
D02*
X601Y2202D02*
X601Y2002D01*
D02*
X601Y2002D02*
X531Y2002D01*
D02*
X531Y2202D02*
X601Y2202D01*
D02*
X301Y2102D02*
X370Y2102D01*
D02*
X301Y1402D02*
X301Y2102D01*
D02*
X370Y1402D02*
X301Y1402D01*
G36*
X40Y2460D02*
X40Y2352D01*
X502Y2352D01*
X502Y2350D01*
X514Y2350D01*
X514Y2348D01*
X520Y2348D01*
X520Y2346D01*
X524Y2346D01*
X524Y2344D01*
X528Y2344D01*
X528Y2342D01*
X530Y2342D01*
X530Y2340D01*
X532Y2340D01*
X532Y2338D01*
X534Y2338D01*
X534Y2336D01*
X536Y2336D01*
X536Y2334D01*
X538Y2334D01*
X538Y2332D01*
X540Y2332D01*
X540Y2330D01*
X542Y2330D01*
X542Y2326D01*
X544Y2326D01*
X544Y2322D01*
X546Y2322D01*
X546Y2316D01*
X548Y2316D01*
X548Y2308D01*
X550Y2308D01*
X550Y2296D01*
X548Y2296D01*
X548Y2288D01*
X546Y2288D01*
X546Y2282D01*
X544Y2282D01*
X544Y2278D01*
X542Y2278D01*
X542Y2274D01*
X540Y2274D01*
X540Y2272D01*
X538Y2272D01*
X538Y2270D01*
X536Y2270D01*
X536Y2268D01*
X534Y2268D01*
X534Y2266D01*
X532Y2266D01*
X532Y2264D01*
X530Y2264D01*
X530Y2262D01*
X528Y2262D01*
X528Y2242D01*
X530Y2242D01*
X530Y2240D01*
X532Y2240D01*
X532Y2238D01*
X534Y2238D01*
X534Y2236D01*
X536Y2236D01*
X536Y2234D01*
X538Y2234D01*
X538Y2232D01*
X540Y2232D01*
X540Y2230D01*
X542Y2230D01*
X542Y2226D01*
X544Y2226D01*
X544Y2222D01*
X546Y2222D01*
X546Y2216D01*
X548Y2216D01*
X548Y2208D01*
X550Y2208D01*
X550Y2196D01*
X548Y2196D01*
X548Y2188D01*
X546Y2188D01*
X546Y2182D01*
X544Y2182D01*
X544Y2178D01*
X542Y2178D01*
X542Y2174D01*
X540Y2174D01*
X540Y2172D01*
X538Y2172D01*
X538Y2170D01*
X536Y2170D01*
X536Y2168D01*
X534Y2168D01*
X534Y2166D01*
X532Y2166D01*
X532Y2164D01*
X530Y2164D01*
X530Y2162D01*
X528Y2162D01*
X528Y2142D01*
X530Y2142D01*
X530Y2140D01*
X532Y2140D01*
X532Y2138D01*
X534Y2138D01*
X534Y2136D01*
X536Y2136D01*
X536Y2134D01*
X538Y2134D01*
X538Y2132D01*
X540Y2132D01*
X540Y2130D01*
X542Y2130D01*
X542Y2126D01*
X544Y2126D01*
X544Y2122D01*
X546Y2122D01*
X546Y2116D01*
X548Y2116D01*
X548Y2108D01*
X550Y2108D01*
X550Y2096D01*
X548Y2096D01*
X548Y2088D01*
X546Y2088D01*
X546Y2082D01*
X544Y2082D01*
X544Y2078D01*
X542Y2078D01*
X542Y2074D01*
X540Y2074D01*
X540Y2072D01*
X538Y2072D01*
X538Y2070D01*
X536Y2070D01*
X536Y2068D01*
X534Y2068D01*
X534Y2066D01*
X532Y2066D01*
X532Y2064D01*
X530Y2064D01*
X530Y2062D01*
X528Y2062D01*
X528Y2042D01*
X530Y2042D01*
X530Y2040D01*
X532Y2040D01*
X532Y2038D01*
X534Y2038D01*
X534Y2036D01*
X536Y2036D01*
X536Y2034D01*
X538Y2034D01*
X538Y2032D01*
X540Y2032D01*
X540Y2030D01*
X542Y2030D01*
X542Y2026D01*
X544Y2026D01*
X544Y2022D01*
X546Y2022D01*
X546Y2016D01*
X548Y2016D01*
X548Y2008D01*
X550Y2008D01*
X550Y1996D01*
X548Y1996D01*
X548Y1988D01*
X546Y1988D01*
X546Y1982D01*
X544Y1982D01*
X544Y1978D01*
X542Y1978D01*
X542Y1974D01*
X540Y1974D01*
X540Y1972D01*
X538Y1972D01*
X538Y1970D01*
X536Y1970D01*
X536Y1968D01*
X534Y1968D01*
X534Y1966D01*
X532Y1966D01*
X532Y1964D01*
X530Y1964D01*
X530Y1962D01*
X526Y1962D01*
X526Y1960D01*
X524Y1960D01*
X524Y1958D01*
X520Y1958D01*
X520Y1956D01*
X514Y1956D01*
X514Y1954D01*
X1958Y1954D01*
X1958Y2460D01*
X40Y2460D01*
G37*
D02*
G36*
X40Y2352D02*
X40Y2152D01*
X402Y2152D01*
X402Y2150D01*
X414Y2150D01*
X414Y2148D01*
X420Y2148D01*
X420Y2146D01*
X424Y2146D01*
X424Y2144D01*
X428Y2144D01*
X428Y2142D01*
X430Y2142D01*
X430Y2140D01*
X432Y2140D01*
X432Y2138D01*
X434Y2138D01*
X434Y2136D01*
X436Y2136D01*
X436Y2134D01*
X438Y2134D01*
X438Y2132D01*
X440Y2132D01*
X440Y2130D01*
X462Y2130D01*
X462Y2134D01*
X464Y2134D01*
X464Y2136D01*
X466Y2136D01*
X466Y2138D01*
X468Y2138D01*
X468Y2140D01*
X472Y2140D01*
X472Y2142D01*
X474Y2142D01*
X474Y2162D01*
X472Y2162D01*
X472Y2164D01*
X468Y2164D01*
X468Y2166D01*
X466Y2166D01*
X466Y2168D01*
X464Y2168D01*
X464Y2170D01*
X462Y2170D01*
X462Y2174D01*
X460Y2174D01*
X460Y2176D01*
X458Y2176D01*
X458Y2180D01*
X456Y2180D01*
X456Y2184D01*
X454Y2184D01*
X454Y2192D01*
X452Y2192D01*
X452Y2214D01*
X454Y2214D01*
X454Y2220D01*
X456Y2220D01*
X456Y2224D01*
X458Y2224D01*
X458Y2228D01*
X460Y2228D01*
X460Y2230D01*
X462Y2230D01*
X462Y2234D01*
X464Y2234D01*
X464Y2236D01*
X466Y2236D01*
X466Y2238D01*
X468Y2238D01*
X468Y2240D01*
X472Y2240D01*
X472Y2242D01*
X474Y2242D01*
X474Y2262D01*
X472Y2262D01*
X472Y2264D01*
X468Y2264D01*
X468Y2266D01*
X466Y2266D01*
X466Y2268D01*
X464Y2268D01*
X464Y2270D01*
X462Y2270D01*
X462Y2274D01*
X460Y2274D01*
X460Y2276D01*
X458Y2276D01*
X458Y2280D01*
X456Y2280D01*
X456Y2284D01*
X454Y2284D01*
X454Y2292D01*
X452Y2292D01*
X452Y2314D01*
X454Y2314D01*
X454Y2320D01*
X456Y2320D01*
X456Y2324D01*
X458Y2324D01*
X458Y2328D01*
X460Y2328D01*
X460Y2330D01*
X462Y2330D01*
X462Y2334D01*
X464Y2334D01*
X464Y2336D01*
X466Y2336D01*
X466Y2338D01*
X468Y2338D01*
X468Y2340D01*
X472Y2340D01*
X472Y2342D01*
X474Y2342D01*
X474Y2344D01*
X478Y2344D01*
X478Y2346D01*
X482Y2346D01*
X482Y2348D01*
X488Y2348D01*
X488Y2350D01*
X500Y2350D01*
X500Y2352D01*
X40Y2352D01*
G37*
D02*
G36*
X40Y2152D02*
X40Y1044D01*
X444Y1044D01*
X444Y1024D01*
X708Y1024D01*
X708Y1022D01*
X712Y1022D01*
X712Y1020D01*
X714Y1020D01*
X714Y1018D01*
X716Y1018D01*
X716Y1016D01*
X718Y1016D01*
X718Y1014D01*
X720Y1014D01*
X720Y1010D01*
X722Y1010D01*
X722Y424D01*
X858Y424D01*
X858Y428D01*
X860Y428D01*
X860Y430D01*
X862Y430D01*
X862Y432D01*
X864Y432D01*
X864Y436D01*
X866Y436D01*
X866Y438D01*
X868Y438D01*
X868Y440D01*
X872Y440D01*
X872Y442D01*
X874Y442D01*
X874Y462D01*
X872Y462D01*
X872Y464D01*
X870Y464D01*
X870Y466D01*
X866Y466D01*
X866Y468D01*
X864Y468D01*
X864Y472D01*
X862Y472D01*
X862Y474D01*
X860Y474D01*
X860Y476D01*
X858Y476D01*
X858Y480D01*
X856Y480D01*
X856Y484D01*
X854Y484D01*
X854Y492D01*
X852Y492D01*
X852Y512D01*
X854Y512D01*
X854Y520D01*
X856Y520D01*
X856Y524D01*
X858Y524D01*
X858Y528D01*
X860Y528D01*
X860Y530D01*
X862Y530D01*
X862Y532D01*
X864Y532D01*
X864Y536D01*
X866Y536D01*
X866Y538D01*
X868Y538D01*
X868Y540D01*
X872Y540D01*
X872Y542D01*
X874Y542D01*
X874Y562D01*
X872Y562D01*
X872Y564D01*
X870Y564D01*
X870Y566D01*
X866Y566D01*
X866Y568D01*
X864Y568D01*
X864Y572D01*
X862Y572D01*
X862Y574D01*
X860Y574D01*
X860Y576D01*
X858Y576D01*
X858Y580D01*
X856Y580D01*
X856Y584D01*
X854Y584D01*
X854Y592D01*
X852Y592D01*
X852Y612D01*
X854Y612D01*
X854Y620D01*
X856Y620D01*
X856Y624D01*
X858Y624D01*
X858Y628D01*
X860Y628D01*
X860Y630D01*
X862Y630D01*
X862Y632D01*
X864Y632D01*
X864Y636D01*
X866Y636D01*
X866Y638D01*
X868Y638D01*
X868Y640D01*
X872Y640D01*
X872Y642D01*
X874Y642D01*
X874Y662D01*
X872Y662D01*
X872Y664D01*
X870Y664D01*
X870Y666D01*
X866Y666D01*
X866Y668D01*
X864Y668D01*
X864Y672D01*
X862Y672D01*
X862Y674D01*
X860Y674D01*
X860Y676D01*
X858Y676D01*
X858Y680D01*
X794Y680D01*
X794Y682D01*
X790Y682D01*
X790Y684D01*
X786Y684D01*
X786Y686D01*
X784Y686D01*
X784Y688D01*
X782Y688D01*
X782Y692D01*
X780Y692D01*
X780Y698D01*
X778Y698D01*
X778Y1080D01*
X292Y1080D01*
X292Y1082D01*
X288Y1082D01*
X288Y1084D01*
X286Y1084D01*
X286Y1086D01*
X284Y1086D01*
X284Y1088D01*
X282Y1088D01*
X282Y1090D01*
X280Y1090D01*
X280Y1096D01*
X278Y1096D01*
X278Y2106D01*
X280Y2106D01*
X280Y2112D01*
X282Y2112D01*
X282Y2116D01*
X284Y2116D01*
X284Y2118D01*
X286Y2118D01*
X286Y2120D01*
X290Y2120D01*
X290Y2122D01*
X294Y2122D01*
X294Y2124D01*
X358Y2124D01*
X358Y2128D01*
X360Y2128D01*
X360Y2130D01*
X362Y2130D01*
X362Y2134D01*
X364Y2134D01*
X364Y2136D01*
X366Y2136D01*
X366Y2138D01*
X368Y2138D01*
X368Y2140D01*
X372Y2140D01*
X372Y2142D01*
X374Y2142D01*
X374Y2144D01*
X378Y2144D01*
X378Y2146D01*
X382Y2146D01*
X382Y2148D01*
X388Y2148D01*
X388Y2150D01*
X400Y2150D01*
X400Y2152D01*
X40Y2152D01*
G37*
D02*
G36*
X322Y2080D02*
X322Y1954D01*
X388Y1954D01*
X388Y1956D01*
X382Y1956D01*
X382Y1958D01*
X378Y1958D01*
X378Y1960D01*
X374Y1960D01*
X374Y1962D01*
X372Y1962D01*
X372Y1964D01*
X368Y1964D01*
X368Y1966D01*
X366Y1966D01*
X366Y1968D01*
X364Y1968D01*
X364Y1970D01*
X362Y1970D01*
X362Y1974D01*
X360Y1974D01*
X360Y1976D01*
X358Y1976D01*
X358Y1980D01*
X356Y1980D01*
X356Y1984D01*
X354Y1984D01*
X354Y1992D01*
X352Y1992D01*
X352Y2014D01*
X354Y2014D01*
X354Y2020D01*
X356Y2020D01*
X356Y2024D01*
X358Y2024D01*
X358Y2028D01*
X360Y2028D01*
X360Y2030D01*
X362Y2030D01*
X362Y2034D01*
X364Y2034D01*
X364Y2036D01*
X366Y2036D01*
X366Y2038D01*
X368Y2038D01*
X368Y2040D01*
X372Y2040D01*
X372Y2042D01*
X374Y2042D01*
X374Y2062D01*
X372Y2062D01*
X372Y2064D01*
X368Y2064D01*
X368Y2066D01*
X366Y2066D01*
X366Y2068D01*
X364Y2068D01*
X364Y2070D01*
X362Y2070D01*
X362Y2074D01*
X360Y2074D01*
X360Y2076D01*
X358Y2076D01*
X358Y2080D01*
X322Y2080D01*
G37*
D02*
G36*
X440Y1974D02*
X440Y1972D01*
X438Y1972D01*
X438Y1970D01*
X436Y1970D01*
X436Y1968D01*
X434Y1968D01*
X434Y1966D01*
X432Y1966D01*
X432Y1964D01*
X430Y1964D01*
X430Y1962D01*
X426Y1962D01*
X426Y1960D01*
X424Y1960D01*
X424Y1958D01*
X420Y1958D01*
X420Y1956D01*
X414Y1956D01*
X414Y1954D01*
X488Y1954D01*
X488Y1956D01*
X482Y1956D01*
X482Y1958D01*
X478Y1958D01*
X478Y1960D01*
X474Y1960D01*
X474Y1962D01*
X472Y1962D01*
X472Y1964D01*
X468Y1964D01*
X468Y1966D01*
X466Y1966D01*
X466Y1968D01*
X464Y1968D01*
X464Y1970D01*
X462Y1970D01*
X462Y1974D01*
X440Y1974D01*
G37*
D02*
G36*
X322Y1954D02*
X322Y1952D01*
X1958Y1952D01*
X1958Y1954D01*
X322Y1954D01*
G37*
D02*
G36*
X322Y1954D02*
X322Y1952D01*
X1958Y1952D01*
X1958Y1954D01*
X322Y1954D01*
G37*
D02*
G36*
X322Y1954D02*
X322Y1952D01*
X1958Y1952D01*
X1958Y1954D01*
X322Y1954D01*
G37*
D02*
G36*
X322Y1952D02*
X322Y1652D01*
X502Y1652D01*
X502Y1650D01*
X514Y1650D01*
X514Y1648D01*
X520Y1648D01*
X520Y1646D01*
X524Y1646D01*
X524Y1644D01*
X528Y1644D01*
X528Y1642D01*
X530Y1642D01*
X530Y1640D01*
X532Y1640D01*
X532Y1638D01*
X534Y1638D01*
X534Y1636D01*
X536Y1636D01*
X536Y1634D01*
X538Y1634D01*
X538Y1632D01*
X540Y1632D01*
X540Y1630D01*
X542Y1630D01*
X542Y1626D01*
X544Y1626D01*
X544Y1622D01*
X546Y1622D01*
X546Y1616D01*
X548Y1616D01*
X548Y1608D01*
X550Y1608D01*
X550Y1596D01*
X548Y1596D01*
X548Y1588D01*
X546Y1588D01*
X546Y1582D01*
X544Y1582D01*
X544Y1578D01*
X542Y1578D01*
X542Y1574D01*
X540Y1574D01*
X540Y1572D01*
X538Y1572D01*
X538Y1570D01*
X536Y1570D01*
X536Y1568D01*
X534Y1568D01*
X534Y1566D01*
X532Y1566D01*
X532Y1564D01*
X530Y1564D01*
X530Y1562D01*
X528Y1562D01*
X528Y1542D01*
X530Y1542D01*
X530Y1540D01*
X532Y1540D01*
X532Y1538D01*
X534Y1538D01*
X534Y1536D01*
X536Y1536D01*
X536Y1534D01*
X538Y1534D01*
X538Y1532D01*
X540Y1532D01*
X540Y1530D01*
X542Y1530D01*
X542Y1526D01*
X544Y1526D01*
X544Y1522D01*
X546Y1522D01*
X546Y1516D01*
X548Y1516D01*
X548Y1508D01*
X550Y1508D01*
X550Y1496D01*
X548Y1496D01*
X548Y1488D01*
X546Y1488D01*
X546Y1482D01*
X544Y1482D01*
X544Y1478D01*
X542Y1478D01*
X542Y1474D01*
X540Y1474D01*
X540Y1472D01*
X538Y1472D01*
X538Y1470D01*
X536Y1470D01*
X536Y1468D01*
X534Y1468D01*
X534Y1466D01*
X532Y1466D01*
X532Y1464D01*
X530Y1464D01*
X530Y1462D01*
X528Y1462D01*
X528Y1442D01*
X530Y1442D01*
X530Y1440D01*
X532Y1440D01*
X532Y1438D01*
X534Y1438D01*
X534Y1436D01*
X536Y1436D01*
X536Y1434D01*
X538Y1434D01*
X538Y1432D01*
X540Y1432D01*
X540Y1430D01*
X542Y1430D01*
X542Y1426D01*
X544Y1426D01*
X544Y1422D01*
X546Y1422D01*
X546Y1416D01*
X548Y1416D01*
X548Y1408D01*
X550Y1408D01*
X550Y1396D01*
X548Y1396D01*
X548Y1388D01*
X546Y1388D01*
X546Y1382D01*
X544Y1382D01*
X544Y1378D01*
X542Y1378D01*
X542Y1374D01*
X540Y1374D01*
X540Y1372D01*
X538Y1372D01*
X538Y1370D01*
X536Y1370D01*
X536Y1368D01*
X534Y1368D01*
X534Y1366D01*
X532Y1366D01*
X532Y1364D01*
X530Y1364D01*
X530Y1362D01*
X528Y1362D01*
X528Y1342D01*
X530Y1342D01*
X530Y1340D01*
X532Y1340D01*
X532Y1338D01*
X534Y1338D01*
X534Y1336D01*
X536Y1336D01*
X536Y1334D01*
X538Y1334D01*
X538Y1332D01*
X540Y1332D01*
X540Y1330D01*
X542Y1330D01*
X542Y1326D01*
X544Y1326D01*
X544Y1322D01*
X546Y1322D01*
X546Y1316D01*
X548Y1316D01*
X548Y1308D01*
X550Y1308D01*
X550Y1296D01*
X548Y1296D01*
X548Y1288D01*
X546Y1288D01*
X546Y1282D01*
X544Y1282D01*
X544Y1278D01*
X542Y1278D01*
X542Y1274D01*
X540Y1274D01*
X540Y1272D01*
X538Y1272D01*
X538Y1270D01*
X536Y1270D01*
X536Y1268D01*
X534Y1268D01*
X534Y1266D01*
X532Y1266D01*
X532Y1264D01*
X530Y1264D01*
X530Y1262D01*
X526Y1262D01*
X526Y1260D01*
X524Y1260D01*
X524Y1258D01*
X520Y1258D01*
X520Y1256D01*
X514Y1256D01*
X514Y1254D01*
X1958Y1254D01*
X1958Y1952D01*
X322Y1952D01*
G37*
D02*
G36*
X322Y1652D02*
X322Y1452D01*
X402Y1452D01*
X402Y1450D01*
X414Y1450D01*
X414Y1448D01*
X420Y1448D01*
X420Y1446D01*
X424Y1446D01*
X424Y1444D01*
X428Y1444D01*
X428Y1442D01*
X430Y1442D01*
X430Y1440D01*
X432Y1440D01*
X432Y1438D01*
X434Y1438D01*
X434Y1436D01*
X436Y1436D01*
X436Y1434D01*
X438Y1434D01*
X438Y1432D01*
X440Y1432D01*
X440Y1430D01*
X462Y1430D01*
X462Y1434D01*
X464Y1434D01*
X464Y1436D01*
X466Y1436D01*
X466Y1438D01*
X468Y1438D01*
X468Y1440D01*
X472Y1440D01*
X472Y1442D01*
X474Y1442D01*
X474Y1462D01*
X472Y1462D01*
X472Y1464D01*
X468Y1464D01*
X468Y1466D01*
X466Y1466D01*
X466Y1468D01*
X464Y1468D01*
X464Y1470D01*
X462Y1470D01*
X462Y1474D01*
X460Y1474D01*
X460Y1476D01*
X458Y1476D01*
X458Y1480D01*
X456Y1480D01*
X456Y1484D01*
X454Y1484D01*
X454Y1492D01*
X452Y1492D01*
X452Y1514D01*
X454Y1514D01*
X454Y1520D01*
X456Y1520D01*
X456Y1524D01*
X458Y1524D01*
X458Y1528D01*
X460Y1528D01*
X460Y1530D01*
X462Y1530D01*
X462Y1534D01*
X464Y1534D01*
X464Y1536D01*
X466Y1536D01*
X466Y1538D01*
X468Y1538D01*
X468Y1540D01*
X472Y1540D01*
X472Y1542D01*
X474Y1542D01*
X474Y1562D01*
X472Y1562D01*
X472Y1564D01*
X468Y1564D01*
X468Y1566D01*
X466Y1566D01*
X466Y1568D01*
X464Y1568D01*
X464Y1570D01*
X462Y1570D01*
X462Y1574D01*
X460Y1574D01*
X460Y1576D01*
X458Y1576D01*
X458Y1580D01*
X456Y1580D01*
X456Y1584D01*
X454Y1584D01*
X454Y1592D01*
X452Y1592D01*
X452Y1614D01*
X454Y1614D01*
X454Y1620D01*
X456Y1620D01*
X456Y1624D01*
X458Y1624D01*
X458Y1628D01*
X460Y1628D01*
X460Y1630D01*
X462Y1630D01*
X462Y1634D01*
X464Y1634D01*
X464Y1636D01*
X466Y1636D01*
X466Y1638D01*
X468Y1638D01*
X468Y1640D01*
X472Y1640D01*
X472Y1642D01*
X474Y1642D01*
X474Y1644D01*
X478Y1644D01*
X478Y1646D01*
X482Y1646D01*
X482Y1648D01*
X488Y1648D01*
X488Y1650D01*
X500Y1650D01*
X500Y1652D01*
X322Y1652D01*
G37*
D02*
G36*
X322Y1452D02*
X322Y1424D01*
X358Y1424D01*
X358Y1428D01*
X360Y1428D01*
X360Y1430D01*
X362Y1430D01*
X362Y1434D01*
X364Y1434D01*
X364Y1436D01*
X366Y1436D01*
X366Y1438D01*
X368Y1438D01*
X368Y1440D01*
X372Y1440D01*
X372Y1442D01*
X374Y1442D01*
X374Y1444D01*
X378Y1444D01*
X378Y1446D01*
X382Y1446D01*
X382Y1448D01*
X388Y1448D01*
X388Y1450D01*
X400Y1450D01*
X400Y1452D01*
X322Y1452D01*
G37*
D02*
G36*
X322Y1380D02*
X322Y1254D01*
X388Y1254D01*
X388Y1256D01*
X382Y1256D01*
X382Y1258D01*
X378Y1258D01*
X378Y1260D01*
X374Y1260D01*
X374Y1262D01*
X372Y1262D01*
X372Y1264D01*
X368Y1264D01*
X368Y1266D01*
X366Y1266D01*
X366Y1268D01*
X364Y1268D01*
X364Y1270D01*
X362Y1270D01*
X362Y1274D01*
X360Y1274D01*
X360Y1276D01*
X358Y1276D01*
X358Y1280D01*
X356Y1280D01*
X356Y1284D01*
X354Y1284D01*
X354Y1292D01*
X352Y1292D01*
X352Y1314D01*
X354Y1314D01*
X354Y1320D01*
X356Y1320D01*
X356Y1324D01*
X358Y1324D01*
X358Y1328D01*
X360Y1328D01*
X360Y1330D01*
X362Y1330D01*
X362Y1334D01*
X364Y1334D01*
X364Y1336D01*
X366Y1336D01*
X366Y1338D01*
X368Y1338D01*
X368Y1340D01*
X372Y1340D01*
X372Y1342D01*
X374Y1342D01*
X374Y1362D01*
X372Y1362D01*
X372Y1364D01*
X368Y1364D01*
X368Y1366D01*
X366Y1366D01*
X366Y1368D01*
X364Y1368D01*
X364Y1370D01*
X362Y1370D01*
X362Y1374D01*
X360Y1374D01*
X360Y1376D01*
X358Y1376D01*
X358Y1380D01*
X322Y1380D01*
G37*
D02*
G36*
X440Y1274D02*
X440Y1272D01*
X438Y1272D01*
X438Y1270D01*
X436Y1270D01*
X436Y1268D01*
X434Y1268D01*
X434Y1266D01*
X432Y1266D01*
X432Y1264D01*
X430Y1264D01*
X430Y1262D01*
X426Y1262D01*
X426Y1260D01*
X424Y1260D01*
X424Y1258D01*
X420Y1258D01*
X420Y1256D01*
X414Y1256D01*
X414Y1254D01*
X488Y1254D01*
X488Y1256D01*
X482Y1256D01*
X482Y1258D01*
X478Y1258D01*
X478Y1260D01*
X474Y1260D01*
X474Y1262D01*
X472Y1262D01*
X472Y1264D01*
X468Y1264D01*
X468Y1266D01*
X466Y1266D01*
X466Y1268D01*
X464Y1268D01*
X464Y1270D01*
X462Y1270D01*
X462Y1274D01*
X440Y1274D01*
G37*
D02*
G36*
X322Y1254D02*
X322Y1252D01*
X1958Y1252D01*
X1958Y1254D01*
X322Y1254D01*
G37*
D02*
G36*
X322Y1254D02*
X322Y1252D01*
X1958Y1252D01*
X1958Y1254D01*
X322Y1254D01*
G37*
D02*
G36*
X322Y1254D02*
X322Y1252D01*
X1958Y1252D01*
X1958Y1254D01*
X322Y1254D01*
G37*
D02*
G36*
X322Y1252D02*
X322Y1150D01*
X1814Y1150D01*
X1814Y1148D01*
X1820Y1148D01*
X1820Y1146D01*
X1824Y1146D01*
X1824Y1144D01*
X1828Y1144D01*
X1828Y1142D01*
X1830Y1142D01*
X1830Y1140D01*
X1832Y1140D01*
X1832Y1138D01*
X1834Y1138D01*
X1834Y1136D01*
X1836Y1136D01*
X1836Y1134D01*
X1838Y1134D01*
X1838Y1132D01*
X1840Y1132D01*
X1840Y1130D01*
X1842Y1130D01*
X1842Y1126D01*
X1844Y1126D01*
X1844Y1122D01*
X1846Y1122D01*
X1846Y1116D01*
X1848Y1116D01*
X1848Y1108D01*
X1850Y1108D01*
X1850Y1096D01*
X1848Y1096D01*
X1848Y1088D01*
X1846Y1088D01*
X1846Y1082D01*
X1844Y1082D01*
X1844Y1078D01*
X1842Y1078D01*
X1842Y1074D01*
X1840Y1074D01*
X1840Y1072D01*
X1838Y1072D01*
X1838Y1070D01*
X1836Y1070D01*
X1836Y1068D01*
X1834Y1068D01*
X1834Y1066D01*
X1832Y1066D01*
X1832Y1064D01*
X1830Y1064D01*
X1830Y1062D01*
X1828Y1062D01*
X1828Y1042D01*
X1830Y1042D01*
X1830Y1040D01*
X1832Y1040D01*
X1832Y1038D01*
X1834Y1038D01*
X1834Y1036D01*
X1836Y1036D01*
X1836Y1034D01*
X1838Y1034D01*
X1838Y1032D01*
X1840Y1032D01*
X1840Y1030D01*
X1842Y1030D01*
X1842Y1026D01*
X1844Y1026D01*
X1844Y1022D01*
X1846Y1022D01*
X1846Y1016D01*
X1848Y1016D01*
X1848Y1008D01*
X1850Y1008D01*
X1850Y996D01*
X1848Y996D01*
X1848Y988D01*
X1846Y988D01*
X1846Y982D01*
X1844Y982D01*
X1844Y978D01*
X1842Y978D01*
X1842Y974D01*
X1840Y974D01*
X1840Y972D01*
X1838Y972D01*
X1838Y970D01*
X1836Y970D01*
X1836Y968D01*
X1834Y968D01*
X1834Y966D01*
X1832Y966D01*
X1832Y964D01*
X1830Y964D01*
X1830Y962D01*
X1828Y962D01*
X1828Y942D01*
X1830Y942D01*
X1830Y940D01*
X1832Y940D01*
X1832Y938D01*
X1834Y938D01*
X1834Y936D01*
X1836Y936D01*
X1836Y934D01*
X1838Y934D01*
X1838Y932D01*
X1840Y932D01*
X1840Y930D01*
X1842Y930D01*
X1842Y926D01*
X1844Y926D01*
X1844Y922D01*
X1846Y922D01*
X1846Y916D01*
X1848Y916D01*
X1848Y908D01*
X1850Y908D01*
X1850Y896D01*
X1848Y896D01*
X1848Y888D01*
X1846Y888D01*
X1846Y882D01*
X1844Y882D01*
X1844Y878D01*
X1842Y878D01*
X1842Y874D01*
X1840Y874D01*
X1840Y872D01*
X1838Y872D01*
X1838Y870D01*
X1836Y870D01*
X1836Y868D01*
X1834Y868D01*
X1834Y866D01*
X1832Y866D01*
X1832Y864D01*
X1830Y864D01*
X1830Y862D01*
X1828Y862D01*
X1828Y842D01*
X1830Y842D01*
X1830Y840D01*
X1832Y840D01*
X1832Y838D01*
X1834Y838D01*
X1834Y836D01*
X1836Y836D01*
X1836Y834D01*
X1838Y834D01*
X1838Y832D01*
X1840Y832D01*
X1840Y830D01*
X1842Y830D01*
X1842Y826D01*
X1844Y826D01*
X1844Y822D01*
X1846Y822D01*
X1846Y816D01*
X1848Y816D01*
X1848Y808D01*
X1850Y808D01*
X1850Y796D01*
X1848Y796D01*
X1848Y788D01*
X1846Y788D01*
X1846Y782D01*
X1844Y782D01*
X1844Y778D01*
X1842Y778D01*
X1842Y774D01*
X1840Y774D01*
X1840Y772D01*
X1838Y772D01*
X1838Y770D01*
X1836Y770D01*
X1836Y768D01*
X1834Y768D01*
X1834Y766D01*
X1832Y766D01*
X1832Y764D01*
X1830Y764D01*
X1830Y762D01*
X1828Y762D01*
X1828Y742D01*
X1830Y742D01*
X1830Y740D01*
X1832Y740D01*
X1832Y738D01*
X1834Y738D01*
X1834Y736D01*
X1836Y736D01*
X1836Y734D01*
X1838Y734D01*
X1838Y732D01*
X1840Y732D01*
X1840Y730D01*
X1842Y730D01*
X1842Y726D01*
X1844Y726D01*
X1844Y722D01*
X1846Y722D01*
X1846Y716D01*
X1848Y716D01*
X1848Y708D01*
X1850Y708D01*
X1850Y696D01*
X1848Y696D01*
X1848Y688D01*
X1846Y688D01*
X1846Y682D01*
X1844Y682D01*
X1844Y678D01*
X1842Y678D01*
X1842Y674D01*
X1840Y674D01*
X1840Y672D01*
X1838Y672D01*
X1838Y670D01*
X1836Y670D01*
X1836Y668D01*
X1834Y668D01*
X1834Y666D01*
X1832Y666D01*
X1832Y664D01*
X1830Y664D01*
X1830Y662D01*
X1828Y662D01*
X1828Y642D01*
X1830Y642D01*
X1830Y640D01*
X1832Y640D01*
X1832Y638D01*
X1834Y638D01*
X1834Y636D01*
X1836Y636D01*
X1836Y634D01*
X1838Y634D01*
X1838Y632D01*
X1840Y632D01*
X1840Y630D01*
X1842Y630D01*
X1842Y626D01*
X1844Y626D01*
X1844Y622D01*
X1846Y622D01*
X1846Y616D01*
X1848Y616D01*
X1848Y608D01*
X1850Y608D01*
X1850Y596D01*
X1848Y596D01*
X1848Y588D01*
X1846Y588D01*
X1846Y582D01*
X1844Y582D01*
X1844Y578D01*
X1842Y578D01*
X1842Y574D01*
X1840Y574D01*
X1840Y572D01*
X1838Y572D01*
X1838Y570D01*
X1836Y570D01*
X1836Y568D01*
X1834Y568D01*
X1834Y566D01*
X1832Y566D01*
X1832Y564D01*
X1830Y564D01*
X1830Y562D01*
X1828Y562D01*
X1828Y542D01*
X1830Y542D01*
X1830Y540D01*
X1832Y540D01*
X1832Y538D01*
X1834Y538D01*
X1834Y536D01*
X1836Y536D01*
X1836Y534D01*
X1838Y534D01*
X1838Y532D01*
X1840Y532D01*
X1840Y530D01*
X1842Y530D01*
X1842Y526D01*
X1844Y526D01*
X1844Y522D01*
X1846Y522D01*
X1846Y516D01*
X1848Y516D01*
X1848Y508D01*
X1850Y508D01*
X1850Y496D01*
X1848Y496D01*
X1848Y488D01*
X1846Y488D01*
X1846Y482D01*
X1844Y482D01*
X1844Y478D01*
X1842Y478D01*
X1842Y474D01*
X1840Y474D01*
X1840Y472D01*
X1838Y472D01*
X1838Y470D01*
X1836Y470D01*
X1836Y468D01*
X1834Y468D01*
X1834Y466D01*
X1832Y466D01*
X1832Y464D01*
X1830Y464D01*
X1830Y462D01*
X1828Y462D01*
X1828Y442D01*
X1830Y442D01*
X1830Y440D01*
X1832Y440D01*
X1832Y438D01*
X1834Y438D01*
X1834Y436D01*
X1836Y436D01*
X1836Y434D01*
X1838Y434D01*
X1838Y432D01*
X1840Y432D01*
X1840Y430D01*
X1842Y430D01*
X1842Y426D01*
X1844Y426D01*
X1844Y422D01*
X1846Y422D01*
X1846Y416D01*
X1848Y416D01*
X1848Y408D01*
X1850Y408D01*
X1850Y396D01*
X1848Y396D01*
X1848Y388D01*
X1846Y388D01*
X1846Y382D01*
X1844Y382D01*
X1844Y378D01*
X1842Y378D01*
X1842Y374D01*
X1840Y374D01*
X1840Y372D01*
X1838Y372D01*
X1838Y370D01*
X1836Y370D01*
X1836Y368D01*
X1834Y368D01*
X1834Y366D01*
X1832Y366D01*
X1832Y364D01*
X1830Y364D01*
X1830Y362D01*
X1826Y362D01*
X1826Y360D01*
X1824Y360D01*
X1824Y358D01*
X1820Y358D01*
X1820Y356D01*
X1812Y356D01*
X1812Y354D01*
X1958Y354D01*
X1958Y1252D01*
X322Y1252D01*
G37*
D02*
G36*
X322Y1150D02*
X322Y1124D01*
X804Y1124D01*
X804Y1122D01*
X810Y1122D01*
X810Y1120D01*
X814Y1120D01*
X814Y1118D01*
X816Y1118D01*
X816Y1116D01*
X818Y1116D01*
X818Y1112D01*
X820Y1112D01*
X820Y1108D01*
X822Y1108D01*
X822Y724D01*
X858Y724D01*
X858Y728D01*
X860Y728D01*
X860Y730D01*
X862Y730D01*
X862Y732D01*
X864Y732D01*
X864Y736D01*
X866Y736D01*
X866Y738D01*
X868Y738D01*
X868Y740D01*
X872Y740D01*
X872Y742D01*
X874Y742D01*
X874Y762D01*
X872Y762D01*
X872Y764D01*
X870Y764D01*
X870Y766D01*
X866Y766D01*
X866Y768D01*
X864Y768D01*
X864Y772D01*
X862Y772D01*
X862Y774D01*
X860Y774D01*
X860Y776D01*
X858Y776D01*
X858Y780D01*
X856Y780D01*
X856Y784D01*
X854Y784D01*
X854Y792D01*
X852Y792D01*
X852Y812D01*
X854Y812D01*
X854Y820D01*
X856Y820D01*
X856Y824D01*
X858Y824D01*
X858Y828D01*
X860Y828D01*
X860Y830D01*
X862Y830D01*
X862Y832D01*
X864Y832D01*
X864Y836D01*
X866Y836D01*
X866Y838D01*
X868Y838D01*
X868Y840D01*
X872Y840D01*
X872Y842D01*
X874Y842D01*
X874Y862D01*
X872Y862D01*
X872Y864D01*
X870Y864D01*
X870Y866D01*
X866Y866D01*
X866Y868D01*
X864Y868D01*
X864Y872D01*
X862Y872D01*
X862Y874D01*
X860Y874D01*
X860Y876D01*
X858Y876D01*
X858Y880D01*
X856Y880D01*
X856Y884D01*
X854Y884D01*
X854Y892D01*
X852Y892D01*
X852Y912D01*
X854Y912D01*
X854Y920D01*
X856Y920D01*
X856Y924D01*
X858Y924D01*
X858Y928D01*
X860Y928D01*
X860Y930D01*
X862Y930D01*
X862Y932D01*
X864Y932D01*
X864Y936D01*
X866Y936D01*
X866Y938D01*
X868Y938D01*
X868Y940D01*
X872Y940D01*
X872Y942D01*
X874Y942D01*
X874Y962D01*
X872Y962D01*
X872Y964D01*
X870Y964D01*
X870Y966D01*
X866Y966D01*
X866Y968D01*
X864Y968D01*
X864Y972D01*
X862Y972D01*
X862Y974D01*
X860Y974D01*
X860Y976D01*
X858Y976D01*
X858Y980D01*
X856Y980D01*
X856Y984D01*
X854Y984D01*
X854Y992D01*
X852Y992D01*
X852Y1012D01*
X854Y1012D01*
X854Y1020D01*
X856Y1020D01*
X856Y1024D01*
X858Y1024D01*
X858Y1028D01*
X860Y1028D01*
X860Y1030D01*
X862Y1030D01*
X862Y1032D01*
X864Y1032D01*
X864Y1036D01*
X866Y1036D01*
X866Y1038D01*
X868Y1038D01*
X868Y1040D01*
X872Y1040D01*
X872Y1042D01*
X874Y1042D01*
X874Y1062D01*
X872Y1062D01*
X872Y1064D01*
X870Y1064D01*
X870Y1066D01*
X866Y1066D01*
X866Y1068D01*
X864Y1068D01*
X864Y1072D01*
X862Y1072D01*
X862Y1074D01*
X860Y1074D01*
X860Y1076D01*
X858Y1076D01*
X858Y1080D01*
X856Y1080D01*
X856Y1084D01*
X854Y1084D01*
X854Y1092D01*
X852Y1092D01*
X852Y1112D01*
X854Y1112D01*
X854Y1120D01*
X856Y1120D01*
X856Y1124D01*
X858Y1124D01*
X858Y1128D01*
X860Y1128D01*
X860Y1130D01*
X862Y1130D01*
X862Y1132D01*
X864Y1132D01*
X864Y1136D01*
X866Y1136D01*
X866Y1138D01*
X868Y1138D01*
X868Y1140D01*
X872Y1140D01*
X872Y1142D01*
X874Y1142D01*
X874Y1144D01*
X878Y1144D01*
X878Y1146D01*
X882Y1146D01*
X882Y1148D01*
X888Y1148D01*
X888Y1150D01*
X322Y1150D01*
G37*
D02*
G36*
X914Y1150D02*
X914Y1148D01*
X920Y1148D01*
X920Y1146D01*
X924Y1146D01*
X924Y1144D01*
X928Y1144D01*
X928Y1142D01*
X930Y1142D01*
X930Y1140D01*
X932Y1140D01*
X932Y1138D01*
X934Y1138D01*
X934Y1136D01*
X936Y1136D01*
X936Y1134D01*
X938Y1134D01*
X938Y1132D01*
X940Y1132D01*
X940Y1130D01*
X942Y1130D01*
X942Y1126D01*
X944Y1126D01*
X944Y1122D01*
X946Y1122D01*
X946Y1116D01*
X948Y1116D01*
X948Y1108D01*
X950Y1108D01*
X950Y1096D01*
X948Y1096D01*
X948Y1088D01*
X946Y1088D01*
X946Y1082D01*
X944Y1082D01*
X944Y1078D01*
X942Y1078D01*
X942Y1074D01*
X940Y1074D01*
X940Y1072D01*
X938Y1072D01*
X938Y1070D01*
X936Y1070D01*
X936Y1068D01*
X934Y1068D01*
X934Y1066D01*
X932Y1066D01*
X932Y1064D01*
X930Y1064D01*
X930Y1062D01*
X928Y1062D01*
X928Y1042D01*
X930Y1042D01*
X930Y1040D01*
X932Y1040D01*
X932Y1038D01*
X934Y1038D01*
X934Y1036D01*
X936Y1036D01*
X936Y1034D01*
X938Y1034D01*
X938Y1032D01*
X940Y1032D01*
X940Y1030D01*
X942Y1030D01*
X942Y1026D01*
X944Y1026D01*
X944Y1022D01*
X946Y1022D01*
X946Y1016D01*
X948Y1016D01*
X948Y1008D01*
X950Y1008D01*
X950Y996D01*
X948Y996D01*
X948Y988D01*
X946Y988D01*
X946Y982D01*
X944Y982D01*
X944Y978D01*
X942Y978D01*
X942Y974D01*
X940Y974D01*
X940Y972D01*
X938Y972D01*
X938Y970D01*
X936Y970D01*
X936Y968D01*
X934Y968D01*
X934Y966D01*
X932Y966D01*
X932Y964D01*
X930Y964D01*
X930Y962D01*
X928Y962D01*
X928Y942D01*
X930Y942D01*
X930Y940D01*
X932Y940D01*
X932Y938D01*
X934Y938D01*
X934Y936D01*
X936Y936D01*
X936Y934D01*
X938Y934D01*
X938Y932D01*
X940Y932D01*
X940Y930D01*
X942Y930D01*
X942Y926D01*
X944Y926D01*
X944Y922D01*
X946Y922D01*
X946Y916D01*
X948Y916D01*
X948Y908D01*
X950Y908D01*
X950Y896D01*
X948Y896D01*
X948Y888D01*
X946Y888D01*
X946Y882D01*
X944Y882D01*
X944Y878D01*
X942Y878D01*
X942Y874D01*
X940Y874D01*
X940Y872D01*
X938Y872D01*
X938Y870D01*
X936Y870D01*
X936Y868D01*
X934Y868D01*
X934Y866D01*
X932Y866D01*
X932Y864D01*
X930Y864D01*
X930Y862D01*
X928Y862D01*
X928Y842D01*
X930Y842D01*
X930Y840D01*
X932Y840D01*
X932Y838D01*
X934Y838D01*
X934Y836D01*
X936Y836D01*
X936Y834D01*
X938Y834D01*
X938Y832D01*
X940Y832D01*
X940Y830D01*
X942Y830D01*
X942Y826D01*
X944Y826D01*
X944Y822D01*
X946Y822D01*
X946Y816D01*
X948Y816D01*
X948Y808D01*
X950Y808D01*
X950Y796D01*
X948Y796D01*
X948Y788D01*
X946Y788D01*
X946Y782D01*
X944Y782D01*
X944Y778D01*
X942Y778D01*
X942Y774D01*
X940Y774D01*
X940Y772D01*
X938Y772D01*
X938Y770D01*
X936Y770D01*
X936Y768D01*
X934Y768D01*
X934Y766D01*
X932Y766D01*
X932Y764D01*
X930Y764D01*
X930Y762D01*
X928Y762D01*
X928Y742D01*
X930Y742D01*
X930Y740D01*
X932Y740D01*
X932Y738D01*
X934Y738D01*
X934Y736D01*
X936Y736D01*
X936Y734D01*
X938Y734D01*
X938Y732D01*
X940Y732D01*
X940Y730D01*
X942Y730D01*
X942Y726D01*
X944Y726D01*
X944Y722D01*
X946Y722D01*
X946Y716D01*
X948Y716D01*
X948Y708D01*
X950Y708D01*
X950Y696D01*
X948Y696D01*
X948Y688D01*
X946Y688D01*
X946Y682D01*
X944Y682D01*
X944Y678D01*
X942Y678D01*
X942Y674D01*
X940Y674D01*
X940Y672D01*
X938Y672D01*
X938Y670D01*
X936Y670D01*
X936Y668D01*
X934Y668D01*
X934Y666D01*
X932Y666D01*
X932Y664D01*
X930Y664D01*
X930Y662D01*
X928Y662D01*
X928Y642D01*
X930Y642D01*
X930Y640D01*
X932Y640D01*
X932Y638D01*
X934Y638D01*
X934Y636D01*
X936Y636D01*
X936Y634D01*
X938Y634D01*
X938Y632D01*
X940Y632D01*
X940Y630D01*
X942Y630D01*
X942Y626D01*
X944Y626D01*
X944Y622D01*
X946Y622D01*
X946Y616D01*
X948Y616D01*
X948Y608D01*
X950Y608D01*
X950Y596D01*
X948Y596D01*
X948Y588D01*
X946Y588D01*
X946Y582D01*
X944Y582D01*
X944Y578D01*
X942Y578D01*
X942Y574D01*
X940Y574D01*
X940Y572D01*
X938Y572D01*
X938Y570D01*
X936Y570D01*
X936Y568D01*
X934Y568D01*
X934Y566D01*
X932Y566D01*
X932Y564D01*
X930Y564D01*
X930Y562D01*
X928Y562D01*
X928Y542D01*
X930Y542D01*
X930Y540D01*
X932Y540D01*
X932Y538D01*
X934Y538D01*
X934Y536D01*
X936Y536D01*
X936Y534D01*
X938Y534D01*
X938Y532D01*
X940Y532D01*
X940Y530D01*
X942Y530D01*
X942Y526D01*
X944Y526D01*
X944Y522D01*
X946Y522D01*
X946Y516D01*
X948Y516D01*
X948Y508D01*
X950Y508D01*
X950Y496D01*
X948Y496D01*
X948Y488D01*
X946Y488D01*
X946Y482D01*
X944Y482D01*
X944Y478D01*
X942Y478D01*
X942Y474D01*
X940Y474D01*
X940Y472D01*
X938Y472D01*
X938Y470D01*
X936Y470D01*
X936Y468D01*
X934Y468D01*
X934Y466D01*
X932Y466D01*
X932Y464D01*
X930Y464D01*
X930Y462D01*
X928Y462D01*
X928Y442D01*
X930Y442D01*
X930Y440D01*
X932Y440D01*
X932Y438D01*
X934Y438D01*
X934Y436D01*
X936Y436D01*
X936Y434D01*
X938Y434D01*
X938Y432D01*
X940Y432D01*
X940Y430D01*
X942Y430D01*
X942Y426D01*
X944Y426D01*
X944Y422D01*
X946Y422D01*
X946Y416D01*
X948Y416D01*
X948Y408D01*
X950Y408D01*
X950Y396D01*
X948Y396D01*
X948Y388D01*
X946Y388D01*
X946Y382D01*
X944Y382D01*
X944Y378D01*
X942Y378D01*
X942Y374D01*
X940Y374D01*
X940Y372D01*
X938Y372D01*
X938Y370D01*
X936Y370D01*
X936Y368D01*
X934Y368D01*
X934Y366D01*
X932Y366D01*
X932Y364D01*
X930Y364D01*
X930Y362D01*
X926Y362D01*
X926Y360D01*
X924Y360D01*
X924Y358D01*
X920Y358D01*
X920Y356D01*
X912Y356D01*
X912Y354D01*
X1788Y354D01*
X1788Y356D01*
X1782Y356D01*
X1782Y358D01*
X1778Y358D01*
X1778Y360D01*
X1774Y360D01*
X1774Y362D01*
X1772Y362D01*
X1772Y364D01*
X1770Y364D01*
X1770Y366D01*
X1766Y366D01*
X1766Y368D01*
X1764Y368D01*
X1764Y372D01*
X1762Y372D01*
X1762Y374D01*
X1760Y374D01*
X1760Y376D01*
X1758Y376D01*
X1758Y380D01*
X1756Y380D01*
X1756Y384D01*
X1754Y384D01*
X1754Y392D01*
X1752Y392D01*
X1752Y412D01*
X1754Y412D01*
X1754Y420D01*
X1756Y420D01*
X1756Y424D01*
X1758Y424D01*
X1758Y428D01*
X1760Y428D01*
X1760Y430D01*
X1762Y430D01*
X1762Y432D01*
X1764Y432D01*
X1764Y436D01*
X1766Y436D01*
X1766Y438D01*
X1768Y438D01*
X1768Y440D01*
X1772Y440D01*
X1772Y442D01*
X1774Y442D01*
X1774Y462D01*
X1772Y462D01*
X1772Y464D01*
X1770Y464D01*
X1770Y466D01*
X1766Y466D01*
X1766Y468D01*
X1764Y468D01*
X1764Y472D01*
X1762Y472D01*
X1762Y474D01*
X1760Y474D01*
X1760Y476D01*
X1758Y476D01*
X1758Y480D01*
X1756Y480D01*
X1756Y484D01*
X1754Y484D01*
X1754Y492D01*
X1752Y492D01*
X1752Y512D01*
X1754Y512D01*
X1754Y520D01*
X1756Y520D01*
X1756Y524D01*
X1758Y524D01*
X1758Y528D01*
X1760Y528D01*
X1760Y530D01*
X1762Y530D01*
X1762Y532D01*
X1764Y532D01*
X1764Y536D01*
X1766Y536D01*
X1766Y538D01*
X1768Y538D01*
X1768Y540D01*
X1772Y540D01*
X1772Y542D01*
X1774Y542D01*
X1774Y562D01*
X1772Y562D01*
X1772Y564D01*
X1770Y564D01*
X1770Y566D01*
X1766Y566D01*
X1766Y568D01*
X1764Y568D01*
X1764Y572D01*
X1762Y572D01*
X1762Y574D01*
X1760Y574D01*
X1760Y576D01*
X1758Y576D01*
X1758Y580D01*
X1756Y580D01*
X1756Y584D01*
X1754Y584D01*
X1754Y592D01*
X1752Y592D01*
X1752Y612D01*
X1754Y612D01*
X1754Y620D01*
X1756Y620D01*
X1756Y624D01*
X1758Y624D01*
X1758Y628D01*
X1760Y628D01*
X1760Y630D01*
X1762Y630D01*
X1762Y632D01*
X1764Y632D01*
X1764Y636D01*
X1766Y636D01*
X1766Y638D01*
X1768Y638D01*
X1768Y640D01*
X1772Y640D01*
X1772Y642D01*
X1774Y642D01*
X1774Y662D01*
X1772Y662D01*
X1772Y664D01*
X1770Y664D01*
X1770Y666D01*
X1766Y666D01*
X1766Y668D01*
X1764Y668D01*
X1764Y672D01*
X1762Y672D01*
X1762Y674D01*
X1760Y674D01*
X1760Y676D01*
X1758Y676D01*
X1758Y680D01*
X1756Y680D01*
X1756Y684D01*
X1754Y684D01*
X1754Y692D01*
X1752Y692D01*
X1752Y712D01*
X1754Y712D01*
X1754Y720D01*
X1756Y720D01*
X1756Y724D01*
X1758Y724D01*
X1758Y728D01*
X1760Y728D01*
X1760Y730D01*
X1762Y730D01*
X1762Y732D01*
X1764Y732D01*
X1764Y736D01*
X1766Y736D01*
X1766Y738D01*
X1768Y738D01*
X1768Y740D01*
X1772Y740D01*
X1772Y742D01*
X1774Y742D01*
X1774Y762D01*
X1772Y762D01*
X1772Y764D01*
X1770Y764D01*
X1770Y766D01*
X1766Y766D01*
X1766Y768D01*
X1764Y768D01*
X1764Y772D01*
X1762Y772D01*
X1762Y774D01*
X1760Y774D01*
X1760Y776D01*
X1758Y776D01*
X1758Y780D01*
X1756Y780D01*
X1756Y784D01*
X1754Y784D01*
X1754Y792D01*
X1752Y792D01*
X1752Y812D01*
X1754Y812D01*
X1754Y820D01*
X1756Y820D01*
X1756Y824D01*
X1758Y824D01*
X1758Y828D01*
X1760Y828D01*
X1760Y830D01*
X1762Y830D01*
X1762Y832D01*
X1764Y832D01*
X1764Y836D01*
X1766Y836D01*
X1766Y838D01*
X1768Y838D01*
X1768Y840D01*
X1772Y840D01*
X1772Y842D01*
X1774Y842D01*
X1774Y862D01*
X1772Y862D01*
X1772Y864D01*
X1770Y864D01*
X1770Y866D01*
X1766Y866D01*
X1766Y868D01*
X1764Y868D01*
X1764Y872D01*
X1762Y872D01*
X1762Y874D01*
X1760Y874D01*
X1760Y876D01*
X1758Y876D01*
X1758Y880D01*
X1756Y880D01*
X1756Y884D01*
X1754Y884D01*
X1754Y892D01*
X1752Y892D01*
X1752Y912D01*
X1754Y912D01*
X1754Y920D01*
X1756Y920D01*
X1756Y924D01*
X1758Y924D01*
X1758Y928D01*
X1760Y928D01*
X1760Y930D01*
X1762Y930D01*
X1762Y932D01*
X1764Y932D01*
X1764Y936D01*
X1766Y936D01*
X1766Y938D01*
X1768Y938D01*
X1768Y940D01*
X1772Y940D01*
X1772Y942D01*
X1774Y942D01*
X1774Y962D01*
X1772Y962D01*
X1772Y964D01*
X1770Y964D01*
X1770Y966D01*
X1766Y966D01*
X1766Y968D01*
X1764Y968D01*
X1764Y972D01*
X1762Y972D01*
X1762Y974D01*
X1760Y974D01*
X1760Y976D01*
X1758Y976D01*
X1758Y980D01*
X1756Y980D01*
X1756Y984D01*
X1754Y984D01*
X1754Y992D01*
X1752Y992D01*
X1752Y1012D01*
X1754Y1012D01*
X1754Y1020D01*
X1756Y1020D01*
X1756Y1024D01*
X1758Y1024D01*
X1758Y1028D01*
X1760Y1028D01*
X1760Y1030D01*
X1762Y1030D01*
X1762Y1032D01*
X1764Y1032D01*
X1764Y1036D01*
X1766Y1036D01*
X1766Y1038D01*
X1768Y1038D01*
X1768Y1040D01*
X1772Y1040D01*
X1772Y1042D01*
X1774Y1042D01*
X1774Y1062D01*
X1772Y1062D01*
X1772Y1064D01*
X1770Y1064D01*
X1770Y1066D01*
X1766Y1066D01*
X1766Y1068D01*
X1764Y1068D01*
X1764Y1072D01*
X1762Y1072D01*
X1762Y1074D01*
X1760Y1074D01*
X1760Y1076D01*
X1758Y1076D01*
X1758Y1080D01*
X1756Y1080D01*
X1756Y1084D01*
X1754Y1084D01*
X1754Y1092D01*
X1752Y1092D01*
X1752Y1112D01*
X1754Y1112D01*
X1754Y1120D01*
X1756Y1120D01*
X1756Y1124D01*
X1758Y1124D01*
X1758Y1128D01*
X1760Y1128D01*
X1760Y1130D01*
X1762Y1130D01*
X1762Y1132D01*
X1764Y1132D01*
X1764Y1136D01*
X1766Y1136D01*
X1766Y1138D01*
X1768Y1138D01*
X1768Y1140D01*
X1772Y1140D01*
X1772Y1142D01*
X1774Y1142D01*
X1774Y1144D01*
X1778Y1144D01*
X1778Y1146D01*
X1782Y1146D01*
X1782Y1148D01*
X1788Y1148D01*
X1788Y1150D01*
X914Y1150D01*
G37*
D02*
G36*
X40Y1044D02*
X40Y960D01*
X290Y960D01*
X290Y962D01*
X284Y962D01*
X284Y964D01*
X280Y964D01*
X280Y966D01*
X276Y966D01*
X276Y968D01*
X274Y968D01*
X274Y970D01*
X272Y970D01*
X272Y972D01*
X270Y972D01*
X270Y974D01*
X268Y974D01*
X268Y976D01*
X266Y976D01*
X266Y980D01*
X264Y980D01*
X264Y982D01*
X262Y982D01*
X262Y986D01*
X260Y986D01*
X260Y994D01*
X258Y994D01*
X258Y1010D01*
X260Y1010D01*
X260Y1018D01*
X262Y1018D01*
X262Y1022D01*
X264Y1022D01*
X264Y1026D01*
X266Y1026D01*
X266Y1028D01*
X268Y1028D01*
X268Y1030D01*
X270Y1030D01*
X270Y1032D01*
X272Y1032D01*
X272Y1034D01*
X274Y1034D01*
X274Y1036D01*
X276Y1036D01*
X276Y1038D01*
X280Y1038D01*
X280Y1040D01*
X284Y1040D01*
X284Y1042D01*
X290Y1042D01*
X290Y1044D01*
X40Y1044D01*
G37*
D02*
G36*
X312Y1044D02*
X312Y1042D01*
X318Y1042D01*
X318Y1040D01*
X322Y1040D01*
X322Y1038D01*
X324Y1038D01*
X324Y1036D01*
X328Y1036D01*
X328Y1034D01*
X330Y1034D01*
X330Y1032D01*
X332Y1032D01*
X332Y1030D01*
X334Y1030D01*
X334Y1026D01*
X336Y1026D01*
X336Y1024D01*
X338Y1024D01*
X338Y1020D01*
X358Y1020D01*
X358Y1044D01*
X312Y1044D01*
G37*
D02*
G36*
X338Y984D02*
X338Y980D01*
X336Y980D01*
X336Y978D01*
X334Y978D01*
X334Y974D01*
X332Y974D01*
X332Y972D01*
X330Y972D01*
X330Y970D01*
X326Y970D01*
X326Y968D01*
X324Y968D01*
X324Y966D01*
X320Y966D01*
X320Y964D01*
X318Y964D01*
X318Y962D01*
X310Y962D01*
X310Y960D01*
X358Y960D01*
X358Y984D01*
X338Y984D01*
G37*
D02*
G36*
X444Y980D02*
X444Y960D01*
X678Y960D01*
X678Y980D01*
X444Y980D01*
G37*
D02*
G36*
X40Y960D02*
X40Y958D01*
X678Y958D01*
X678Y960D01*
X40Y960D01*
G37*
D02*
G36*
X40Y960D02*
X40Y958D01*
X678Y958D01*
X678Y960D01*
X40Y960D01*
G37*
D02*
G36*
X40Y960D02*
X40Y958D01*
X678Y958D01*
X678Y960D01*
X40Y960D01*
G37*
D02*
G36*
X40Y958D02*
X40Y850D01*
X508Y850D01*
X508Y848D01*
X516Y848D01*
X516Y846D01*
X520Y846D01*
X520Y844D01*
X524Y844D01*
X524Y842D01*
X528Y842D01*
X528Y840D01*
X530Y840D01*
X530Y838D01*
X532Y838D01*
X532Y836D01*
X534Y836D01*
X534Y834D01*
X536Y834D01*
X536Y832D01*
X538Y832D01*
X538Y830D01*
X540Y830D01*
X540Y826D01*
X542Y826D01*
X542Y822D01*
X544Y822D01*
X544Y818D01*
X546Y818D01*
X546Y812D01*
X548Y812D01*
X548Y792D01*
X546Y792D01*
X546Y786D01*
X544Y786D01*
X544Y782D01*
X542Y782D01*
X542Y778D01*
X540Y778D01*
X540Y774D01*
X538Y774D01*
X538Y772D01*
X536Y772D01*
X536Y770D01*
X534Y770D01*
X534Y768D01*
X532Y768D01*
X532Y766D01*
X530Y766D01*
X530Y764D01*
X528Y764D01*
X528Y762D01*
X524Y762D01*
X524Y760D01*
X520Y760D01*
X520Y758D01*
X514Y758D01*
X514Y756D01*
X506Y756D01*
X506Y754D01*
X678Y754D01*
X678Y958D01*
X40Y958D01*
G37*
D02*
G36*
X40Y850D02*
X40Y754D01*
X294Y754D01*
X294Y756D01*
X286Y756D01*
X286Y758D01*
X280Y758D01*
X280Y760D01*
X278Y760D01*
X278Y762D01*
X274Y762D01*
X274Y764D01*
X272Y764D01*
X272Y766D01*
X268Y766D01*
X268Y768D01*
X266Y768D01*
X266Y770D01*
X264Y770D01*
X264Y774D01*
X262Y774D01*
X262Y776D01*
X260Y776D01*
X260Y780D01*
X258Y780D01*
X258Y784D01*
X256Y784D01*
X256Y790D01*
X254Y790D01*
X254Y814D01*
X256Y814D01*
X256Y820D01*
X258Y820D01*
X258Y824D01*
X260Y824D01*
X260Y828D01*
X262Y828D01*
X262Y830D01*
X264Y830D01*
X264Y834D01*
X266Y834D01*
X266Y836D01*
X268Y836D01*
X268Y838D01*
X272Y838D01*
X272Y840D01*
X274Y840D01*
X274Y842D01*
X276Y842D01*
X276Y844D01*
X280Y844D01*
X280Y846D01*
X286Y846D01*
X286Y848D01*
X294Y848D01*
X294Y850D01*
X40Y850D01*
G37*
D02*
G36*
X308Y850D02*
X308Y848D01*
X316Y848D01*
X316Y846D01*
X320Y846D01*
X320Y844D01*
X324Y844D01*
X324Y842D01*
X328Y842D01*
X328Y840D01*
X330Y840D01*
X330Y838D01*
X332Y838D01*
X332Y836D01*
X334Y836D01*
X334Y834D01*
X336Y834D01*
X336Y832D01*
X338Y832D01*
X338Y830D01*
X340Y830D01*
X340Y826D01*
X360Y826D01*
X360Y828D01*
X362Y828D01*
X362Y830D01*
X364Y830D01*
X364Y834D01*
X366Y834D01*
X366Y836D01*
X368Y836D01*
X368Y838D01*
X372Y838D01*
X372Y840D01*
X374Y840D01*
X374Y842D01*
X376Y842D01*
X376Y844D01*
X380Y844D01*
X380Y846D01*
X386Y846D01*
X386Y848D01*
X394Y848D01*
X394Y850D01*
X308Y850D01*
G37*
D02*
G36*
X408Y850D02*
X408Y848D01*
X416Y848D01*
X416Y846D01*
X420Y846D01*
X420Y844D01*
X424Y844D01*
X424Y842D01*
X428Y842D01*
X428Y840D01*
X430Y840D01*
X430Y838D01*
X432Y838D01*
X432Y836D01*
X434Y836D01*
X434Y834D01*
X436Y834D01*
X436Y832D01*
X438Y832D01*
X438Y830D01*
X440Y830D01*
X440Y826D01*
X460Y826D01*
X460Y828D01*
X462Y828D01*
X462Y830D01*
X464Y830D01*
X464Y834D01*
X466Y834D01*
X466Y836D01*
X468Y836D01*
X468Y838D01*
X472Y838D01*
X472Y840D01*
X474Y840D01*
X474Y842D01*
X476Y842D01*
X476Y844D01*
X480Y844D01*
X480Y846D01*
X486Y846D01*
X486Y848D01*
X494Y848D01*
X494Y850D01*
X408Y850D01*
G37*
D02*
G36*
X340Y778D02*
X340Y774D01*
X338Y774D01*
X338Y772D01*
X336Y772D01*
X336Y770D01*
X334Y770D01*
X334Y768D01*
X332Y768D01*
X332Y766D01*
X330Y766D01*
X330Y764D01*
X328Y764D01*
X328Y762D01*
X324Y762D01*
X324Y760D01*
X320Y760D01*
X320Y758D01*
X314Y758D01*
X314Y756D01*
X306Y756D01*
X306Y754D01*
X394Y754D01*
X394Y756D01*
X386Y756D01*
X386Y758D01*
X380Y758D01*
X380Y760D01*
X378Y760D01*
X378Y762D01*
X374Y762D01*
X374Y764D01*
X372Y764D01*
X372Y766D01*
X368Y766D01*
X368Y768D01*
X366Y768D01*
X366Y770D01*
X364Y770D01*
X364Y774D01*
X362Y774D01*
X362Y776D01*
X360Y776D01*
X360Y778D01*
X340Y778D01*
G37*
D02*
G36*
X440Y778D02*
X440Y774D01*
X438Y774D01*
X438Y772D01*
X436Y772D01*
X436Y770D01*
X434Y770D01*
X434Y768D01*
X432Y768D01*
X432Y766D01*
X430Y766D01*
X430Y764D01*
X428Y764D01*
X428Y762D01*
X424Y762D01*
X424Y760D01*
X420Y760D01*
X420Y758D01*
X414Y758D01*
X414Y756D01*
X406Y756D01*
X406Y754D01*
X494Y754D01*
X494Y756D01*
X486Y756D01*
X486Y758D01*
X480Y758D01*
X480Y760D01*
X478Y760D01*
X478Y762D01*
X474Y762D01*
X474Y764D01*
X472Y764D01*
X472Y766D01*
X468Y766D01*
X468Y768D01*
X466Y768D01*
X466Y770D01*
X464Y770D01*
X464Y774D01*
X462Y774D01*
X462Y776D01*
X460Y776D01*
X460Y778D01*
X440Y778D01*
G37*
D02*
G36*
X40Y754D02*
X40Y752D01*
X678Y752D01*
X678Y754D01*
X40Y754D01*
G37*
D02*
G36*
X40Y754D02*
X40Y752D01*
X678Y752D01*
X678Y754D01*
X40Y754D01*
G37*
D02*
G36*
X40Y754D02*
X40Y752D01*
X678Y752D01*
X678Y754D01*
X40Y754D01*
G37*
D02*
G36*
X40Y754D02*
X40Y752D01*
X678Y752D01*
X678Y754D01*
X40Y754D01*
G37*
D02*
G36*
X40Y752D02*
X40Y450D01*
X508Y450D01*
X508Y448D01*
X516Y448D01*
X516Y446D01*
X520Y446D01*
X520Y444D01*
X524Y444D01*
X524Y442D01*
X528Y442D01*
X528Y440D01*
X530Y440D01*
X530Y438D01*
X532Y438D01*
X532Y436D01*
X534Y436D01*
X534Y434D01*
X536Y434D01*
X536Y432D01*
X538Y432D01*
X538Y430D01*
X540Y430D01*
X540Y426D01*
X542Y426D01*
X542Y422D01*
X544Y422D01*
X544Y418D01*
X546Y418D01*
X546Y412D01*
X548Y412D01*
X548Y392D01*
X546Y392D01*
X546Y386D01*
X544Y386D01*
X544Y382D01*
X542Y382D01*
X542Y378D01*
X540Y378D01*
X540Y374D01*
X538Y374D01*
X538Y372D01*
X536Y372D01*
X536Y370D01*
X534Y370D01*
X534Y368D01*
X532Y368D01*
X532Y366D01*
X530Y366D01*
X530Y364D01*
X528Y364D01*
X528Y362D01*
X524Y362D01*
X524Y360D01*
X520Y360D01*
X520Y358D01*
X514Y358D01*
X514Y356D01*
X506Y356D01*
X506Y354D01*
X888Y354D01*
X888Y356D01*
X882Y356D01*
X882Y358D01*
X878Y358D01*
X878Y360D01*
X874Y360D01*
X874Y362D01*
X872Y362D01*
X872Y364D01*
X870Y364D01*
X870Y366D01*
X866Y366D01*
X866Y368D01*
X864Y368D01*
X864Y372D01*
X862Y372D01*
X862Y374D01*
X860Y374D01*
X860Y376D01*
X858Y376D01*
X858Y380D01*
X694Y380D01*
X694Y382D01*
X690Y382D01*
X690Y384D01*
X686Y384D01*
X686Y386D01*
X684Y386D01*
X684Y388D01*
X682Y388D01*
X682Y392D01*
X680Y392D01*
X680Y398D01*
X678Y398D01*
X678Y752D01*
X40Y752D01*
G37*
D02*
G36*
X40Y450D02*
X40Y354D01*
X294Y354D01*
X294Y356D01*
X286Y356D01*
X286Y358D01*
X280Y358D01*
X280Y360D01*
X278Y360D01*
X278Y362D01*
X274Y362D01*
X274Y364D01*
X272Y364D01*
X272Y366D01*
X268Y366D01*
X268Y368D01*
X266Y368D01*
X266Y370D01*
X264Y370D01*
X264Y374D01*
X262Y374D01*
X262Y376D01*
X260Y376D01*
X260Y380D01*
X258Y380D01*
X258Y384D01*
X256Y384D01*
X256Y390D01*
X254Y390D01*
X254Y414D01*
X256Y414D01*
X256Y420D01*
X258Y420D01*
X258Y424D01*
X260Y424D01*
X260Y428D01*
X262Y428D01*
X262Y430D01*
X264Y430D01*
X264Y434D01*
X266Y434D01*
X266Y436D01*
X268Y436D01*
X268Y438D01*
X272Y438D01*
X272Y440D01*
X274Y440D01*
X274Y442D01*
X276Y442D01*
X276Y444D01*
X280Y444D01*
X280Y446D01*
X286Y446D01*
X286Y448D01*
X294Y448D01*
X294Y450D01*
X40Y450D01*
G37*
D02*
G36*
X308Y450D02*
X308Y448D01*
X316Y448D01*
X316Y446D01*
X320Y446D01*
X320Y444D01*
X324Y444D01*
X324Y442D01*
X328Y442D01*
X328Y440D01*
X330Y440D01*
X330Y438D01*
X332Y438D01*
X332Y436D01*
X334Y436D01*
X334Y434D01*
X336Y434D01*
X336Y432D01*
X338Y432D01*
X338Y430D01*
X340Y430D01*
X340Y426D01*
X360Y426D01*
X360Y428D01*
X362Y428D01*
X362Y430D01*
X364Y430D01*
X364Y434D01*
X366Y434D01*
X366Y436D01*
X368Y436D01*
X368Y438D01*
X372Y438D01*
X372Y440D01*
X374Y440D01*
X374Y442D01*
X376Y442D01*
X376Y444D01*
X380Y444D01*
X380Y446D01*
X386Y446D01*
X386Y448D01*
X394Y448D01*
X394Y450D01*
X308Y450D01*
G37*
D02*
G36*
X408Y450D02*
X408Y448D01*
X416Y448D01*
X416Y446D01*
X420Y446D01*
X420Y444D01*
X424Y444D01*
X424Y442D01*
X428Y442D01*
X428Y440D01*
X430Y440D01*
X430Y438D01*
X432Y438D01*
X432Y436D01*
X434Y436D01*
X434Y434D01*
X436Y434D01*
X436Y432D01*
X438Y432D01*
X438Y430D01*
X440Y430D01*
X440Y426D01*
X460Y426D01*
X460Y428D01*
X462Y428D01*
X462Y430D01*
X464Y430D01*
X464Y434D01*
X466Y434D01*
X466Y436D01*
X468Y436D01*
X468Y438D01*
X472Y438D01*
X472Y440D01*
X474Y440D01*
X474Y442D01*
X476Y442D01*
X476Y444D01*
X480Y444D01*
X480Y446D01*
X486Y446D01*
X486Y448D01*
X494Y448D01*
X494Y450D01*
X408Y450D01*
G37*
D02*
G36*
X340Y378D02*
X340Y374D01*
X338Y374D01*
X338Y372D01*
X336Y372D01*
X336Y370D01*
X334Y370D01*
X334Y368D01*
X332Y368D01*
X332Y366D01*
X330Y366D01*
X330Y364D01*
X328Y364D01*
X328Y362D01*
X324Y362D01*
X324Y360D01*
X320Y360D01*
X320Y358D01*
X314Y358D01*
X314Y356D01*
X306Y356D01*
X306Y354D01*
X394Y354D01*
X394Y356D01*
X386Y356D01*
X386Y358D01*
X380Y358D01*
X380Y360D01*
X378Y360D01*
X378Y362D01*
X374Y362D01*
X374Y364D01*
X372Y364D01*
X372Y366D01*
X368Y366D01*
X368Y368D01*
X366Y368D01*
X366Y370D01*
X364Y370D01*
X364Y374D01*
X362Y374D01*
X362Y376D01*
X360Y376D01*
X360Y378D01*
X340Y378D01*
G37*
D02*
G36*
X440Y378D02*
X440Y374D01*
X438Y374D01*
X438Y372D01*
X436Y372D01*
X436Y370D01*
X434Y370D01*
X434Y368D01*
X432Y368D01*
X432Y366D01*
X430Y366D01*
X430Y364D01*
X428Y364D01*
X428Y362D01*
X424Y362D01*
X424Y360D01*
X420Y360D01*
X420Y358D01*
X414Y358D01*
X414Y356D01*
X406Y356D01*
X406Y354D01*
X494Y354D01*
X494Y356D01*
X486Y356D01*
X486Y358D01*
X480Y358D01*
X480Y360D01*
X478Y360D01*
X478Y362D01*
X474Y362D01*
X474Y364D01*
X472Y364D01*
X472Y366D01*
X468Y366D01*
X468Y368D01*
X466Y368D01*
X466Y370D01*
X464Y370D01*
X464Y374D01*
X462Y374D01*
X462Y376D01*
X460Y376D01*
X460Y378D01*
X440Y378D01*
G37*
D02*
G36*
X40Y354D02*
X40Y352D01*
X1958Y352D01*
X1958Y354D01*
X40Y354D01*
G37*
D02*
G36*
X40Y354D02*
X40Y352D01*
X1958Y352D01*
X1958Y354D01*
X40Y354D01*
G37*
D02*
G36*
X40Y354D02*
X40Y352D01*
X1958Y352D01*
X1958Y354D01*
X40Y354D01*
G37*
D02*
G36*
X40Y354D02*
X40Y352D01*
X1958Y352D01*
X1958Y354D01*
X40Y354D01*
G37*
D02*
G36*
X40Y354D02*
X40Y352D01*
X1958Y352D01*
X1958Y354D01*
X40Y354D01*
G37*
D02*
G36*
X40Y354D02*
X40Y352D01*
X1958Y352D01*
X1958Y354D01*
X40Y354D01*
G37*
D02*
G36*
X40Y352D02*
X40Y42D01*
X1958Y42D01*
X1958Y352D01*
X40Y352D01*
G37*
D02*
G36*
X1816Y527D02*
X1850Y527D01*
X1850Y482D01*
X1816Y482D01*
X1816Y527D01*
G37*
D02*
G36*
X448Y2227D02*
X480Y2227D01*
X480Y2182D01*
X448Y2182D01*
X448Y2227D01*
G37*
D02*
G36*
X278Y788D02*
X321Y788D01*
X321Y754D01*
X278Y754D01*
X278Y788D01*
G37*
D02*
G36*
X250Y826D02*
X282Y826D01*
X282Y783D01*
X250Y783D01*
X250Y826D01*
G37*
D02*
G36*
X478Y854D02*
X521Y854D01*
X521Y822D01*
X478Y822D01*
X478Y854D01*
G37*
D02*
G36*
X478Y788D02*
X521Y788D01*
X521Y754D01*
X478Y754D01*
X478Y788D01*
G37*
D02*
G36*
X516Y826D02*
X548Y826D01*
X548Y783D01*
X516Y783D01*
X516Y826D01*
G37*
D02*
G36*
X378Y854D02*
X421Y854D01*
X421Y822D01*
X378Y822D01*
X378Y854D01*
G37*
D02*
G36*
X378Y788D02*
X421Y788D01*
X421Y754D01*
X378Y754D01*
X378Y788D01*
G37*
D02*
G36*
X477Y1986D02*
X522Y1986D01*
X522Y1954D01*
X477Y1954D01*
X477Y1986D01*
G37*
D02*
G36*
X377Y1986D02*
X422Y1986D01*
X422Y1954D01*
X377Y1954D01*
X377Y1986D01*
G37*
D02*
G36*
X448Y1527D02*
X480Y1527D01*
X480Y1482D01*
X448Y1482D01*
X448Y1527D01*
G37*
D02*
G36*
X377Y1286D02*
X422Y1286D01*
X422Y1254D01*
X377Y1254D01*
X377Y1286D01*
G37*
D02*
G36*
X477Y1286D02*
X522Y1286D01*
X522Y1254D01*
X477Y1254D01*
X477Y1286D01*
G37*
D02*
G54D15*
X368Y1035D02*
X432Y1035D01*
X368Y1034D02*
X432Y1034D01*
X368Y1033D02*
X432Y1033D01*
X368Y1032D02*
X432Y1032D01*
X368Y1031D02*
X432Y1031D01*
X368Y1030D02*
X432Y1030D01*
X368Y1029D02*
X432Y1029D01*
X368Y1028D02*
X432Y1028D01*
X368Y1027D02*
X432Y1027D01*
X368Y1026D02*
X432Y1026D01*
X368Y1025D02*
X432Y1025D01*
X368Y1024D02*
X432Y1024D01*
X368Y1023D02*
X432Y1023D01*
X368Y1022D02*
X432Y1022D01*
X368Y1021D02*
X432Y1021D01*
X368Y1020D02*
X432Y1020D01*
X368Y1019D02*
X432Y1019D01*
X368Y1018D02*
X432Y1018D01*
X368Y1017D02*
X432Y1017D01*
X368Y1016D02*
X395Y1016D01*
X405Y1016D02*
X432Y1016D01*
X368Y1015D02*
X393Y1015D01*
X407Y1015D02*
X432Y1015D01*
X368Y1014D02*
X391Y1014D01*
X409Y1014D02*
X432Y1014D01*
X368Y1013D02*
X390Y1013D01*
X410Y1013D02*
X432Y1013D01*
X368Y1012D02*
X389Y1012D01*
X411Y1012D02*
X432Y1012D01*
X368Y1011D02*
X388Y1011D01*
X412Y1011D02*
X432Y1011D01*
X368Y1010D02*
X388Y1010D01*
X412Y1010D02*
X432Y1010D01*
X368Y1009D02*
X387Y1009D01*
X413Y1009D02*
X432Y1009D01*
X368Y1008D02*
X387Y1008D01*
X413Y1008D02*
X432Y1008D01*
X368Y1007D02*
X386Y1007D01*
X414Y1007D02*
X432Y1007D01*
X368Y1006D02*
X386Y1006D01*
X414Y1006D02*
X432Y1006D01*
X368Y1005D02*
X386Y1005D01*
X414Y1005D02*
X432Y1005D01*
X368Y1004D02*
X386Y1004D01*
X414Y1004D02*
X432Y1004D01*
X368Y1003D02*
X386Y1003D01*
X414Y1003D02*
X432Y1003D01*
X368Y1002D02*
X386Y1002D01*
X414Y1002D02*
X432Y1002D01*
X368Y1001D02*
X386Y1001D01*
X414Y1001D02*
X432Y1001D01*
X368Y1000D02*
X386Y1000D01*
X414Y1000D02*
X432Y1000D01*
X368Y999D02*
X386Y999D01*
X414Y999D02*
X432Y999D01*
X368Y998D02*
X387Y998D01*
X413Y998D02*
X432Y998D01*
X368Y997D02*
X387Y997D01*
X413Y997D02*
X432Y997D01*
X368Y996D02*
X388Y996D01*
X412Y996D02*
X432Y996D01*
X368Y995D02*
X388Y995D01*
X412Y995D02*
X432Y995D01*
X368Y994D02*
X389Y994D01*
X411Y994D02*
X432Y994D01*
X368Y993D02*
X390Y993D01*
X410Y993D02*
X432Y993D01*
X368Y992D02*
X391Y992D01*
X409Y992D02*
X432Y992D01*
X368Y991D02*
X393Y991D01*
X407Y991D02*
X432Y991D01*
X368Y990D02*
X395Y990D01*
X405Y990D02*
X432Y990D01*
X368Y989D02*
X432Y989D01*
X368Y988D02*
X432Y988D01*
X368Y987D02*
X432Y987D01*
X368Y986D02*
X432Y986D01*
X368Y985D02*
X432Y985D01*
X368Y984D02*
X432Y984D01*
X368Y983D02*
X432Y983D01*
X368Y982D02*
X432Y982D01*
X368Y981D02*
X432Y981D01*
X368Y980D02*
X432Y980D01*
X368Y979D02*
X432Y979D01*
X368Y978D02*
X432Y978D01*
X368Y977D02*
X432Y977D01*
X368Y976D02*
X432Y976D01*
X368Y975D02*
X432Y975D01*
X368Y974D02*
X432Y974D01*
X368Y973D02*
X432Y973D01*
X368Y972D02*
X432Y972D01*
X368Y971D02*
X432Y971D01*
D02*
G04 End of Copper0*
M02*