G04 MADE WITH FRITZING*
G04 WWW.FRITZING.ORG*
G04 DOUBLE SIDED*
G04 HOLES PLATED*
G04 CONTOUR ON CENTER OF CONTOUR VECTOR*
%ASAXBY*%
%FSLAX23Y23*%
%MOIN*%
%OFA0B0*%
%SFA1.0B1.0*%
%ADD10C,0.087778*%
%ADD11C,0.085000*%
%ADD12C,0.075000*%
%ADD13C,0.088000*%
%ADD14R,0.001000X0.001000*%
%LNMASK0*%
G90*
G70*
G54D10*
X230Y1699D03*
X230Y1599D03*
X230Y1499D03*
X230Y1399D03*
X230Y1299D03*
X230Y1199D03*
X230Y1099D03*
X230Y999D03*
X1130Y999D03*
X1130Y1099D03*
X1130Y1199D03*
X1130Y1299D03*
X1130Y1399D03*
X1130Y1499D03*
X1130Y1599D03*
X1130Y1699D03*
G54D11*
X1630Y299D03*
X1630Y699D03*
X1630Y299D03*
X1630Y699D03*
X1530Y699D03*
X1530Y299D03*
X1530Y699D03*
X1530Y299D03*
G54D12*
X1530Y899D03*
X1430Y899D03*
G54D11*
X1430Y699D03*
X1430Y299D03*
X1430Y699D03*
X1430Y299D03*
G54D13*
X2230Y1799D03*
X2230Y1699D03*
X1530Y1799D03*
X1530Y1699D03*
X1430Y1799D03*
X1430Y1699D03*
X1630Y1799D03*
X1630Y1699D03*
X2130Y1799D03*
X2130Y1699D03*
X2030Y1799D03*
X2030Y1699D03*
G54D14*
X1492Y936D02*
X1566Y936D01*
X1492Y935D02*
X1566Y935D01*
X1492Y934D02*
X1566Y934D01*
X1492Y933D02*
X1566Y933D01*
X1492Y932D02*
X1566Y932D01*
X1492Y931D02*
X1566Y931D01*
X1492Y930D02*
X1566Y930D01*
X1492Y929D02*
X1566Y929D01*
X1492Y928D02*
X1566Y928D01*
X1492Y927D02*
X1566Y927D01*
X1492Y926D02*
X1566Y926D01*
X1492Y925D02*
X1566Y925D01*
X1492Y924D02*
X1566Y924D01*
X1492Y923D02*
X1566Y923D01*
X1492Y922D02*
X1566Y922D01*
X1492Y921D02*
X1566Y921D01*
X1492Y920D02*
X1566Y920D01*
X1492Y919D02*
X1566Y919D01*
X1492Y918D02*
X1566Y918D01*
X1492Y917D02*
X1566Y917D01*
X1492Y916D02*
X1566Y916D01*
X1492Y915D02*
X1566Y915D01*
X1492Y914D02*
X1566Y914D01*
X1492Y913D02*
X1566Y913D01*
X1492Y912D02*
X1566Y912D01*
X1492Y911D02*
X1566Y911D01*
X1492Y910D02*
X1566Y910D01*
X1492Y909D02*
X1566Y909D01*
X1492Y908D02*
X1566Y908D01*
X1492Y907D02*
X1524Y907D01*
X1533Y907D02*
X1566Y907D01*
X1492Y906D02*
X1523Y906D01*
X1534Y906D02*
X1566Y906D01*
X1492Y905D02*
X1522Y905D01*
X1535Y905D02*
X1566Y905D01*
X1492Y904D02*
X1521Y904D01*
X1536Y904D02*
X1566Y904D01*
X1492Y903D02*
X1520Y903D01*
X1537Y903D02*
X1566Y903D01*
X1492Y902D02*
X1520Y902D01*
X1537Y902D02*
X1566Y902D01*
X1492Y901D02*
X1519Y901D01*
X1538Y901D02*
X1566Y901D01*
X1492Y900D02*
X1519Y900D01*
X1538Y900D02*
X1566Y900D01*
X1492Y899D02*
X1519Y899D01*
X1538Y899D02*
X1566Y899D01*
X1492Y898D02*
X1519Y898D01*
X1538Y898D02*
X1566Y898D01*
X1492Y897D02*
X1519Y897D01*
X1538Y897D02*
X1566Y897D01*
X1492Y896D02*
X1520Y896D01*
X1537Y896D02*
X1566Y896D01*
X1492Y895D02*
X1520Y895D01*
X1537Y895D02*
X1566Y895D01*
X1492Y894D02*
X1521Y894D01*
X1536Y894D02*
X1566Y894D01*
X1492Y893D02*
X1522Y893D01*
X1535Y893D02*
X1566Y893D01*
X1492Y892D02*
X1523Y892D01*
X1534Y892D02*
X1566Y892D01*
X1492Y891D02*
X1524Y891D01*
X1533Y891D02*
X1566Y891D01*
X1492Y890D02*
X1566Y890D01*
X1492Y889D02*
X1566Y889D01*
X1492Y888D02*
X1566Y888D01*
X1492Y887D02*
X1566Y887D01*
X1492Y886D02*
X1566Y886D01*
X1492Y885D02*
X1566Y885D01*
X1492Y884D02*
X1566Y884D01*
X1492Y883D02*
X1566Y883D01*
X1492Y882D02*
X1566Y882D01*
X1492Y881D02*
X1566Y881D01*
X1492Y880D02*
X1566Y880D01*
X1492Y879D02*
X1566Y879D01*
X1492Y878D02*
X1566Y878D01*
X1492Y877D02*
X1566Y877D01*
X1492Y876D02*
X1566Y876D01*
X1492Y875D02*
X1566Y875D01*
X1492Y874D02*
X1566Y874D01*
X1492Y873D02*
X1566Y873D01*
X1492Y872D02*
X1566Y872D01*
X1492Y871D02*
X1566Y871D01*
X1492Y870D02*
X1566Y870D01*
X1492Y869D02*
X1566Y869D01*
X1492Y868D02*
X1566Y868D01*
X1492Y867D02*
X1566Y867D01*
X1492Y866D02*
X1566Y866D01*
X1492Y865D02*
X1566Y865D01*
X1492Y864D02*
X1566Y864D01*
X1492Y863D02*
X1566Y863D01*
X1492Y862D02*
X1565Y862D01*
D02*
G04 End of Mask0*
M02*