; NON-PLATED HOLES START AT T1
; THROUGH (PLATED) HOLES START AT T100
M48
INCH
T100C0.035000
T101C0.027559
T102C0.036111
T103C0.038000
%
T100
X003005Y008018
X005005Y008018
X004005Y004018
X003005Y004018
X005005Y004018
X004005Y008018
T101
X004005Y010018
X003005Y010018
T102
X018005Y011018
X009005Y010018
X018005Y008018
X009005Y005018
X009005Y007018
X018005Y006018
X009005Y008018
X009005Y004018
X018005Y007018
X018005Y009018
X018005Y004018
X009005Y006018
X018005Y010018
X018005Y005018
X009005Y011018
X009005Y009018
T103
X005005Y014018
X005005Y015018
X004005Y021018
X004005Y014018
X005005Y023018
X005005Y021018
X005005Y022018
X004005Y020018
X005005Y020018
X004005Y013018
X005005Y016018
X005005Y013018
T00
M30
