; NON-PLATED HOLES START AT T1
; THROUGH (PLATED) HOLES START AT T100
M48
INCH
T100C0.035000
T101C0.027559
T102C0.015748
T103C0.036111
T104C0.038000
%
T100
X008539Y005594
X006539Y014594
X006539Y008594
X006539Y012594
X007539Y001594
X007539Y005594
X008539Y001594
X006539Y005594
X005539Y014594
X005539Y001594
X007539Y014594
X005539Y005594
X006539Y001594
T101
X010539Y001594
X010539Y002594
T102
X010539Y009594
X000539Y013594
X008539Y013594
X010539Y005594
X003539Y014594
X009539Y002594
X010539Y006594
X010539Y007594
X005539Y007594
T103
X011539Y008594
X011539Y006594
X020539Y007594
X020539Y009594
X020539Y010594
X020539Y011594
X011539Y011594
X011539Y009594
X011539Y010594
X020539Y005594
X020539Y004594
X020539Y006594
X011539Y005594
X020539Y008594
X011539Y007594
X011539Y004594
T104
X002539Y014594
X002539Y002594
X001539Y013594
X001539Y014594
X001539Y003594
X002539Y012594
X001539Y002594
X001539Y012594
X002539Y001594
X001539Y001594
X002539Y013594
X001539Y011594
X002539Y011594
X002539Y004594
X001539Y004594
X002539Y003594
T00
M30
