G04 MADE WITH FRITZING*
G04 WWW.FRITZING.ORG*
G04 DOUBLE SIDED*
G04 HOLES PLATED*
G04 CONTOUR ON CENTER OF CONTOUR VECTOR*
%ASAXBY*%
%FSLAX23Y23*%
%MOIN*%
%OFA0B0*%
%SFA1.0B1.0*%
%ADD10C,0.087778*%
%ADD11C,0.088000*%
%ADD12C,0.085000*%
%ADD13C,0.075000*%
%ADD14C,0.049370*%
%ADD15R,0.001000X0.001000*%
%LNMASK0*%
G90*
G70*
G54D10*
X1154Y1159D03*
X1154Y1059D03*
X1154Y959D03*
X1154Y859D03*
X1154Y759D03*
X1154Y659D03*
X1154Y559D03*
X1154Y459D03*
X2054Y459D03*
X2054Y559D03*
X2054Y659D03*
X2054Y759D03*
X2054Y859D03*
X2054Y959D03*
X2054Y1059D03*
X2054Y1159D03*
G54D11*
X154Y459D03*
X154Y359D03*
X154Y259D03*
X154Y159D03*
X154Y459D03*
X154Y359D03*
X154Y259D03*
X154Y159D03*
X254Y159D03*
X254Y259D03*
X254Y359D03*
X254Y459D03*
X154Y1459D03*
X154Y1359D03*
X154Y1259D03*
X154Y1159D03*
X154Y1459D03*
X154Y1359D03*
X154Y1259D03*
X154Y1159D03*
X254Y1159D03*
X254Y1259D03*
X254Y1359D03*
X254Y1459D03*
G54D12*
X754Y559D03*
X754Y159D03*
X654Y559D03*
X654Y159D03*
X554Y559D03*
X554Y159D03*
X854Y559D03*
X854Y159D03*
G54D13*
X1054Y159D03*
X1054Y259D03*
G54D12*
X654Y859D03*
X654Y1259D03*
G54D14*
X954Y259D03*
X854Y1359D03*
X354Y1459D03*
G54D12*
X554Y1459D03*
X654Y1459D03*
X754Y1459D03*
G54D14*
X1054Y959D03*
X1054Y559D03*
X1054Y659D03*
X1054Y759D03*
X554Y759D03*
X54Y1359D03*
G54D15*
X1016Y298D02*
X1090Y298D01*
X1016Y297D02*
X1090Y297D01*
X1016Y296D02*
X1090Y296D01*
X1016Y295D02*
X1090Y295D01*
X1016Y294D02*
X1090Y294D01*
X1016Y293D02*
X1090Y293D01*
X1016Y292D02*
X1090Y292D01*
X1016Y291D02*
X1090Y291D01*
X1016Y290D02*
X1090Y290D01*
X1016Y289D02*
X1090Y289D01*
X1016Y288D02*
X1090Y288D01*
X1016Y287D02*
X1090Y287D01*
X1016Y286D02*
X1090Y286D01*
X1016Y285D02*
X1090Y285D01*
X1016Y284D02*
X1090Y284D01*
X1016Y283D02*
X1090Y283D01*
X1016Y282D02*
X1090Y282D01*
X1016Y281D02*
X1090Y281D01*
X1016Y280D02*
X1090Y280D01*
X1016Y279D02*
X1090Y279D01*
X1016Y278D02*
X1090Y278D01*
X1016Y277D02*
X1090Y277D01*
X1016Y276D02*
X1090Y276D01*
X1016Y275D02*
X1090Y275D01*
X1016Y274D02*
X1090Y274D01*
X1016Y273D02*
X1090Y273D01*
X1016Y272D02*
X1090Y272D01*
X1016Y271D02*
X1090Y271D01*
X1016Y270D02*
X1090Y270D01*
X1016Y269D02*
X1049Y269D01*
X1057Y269D02*
X1090Y269D01*
X1016Y268D02*
X1048Y268D01*
X1059Y268D02*
X1090Y268D01*
X1016Y267D02*
X1046Y267D01*
X1060Y267D02*
X1090Y267D01*
X1016Y266D02*
X1046Y266D01*
X1061Y266D02*
X1090Y266D01*
X1016Y265D02*
X1045Y265D01*
X1062Y265D02*
X1090Y265D01*
X1016Y264D02*
X1045Y264D01*
X1062Y264D02*
X1090Y264D01*
X1016Y263D02*
X1044Y263D01*
X1062Y263D02*
X1090Y263D01*
X1016Y262D02*
X1044Y262D01*
X1063Y262D02*
X1090Y262D01*
X1016Y261D02*
X1044Y261D01*
X1063Y261D02*
X1090Y261D01*
X1016Y260D02*
X1044Y260D01*
X1063Y260D02*
X1090Y260D01*
X1016Y259D02*
X1044Y259D01*
X1063Y259D02*
X1090Y259D01*
X1016Y258D02*
X1044Y258D01*
X1062Y258D02*
X1090Y258D01*
X1016Y257D02*
X1045Y257D01*
X1062Y257D02*
X1090Y257D01*
X1016Y256D02*
X1046Y256D01*
X1061Y256D02*
X1090Y256D01*
X1016Y255D02*
X1046Y255D01*
X1060Y255D02*
X1090Y255D01*
X1016Y254D02*
X1047Y254D01*
X1059Y254D02*
X1090Y254D01*
X1016Y253D02*
X1049Y253D01*
X1058Y253D02*
X1090Y253D01*
X1016Y252D02*
X1090Y252D01*
X1016Y251D02*
X1090Y251D01*
X1016Y250D02*
X1090Y250D01*
X1016Y249D02*
X1090Y249D01*
X1016Y248D02*
X1090Y248D01*
X1016Y247D02*
X1090Y247D01*
X1016Y246D02*
X1090Y246D01*
X1016Y245D02*
X1090Y245D01*
X1016Y244D02*
X1090Y244D01*
X1016Y243D02*
X1090Y243D01*
X1016Y242D02*
X1090Y242D01*
X1016Y241D02*
X1090Y241D01*
X1016Y240D02*
X1090Y240D01*
X1016Y239D02*
X1090Y239D01*
X1016Y238D02*
X1090Y238D01*
X1016Y237D02*
X1090Y237D01*
X1016Y236D02*
X1090Y236D01*
X1016Y235D02*
X1090Y235D01*
X1016Y234D02*
X1090Y234D01*
X1016Y233D02*
X1090Y233D01*
X1016Y232D02*
X1090Y232D01*
X1016Y231D02*
X1090Y231D01*
X1016Y230D02*
X1090Y230D01*
X1016Y229D02*
X1090Y229D01*
X1016Y228D02*
X1090Y228D01*
X1016Y227D02*
X1090Y227D01*
X1016Y226D02*
X1090Y226D01*
X1016Y225D02*
X1090Y225D01*
X1016Y224D02*
X1090Y224D01*
D02*
G04 End of Mask0*
M02*