G04 MADE WITH FRITZING*
G04 WWW.FRITZING.ORG*
G04 DOUBLE SIDED*
G04 HOLES PLATED*
G04 CONTOUR ON CENTER OF CONTOUR VECTOR*
%ASAXBY*%
%FSLAX23Y23*%
%MOIN*%
%OFA0B0*%
%SFA1.0B1.0*%
%ADD10C,0.010000*%
%ADD11R,0.001000X0.001000*%
%LNSILK0*%
G90*
G70*
G54D10*
X1663Y408D02*
X1663Y608D01*
D02*
X1663Y608D02*
X1597Y608D01*
D02*
X1597Y608D02*
X1597Y408D01*
D02*
X1597Y408D02*
X1663Y408D01*
G54D11*
X0Y2094D02*
X2430Y2094D01*
X0Y2093D02*
X2430Y2093D01*
X0Y2092D02*
X2430Y2092D01*
X0Y2091D02*
X2430Y2091D01*
X0Y2090D02*
X2430Y2090D01*
X0Y2089D02*
X2430Y2089D01*
X0Y2088D02*
X2430Y2088D01*
X0Y2087D02*
X2430Y2087D01*
X0Y2086D02*
X7Y2086D01*
X2423Y2086D02*
X2430Y2086D01*
X0Y2085D02*
X7Y2085D01*
X2423Y2085D02*
X2430Y2085D01*
X0Y2084D02*
X7Y2084D01*
X2423Y2084D02*
X2430Y2084D01*
X0Y2083D02*
X7Y2083D01*
X2423Y2083D02*
X2430Y2083D01*
X0Y2082D02*
X7Y2082D01*
X2423Y2082D02*
X2430Y2082D01*
X0Y2081D02*
X7Y2081D01*
X2423Y2081D02*
X2430Y2081D01*
X0Y2080D02*
X7Y2080D01*
X2423Y2080D02*
X2430Y2080D01*
X0Y2079D02*
X7Y2079D01*
X2423Y2079D02*
X2430Y2079D01*
X0Y2078D02*
X7Y2078D01*
X2423Y2078D02*
X2430Y2078D01*
X0Y2077D02*
X7Y2077D01*
X2423Y2077D02*
X2430Y2077D01*
X0Y2076D02*
X7Y2076D01*
X2423Y2076D02*
X2430Y2076D01*
X0Y2075D02*
X7Y2075D01*
X2423Y2075D02*
X2430Y2075D01*
X0Y2074D02*
X7Y2074D01*
X2423Y2074D02*
X2430Y2074D01*
X0Y2073D02*
X7Y2073D01*
X2423Y2073D02*
X2430Y2073D01*
X0Y2072D02*
X7Y2072D01*
X2423Y2072D02*
X2430Y2072D01*
X0Y2071D02*
X7Y2071D01*
X2423Y2071D02*
X2430Y2071D01*
X0Y2070D02*
X7Y2070D01*
X2423Y2070D02*
X2430Y2070D01*
X0Y2069D02*
X7Y2069D01*
X2423Y2069D02*
X2430Y2069D01*
X0Y2068D02*
X7Y2068D01*
X2423Y2068D02*
X2430Y2068D01*
X0Y2067D02*
X7Y2067D01*
X2423Y2067D02*
X2430Y2067D01*
X0Y2066D02*
X7Y2066D01*
X2423Y2066D02*
X2430Y2066D01*
X0Y2065D02*
X7Y2065D01*
X2423Y2065D02*
X2430Y2065D01*
X0Y2064D02*
X7Y2064D01*
X2423Y2064D02*
X2430Y2064D01*
X0Y2063D02*
X7Y2063D01*
X2423Y2063D02*
X2430Y2063D01*
X0Y2062D02*
X7Y2062D01*
X2423Y2062D02*
X2430Y2062D01*
X0Y2061D02*
X7Y2061D01*
X2423Y2061D02*
X2430Y2061D01*
X0Y2060D02*
X7Y2060D01*
X2423Y2060D02*
X2430Y2060D01*
X0Y2059D02*
X7Y2059D01*
X2423Y2059D02*
X2430Y2059D01*
X0Y2058D02*
X7Y2058D01*
X2423Y2058D02*
X2430Y2058D01*
X0Y2057D02*
X7Y2057D01*
X2423Y2057D02*
X2430Y2057D01*
X0Y2056D02*
X7Y2056D01*
X2423Y2056D02*
X2430Y2056D01*
X0Y2055D02*
X7Y2055D01*
X2423Y2055D02*
X2430Y2055D01*
X0Y2054D02*
X7Y2054D01*
X2423Y2054D02*
X2430Y2054D01*
X0Y2053D02*
X7Y2053D01*
X2423Y2053D02*
X2430Y2053D01*
X0Y2052D02*
X7Y2052D01*
X2423Y2052D02*
X2430Y2052D01*
X0Y2051D02*
X7Y2051D01*
X2423Y2051D02*
X2430Y2051D01*
X0Y2050D02*
X7Y2050D01*
X2423Y2050D02*
X2430Y2050D01*
X0Y2049D02*
X7Y2049D01*
X2423Y2049D02*
X2430Y2049D01*
X0Y2048D02*
X7Y2048D01*
X2423Y2048D02*
X2430Y2048D01*
X0Y2047D02*
X7Y2047D01*
X2423Y2047D02*
X2430Y2047D01*
X0Y2046D02*
X7Y2046D01*
X2423Y2046D02*
X2430Y2046D01*
X0Y2045D02*
X7Y2045D01*
X2423Y2045D02*
X2430Y2045D01*
X0Y2044D02*
X7Y2044D01*
X2423Y2044D02*
X2430Y2044D01*
X0Y2043D02*
X7Y2043D01*
X2423Y2043D02*
X2430Y2043D01*
X0Y2042D02*
X7Y2042D01*
X2423Y2042D02*
X2430Y2042D01*
X0Y2041D02*
X7Y2041D01*
X2423Y2041D02*
X2430Y2041D01*
X0Y2040D02*
X7Y2040D01*
X2423Y2040D02*
X2430Y2040D01*
X0Y2039D02*
X7Y2039D01*
X2423Y2039D02*
X2430Y2039D01*
X0Y2038D02*
X7Y2038D01*
X2423Y2038D02*
X2430Y2038D01*
X0Y2037D02*
X7Y2037D01*
X2423Y2037D02*
X2430Y2037D01*
X0Y2036D02*
X7Y2036D01*
X2423Y2036D02*
X2430Y2036D01*
X0Y2035D02*
X7Y2035D01*
X2423Y2035D02*
X2430Y2035D01*
X0Y2034D02*
X7Y2034D01*
X2423Y2034D02*
X2430Y2034D01*
X0Y2033D02*
X7Y2033D01*
X2423Y2033D02*
X2430Y2033D01*
X0Y2032D02*
X7Y2032D01*
X2423Y2032D02*
X2430Y2032D01*
X0Y2031D02*
X7Y2031D01*
X2423Y2031D02*
X2430Y2031D01*
X0Y2030D02*
X7Y2030D01*
X2423Y2030D02*
X2430Y2030D01*
X0Y2029D02*
X7Y2029D01*
X2423Y2029D02*
X2430Y2029D01*
X0Y2028D02*
X7Y2028D01*
X2423Y2028D02*
X2430Y2028D01*
X0Y2027D02*
X7Y2027D01*
X2423Y2027D02*
X2430Y2027D01*
X0Y2026D02*
X7Y2026D01*
X2423Y2026D02*
X2430Y2026D01*
X0Y2025D02*
X7Y2025D01*
X2423Y2025D02*
X2430Y2025D01*
X0Y2024D02*
X7Y2024D01*
X2423Y2024D02*
X2430Y2024D01*
X0Y2023D02*
X7Y2023D01*
X2423Y2023D02*
X2430Y2023D01*
X0Y2022D02*
X7Y2022D01*
X2423Y2022D02*
X2430Y2022D01*
X0Y2021D02*
X7Y2021D01*
X2423Y2021D02*
X2430Y2021D01*
X0Y2020D02*
X7Y2020D01*
X2423Y2020D02*
X2430Y2020D01*
X0Y2019D02*
X7Y2019D01*
X2423Y2019D02*
X2430Y2019D01*
X0Y2018D02*
X7Y2018D01*
X2423Y2018D02*
X2430Y2018D01*
X0Y2017D02*
X7Y2017D01*
X2423Y2017D02*
X2430Y2017D01*
X0Y2016D02*
X7Y2016D01*
X2423Y2016D02*
X2430Y2016D01*
X0Y2015D02*
X7Y2015D01*
X2423Y2015D02*
X2430Y2015D01*
X0Y2014D02*
X7Y2014D01*
X2423Y2014D02*
X2430Y2014D01*
X0Y2013D02*
X7Y2013D01*
X2423Y2013D02*
X2430Y2013D01*
X0Y2012D02*
X7Y2012D01*
X2423Y2012D02*
X2430Y2012D01*
X0Y2011D02*
X7Y2011D01*
X2423Y2011D02*
X2430Y2011D01*
X0Y2010D02*
X7Y2010D01*
X2423Y2010D02*
X2430Y2010D01*
X0Y2009D02*
X7Y2009D01*
X2423Y2009D02*
X2430Y2009D01*
X0Y2008D02*
X7Y2008D01*
X2423Y2008D02*
X2430Y2008D01*
X0Y2007D02*
X7Y2007D01*
X2423Y2007D02*
X2430Y2007D01*
X0Y2006D02*
X7Y2006D01*
X2423Y2006D02*
X2430Y2006D01*
X0Y2005D02*
X7Y2005D01*
X2423Y2005D02*
X2430Y2005D01*
X0Y2004D02*
X7Y2004D01*
X2423Y2004D02*
X2430Y2004D01*
X0Y2003D02*
X7Y2003D01*
X2423Y2003D02*
X2430Y2003D01*
X0Y2002D02*
X7Y2002D01*
X2423Y2002D02*
X2430Y2002D01*
X0Y2001D02*
X7Y2001D01*
X2423Y2001D02*
X2430Y2001D01*
X0Y2000D02*
X7Y2000D01*
X2423Y2000D02*
X2430Y2000D01*
X0Y1999D02*
X7Y1999D01*
X2423Y1999D02*
X2430Y1999D01*
X0Y1998D02*
X7Y1998D01*
X2423Y1998D02*
X2430Y1998D01*
X0Y1997D02*
X7Y1997D01*
X2423Y1997D02*
X2430Y1997D01*
X0Y1996D02*
X7Y1996D01*
X2423Y1996D02*
X2430Y1996D01*
X0Y1995D02*
X7Y1995D01*
X2423Y1995D02*
X2430Y1995D01*
X0Y1994D02*
X7Y1994D01*
X2423Y1994D02*
X2430Y1994D01*
X0Y1993D02*
X7Y1993D01*
X2423Y1993D02*
X2430Y1993D01*
X0Y1992D02*
X7Y1992D01*
X2423Y1992D02*
X2430Y1992D01*
X0Y1991D02*
X7Y1991D01*
X2423Y1991D02*
X2430Y1991D01*
X0Y1990D02*
X7Y1990D01*
X2423Y1990D02*
X2430Y1990D01*
X0Y1989D02*
X7Y1989D01*
X2423Y1989D02*
X2430Y1989D01*
X0Y1988D02*
X7Y1988D01*
X2423Y1988D02*
X2430Y1988D01*
X0Y1987D02*
X7Y1987D01*
X2423Y1987D02*
X2430Y1987D01*
X0Y1986D02*
X7Y1986D01*
X2423Y1986D02*
X2430Y1986D01*
X0Y1985D02*
X7Y1985D01*
X2423Y1985D02*
X2430Y1985D01*
X0Y1984D02*
X7Y1984D01*
X2423Y1984D02*
X2430Y1984D01*
X0Y1983D02*
X7Y1983D01*
X2423Y1983D02*
X2430Y1983D01*
X0Y1982D02*
X7Y1982D01*
X2423Y1982D02*
X2430Y1982D01*
X0Y1981D02*
X7Y1981D01*
X2423Y1981D02*
X2430Y1981D01*
X0Y1980D02*
X7Y1980D01*
X2423Y1980D02*
X2430Y1980D01*
X0Y1979D02*
X7Y1979D01*
X2423Y1979D02*
X2430Y1979D01*
X0Y1978D02*
X7Y1978D01*
X2423Y1978D02*
X2430Y1978D01*
X0Y1977D02*
X7Y1977D01*
X2423Y1977D02*
X2430Y1977D01*
X0Y1976D02*
X7Y1976D01*
X2423Y1976D02*
X2430Y1976D01*
X0Y1975D02*
X7Y1975D01*
X2423Y1975D02*
X2430Y1975D01*
X0Y1974D02*
X7Y1974D01*
X2423Y1974D02*
X2430Y1974D01*
X0Y1973D02*
X7Y1973D01*
X2423Y1973D02*
X2430Y1973D01*
X0Y1972D02*
X7Y1972D01*
X2423Y1972D02*
X2430Y1972D01*
X0Y1971D02*
X7Y1971D01*
X2423Y1971D02*
X2430Y1971D01*
X0Y1970D02*
X7Y1970D01*
X2423Y1970D02*
X2430Y1970D01*
X0Y1969D02*
X7Y1969D01*
X2423Y1969D02*
X2430Y1969D01*
X0Y1968D02*
X7Y1968D01*
X2423Y1968D02*
X2430Y1968D01*
X0Y1967D02*
X7Y1967D01*
X2423Y1967D02*
X2430Y1967D01*
X0Y1966D02*
X7Y1966D01*
X2423Y1966D02*
X2430Y1966D01*
X0Y1965D02*
X7Y1965D01*
X2423Y1965D02*
X2430Y1965D01*
X0Y1964D02*
X7Y1964D01*
X2423Y1964D02*
X2430Y1964D01*
X0Y1963D02*
X7Y1963D01*
X2423Y1963D02*
X2430Y1963D01*
X0Y1962D02*
X7Y1962D01*
X2423Y1962D02*
X2430Y1962D01*
X0Y1961D02*
X7Y1961D01*
X2423Y1961D02*
X2430Y1961D01*
X0Y1960D02*
X7Y1960D01*
X2423Y1960D02*
X2430Y1960D01*
X0Y1959D02*
X7Y1959D01*
X2423Y1959D02*
X2430Y1959D01*
X0Y1958D02*
X7Y1958D01*
X2423Y1958D02*
X2430Y1958D01*
X0Y1957D02*
X7Y1957D01*
X2423Y1957D02*
X2430Y1957D01*
X0Y1956D02*
X7Y1956D01*
X2423Y1956D02*
X2430Y1956D01*
X0Y1955D02*
X7Y1955D01*
X2423Y1955D02*
X2430Y1955D01*
X0Y1954D02*
X7Y1954D01*
X2423Y1954D02*
X2430Y1954D01*
X0Y1953D02*
X7Y1953D01*
X2423Y1953D02*
X2430Y1953D01*
X0Y1952D02*
X7Y1952D01*
X2423Y1952D02*
X2430Y1952D01*
X0Y1951D02*
X7Y1951D01*
X2423Y1951D02*
X2430Y1951D01*
X0Y1950D02*
X7Y1950D01*
X2423Y1950D02*
X2430Y1950D01*
X0Y1949D02*
X7Y1949D01*
X2423Y1949D02*
X2430Y1949D01*
X0Y1948D02*
X7Y1948D01*
X2423Y1948D02*
X2430Y1948D01*
X0Y1947D02*
X7Y1947D01*
X2423Y1947D02*
X2430Y1947D01*
X0Y1946D02*
X7Y1946D01*
X2423Y1946D02*
X2430Y1946D01*
X0Y1945D02*
X7Y1945D01*
X2423Y1945D02*
X2430Y1945D01*
X0Y1944D02*
X7Y1944D01*
X2423Y1944D02*
X2430Y1944D01*
X0Y1943D02*
X7Y1943D01*
X2423Y1943D02*
X2430Y1943D01*
X0Y1942D02*
X7Y1942D01*
X2423Y1942D02*
X2430Y1942D01*
X0Y1941D02*
X7Y1941D01*
X2423Y1941D02*
X2430Y1941D01*
X0Y1940D02*
X7Y1940D01*
X2423Y1940D02*
X2430Y1940D01*
X0Y1939D02*
X7Y1939D01*
X2423Y1939D02*
X2430Y1939D01*
X0Y1938D02*
X7Y1938D01*
X2423Y1938D02*
X2430Y1938D01*
X0Y1937D02*
X7Y1937D01*
X2423Y1937D02*
X2430Y1937D01*
X0Y1936D02*
X7Y1936D01*
X2423Y1936D02*
X2430Y1936D01*
X0Y1935D02*
X7Y1935D01*
X2423Y1935D02*
X2430Y1935D01*
X0Y1934D02*
X7Y1934D01*
X2423Y1934D02*
X2430Y1934D01*
X0Y1933D02*
X7Y1933D01*
X2423Y1933D02*
X2430Y1933D01*
X0Y1932D02*
X7Y1932D01*
X2423Y1932D02*
X2430Y1932D01*
X0Y1931D02*
X7Y1931D01*
X2423Y1931D02*
X2430Y1931D01*
X0Y1930D02*
X7Y1930D01*
X2423Y1930D02*
X2430Y1930D01*
X0Y1929D02*
X7Y1929D01*
X2423Y1929D02*
X2430Y1929D01*
X0Y1928D02*
X7Y1928D01*
X2423Y1928D02*
X2430Y1928D01*
X0Y1927D02*
X7Y1927D01*
X2423Y1927D02*
X2430Y1927D01*
X0Y1926D02*
X7Y1926D01*
X2423Y1926D02*
X2430Y1926D01*
X0Y1925D02*
X7Y1925D01*
X2423Y1925D02*
X2430Y1925D01*
X0Y1924D02*
X7Y1924D01*
X2423Y1924D02*
X2430Y1924D01*
X0Y1923D02*
X7Y1923D01*
X2423Y1923D02*
X2430Y1923D01*
X0Y1922D02*
X7Y1922D01*
X2423Y1922D02*
X2430Y1922D01*
X0Y1921D02*
X7Y1921D01*
X2423Y1921D02*
X2430Y1921D01*
X0Y1920D02*
X7Y1920D01*
X2423Y1920D02*
X2430Y1920D01*
X0Y1919D02*
X7Y1919D01*
X2423Y1919D02*
X2430Y1919D01*
X0Y1918D02*
X7Y1918D01*
X2423Y1918D02*
X2430Y1918D01*
X0Y1917D02*
X7Y1917D01*
X2423Y1917D02*
X2430Y1917D01*
X0Y1916D02*
X7Y1916D01*
X2423Y1916D02*
X2430Y1916D01*
X0Y1915D02*
X7Y1915D01*
X2423Y1915D02*
X2430Y1915D01*
X0Y1914D02*
X7Y1914D01*
X2423Y1914D02*
X2430Y1914D01*
X0Y1913D02*
X7Y1913D01*
X2423Y1913D02*
X2430Y1913D01*
X0Y1912D02*
X7Y1912D01*
X2423Y1912D02*
X2430Y1912D01*
X0Y1911D02*
X7Y1911D01*
X2423Y1911D02*
X2430Y1911D01*
X0Y1910D02*
X7Y1910D01*
X2423Y1910D02*
X2430Y1910D01*
X0Y1909D02*
X7Y1909D01*
X2423Y1909D02*
X2430Y1909D01*
X0Y1908D02*
X7Y1908D01*
X2423Y1908D02*
X2430Y1908D01*
X0Y1907D02*
X7Y1907D01*
X2423Y1907D02*
X2430Y1907D01*
X0Y1906D02*
X7Y1906D01*
X2423Y1906D02*
X2430Y1906D01*
X0Y1905D02*
X7Y1905D01*
X2423Y1905D02*
X2430Y1905D01*
X0Y1904D02*
X7Y1904D01*
X2423Y1904D02*
X2430Y1904D01*
X0Y1903D02*
X7Y1903D01*
X2423Y1903D02*
X2430Y1903D01*
X0Y1902D02*
X7Y1902D01*
X2423Y1902D02*
X2430Y1902D01*
X0Y1901D02*
X7Y1901D01*
X2423Y1901D02*
X2430Y1901D01*
X0Y1900D02*
X7Y1900D01*
X2423Y1900D02*
X2430Y1900D01*
X0Y1899D02*
X7Y1899D01*
X2423Y1899D02*
X2430Y1899D01*
X0Y1898D02*
X7Y1898D01*
X2423Y1898D02*
X2430Y1898D01*
X0Y1897D02*
X7Y1897D01*
X2423Y1897D02*
X2430Y1897D01*
X0Y1896D02*
X7Y1896D01*
X2423Y1896D02*
X2430Y1896D01*
X0Y1895D02*
X7Y1895D01*
X2423Y1895D02*
X2430Y1895D01*
X0Y1894D02*
X7Y1894D01*
X2423Y1894D02*
X2430Y1894D01*
X0Y1893D02*
X7Y1893D01*
X2423Y1893D02*
X2430Y1893D01*
X0Y1892D02*
X7Y1892D01*
X2423Y1892D02*
X2430Y1892D01*
X0Y1891D02*
X7Y1891D01*
X2423Y1891D02*
X2430Y1891D01*
X0Y1890D02*
X7Y1890D01*
X2423Y1890D02*
X2430Y1890D01*
X0Y1889D02*
X7Y1889D01*
X2423Y1889D02*
X2430Y1889D01*
X0Y1888D02*
X7Y1888D01*
X2423Y1888D02*
X2430Y1888D01*
X0Y1887D02*
X7Y1887D01*
X2423Y1887D02*
X2430Y1887D01*
X0Y1886D02*
X7Y1886D01*
X2423Y1886D02*
X2430Y1886D01*
X0Y1885D02*
X7Y1885D01*
X2423Y1885D02*
X2430Y1885D01*
X0Y1884D02*
X7Y1884D01*
X2423Y1884D02*
X2430Y1884D01*
X0Y1883D02*
X7Y1883D01*
X2423Y1883D02*
X2430Y1883D01*
X0Y1882D02*
X7Y1882D01*
X2423Y1882D02*
X2430Y1882D01*
X0Y1881D02*
X7Y1881D01*
X2423Y1881D02*
X2430Y1881D01*
X0Y1880D02*
X7Y1880D01*
X2423Y1880D02*
X2430Y1880D01*
X0Y1879D02*
X7Y1879D01*
X2423Y1879D02*
X2430Y1879D01*
X0Y1878D02*
X7Y1878D01*
X2423Y1878D02*
X2430Y1878D01*
X0Y1877D02*
X7Y1877D01*
X2423Y1877D02*
X2430Y1877D01*
X0Y1876D02*
X7Y1876D01*
X2423Y1876D02*
X2430Y1876D01*
X0Y1875D02*
X7Y1875D01*
X2423Y1875D02*
X2430Y1875D01*
X0Y1874D02*
X7Y1874D01*
X2423Y1874D02*
X2430Y1874D01*
X0Y1873D02*
X7Y1873D01*
X2423Y1873D02*
X2430Y1873D01*
X0Y1872D02*
X7Y1872D01*
X2423Y1872D02*
X2430Y1872D01*
X0Y1871D02*
X7Y1871D01*
X2423Y1871D02*
X2430Y1871D01*
X0Y1870D02*
X7Y1870D01*
X2423Y1870D02*
X2430Y1870D01*
X0Y1869D02*
X7Y1869D01*
X2423Y1869D02*
X2430Y1869D01*
X0Y1868D02*
X7Y1868D01*
X2423Y1868D02*
X2430Y1868D01*
X0Y1867D02*
X7Y1867D01*
X2423Y1867D02*
X2430Y1867D01*
X0Y1866D02*
X7Y1866D01*
X2423Y1866D02*
X2430Y1866D01*
X0Y1865D02*
X7Y1865D01*
X2423Y1865D02*
X2430Y1865D01*
X0Y1864D02*
X7Y1864D01*
X2423Y1864D02*
X2430Y1864D01*
X0Y1863D02*
X7Y1863D01*
X2423Y1863D02*
X2430Y1863D01*
X0Y1862D02*
X7Y1862D01*
X2423Y1862D02*
X2430Y1862D01*
X0Y1861D02*
X7Y1861D01*
X2423Y1861D02*
X2430Y1861D01*
X0Y1860D02*
X7Y1860D01*
X2423Y1860D02*
X2430Y1860D01*
X0Y1859D02*
X7Y1859D01*
X2423Y1859D02*
X2430Y1859D01*
X0Y1858D02*
X7Y1858D01*
X2423Y1858D02*
X2430Y1858D01*
X0Y1857D02*
X7Y1857D01*
X2423Y1857D02*
X2430Y1857D01*
X0Y1856D02*
X7Y1856D01*
X2423Y1856D02*
X2430Y1856D01*
X0Y1855D02*
X7Y1855D01*
X2423Y1855D02*
X2430Y1855D01*
X0Y1854D02*
X7Y1854D01*
X2423Y1854D02*
X2430Y1854D01*
X0Y1853D02*
X7Y1853D01*
X2423Y1853D02*
X2430Y1853D01*
X0Y1852D02*
X7Y1852D01*
X2423Y1852D02*
X2430Y1852D01*
X0Y1851D02*
X7Y1851D01*
X2423Y1851D02*
X2430Y1851D01*
X0Y1850D02*
X7Y1850D01*
X2423Y1850D02*
X2430Y1850D01*
X0Y1849D02*
X7Y1849D01*
X2423Y1849D02*
X2430Y1849D01*
X0Y1848D02*
X7Y1848D01*
X2423Y1848D02*
X2430Y1848D01*
X0Y1847D02*
X7Y1847D01*
X2423Y1847D02*
X2430Y1847D01*
X0Y1846D02*
X7Y1846D01*
X2423Y1846D02*
X2430Y1846D01*
X0Y1845D02*
X7Y1845D01*
X2423Y1845D02*
X2430Y1845D01*
X0Y1844D02*
X7Y1844D01*
X2423Y1844D02*
X2430Y1844D01*
X0Y1843D02*
X7Y1843D01*
X2423Y1843D02*
X2430Y1843D01*
X0Y1842D02*
X7Y1842D01*
X2423Y1842D02*
X2430Y1842D01*
X0Y1841D02*
X7Y1841D01*
X2423Y1841D02*
X2430Y1841D01*
X0Y1840D02*
X7Y1840D01*
X2423Y1840D02*
X2430Y1840D01*
X0Y1839D02*
X7Y1839D01*
X2423Y1839D02*
X2430Y1839D01*
X0Y1838D02*
X7Y1838D01*
X2423Y1838D02*
X2430Y1838D01*
X0Y1837D02*
X7Y1837D01*
X2423Y1837D02*
X2430Y1837D01*
X0Y1836D02*
X7Y1836D01*
X2423Y1836D02*
X2430Y1836D01*
X0Y1835D02*
X7Y1835D01*
X2423Y1835D02*
X2430Y1835D01*
X0Y1834D02*
X7Y1834D01*
X2423Y1834D02*
X2430Y1834D01*
X0Y1833D02*
X7Y1833D01*
X2423Y1833D02*
X2430Y1833D01*
X0Y1832D02*
X7Y1832D01*
X2423Y1832D02*
X2430Y1832D01*
X0Y1831D02*
X7Y1831D01*
X2423Y1831D02*
X2430Y1831D01*
X0Y1830D02*
X7Y1830D01*
X2423Y1830D02*
X2430Y1830D01*
X0Y1829D02*
X7Y1829D01*
X2423Y1829D02*
X2430Y1829D01*
X0Y1828D02*
X7Y1828D01*
X2423Y1828D02*
X2430Y1828D01*
X0Y1827D02*
X7Y1827D01*
X2423Y1827D02*
X2430Y1827D01*
X0Y1826D02*
X7Y1826D01*
X2423Y1826D02*
X2430Y1826D01*
X0Y1825D02*
X7Y1825D01*
X2423Y1825D02*
X2430Y1825D01*
X0Y1824D02*
X7Y1824D01*
X2423Y1824D02*
X2430Y1824D01*
X0Y1823D02*
X7Y1823D01*
X2423Y1823D02*
X2430Y1823D01*
X0Y1822D02*
X7Y1822D01*
X2423Y1822D02*
X2430Y1822D01*
X0Y1821D02*
X7Y1821D01*
X2423Y1821D02*
X2430Y1821D01*
X0Y1820D02*
X7Y1820D01*
X2423Y1820D02*
X2430Y1820D01*
X0Y1819D02*
X7Y1819D01*
X2423Y1819D02*
X2430Y1819D01*
X0Y1818D02*
X7Y1818D01*
X2423Y1818D02*
X2430Y1818D01*
X0Y1817D02*
X7Y1817D01*
X2423Y1817D02*
X2430Y1817D01*
X0Y1816D02*
X7Y1816D01*
X2423Y1816D02*
X2430Y1816D01*
X0Y1815D02*
X7Y1815D01*
X2423Y1815D02*
X2430Y1815D01*
X0Y1814D02*
X7Y1814D01*
X2423Y1814D02*
X2430Y1814D01*
X0Y1813D02*
X7Y1813D01*
X2423Y1813D02*
X2430Y1813D01*
X0Y1812D02*
X7Y1812D01*
X2423Y1812D02*
X2430Y1812D01*
X0Y1811D02*
X7Y1811D01*
X2423Y1811D02*
X2430Y1811D01*
X0Y1810D02*
X7Y1810D01*
X2423Y1810D02*
X2430Y1810D01*
X0Y1809D02*
X7Y1809D01*
X2423Y1809D02*
X2430Y1809D01*
X0Y1808D02*
X7Y1808D01*
X2423Y1808D02*
X2430Y1808D01*
X0Y1807D02*
X7Y1807D01*
X2423Y1807D02*
X2430Y1807D01*
X0Y1806D02*
X7Y1806D01*
X2423Y1806D02*
X2430Y1806D01*
X0Y1805D02*
X7Y1805D01*
X2423Y1805D02*
X2430Y1805D01*
X0Y1804D02*
X7Y1804D01*
X2423Y1804D02*
X2430Y1804D01*
X0Y1803D02*
X7Y1803D01*
X2423Y1803D02*
X2430Y1803D01*
X0Y1802D02*
X7Y1802D01*
X2423Y1802D02*
X2430Y1802D01*
X0Y1801D02*
X7Y1801D01*
X2423Y1801D02*
X2430Y1801D01*
X0Y1800D02*
X7Y1800D01*
X2423Y1800D02*
X2430Y1800D01*
X0Y1799D02*
X7Y1799D01*
X2423Y1799D02*
X2430Y1799D01*
X0Y1798D02*
X7Y1798D01*
X2423Y1798D02*
X2430Y1798D01*
X0Y1797D02*
X7Y1797D01*
X2423Y1797D02*
X2430Y1797D01*
X0Y1796D02*
X7Y1796D01*
X2423Y1796D02*
X2430Y1796D01*
X0Y1795D02*
X7Y1795D01*
X2423Y1795D02*
X2430Y1795D01*
X0Y1794D02*
X7Y1794D01*
X2423Y1794D02*
X2430Y1794D01*
X0Y1793D02*
X7Y1793D01*
X2423Y1793D02*
X2430Y1793D01*
X0Y1792D02*
X7Y1792D01*
X2423Y1792D02*
X2430Y1792D01*
X0Y1791D02*
X7Y1791D01*
X2423Y1791D02*
X2430Y1791D01*
X0Y1790D02*
X7Y1790D01*
X2423Y1790D02*
X2430Y1790D01*
X0Y1789D02*
X7Y1789D01*
X2423Y1789D02*
X2430Y1789D01*
X0Y1788D02*
X7Y1788D01*
X2423Y1788D02*
X2430Y1788D01*
X0Y1787D02*
X7Y1787D01*
X2423Y1787D02*
X2430Y1787D01*
X0Y1786D02*
X7Y1786D01*
X2423Y1786D02*
X2430Y1786D01*
X0Y1785D02*
X7Y1785D01*
X2423Y1785D02*
X2430Y1785D01*
X0Y1784D02*
X7Y1784D01*
X2423Y1784D02*
X2430Y1784D01*
X0Y1783D02*
X7Y1783D01*
X2423Y1783D02*
X2430Y1783D01*
X0Y1782D02*
X7Y1782D01*
X2423Y1782D02*
X2430Y1782D01*
X0Y1781D02*
X7Y1781D01*
X2423Y1781D02*
X2430Y1781D01*
X0Y1780D02*
X7Y1780D01*
X2423Y1780D02*
X2430Y1780D01*
X0Y1779D02*
X7Y1779D01*
X2423Y1779D02*
X2430Y1779D01*
X0Y1778D02*
X7Y1778D01*
X2423Y1778D02*
X2430Y1778D01*
X0Y1777D02*
X7Y1777D01*
X2423Y1777D02*
X2430Y1777D01*
X0Y1776D02*
X7Y1776D01*
X2423Y1776D02*
X2430Y1776D01*
X0Y1775D02*
X7Y1775D01*
X2423Y1775D02*
X2430Y1775D01*
X0Y1774D02*
X7Y1774D01*
X2423Y1774D02*
X2430Y1774D01*
X0Y1773D02*
X7Y1773D01*
X2423Y1773D02*
X2430Y1773D01*
X0Y1772D02*
X7Y1772D01*
X2423Y1772D02*
X2430Y1772D01*
X0Y1771D02*
X7Y1771D01*
X2423Y1771D02*
X2430Y1771D01*
X0Y1770D02*
X7Y1770D01*
X2423Y1770D02*
X2430Y1770D01*
X0Y1769D02*
X7Y1769D01*
X2423Y1769D02*
X2430Y1769D01*
X0Y1768D02*
X7Y1768D01*
X2423Y1768D02*
X2430Y1768D01*
X0Y1767D02*
X7Y1767D01*
X2423Y1767D02*
X2430Y1767D01*
X0Y1766D02*
X7Y1766D01*
X2423Y1766D02*
X2430Y1766D01*
X0Y1765D02*
X7Y1765D01*
X2423Y1765D02*
X2430Y1765D01*
X0Y1764D02*
X7Y1764D01*
X2423Y1764D02*
X2430Y1764D01*
X0Y1763D02*
X7Y1763D01*
X2423Y1763D02*
X2430Y1763D01*
X0Y1762D02*
X7Y1762D01*
X2423Y1762D02*
X2430Y1762D01*
X0Y1761D02*
X7Y1761D01*
X2423Y1761D02*
X2430Y1761D01*
X0Y1760D02*
X7Y1760D01*
X2423Y1760D02*
X2430Y1760D01*
X0Y1759D02*
X7Y1759D01*
X2423Y1759D02*
X2430Y1759D01*
X0Y1758D02*
X7Y1758D01*
X2423Y1758D02*
X2430Y1758D01*
X0Y1757D02*
X7Y1757D01*
X2423Y1757D02*
X2430Y1757D01*
X0Y1756D02*
X7Y1756D01*
X2423Y1756D02*
X2430Y1756D01*
X0Y1755D02*
X7Y1755D01*
X2423Y1755D02*
X2430Y1755D01*
X0Y1754D02*
X7Y1754D01*
X2423Y1754D02*
X2430Y1754D01*
X0Y1753D02*
X7Y1753D01*
X2423Y1753D02*
X2430Y1753D01*
X0Y1752D02*
X7Y1752D01*
X2423Y1752D02*
X2430Y1752D01*
X0Y1751D02*
X7Y1751D01*
X2423Y1751D02*
X2430Y1751D01*
X0Y1750D02*
X7Y1750D01*
X2423Y1750D02*
X2430Y1750D01*
X0Y1749D02*
X7Y1749D01*
X2423Y1749D02*
X2430Y1749D01*
X0Y1748D02*
X7Y1748D01*
X2423Y1748D02*
X2430Y1748D01*
X0Y1747D02*
X7Y1747D01*
X2423Y1747D02*
X2430Y1747D01*
X0Y1746D02*
X7Y1746D01*
X2423Y1746D02*
X2430Y1746D01*
X0Y1745D02*
X7Y1745D01*
X2423Y1745D02*
X2430Y1745D01*
X0Y1744D02*
X7Y1744D01*
X2423Y1744D02*
X2430Y1744D01*
X0Y1743D02*
X7Y1743D01*
X2423Y1743D02*
X2430Y1743D01*
X0Y1742D02*
X7Y1742D01*
X2423Y1742D02*
X2430Y1742D01*
X0Y1741D02*
X7Y1741D01*
X2423Y1741D02*
X2430Y1741D01*
X0Y1740D02*
X7Y1740D01*
X2423Y1740D02*
X2430Y1740D01*
X0Y1739D02*
X7Y1739D01*
X2423Y1739D02*
X2430Y1739D01*
X0Y1738D02*
X7Y1738D01*
X2423Y1738D02*
X2430Y1738D01*
X0Y1737D02*
X7Y1737D01*
X2423Y1737D02*
X2430Y1737D01*
X0Y1736D02*
X7Y1736D01*
X2423Y1736D02*
X2430Y1736D01*
X0Y1735D02*
X7Y1735D01*
X2423Y1735D02*
X2430Y1735D01*
X0Y1734D02*
X7Y1734D01*
X2423Y1734D02*
X2430Y1734D01*
X0Y1733D02*
X7Y1733D01*
X2423Y1733D02*
X2430Y1733D01*
X0Y1732D02*
X7Y1732D01*
X2423Y1732D02*
X2430Y1732D01*
X0Y1731D02*
X7Y1731D01*
X2423Y1731D02*
X2430Y1731D01*
X0Y1730D02*
X7Y1730D01*
X2423Y1730D02*
X2430Y1730D01*
X0Y1729D02*
X7Y1729D01*
X2423Y1729D02*
X2430Y1729D01*
X0Y1728D02*
X7Y1728D01*
X2423Y1728D02*
X2430Y1728D01*
X0Y1727D02*
X7Y1727D01*
X2423Y1727D02*
X2430Y1727D01*
X0Y1726D02*
X7Y1726D01*
X2423Y1726D02*
X2430Y1726D01*
X0Y1725D02*
X7Y1725D01*
X2423Y1725D02*
X2430Y1725D01*
X0Y1724D02*
X7Y1724D01*
X2423Y1724D02*
X2430Y1724D01*
X0Y1723D02*
X7Y1723D01*
X2423Y1723D02*
X2430Y1723D01*
X0Y1722D02*
X7Y1722D01*
X2423Y1722D02*
X2430Y1722D01*
X0Y1721D02*
X7Y1721D01*
X2423Y1721D02*
X2430Y1721D01*
X0Y1720D02*
X7Y1720D01*
X2423Y1720D02*
X2430Y1720D01*
X0Y1719D02*
X7Y1719D01*
X2423Y1719D02*
X2430Y1719D01*
X0Y1718D02*
X7Y1718D01*
X2423Y1718D02*
X2430Y1718D01*
X0Y1717D02*
X7Y1717D01*
X2423Y1717D02*
X2430Y1717D01*
X0Y1716D02*
X7Y1716D01*
X2423Y1716D02*
X2430Y1716D01*
X0Y1715D02*
X7Y1715D01*
X2423Y1715D02*
X2430Y1715D01*
X0Y1714D02*
X7Y1714D01*
X2423Y1714D02*
X2430Y1714D01*
X0Y1713D02*
X7Y1713D01*
X2423Y1713D02*
X2430Y1713D01*
X0Y1712D02*
X7Y1712D01*
X2423Y1712D02*
X2430Y1712D01*
X0Y1711D02*
X7Y1711D01*
X2423Y1711D02*
X2430Y1711D01*
X0Y1710D02*
X7Y1710D01*
X2423Y1710D02*
X2430Y1710D01*
X0Y1709D02*
X7Y1709D01*
X2423Y1709D02*
X2430Y1709D01*
X0Y1708D02*
X7Y1708D01*
X2423Y1708D02*
X2430Y1708D01*
X0Y1707D02*
X7Y1707D01*
X2423Y1707D02*
X2430Y1707D01*
X0Y1706D02*
X7Y1706D01*
X2423Y1706D02*
X2430Y1706D01*
X0Y1705D02*
X7Y1705D01*
X2423Y1705D02*
X2430Y1705D01*
X0Y1704D02*
X7Y1704D01*
X2423Y1704D02*
X2430Y1704D01*
X0Y1703D02*
X7Y1703D01*
X2423Y1703D02*
X2430Y1703D01*
X0Y1702D02*
X7Y1702D01*
X2423Y1702D02*
X2430Y1702D01*
X0Y1701D02*
X7Y1701D01*
X2423Y1701D02*
X2430Y1701D01*
X0Y1700D02*
X7Y1700D01*
X2423Y1700D02*
X2430Y1700D01*
X0Y1699D02*
X7Y1699D01*
X2423Y1699D02*
X2430Y1699D01*
X0Y1698D02*
X7Y1698D01*
X2423Y1698D02*
X2430Y1698D01*
X0Y1697D02*
X7Y1697D01*
X2423Y1697D02*
X2430Y1697D01*
X0Y1696D02*
X7Y1696D01*
X2423Y1696D02*
X2430Y1696D01*
X0Y1695D02*
X7Y1695D01*
X2423Y1695D02*
X2430Y1695D01*
X0Y1694D02*
X7Y1694D01*
X2423Y1694D02*
X2430Y1694D01*
X0Y1693D02*
X7Y1693D01*
X2423Y1693D02*
X2430Y1693D01*
X0Y1692D02*
X7Y1692D01*
X2423Y1692D02*
X2430Y1692D01*
X0Y1691D02*
X7Y1691D01*
X2423Y1691D02*
X2430Y1691D01*
X0Y1690D02*
X7Y1690D01*
X2423Y1690D02*
X2430Y1690D01*
X0Y1689D02*
X7Y1689D01*
X2423Y1689D02*
X2430Y1689D01*
X0Y1688D02*
X7Y1688D01*
X2423Y1688D02*
X2430Y1688D01*
X0Y1687D02*
X7Y1687D01*
X2423Y1687D02*
X2430Y1687D01*
X0Y1686D02*
X7Y1686D01*
X2423Y1686D02*
X2430Y1686D01*
X0Y1685D02*
X7Y1685D01*
X2423Y1685D02*
X2430Y1685D01*
X0Y1684D02*
X7Y1684D01*
X2423Y1684D02*
X2430Y1684D01*
X0Y1683D02*
X7Y1683D01*
X2423Y1683D02*
X2430Y1683D01*
X0Y1682D02*
X7Y1682D01*
X2423Y1682D02*
X2430Y1682D01*
X0Y1681D02*
X7Y1681D01*
X2423Y1681D02*
X2430Y1681D01*
X0Y1680D02*
X7Y1680D01*
X2423Y1680D02*
X2430Y1680D01*
X0Y1679D02*
X7Y1679D01*
X2423Y1679D02*
X2430Y1679D01*
X0Y1678D02*
X7Y1678D01*
X2423Y1678D02*
X2430Y1678D01*
X0Y1677D02*
X7Y1677D01*
X2423Y1677D02*
X2430Y1677D01*
X0Y1676D02*
X7Y1676D01*
X2423Y1676D02*
X2430Y1676D01*
X0Y1675D02*
X7Y1675D01*
X2423Y1675D02*
X2430Y1675D01*
X0Y1674D02*
X7Y1674D01*
X2423Y1674D02*
X2430Y1674D01*
X0Y1673D02*
X7Y1673D01*
X2423Y1673D02*
X2430Y1673D01*
X0Y1672D02*
X7Y1672D01*
X2423Y1672D02*
X2430Y1672D01*
X0Y1671D02*
X7Y1671D01*
X2423Y1671D02*
X2430Y1671D01*
X0Y1670D02*
X7Y1670D01*
X2423Y1670D02*
X2430Y1670D01*
X0Y1669D02*
X7Y1669D01*
X2423Y1669D02*
X2430Y1669D01*
X0Y1668D02*
X7Y1668D01*
X2423Y1668D02*
X2430Y1668D01*
X0Y1667D02*
X7Y1667D01*
X2423Y1667D02*
X2430Y1667D01*
X0Y1666D02*
X7Y1666D01*
X2423Y1666D02*
X2430Y1666D01*
X0Y1665D02*
X7Y1665D01*
X2423Y1665D02*
X2430Y1665D01*
X0Y1664D02*
X7Y1664D01*
X2423Y1664D02*
X2430Y1664D01*
X0Y1663D02*
X7Y1663D01*
X2423Y1663D02*
X2430Y1663D01*
X0Y1662D02*
X7Y1662D01*
X2423Y1662D02*
X2430Y1662D01*
X0Y1661D02*
X7Y1661D01*
X2423Y1661D02*
X2430Y1661D01*
X0Y1660D02*
X7Y1660D01*
X2423Y1660D02*
X2430Y1660D01*
X0Y1659D02*
X7Y1659D01*
X2423Y1659D02*
X2430Y1659D01*
X0Y1658D02*
X7Y1658D01*
X2423Y1658D02*
X2430Y1658D01*
X0Y1657D02*
X7Y1657D01*
X2423Y1657D02*
X2430Y1657D01*
X0Y1656D02*
X7Y1656D01*
X2423Y1656D02*
X2430Y1656D01*
X0Y1655D02*
X7Y1655D01*
X2423Y1655D02*
X2430Y1655D01*
X0Y1654D02*
X7Y1654D01*
X2423Y1654D02*
X2430Y1654D01*
X0Y1653D02*
X7Y1653D01*
X2423Y1653D02*
X2430Y1653D01*
X0Y1652D02*
X7Y1652D01*
X2423Y1652D02*
X2430Y1652D01*
X0Y1651D02*
X7Y1651D01*
X2423Y1651D02*
X2430Y1651D01*
X0Y1650D02*
X7Y1650D01*
X2423Y1650D02*
X2430Y1650D01*
X0Y1649D02*
X7Y1649D01*
X2423Y1649D02*
X2430Y1649D01*
X0Y1648D02*
X7Y1648D01*
X2423Y1648D02*
X2430Y1648D01*
X0Y1647D02*
X7Y1647D01*
X2423Y1647D02*
X2430Y1647D01*
X0Y1646D02*
X7Y1646D01*
X2423Y1646D02*
X2430Y1646D01*
X0Y1645D02*
X7Y1645D01*
X2423Y1645D02*
X2430Y1645D01*
X0Y1644D02*
X7Y1644D01*
X2423Y1644D02*
X2430Y1644D01*
X0Y1643D02*
X7Y1643D01*
X2423Y1643D02*
X2430Y1643D01*
X0Y1642D02*
X7Y1642D01*
X2423Y1642D02*
X2430Y1642D01*
X0Y1641D02*
X7Y1641D01*
X2423Y1641D02*
X2430Y1641D01*
X0Y1640D02*
X7Y1640D01*
X2423Y1640D02*
X2430Y1640D01*
X0Y1639D02*
X7Y1639D01*
X2423Y1639D02*
X2430Y1639D01*
X0Y1638D02*
X7Y1638D01*
X2423Y1638D02*
X2430Y1638D01*
X0Y1637D02*
X7Y1637D01*
X2423Y1637D02*
X2430Y1637D01*
X0Y1636D02*
X7Y1636D01*
X2423Y1636D02*
X2430Y1636D01*
X0Y1635D02*
X7Y1635D01*
X2423Y1635D02*
X2430Y1635D01*
X0Y1634D02*
X7Y1634D01*
X2423Y1634D02*
X2430Y1634D01*
X0Y1633D02*
X7Y1633D01*
X2423Y1633D02*
X2430Y1633D01*
X0Y1632D02*
X7Y1632D01*
X2423Y1632D02*
X2430Y1632D01*
X0Y1631D02*
X7Y1631D01*
X2423Y1631D02*
X2430Y1631D01*
X0Y1630D02*
X7Y1630D01*
X2423Y1630D02*
X2430Y1630D01*
X0Y1629D02*
X7Y1629D01*
X2423Y1629D02*
X2430Y1629D01*
X0Y1628D02*
X7Y1628D01*
X2423Y1628D02*
X2430Y1628D01*
X0Y1627D02*
X7Y1627D01*
X2423Y1627D02*
X2430Y1627D01*
X0Y1626D02*
X7Y1626D01*
X2423Y1626D02*
X2430Y1626D01*
X0Y1625D02*
X7Y1625D01*
X2423Y1625D02*
X2430Y1625D01*
X0Y1624D02*
X7Y1624D01*
X2423Y1624D02*
X2430Y1624D01*
X0Y1623D02*
X7Y1623D01*
X2423Y1623D02*
X2430Y1623D01*
X0Y1622D02*
X7Y1622D01*
X2423Y1622D02*
X2430Y1622D01*
X0Y1621D02*
X7Y1621D01*
X2423Y1621D02*
X2430Y1621D01*
X0Y1620D02*
X7Y1620D01*
X2423Y1620D02*
X2430Y1620D01*
X0Y1619D02*
X7Y1619D01*
X2423Y1619D02*
X2430Y1619D01*
X0Y1618D02*
X7Y1618D01*
X2423Y1618D02*
X2430Y1618D01*
X0Y1617D02*
X7Y1617D01*
X2423Y1617D02*
X2430Y1617D01*
X0Y1616D02*
X7Y1616D01*
X2423Y1616D02*
X2430Y1616D01*
X0Y1615D02*
X7Y1615D01*
X2423Y1615D02*
X2430Y1615D01*
X0Y1614D02*
X7Y1614D01*
X2423Y1614D02*
X2430Y1614D01*
X0Y1613D02*
X7Y1613D01*
X2423Y1613D02*
X2430Y1613D01*
X0Y1612D02*
X7Y1612D01*
X2423Y1612D02*
X2430Y1612D01*
X0Y1611D02*
X7Y1611D01*
X2423Y1611D02*
X2430Y1611D01*
X0Y1610D02*
X7Y1610D01*
X2423Y1610D02*
X2430Y1610D01*
X0Y1609D02*
X7Y1609D01*
X2423Y1609D02*
X2430Y1609D01*
X0Y1608D02*
X7Y1608D01*
X2423Y1608D02*
X2430Y1608D01*
X0Y1607D02*
X7Y1607D01*
X2423Y1607D02*
X2430Y1607D01*
X0Y1606D02*
X7Y1606D01*
X2423Y1606D02*
X2430Y1606D01*
X0Y1605D02*
X7Y1605D01*
X2423Y1605D02*
X2430Y1605D01*
X0Y1604D02*
X7Y1604D01*
X2423Y1604D02*
X2430Y1604D01*
X0Y1603D02*
X7Y1603D01*
X2423Y1603D02*
X2430Y1603D01*
X0Y1602D02*
X7Y1602D01*
X2423Y1602D02*
X2430Y1602D01*
X0Y1601D02*
X7Y1601D01*
X2423Y1601D02*
X2430Y1601D01*
X0Y1600D02*
X7Y1600D01*
X2423Y1600D02*
X2430Y1600D01*
X0Y1599D02*
X7Y1599D01*
X2423Y1599D02*
X2430Y1599D01*
X0Y1598D02*
X7Y1598D01*
X2423Y1598D02*
X2430Y1598D01*
X0Y1597D02*
X7Y1597D01*
X2423Y1597D02*
X2430Y1597D01*
X0Y1596D02*
X7Y1596D01*
X2423Y1596D02*
X2430Y1596D01*
X0Y1595D02*
X7Y1595D01*
X2423Y1595D02*
X2430Y1595D01*
X0Y1594D02*
X7Y1594D01*
X2423Y1594D02*
X2430Y1594D01*
X0Y1593D02*
X7Y1593D01*
X2423Y1593D02*
X2430Y1593D01*
X0Y1592D02*
X7Y1592D01*
X2423Y1592D02*
X2430Y1592D01*
X0Y1591D02*
X7Y1591D01*
X2423Y1591D02*
X2430Y1591D01*
X0Y1590D02*
X7Y1590D01*
X2423Y1590D02*
X2430Y1590D01*
X0Y1589D02*
X7Y1589D01*
X2423Y1589D02*
X2430Y1589D01*
X0Y1588D02*
X7Y1588D01*
X2423Y1588D02*
X2430Y1588D01*
X0Y1587D02*
X7Y1587D01*
X2423Y1587D02*
X2430Y1587D01*
X0Y1586D02*
X7Y1586D01*
X2423Y1586D02*
X2430Y1586D01*
X0Y1585D02*
X7Y1585D01*
X2423Y1585D02*
X2430Y1585D01*
X0Y1584D02*
X7Y1584D01*
X2423Y1584D02*
X2430Y1584D01*
X0Y1583D02*
X7Y1583D01*
X2423Y1583D02*
X2430Y1583D01*
X0Y1582D02*
X7Y1582D01*
X2423Y1582D02*
X2430Y1582D01*
X0Y1581D02*
X7Y1581D01*
X2423Y1581D02*
X2430Y1581D01*
X0Y1580D02*
X7Y1580D01*
X2423Y1580D02*
X2430Y1580D01*
X0Y1579D02*
X7Y1579D01*
X2423Y1579D02*
X2430Y1579D01*
X0Y1578D02*
X7Y1578D01*
X2423Y1578D02*
X2430Y1578D01*
X0Y1577D02*
X7Y1577D01*
X2423Y1577D02*
X2430Y1577D01*
X0Y1576D02*
X7Y1576D01*
X2423Y1576D02*
X2430Y1576D01*
X0Y1575D02*
X7Y1575D01*
X2423Y1575D02*
X2430Y1575D01*
X0Y1574D02*
X7Y1574D01*
X2423Y1574D02*
X2430Y1574D01*
X0Y1573D02*
X7Y1573D01*
X2423Y1573D02*
X2430Y1573D01*
X0Y1572D02*
X7Y1572D01*
X2423Y1572D02*
X2430Y1572D01*
X0Y1571D02*
X7Y1571D01*
X2423Y1571D02*
X2430Y1571D01*
X0Y1570D02*
X7Y1570D01*
X2423Y1570D02*
X2430Y1570D01*
X0Y1569D02*
X7Y1569D01*
X2423Y1569D02*
X2430Y1569D01*
X0Y1568D02*
X7Y1568D01*
X2423Y1568D02*
X2430Y1568D01*
X0Y1567D02*
X7Y1567D01*
X2423Y1567D02*
X2430Y1567D01*
X0Y1566D02*
X7Y1566D01*
X2423Y1566D02*
X2430Y1566D01*
X0Y1565D02*
X7Y1565D01*
X2423Y1565D02*
X2430Y1565D01*
X0Y1564D02*
X7Y1564D01*
X2423Y1564D02*
X2430Y1564D01*
X0Y1563D02*
X7Y1563D01*
X2423Y1563D02*
X2430Y1563D01*
X0Y1562D02*
X7Y1562D01*
X2423Y1562D02*
X2430Y1562D01*
X0Y1561D02*
X7Y1561D01*
X2423Y1561D02*
X2430Y1561D01*
X0Y1560D02*
X7Y1560D01*
X2423Y1560D02*
X2430Y1560D01*
X0Y1559D02*
X7Y1559D01*
X2423Y1559D02*
X2430Y1559D01*
X0Y1558D02*
X7Y1558D01*
X2423Y1558D02*
X2430Y1558D01*
X0Y1557D02*
X7Y1557D01*
X2423Y1557D02*
X2430Y1557D01*
X0Y1556D02*
X7Y1556D01*
X2423Y1556D02*
X2430Y1556D01*
X0Y1555D02*
X7Y1555D01*
X2423Y1555D02*
X2430Y1555D01*
X0Y1554D02*
X7Y1554D01*
X2423Y1554D02*
X2430Y1554D01*
X0Y1553D02*
X7Y1553D01*
X2423Y1553D02*
X2430Y1553D01*
X0Y1552D02*
X7Y1552D01*
X2423Y1552D02*
X2430Y1552D01*
X0Y1551D02*
X7Y1551D01*
X2423Y1551D02*
X2430Y1551D01*
X0Y1550D02*
X7Y1550D01*
X2423Y1550D02*
X2430Y1550D01*
X0Y1549D02*
X7Y1549D01*
X2423Y1549D02*
X2430Y1549D01*
X0Y1548D02*
X7Y1548D01*
X2423Y1548D02*
X2430Y1548D01*
X0Y1547D02*
X7Y1547D01*
X2423Y1547D02*
X2430Y1547D01*
X0Y1546D02*
X7Y1546D01*
X2423Y1546D02*
X2430Y1546D01*
X0Y1545D02*
X7Y1545D01*
X2423Y1545D02*
X2430Y1545D01*
X0Y1544D02*
X7Y1544D01*
X2423Y1544D02*
X2430Y1544D01*
X0Y1543D02*
X7Y1543D01*
X2423Y1543D02*
X2430Y1543D01*
X0Y1542D02*
X7Y1542D01*
X2423Y1542D02*
X2430Y1542D01*
X0Y1541D02*
X7Y1541D01*
X2423Y1541D02*
X2430Y1541D01*
X0Y1540D02*
X7Y1540D01*
X2423Y1540D02*
X2430Y1540D01*
X0Y1539D02*
X7Y1539D01*
X2423Y1539D02*
X2430Y1539D01*
X0Y1538D02*
X7Y1538D01*
X2423Y1538D02*
X2430Y1538D01*
X0Y1537D02*
X7Y1537D01*
X2423Y1537D02*
X2430Y1537D01*
X0Y1536D02*
X7Y1536D01*
X2423Y1536D02*
X2430Y1536D01*
X0Y1535D02*
X7Y1535D01*
X2423Y1535D02*
X2430Y1535D01*
X0Y1534D02*
X7Y1534D01*
X2423Y1534D02*
X2430Y1534D01*
X0Y1533D02*
X7Y1533D01*
X2423Y1533D02*
X2430Y1533D01*
X0Y1532D02*
X7Y1532D01*
X2423Y1532D02*
X2430Y1532D01*
X0Y1531D02*
X7Y1531D01*
X2423Y1531D02*
X2430Y1531D01*
X0Y1530D02*
X7Y1530D01*
X2423Y1530D02*
X2430Y1530D01*
X0Y1529D02*
X7Y1529D01*
X2423Y1529D02*
X2430Y1529D01*
X0Y1528D02*
X7Y1528D01*
X2423Y1528D02*
X2430Y1528D01*
X0Y1527D02*
X7Y1527D01*
X2423Y1527D02*
X2430Y1527D01*
X0Y1526D02*
X7Y1526D01*
X2423Y1526D02*
X2430Y1526D01*
X0Y1525D02*
X7Y1525D01*
X2423Y1525D02*
X2430Y1525D01*
X0Y1524D02*
X7Y1524D01*
X2423Y1524D02*
X2430Y1524D01*
X0Y1523D02*
X7Y1523D01*
X2423Y1523D02*
X2430Y1523D01*
X0Y1522D02*
X7Y1522D01*
X2423Y1522D02*
X2430Y1522D01*
X0Y1521D02*
X7Y1521D01*
X2423Y1521D02*
X2430Y1521D01*
X0Y1520D02*
X7Y1520D01*
X2423Y1520D02*
X2430Y1520D01*
X0Y1519D02*
X7Y1519D01*
X2423Y1519D02*
X2430Y1519D01*
X0Y1518D02*
X7Y1518D01*
X2423Y1518D02*
X2430Y1518D01*
X0Y1517D02*
X7Y1517D01*
X2423Y1517D02*
X2430Y1517D01*
X0Y1516D02*
X7Y1516D01*
X2423Y1516D02*
X2430Y1516D01*
X0Y1515D02*
X7Y1515D01*
X2423Y1515D02*
X2430Y1515D01*
X0Y1514D02*
X7Y1514D01*
X2423Y1514D02*
X2430Y1514D01*
X0Y1513D02*
X7Y1513D01*
X2423Y1513D02*
X2430Y1513D01*
X0Y1512D02*
X7Y1512D01*
X2423Y1512D02*
X2430Y1512D01*
X0Y1511D02*
X7Y1511D01*
X2423Y1511D02*
X2430Y1511D01*
X0Y1510D02*
X7Y1510D01*
X2423Y1510D02*
X2430Y1510D01*
X0Y1509D02*
X7Y1509D01*
X2423Y1509D02*
X2430Y1509D01*
X0Y1508D02*
X7Y1508D01*
X2423Y1508D02*
X2430Y1508D01*
X0Y1507D02*
X7Y1507D01*
X2423Y1507D02*
X2430Y1507D01*
X0Y1506D02*
X7Y1506D01*
X2423Y1506D02*
X2430Y1506D01*
X0Y1505D02*
X7Y1505D01*
X2423Y1505D02*
X2430Y1505D01*
X0Y1504D02*
X7Y1504D01*
X2423Y1504D02*
X2430Y1504D01*
X0Y1503D02*
X7Y1503D01*
X2423Y1503D02*
X2430Y1503D01*
X0Y1502D02*
X7Y1502D01*
X2423Y1502D02*
X2430Y1502D01*
X0Y1501D02*
X7Y1501D01*
X2423Y1501D02*
X2430Y1501D01*
X0Y1500D02*
X7Y1500D01*
X2423Y1500D02*
X2430Y1500D01*
X0Y1499D02*
X7Y1499D01*
X2423Y1499D02*
X2430Y1499D01*
X0Y1498D02*
X7Y1498D01*
X2423Y1498D02*
X2430Y1498D01*
X0Y1497D02*
X7Y1497D01*
X2423Y1497D02*
X2430Y1497D01*
X0Y1496D02*
X7Y1496D01*
X2423Y1496D02*
X2430Y1496D01*
X0Y1495D02*
X7Y1495D01*
X2423Y1495D02*
X2430Y1495D01*
X0Y1494D02*
X7Y1494D01*
X2423Y1494D02*
X2430Y1494D01*
X0Y1493D02*
X7Y1493D01*
X2423Y1493D02*
X2430Y1493D01*
X0Y1492D02*
X7Y1492D01*
X2423Y1492D02*
X2430Y1492D01*
X0Y1491D02*
X7Y1491D01*
X2423Y1491D02*
X2430Y1491D01*
X0Y1490D02*
X7Y1490D01*
X2423Y1490D02*
X2430Y1490D01*
X0Y1489D02*
X7Y1489D01*
X2423Y1489D02*
X2430Y1489D01*
X0Y1488D02*
X7Y1488D01*
X2423Y1488D02*
X2430Y1488D01*
X0Y1487D02*
X7Y1487D01*
X2423Y1487D02*
X2430Y1487D01*
X0Y1486D02*
X7Y1486D01*
X2423Y1486D02*
X2430Y1486D01*
X0Y1485D02*
X7Y1485D01*
X2423Y1485D02*
X2430Y1485D01*
X0Y1484D02*
X7Y1484D01*
X2423Y1484D02*
X2430Y1484D01*
X0Y1483D02*
X7Y1483D01*
X2423Y1483D02*
X2430Y1483D01*
X0Y1482D02*
X7Y1482D01*
X2423Y1482D02*
X2430Y1482D01*
X0Y1481D02*
X7Y1481D01*
X2423Y1481D02*
X2430Y1481D01*
X0Y1480D02*
X7Y1480D01*
X2423Y1480D02*
X2430Y1480D01*
X0Y1479D02*
X7Y1479D01*
X2423Y1479D02*
X2430Y1479D01*
X0Y1478D02*
X7Y1478D01*
X2423Y1478D02*
X2430Y1478D01*
X0Y1477D02*
X7Y1477D01*
X2423Y1477D02*
X2430Y1477D01*
X0Y1476D02*
X7Y1476D01*
X2423Y1476D02*
X2430Y1476D01*
X0Y1475D02*
X7Y1475D01*
X2423Y1475D02*
X2430Y1475D01*
X0Y1474D02*
X7Y1474D01*
X2423Y1474D02*
X2430Y1474D01*
X0Y1473D02*
X7Y1473D01*
X2423Y1473D02*
X2430Y1473D01*
X0Y1472D02*
X7Y1472D01*
X2423Y1472D02*
X2430Y1472D01*
X0Y1471D02*
X7Y1471D01*
X2423Y1471D02*
X2430Y1471D01*
X0Y1470D02*
X7Y1470D01*
X2423Y1470D02*
X2430Y1470D01*
X0Y1469D02*
X7Y1469D01*
X2423Y1469D02*
X2430Y1469D01*
X0Y1468D02*
X7Y1468D01*
X2423Y1468D02*
X2430Y1468D01*
X0Y1467D02*
X7Y1467D01*
X2423Y1467D02*
X2430Y1467D01*
X0Y1466D02*
X7Y1466D01*
X2423Y1466D02*
X2430Y1466D01*
X0Y1465D02*
X7Y1465D01*
X2423Y1465D02*
X2430Y1465D01*
X0Y1464D02*
X7Y1464D01*
X2423Y1464D02*
X2430Y1464D01*
X0Y1463D02*
X7Y1463D01*
X2423Y1463D02*
X2430Y1463D01*
X0Y1462D02*
X7Y1462D01*
X2423Y1462D02*
X2430Y1462D01*
X0Y1461D02*
X7Y1461D01*
X2423Y1461D02*
X2430Y1461D01*
X0Y1460D02*
X7Y1460D01*
X2423Y1460D02*
X2430Y1460D01*
X0Y1459D02*
X7Y1459D01*
X2423Y1459D02*
X2430Y1459D01*
X0Y1458D02*
X7Y1458D01*
X2423Y1458D02*
X2430Y1458D01*
X0Y1457D02*
X7Y1457D01*
X2423Y1457D02*
X2430Y1457D01*
X0Y1456D02*
X7Y1456D01*
X2423Y1456D02*
X2430Y1456D01*
X0Y1455D02*
X7Y1455D01*
X2423Y1455D02*
X2430Y1455D01*
X0Y1454D02*
X7Y1454D01*
X2423Y1454D02*
X2430Y1454D01*
X0Y1453D02*
X7Y1453D01*
X2423Y1453D02*
X2430Y1453D01*
X0Y1452D02*
X7Y1452D01*
X2423Y1452D02*
X2430Y1452D01*
X0Y1451D02*
X7Y1451D01*
X2423Y1451D02*
X2430Y1451D01*
X0Y1450D02*
X7Y1450D01*
X2423Y1450D02*
X2430Y1450D01*
X0Y1449D02*
X7Y1449D01*
X2423Y1449D02*
X2430Y1449D01*
X0Y1448D02*
X7Y1448D01*
X2423Y1448D02*
X2430Y1448D01*
X0Y1447D02*
X7Y1447D01*
X2423Y1447D02*
X2430Y1447D01*
X0Y1446D02*
X7Y1446D01*
X2423Y1446D02*
X2430Y1446D01*
X0Y1445D02*
X7Y1445D01*
X2423Y1445D02*
X2430Y1445D01*
X0Y1444D02*
X7Y1444D01*
X2423Y1444D02*
X2430Y1444D01*
X0Y1443D02*
X7Y1443D01*
X2423Y1443D02*
X2430Y1443D01*
X0Y1442D02*
X7Y1442D01*
X2423Y1442D02*
X2430Y1442D01*
X0Y1441D02*
X7Y1441D01*
X2423Y1441D02*
X2430Y1441D01*
X0Y1440D02*
X7Y1440D01*
X2423Y1440D02*
X2430Y1440D01*
X0Y1439D02*
X7Y1439D01*
X2423Y1439D02*
X2430Y1439D01*
X0Y1438D02*
X7Y1438D01*
X2423Y1438D02*
X2430Y1438D01*
X0Y1437D02*
X7Y1437D01*
X2423Y1437D02*
X2430Y1437D01*
X0Y1436D02*
X7Y1436D01*
X2423Y1436D02*
X2430Y1436D01*
X0Y1435D02*
X7Y1435D01*
X2423Y1435D02*
X2430Y1435D01*
X0Y1434D02*
X7Y1434D01*
X2423Y1434D02*
X2430Y1434D01*
X0Y1433D02*
X7Y1433D01*
X2423Y1433D02*
X2430Y1433D01*
X0Y1432D02*
X7Y1432D01*
X2423Y1432D02*
X2430Y1432D01*
X0Y1431D02*
X7Y1431D01*
X2423Y1431D02*
X2430Y1431D01*
X0Y1430D02*
X7Y1430D01*
X2423Y1430D02*
X2430Y1430D01*
X0Y1429D02*
X7Y1429D01*
X2423Y1429D02*
X2430Y1429D01*
X0Y1428D02*
X7Y1428D01*
X2423Y1428D02*
X2430Y1428D01*
X0Y1427D02*
X7Y1427D01*
X2423Y1427D02*
X2430Y1427D01*
X0Y1426D02*
X7Y1426D01*
X2423Y1426D02*
X2430Y1426D01*
X0Y1425D02*
X7Y1425D01*
X2423Y1425D02*
X2430Y1425D01*
X0Y1424D02*
X7Y1424D01*
X2423Y1424D02*
X2430Y1424D01*
X0Y1423D02*
X7Y1423D01*
X2423Y1423D02*
X2430Y1423D01*
X0Y1422D02*
X7Y1422D01*
X2423Y1422D02*
X2430Y1422D01*
X0Y1421D02*
X7Y1421D01*
X2423Y1421D02*
X2430Y1421D01*
X0Y1420D02*
X7Y1420D01*
X2423Y1420D02*
X2430Y1420D01*
X0Y1419D02*
X7Y1419D01*
X2423Y1419D02*
X2430Y1419D01*
X0Y1418D02*
X7Y1418D01*
X2423Y1418D02*
X2430Y1418D01*
X0Y1417D02*
X7Y1417D01*
X2423Y1417D02*
X2430Y1417D01*
X0Y1416D02*
X7Y1416D01*
X2423Y1416D02*
X2430Y1416D01*
X0Y1415D02*
X7Y1415D01*
X2423Y1415D02*
X2430Y1415D01*
X0Y1414D02*
X7Y1414D01*
X2423Y1414D02*
X2430Y1414D01*
X0Y1413D02*
X7Y1413D01*
X2423Y1413D02*
X2430Y1413D01*
X0Y1412D02*
X7Y1412D01*
X2423Y1412D02*
X2430Y1412D01*
X0Y1411D02*
X7Y1411D01*
X2423Y1411D02*
X2430Y1411D01*
X0Y1410D02*
X7Y1410D01*
X2423Y1410D02*
X2430Y1410D01*
X0Y1409D02*
X7Y1409D01*
X2423Y1409D02*
X2430Y1409D01*
X0Y1408D02*
X7Y1408D01*
X2423Y1408D02*
X2430Y1408D01*
X0Y1407D02*
X7Y1407D01*
X2423Y1407D02*
X2430Y1407D01*
X0Y1406D02*
X7Y1406D01*
X2423Y1406D02*
X2430Y1406D01*
X0Y1405D02*
X7Y1405D01*
X2423Y1405D02*
X2430Y1405D01*
X0Y1404D02*
X7Y1404D01*
X2423Y1404D02*
X2430Y1404D01*
X0Y1403D02*
X7Y1403D01*
X2423Y1403D02*
X2430Y1403D01*
X0Y1402D02*
X7Y1402D01*
X2423Y1402D02*
X2430Y1402D01*
X0Y1401D02*
X7Y1401D01*
X2423Y1401D02*
X2430Y1401D01*
X0Y1400D02*
X7Y1400D01*
X2423Y1400D02*
X2430Y1400D01*
X0Y1399D02*
X7Y1399D01*
X2423Y1399D02*
X2430Y1399D01*
X0Y1398D02*
X7Y1398D01*
X2423Y1398D02*
X2430Y1398D01*
X0Y1397D02*
X7Y1397D01*
X2423Y1397D02*
X2430Y1397D01*
X0Y1396D02*
X7Y1396D01*
X2423Y1396D02*
X2430Y1396D01*
X0Y1395D02*
X7Y1395D01*
X2423Y1395D02*
X2430Y1395D01*
X0Y1394D02*
X7Y1394D01*
X2423Y1394D02*
X2430Y1394D01*
X0Y1393D02*
X7Y1393D01*
X2423Y1393D02*
X2430Y1393D01*
X0Y1392D02*
X7Y1392D01*
X2423Y1392D02*
X2430Y1392D01*
X0Y1391D02*
X7Y1391D01*
X2423Y1391D02*
X2430Y1391D01*
X0Y1390D02*
X7Y1390D01*
X2423Y1390D02*
X2430Y1390D01*
X0Y1389D02*
X7Y1389D01*
X2423Y1389D02*
X2430Y1389D01*
X0Y1388D02*
X7Y1388D01*
X2423Y1388D02*
X2430Y1388D01*
X0Y1387D02*
X7Y1387D01*
X2423Y1387D02*
X2430Y1387D01*
X0Y1386D02*
X7Y1386D01*
X2423Y1386D02*
X2430Y1386D01*
X0Y1385D02*
X7Y1385D01*
X2423Y1385D02*
X2430Y1385D01*
X0Y1384D02*
X7Y1384D01*
X2423Y1384D02*
X2430Y1384D01*
X0Y1383D02*
X7Y1383D01*
X2423Y1383D02*
X2430Y1383D01*
X0Y1382D02*
X7Y1382D01*
X2423Y1382D02*
X2430Y1382D01*
X0Y1381D02*
X7Y1381D01*
X2423Y1381D02*
X2430Y1381D01*
X0Y1380D02*
X7Y1380D01*
X2423Y1380D02*
X2430Y1380D01*
X0Y1379D02*
X7Y1379D01*
X2423Y1379D02*
X2430Y1379D01*
X0Y1378D02*
X7Y1378D01*
X2423Y1378D02*
X2430Y1378D01*
X0Y1377D02*
X7Y1377D01*
X2423Y1377D02*
X2430Y1377D01*
X0Y1376D02*
X7Y1376D01*
X2423Y1376D02*
X2430Y1376D01*
X0Y1375D02*
X7Y1375D01*
X2423Y1375D02*
X2430Y1375D01*
X0Y1374D02*
X7Y1374D01*
X2423Y1374D02*
X2430Y1374D01*
X0Y1373D02*
X7Y1373D01*
X2423Y1373D02*
X2430Y1373D01*
X0Y1372D02*
X7Y1372D01*
X2423Y1372D02*
X2430Y1372D01*
X0Y1371D02*
X7Y1371D01*
X2423Y1371D02*
X2430Y1371D01*
X0Y1370D02*
X7Y1370D01*
X2423Y1370D02*
X2430Y1370D01*
X0Y1369D02*
X7Y1369D01*
X2423Y1369D02*
X2430Y1369D01*
X0Y1368D02*
X7Y1368D01*
X2423Y1368D02*
X2430Y1368D01*
X0Y1367D02*
X7Y1367D01*
X2423Y1367D02*
X2430Y1367D01*
X0Y1366D02*
X7Y1366D01*
X2423Y1366D02*
X2430Y1366D01*
X0Y1365D02*
X7Y1365D01*
X2423Y1365D02*
X2430Y1365D01*
X0Y1364D02*
X7Y1364D01*
X2423Y1364D02*
X2430Y1364D01*
X0Y1363D02*
X7Y1363D01*
X2423Y1363D02*
X2430Y1363D01*
X0Y1362D02*
X7Y1362D01*
X2423Y1362D02*
X2430Y1362D01*
X0Y1361D02*
X7Y1361D01*
X2423Y1361D02*
X2430Y1361D01*
X0Y1360D02*
X7Y1360D01*
X2423Y1360D02*
X2430Y1360D01*
X0Y1359D02*
X7Y1359D01*
X2423Y1359D02*
X2430Y1359D01*
X0Y1358D02*
X7Y1358D01*
X2423Y1358D02*
X2430Y1358D01*
X0Y1357D02*
X7Y1357D01*
X2423Y1357D02*
X2430Y1357D01*
X0Y1356D02*
X7Y1356D01*
X2423Y1356D02*
X2430Y1356D01*
X0Y1355D02*
X7Y1355D01*
X2423Y1355D02*
X2430Y1355D01*
X0Y1354D02*
X7Y1354D01*
X2423Y1354D02*
X2430Y1354D01*
X0Y1353D02*
X7Y1353D01*
X2423Y1353D02*
X2430Y1353D01*
X0Y1352D02*
X7Y1352D01*
X2423Y1352D02*
X2430Y1352D01*
X0Y1351D02*
X7Y1351D01*
X2423Y1351D02*
X2430Y1351D01*
X0Y1350D02*
X7Y1350D01*
X2423Y1350D02*
X2430Y1350D01*
X0Y1349D02*
X7Y1349D01*
X2423Y1349D02*
X2430Y1349D01*
X0Y1348D02*
X7Y1348D01*
X2423Y1348D02*
X2430Y1348D01*
X0Y1347D02*
X7Y1347D01*
X2423Y1347D02*
X2430Y1347D01*
X0Y1346D02*
X7Y1346D01*
X2423Y1346D02*
X2430Y1346D01*
X0Y1345D02*
X7Y1345D01*
X2423Y1345D02*
X2430Y1345D01*
X0Y1344D02*
X7Y1344D01*
X2423Y1344D02*
X2430Y1344D01*
X0Y1343D02*
X7Y1343D01*
X2423Y1343D02*
X2430Y1343D01*
X0Y1342D02*
X7Y1342D01*
X2423Y1342D02*
X2430Y1342D01*
X0Y1341D02*
X7Y1341D01*
X2423Y1341D02*
X2430Y1341D01*
X0Y1340D02*
X7Y1340D01*
X2423Y1340D02*
X2430Y1340D01*
X0Y1339D02*
X7Y1339D01*
X2423Y1339D02*
X2430Y1339D01*
X0Y1338D02*
X7Y1338D01*
X2423Y1338D02*
X2430Y1338D01*
X0Y1337D02*
X7Y1337D01*
X2423Y1337D02*
X2430Y1337D01*
X0Y1336D02*
X7Y1336D01*
X2423Y1336D02*
X2430Y1336D01*
X0Y1335D02*
X7Y1335D01*
X2423Y1335D02*
X2430Y1335D01*
X0Y1334D02*
X7Y1334D01*
X2423Y1334D02*
X2430Y1334D01*
X0Y1333D02*
X7Y1333D01*
X2423Y1333D02*
X2430Y1333D01*
X0Y1332D02*
X7Y1332D01*
X2423Y1332D02*
X2430Y1332D01*
X0Y1331D02*
X7Y1331D01*
X2423Y1331D02*
X2430Y1331D01*
X0Y1330D02*
X7Y1330D01*
X2423Y1330D02*
X2430Y1330D01*
X0Y1329D02*
X7Y1329D01*
X2423Y1329D02*
X2430Y1329D01*
X0Y1328D02*
X7Y1328D01*
X2423Y1328D02*
X2430Y1328D01*
X0Y1327D02*
X7Y1327D01*
X2423Y1327D02*
X2430Y1327D01*
X0Y1326D02*
X7Y1326D01*
X2423Y1326D02*
X2430Y1326D01*
X0Y1325D02*
X7Y1325D01*
X2423Y1325D02*
X2430Y1325D01*
X0Y1324D02*
X7Y1324D01*
X2423Y1324D02*
X2430Y1324D01*
X0Y1323D02*
X7Y1323D01*
X2423Y1323D02*
X2430Y1323D01*
X0Y1322D02*
X7Y1322D01*
X2423Y1322D02*
X2430Y1322D01*
X0Y1321D02*
X7Y1321D01*
X2423Y1321D02*
X2430Y1321D01*
X0Y1320D02*
X7Y1320D01*
X2423Y1320D02*
X2430Y1320D01*
X0Y1319D02*
X7Y1319D01*
X2423Y1319D02*
X2430Y1319D01*
X0Y1318D02*
X7Y1318D01*
X2423Y1318D02*
X2430Y1318D01*
X0Y1317D02*
X7Y1317D01*
X2423Y1317D02*
X2430Y1317D01*
X0Y1316D02*
X7Y1316D01*
X2423Y1316D02*
X2430Y1316D01*
X0Y1315D02*
X7Y1315D01*
X2423Y1315D02*
X2430Y1315D01*
X0Y1314D02*
X7Y1314D01*
X2423Y1314D02*
X2430Y1314D01*
X0Y1313D02*
X7Y1313D01*
X2423Y1313D02*
X2430Y1313D01*
X0Y1312D02*
X7Y1312D01*
X2423Y1312D02*
X2430Y1312D01*
X0Y1311D02*
X7Y1311D01*
X2423Y1311D02*
X2430Y1311D01*
X0Y1310D02*
X7Y1310D01*
X2423Y1310D02*
X2430Y1310D01*
X0Y1309D02*
X7Y1309D01*
X2423Y1309D02*
X2430Y1309D01*
X0Y1308D02*
X7Y1308D01*
X2423Y1308D02*
X2430Y1308D01*
X0Y1307D02*
X7Y1307D01*
X2423Y1307D02*
X2430Y1307D01*
X0Y1306D02*
X7Y1306D01*
X2423Y1306D02*
X2430Y1306D01*
X0Y1305D02*
X7Y1305D01*
X2423Y1305D02*
X2430Y1305D01*
X0Y1304D02*
X7Y1304D01*
X2423Y1304D02*
X2430Y1304D01*
X0Y1303D02*
X7Y1303D01*
X2423Y1303D02*
X2430Y1303D01*
X0Y1302D02*
X7Y1302D01*
X2423Y1302D02*
X2430Y1302D01*
X0Y1301D02*
X7Y1301D01*
X2423Y1301D02*
X2430Y1301D01*
X0Y1300D02*
X7Y1300D01*
X2423Y1300D02*
X2430Y1300D01*
X0Y1299D02*
X7Y1299D01*
X2423Y1299D02*
X2430Y1299D01*
X0Y1298D02*
X7Y1298D01*
X2423Y1298D02*
X2430Y1298D01*
X0Y1297D02*
X7Y1297D01*
X2423Y1297D02*
X2430Y1297D01*
X0Y1296D02*
X7Y1296D01*
X2423Y1296D02*
X2430Y1296D01*
X0Y1295D02*
X7Y1295D01*
X2423Y1295D02*
X2430Y1295D01*
X0Y1294D02*
X7Y1294D01*
X2423Y1294D02*
X2430Y1294D01*
X0Y1293D02*
X7Y1293D01*
X2423Y1293D02*
X2430Y1293D01*
X0Y1292D02*
X7Y1292D01*
X2423Y1292D02*
X2430Y1292D01*
X0Y1291D02*
X7Y1291D01*
X2423Y1291D02*
X2430Y1291D01*
X0Y1290D02*
X7Y1290D01*
X2423Y1290D02*
X2430Y1290D01*
X0Y1289D02*
X7Y1289D01*
X2423Y1289D02*
X2430Y1289D01*
X0Y1288D02*
X7Y1288D01*
X2423Y1288D02*
X2430Y1288D01*
X0Y1287D02*
X7Y1287D01*
X2423Y1287D02*
X2430Y1287D01*
X0Y1286D02*
X7Y1286D01*
X2423Y1286D02*
X2430Y1286D01*
X0Y1285D02*
X7Y1285D01*
X2423Y1285D02*
X2430Y1285D01*
X0Y1284D02*
X7Y1284D01*
X2423Y1284D02*
X2430Y1284D01*
X0Y1283D02*
X7Y1283D01*
X2423Y1283D02*
X2430Y1283D01*
X0Y1282D02*
X7Y1282D01*
X2423Y1282D02*
X2430Y1282D01*
X0Y1281D02*
X7Y1281D01*
X2423Y1281D02*
X2430Y1281D01*
X0Y1280D02*
X7Y1280D01*
X2423Y1280D02*
X2430Y1280D01*
X0Y1279D02*
X7Y1279D01*
X2423Y1279D02*
X2430Y1279D01*
X0Y1278D02*
X7Y1278D01*
X2423Y1278D02*
X2430Y1278D01*
X0Y1277D02*
X7Y1277D01*
X2423Y1277D02*
X2430Y1277D01*
X0Y1276D02*
X7Y1276D01*
X2423Y1276D02*
X2430Y1276D01*
X0Y1275D02*
X7Y1275D01*
X2423Y1275D02*
X2430Y1275D01*
X0Y1274D02*
X7Y1274D01*
X2423Y1274D02*
X2430Y1274D01*
X0Y1273D02*
X7Y1273D01*
X2423Y1273D02*
X2430Y1273D01*
X0Y1272D02*
X7Y1272D01*
X2423Y1272D02*
X2430Y1272D01*
X0Y1271D02*
X7Y1271D01*
X2423Y1271D02*
X2430Y1271D01*
X0Y1270D02*
X7Y1270D01*
X2423Y1270D02*
X2430Y1270D01*
X0Y1269D02*
X7Y1269D01*
X2423Y1269D02*
X2430Y1269D01*
X0Y1268D02*
X7Y1268D01*
X2423Y1268D02*
X2430Y1268D01*
X0Y1267D02*
X7Y1267D01*
X2423Y1267D02*
X2430Y1267D01*
X0Y1266D02*
X7Y1266D01*
X2423Y1266D02*
X2430Y1266D01*
X0Y1265D02*
X7Y1265D01*
X2423Y1265D02*
X2430Y1265D01*
X0Y1264D02*
X7Y1264D01*
X2423Y1264D02*
X2430Y1264D01*
X0Y1263D02*
X7Y1263D01*
X2423Y1263D02*
X2430Y1263D01*
X0Y1262D02*
X7Y1262D01*
X2423Y1262D02*
X2430Y1262D01*
X0Y1261D02*
X7Y1261D01*
X2423Y1261D02*
X2430Y1261D01*
X0Y1260D02*
X7Y1260D01*
X2423Y1260D02*
X2430Y1260D01*
X0Y1259D02*
X7Y1259D01*
X2423Y1259D02*
X2430Y1259D01*
X0Y1258D02*
X7Y1258D01*
X2423Y1258D02*
X2430Y1258D01*
X0Y1257D02*
X7Y1257D01*
X2423Y1257D02*
X2430Y1257D01*
X0Y1256D02*
X7Y1256D01*
X2423Y1256D02*
X2430Y1256D01*
X0Y1255D02*
X7Y1255D01*
X2423Y1255D02*
X2430Y1255D01*
X0Y1254D02*
X7Y1254D01*
X2423Y1254D02*
X2430Y1254D01*
X0Y1253D02*
X7Y1253D01*
X2423Y1253D02*
X2430Y1253D01*
X0Y1252D02*
X7Y1252D01*
X2423Y1252D02*
X2430Y1252D01*
X0Y1251D02*
X7Y1251D01*
X2423Y1251D02*
X2430Y1251D01*
X0Y1250D02*
X7Y1250D01*
X2423Y1250D02*
X2430Y1250D01*
X0Y1249D02*
X7Y1249D01*
X2423Y1249D02*
X2430Y1249D01*
X0Y1248D02*
X7Y1248D01*
X2423Y1248D02*
X2430Y1248D01*
X0Y1247D02*
X7Y1247D01*
X2423Y1247D02*
X2430Y1247D01*
X0Y1246D02*
X7Y1246D01*
X2423Y1246D02*
X2430Y1246D01*
X0Y1245D02*
X7Y1245D01*
X2423Y1245D02*
X2430Y1245D01*
X0Y1244D02*
X7Y1244D01*
X2423Y1244D02*
X2430Y1244D01*
X0Y1243D02*
X7Y1243D01*
X2423Y1243D02*
X2430Y1243D01*
X0Y1242D02*
X7Y1242D01*
X2423Y1242D02*
X2430Y1242D01*
X0Y1241D02*
X7Y1241D01*
X2423Y1241D02*
X2430Y1241D01*
X0Y1240D02*
X7Y1240D01*
X2423Y1240D02*
X2430Y1240D01*
X0Y1239D02*
X7Y1239D01*
X2423Y1239D02*
X2430Y1239D01*
X0Y1238D02*
X7Y1238D01*
X2423Y1238D02*
X2430Y1238D01*
X0Y1237D02*
X7Y1237D01*
X2423Y1237D02*
X2430Y1237D01*
X0Y1236D02*
X7Y1236D01*
X2423Y1236D02*
X2430Y1236D01*
X0Y1235D02*
X7Y1235D01*
X2423Y1235D02*
X2430Y1235D01*
X0Y1234D02*
X7Y1234D01*
X2423Y1234D02*
X2430Y1234D01*
X0Y1233D02*
X7Y1233D01*
X2423Y1233D02*
X2430Y1233D01*
X0Y1232D02*
X7Y1232D01*
X2423Y1232D02*
X2430Y1232D01*
X0Y1231D02*
X7Y1231D01*
X2423Y1231D02*
X2430Y1231D01*
X0Y1230D02*
X7Y1230D01*
X2423Y1230D02*
X2430Y1230D01*
X0Y1229D02*
X7Y1229D01*
X2423Y1229D02*
X2430Y1229D01*
X0Y1228D02*
X7Y1228D01*
X2423Y1228D02*
X2430Y1228D01*
X0Y1227D02*
X7Y1227D01*
X2423Y1227D02*
X2430Y1227D01*
X0Y1226D02*
X7Y1226D01*
X2423Y1226D02*
X2430Y1226D01*
X0Y1225D02*
X7Y1225D01*
X2423Y1225D02*
X2430Y1225D01*
X0Y1224D02*
X7Y1224D01*
X2423Y1224D02*
X2430Y1224D01*
X0Y1223D02*
X7Y1223D01*
X2423Y1223D02*
X2430Y1223D01*
X0Y1222D02*
X7Y1222D01*
X2423Y1222D02*
X2430Y1222D01*
X0Y1221D02*
X7Y1221D01*
X2423Y1221D02*
X2430Y1221D01*
X0Y1220D02*
X7Y1220D01*
X2423Y1220D02*
X2430Y1220D01*
X0Y1219D02*
X7Y1219D01*
X2423Y1219D02*
X2430Y1219D01*
X0Y1218D02*
X7Y1218D01*
X2423Y1218D02*
X2430Y1218D01*
X0Y1217D02*
X7Y1217D01*
X2423Y1217D02*
X2430Y1217D01*
X0Y1216D02*
X7Y1216D01*
X2423Y1216D02*
X2430Y1216D01*
X0Y1215D02*
X7Y1215D01*
X2423Y1215D02*
X2430Y1215D01*
X0Y1214D02*
X7Y1214D01*
X2423Y1214D02*
X2430Y1214D01*
X0Y1213D02*
X7Y1213D01*
X2423Y1213D02*
X2430Y1213D01*
X0Y1212D02*
X7Y1212D01*
X2423Y1212D02*
X2430Y1212D01*
X0Y1211D02*
X7Y1211D01*
X2423Y1211D02*
X2430Y1211D01*
X0Y1210D02*
X7Y1210D01*
X2423Y1210D02*
X2430Y1210D01*
X0Y1209D02*
X7Y1209D01*
X2423Y1209D02*
X2430Y1209D01*
X0Y1208D02*
X7Y1208D01*
X2423Y1208D02*
X2430Y1208D01*
X0Y1207D02*
X7Y1207D01*
X2423Y1207D02*
X2430Y1207D01*
X0Y1206D02*
X7Y1206D01*
X2423Y1206D02*
X2430Y1206D01*
X0Y1205D02*
X7Y1205D01*
X2423Y1205D02*
X2430Y1205D01*
X0Y1204D02*
X7Y1204D01*
X2423Y1204D02*
X2430Y1204D01*
X0Y1203D02*
X7Y1203D01*
X2423Y1203D02*
X2430Y1203D01*
X0Y1202D02*
X7Y1202D01*
X2423Y1202D02*
X2430Y1202D01*
X0Y1201D02*
X7Y1201D01*
X2423Y1201D02*
X2430Y1201D01*
X0Y1200D02*
X7Y1200D01*
X2423Y1200D02*
X2430Y1200D01*
X0Y1199D02*
X7Y1199D01*
X2423Y1199D02*
X2430Y1199D01*
X0Y1198D02*
X7Y1198D01*
X2423Y1198D02*
X2430Y1198D01*
X0Y1197D02*
X7Y1197D01*
X2423Y1197D02*
X2430Y1197D01*
X0Y1196D02*
X7Y1196D01*
X2423Y1196D02*
X2430Y1196D01*
X0Y1195D02*
X7Y1195D01*
X2423Y1195D02*
X2430Y1195D01*
X0Y1194D02*
X7Y1194D01*
X2423Y1194D02*
X2430Y1194D01*
X0Y1193D02*
X7Y1193D01*
X2423Y1193D02*
X2430Y1193D01*
X0Y1192D02*
X7Y1192D01*
X2423Y1192D02*
X2430Y1192D01*
X0Y1191D02*
X7Y1191D01*
X2423Y1191D02*
X2430Y1191D01*
X0Y1190D02*
X7Y1190D01*
X2423Y1190D02*
X2430Y1190D01*
X0Y1189D02*
X7Y1189D01*
X2423Y1189D02*
X2430Y1189D01*
X0Y1188D02*
X7Y1188D01*
X2423Y1188D02*
X2430Y1188D01*
X0Y1187D02*
X7Y1187D01*
X2423Y1187D02*
X2430Y1187D01*
X0Y1186D02*
X7Y1186D01*
X2423Y1186D02*
X2430Y1186D01*
X0Y1185D02*
X7Y1185D01*
X2423Y1185D02*
X2430Y1185D01*
X0Y1184D02*
X7Y1184D01*
X2423Y1184D02*
X2430Y1184D01*
X0Y1183D02*
X7Y1183D01*
X2423Y1183D02*
X2430Y1183D01*
X0Y1182D02*
X7Y1182D01*
X2423Y1182D02*
X2430Y1182D01*
X0Y1181D02*
X7Y1181D01*
X2423Y1181D02*
X2430Y1181D01*
X0Y1180D02*
X7Y1180D01*
X2423Y1180D02*
X2430Y1180D01*
X0Y1179D02*
X7Y1179D01*
X2423Y1179D02*
X2430Y1179D01*
X0Y1178D02*
X7Y1178D01*
X2423Y1178D02*
X2430Y1178D01*
X0Y1177D02*
X7Y1177D01*
X2423Y1177D02*
X2430Y1177D01*
X0Y1176D02*
X7Y1176D01*
X2423Y1176D02*
X2430Y1176D01*
X0Y1175D02*
X7Y1175D01*
X2423Y1175D02*
X2430Y1175D01*
X0Y1174D02*
X7Y1174D01*
X2423Y1174D02*
X2430Y1174D01*
X0Y1173D02*
X7Y1173D01*
X2423Y1173D02*
X2430Y1173D01*
X0Y1172D02*
X7Y1172D01*
X2423Y1172D02*
X2430Y1172D01*
X0Y1171D02*
X7Y1171D01*
X2423Y1171D02*
X2430Y1171D01*
X0Y1170D02*
X7Y1170D01*
X2423Y1170D02*
X2430Y1170D01*
X0Y1169D02*
X7Y1169D01*
X2423Y1169D02*
X2430Y1169D01*
X0Y1168D02*
X7Y1168D01*
X2423Y1168D02*
X2430Y1168D01*
X0Y1167D02*
X7Y1167D01*
X2423Y1167D02*
X2430Y1167D01*
X0Y1166D02*
X7Y1166D01*
X2423Y1166D02*
X2430Y1166D01*
X0Y1165D02*
X7Y1165D01*
X2423Y1165D02*
X2430Y1165D01*
X0Y1164D02*
X7Y1164D01*
X2423Y1164D02*
X2430Y1164D01*
X0Y1163D02*
X7Y1163D01*
X2423Y1163D02*
X2430Y1163D01*
X0Y1162D02*
X7Y1162D01*
X2423Y1162D02*
X2430Y1162D01*
X0Y1161D02*
X7Y1161D01*
X2423Y1161D02*
X2430Y1161D01*
X0Y1160D02*
X7Y1160D01*
X2423Y1160D02*
X2430Y1160D01*
X0Y1159D02*
X7Y1159D01*
X2423Y1159D02*
X2430Y1159D01*
X0Y1158D02*
X7Y1158D01*
X2423Y1158D02*
X2430Y1158D01*
X0Y1157D02*
X7Y1157D01*
X2423Y1157D02*
X2430Y1157D01*
X0Y1156D02*
X7Y1156D01*
X2423Y1156D02*
X2430Y1156D01*
X0Y1155D02*
X7Y1155D01*
X2423Y1155D02*
X2430Y1155D01*
X0Y1154D02*
X7Y1154D01*
X2423Y1154D02*
X2430Y1154D01*
X0Y1153D02*
X7Y1153D01*
X2423Y1153D02*
X2430Y1153D01*
X0Y1152D02*
X7Y1152D01*
X2423Y1152D02*
X2430Y1152D01*
X0Y1151D02*
X7Y1151D01*
X2423Y1151D02*
X2430Y1151D01*
X0Y1150D02*
X7Y1150D01*
X2423Y1150D02*
X2430Y1150D01*
X0Y1149D02*
X7Y1149D01*
X2423Y1149D02*
X2430Y1149D01*
X0Y1148D02*
X7Y1148D01*
X2423Y1148D02*
X2430Y1148D01*
X0Y1147D02*
X7Y1147D01*
X2423Y1147D02*
X2430Y1147D01*
X0Y1146D02*
X7Y1146D01*
X2423Y1146D02*
X2430Y1146D01*
X0Y1145D02*
X7Y1145D01*
X2423Y1145D02*
X2430Y1145D01*
X0Y1144D02*
X7Y1144D01*
X2423Y1144D02*
X2430Y1144D01*
X0Y1143D02*
X7Y1143D01*
X2423Y1143D02*
X2430Y1143D01*
X0Y1142D02*
X7Y1142D01*
X2423Y1142D02*
X2430Y1142D01*
X0Y1141D02*
X7Y1141D01*
X2423Y1141D02*
X2430Y1141D01*
X0Y1140D02*
X7Y1140D01*
X2423Y1140D02*
X2430Y1140D01*
X0Y1139D02*
X7Y1139D01*
X2423Y1139D02*
X2430Y1139D01*
X0Y1138D02*
X7Y1138D01*
X2423Y1138D02*
X2430Y1138D01*
X0Y1137D02*
X7Y1137D01*
X2423Y1137D02*
X2430Y1137D01*
X0Y1136D02*
X7Y1136D01*
X2423Y1136D02*
X2430Y1136D01*
X0Y1135D02*
X7Y1135D01*
X2423Y1135D02*
X2430Y1135D01*
X0Y1134D02*
X7Y1134D01*
X2423Y1134D02*
X2430Y1134D01*
X0Y1133D02*
X7Y1133D01*
X2423Y1133D02*
X2430Y1133D01*
X0Y1132D02*
X7Y1132D01*
X2423Y1132D02*
X2430Y1132D01*
X0Y1131D02*
X7Y1131D01*
X2423Y1131D02*
X2430Y1131D01*
X0Y1130D02*
X7Y1130D01*
X2423Y1130D02*
X2430Y1130D01*
X0Y1129D02*
X7Y1129D01*
X2423Y1129D02*
X2430Y1129D01*
X0Y1128D02*
X7Y1128D01*
X2423Y1128D02*
X2430Y1128D01*
X0Y1127D02*
X7Y1127D01*
X2423Y1127D02*
X2430Y1127D01*
X0Y1126D02*
X7Y1126D01*
X2423Y1126D02*
X2430Y1126D01*
X0Y1125D02*
X7Y1125D01*
X2423Y1125D02*
X2430Y1125D01*
X0Y1124D02*
X7Y1124D01*
X2423Y1124D02*
X2430Y1124D01*
X0Y1123D02*
X7Y1123D01*
X2423Y1123D02*
X2430Y1123D01*
X0Y1122D02*
X7Y1122D01*
X2423Y1122D02*
X2430Y1122D01*
X0Y1121D02*
X7Y1121D01*
X2423Y1121D02*
X2430Y1121D01*
X0Y1120D02*
X7Y1120D01*
X2423Y1120D02*
X2430Y1120D01*
X0Y1119D02*
X7Y1119D01*
X2423Y1119D02*
X2430Y1119D01*
X0Y1118D02*
X7Y1118D01*
X2423Y1118D02*
X2430Y1118D01*
X0Y1117D02*
X7Y1117D01*
X2423Y1117D02*
X2430Y1117D01*
X0Y1116D02*
X7Y1116D01*
X2423Y1116D02*
X2430Y1116D01*
X0Y1115D02*
X7Y1115D01*
X2423Y1115D02*
X2430Y1115D01*
X0Y1114D02*
X7Y1114D01*
X2423Y1114D02*
X2430Y1114D01*
X0Y1113D02*
X7Y1113D01*
X2423Y1113D02*
X2430Y1113D01*
X0Y1112D02*
X7Y1112D01*
X2423Y1112D02*
X2430Y1112D01*
X0Y1111D02*
X7Y1111D01*
X2423Y1111D02*
X2430Y1111D01*
X0Y1110D02*
X7Y1110D01*
X2423Y1110D02*
X2430Y1110D01*
X0Y1109D02*
X7Y1109D01*
X2423Y1109D02*
X2430Y1109D01*
X0Y1108D02*
X7Y1108D01*
X2423Y1108D02*
X2430Y1108D01*
X0Y1107D02*
X7Y1107D01*
X2423Y1107D02*
X2430Y1107D01*
X0Y1106D02*
X7Y1106D01*
X2423Y1106D02*
X2430Y1106D01*
X0Y1105D02*
X7Y1105D01*
X2423Y1105D02*
X2430Y1105D01*
X0Y1104D02*
X7Y1104D01*
X2423Y1104D02*
X2430Y1104D01*
X0Y1103D02*
X7Y1103D01*
X2423Y1103D02*
X2430Y1103D01*
X0Y1102D02*
X7Y1102D01*
X2423Y1102D02*
X2430Y1102D01*
X0Y1101D02*
X7Y1101D01*
X2423Y1101D02*
X2430Y1101D01*
X0Y1100D02*
X7Y1100D01*
X2423Y1100D02*
X2430Y1100D01*
X0Y1099D02*
X7Y1099D01*
X2423Y1099D02*
X2430Y1099D01*
X0Y1098D02*
X7Y1098D01*
X2423Y1098D02*
X2430Y1098D01*
X0Y1097D02*
X7Y1097D01*
X2423Y1097D02*
X2430Y1097D01*
X0Y1096D02*
X7Y1096D01*
X2423Y1096D02*
X2430Y1096D01*
X0Y1095D02*
X7Y1095D01*
X2423Y1095D02*
X2430Y1095D01*
X0Y1094D02*
X7Y1094D01*
X2423Y1094D02*
X2430Y1094D01*
X0Y1093D02*
X7Y1093D01*
X2423Y1093D02*
X2430Y1093D01*
X0Y1092D02*
X7Y1092D01*
X2423Y1092D02*
X2430Y1092D01*
X0Y1091D02*
X7Y1091D01*
X2423Y1091D02*
X2430Y1091D01*
X0Y1090D02*
X7Y1090D01*
X2423Y1090D02*
X2430Y1090D01*
X0Y1089D02*
X7Y1089D01*
X2423Y1089D02*
X2430Y1089D01*
X0Y1088D02*
X7Y1088D01*
X2423Y1088D02*
X2430Y1088D01*
X0Y1087D02*
X7Y1087D01*
X2423Y1087D02*
X2430Y1087D01*
X0Y1086D02*
X7Y1086D01*
X2423Y1086D02*
X2430Y1086D01*
X0Y1085D02*
X7Y1085D01*
X2423Y1085D02*
X2430Y1085D01*
X0Y1084D02*
X7Y1084D01*
X2423Y1084D02*
X2430Y1084D01*
X0Y1083D02*
X7Y1083D01*
X2423Y1083D02*
X2430Y1083D01*
X0Y1082D02*
X7Y1082D01*
X2423Y1082D02*
X2430Y1082D01*
X0Y1081D02*
X7Y1081D01*
X2423Y1081D02*
X2430Y1081D01*
X0Y1080D02*
X7Y1080D01*
X2423Y1080D02*
X2430Y1080D01*
X0Y1079D02*
X7Y1079D01*
X2423Y1079D02*
X2430Y1079D01*
X0Y1078D02*
X7Y1078D01*
X2423Y1078D02*
X2430Y1078D01*
X0Y1077D02*
X7Y1077D01*
X2423Y1077D02*
X2430Y1077D01*
X0Y1076D02*
X7Y1076D01*
X2423Y1076D02*
X2430Y1076D01*
X0Y1075D02*
X7Y1075D01*
X2423Y1075D02*
X2430Y1075D01*
X0Y1074D02*
X7Y1074D01*
X2423Y1074D02*
X2430Y1074D01*
X0Y1073D02*
X7Y1073D01*
X2423Y1073D02*
X2430Y1073D01*
X0Y1072D02*
X7Y1072D01*
X2423Y1072D02*
X2430Y1072D01*
X0Y1071D02*
X7Y1071D01*
X2423Y1071D02*
X2430Y1071D01*
X0Y1070D02*
X7Y1070D01*
X2423Y1070D02*
X2430Y1070D01*
X0Y1069D02*
X7Y1069D01*
X2423Y1069D02*
X2430Y1069D01*
X0Y1068D02*
X7Y1068D01*
X2423Y1068D02*
X2430Y1068D01*
X0Y1067D02*
X7Y1067D01*
X2423Y1067D02*
X2430Y1067D01*
X0Y1066D02*
X7Y1066D01*
X2423Y1066D02*
X2430Y1066D01*
X0Y1065D02*
X7Y1065D01*
X2423Y1065D02*
X2430Y1065D01*
X0Y1064D02*
X7Y1064D01*
X2423Y1064D02*
X2430Y1064D01*
X0Y1063D02*
X7Y1063D01*
X2423Y1063D02*
X2430Y1063D01*
X0Y1062D02*
X7Y1062D01*
X2423Y1062D02*
X2430Y1062D01*
X0Y1061D02*
X7Y1061D01*
X2423Y1061D02*
X2430Y1061D01*
X0Y1060D02*
X7Y1060D01*
X2423Y1060D02*
X2430Y1060D01*
X0Y1059D02*
X7Y1059D01*
X2423Y1059D02*
X2430Y1059D01*
X0Y1058D02*
X7Y1058D01*
X2423Y1058D02*
X2430Y1058D01*
X0Y1057D02*
X7Y1057D01*
X2423Y1057D02*
X2430Y1057D01*
X0Y1056D02*
X7Y1056D01*
X2423Y1056D02*
X2430Y1056D01*
X0Y1055D02*
X7Y1055D01*
X2423Y1055D02*
X2430Y1055D01*
X0Y1054D02*
X7Y1054D01*
X2423Y1054D02*
X2430Y1054D01*
X0Y1053D02*
X7Y1053D01*
X2423Y1053D02*
X2430Y1053D01*
X0Y1052D02*
X7Y1052D01*
X2423Y1052D02*
X2430Y1052D01*
X0Y1051D02*
X7Y1051D01*
X2423Y1051D02*
X2430Y1051D01*
X0Y1050D02*
X7Y1050D01*
X2423Y1050D02*
X2430Y1050D01*
X0Y1049D02*
X7Y1049D01*
X2423Y1049D02*
X2430Y1049D01*
X0Y1048D02*
X7Y1048D01*
X2423Y1048D02*
X2430Y1048D01*
X0Y1047D02*
X7Y1047D01*
X2423Y1047D02*
X2430Y1047D01*
X0Y1046D02*
X7Y1046D01*
X2423Y1046D02*
X2430Y1046D01*
X0Y1045D02*
X7Y1045D01*
X2423Y1045D02*
X2430Y1045D01*
X0Y1044D02*
X7Y1044D01*
X2423Y1044D02*
X2430Y1044D01*
X0Y1043D02*
X7Y1043D01*
X2423Y1043D02*
X2430Y1043D01*
X0Y1042D02*
X7Y1042D01*
X2423Y1042D02*
X2430Y1042D01*
X0Y1041D02*
X7Y1041D01*
X2423Y1041D02*
X2430Y1041D01*
X0Y1040D02*
X7Y1040D01*
X2423Y1040D02*
X2430Y1040D01*
X0Y1039D02*
X7Y1039D01*
X2423Y1039D02*
X2430Y1039D01*
X0Y1038D02*
X7Y1038D01*
X2423Y1038D02*
X2430Y1038D01*
X0Y1037D02*
X7Y1037D01*
X2423Y1037D02*
X2430Y1037D01*
X0Y1036D02*
X7Y1036D01*
X2423Y1036D02*
X2430Y1036D01*
X0Y1035D02*
X7Y1035D01*
X2423Y1035D02*
X2430Y1035D01*
X0Y1034D02*
X7Y1034D01*
X2423Y1034D02*
X2430Y1034D01*
X0Y1033D02*
X7Y1033D01*
X2423Y1033D02*
X2430Y1033D01*
X0Y1032D02*
X7Y1032D01*
X2423Y1032D02*
X2430Y1032D01*
X0Y1031D02*
X7Y1031D01*
X2423Y1031D02*
X2430Y1031D01*
X0Y1030D02*
X7Y1030D01*
X2423Y1030D02*
X2430Y1030D01*
X0Y1029D02*
X7Y1029D01*
X2423Y1029D02*
X2430Y1029D01*
X0Y1028D02*
X7Y1028D01*
X2423Y1028D02*
X2430Y1028D01*
X0Y1027D02*
X7Y1027D01*
X2423Y1027D02*
X2430Y1027D01*
X0Y1026D02*
X7Y1026D01*
X2423Y1026D02*
X2430Y1026D01*
X0Y1025D02*
X7Y1025D01*
X2423Y1025D02*
X2430Y1025D01*
X0Y1024D02*
X7Y1024D01*
X2423Y1024D02*
X2430Y1024D01*
X0Y1023D02*
X7Y1023D01*
X2423Y1023D02*
X2430Y1023D01*
X0Y1022D02*
X7Y1022D01*
X2423Y1022D02*
X2430Y1022D01*
X0Y1021D02*
X7Y1021D01*
X2423Y1021D02*
X2430Y1021D01*
X0Y1020D02*
X7Y1020D01*
X2423Y1020D02*
X2430Y1020D01*
X0Y1019D02*
X7Y1019D01*
X2423Y1019D02*
X2430Y1019D01*
X0Y1018D02*
X7Y1018D01*
X2423Y1018D02*
X2430Y1018D01*
X0Y1017D02*
X7Y1017D01*
X2423Y1017D02*
X2430Y1017D01*
X0Y1016D02*
X7Y1016D01*
X2423Y1016D02*
X2430Y1016D01*
X0Y1015D02*
X7Y1015D01*
X2423Y1015D02*
X2430Y1015D01*
X0Y1014D02*
X7Y1014D01*
X2423Y1014D02*
X2430Y1014D01*
X0Y1013D02*
X7Y1013D01*
X2423Y1013D02*
X2430Y1013D01*
X0Y1012D02*
X7Y1012D01*
X2423Y1012D02*
X2430Y1012D01*
X0Y1011D02*
X7Y1011D01*
X2423Y1011D02*
X2430Y1011D01*
X0Y1010D02*
X7Y1010D01*
X2423Y1010D02*
X2430Y1010D01*
X0Y1009D02*
X7Y1009D01*
X2423Y1009D02*
X2430Y1009D01*
X0Y1008D02*
X7Y1008D01*
X2423Y1008D02*
X2430Y1008D01*
X0Y1007D02*
X7Y1007D01*
X2423Y1007D02*
X2430Y1007D01*
X0Y1006D02*
X7Y1006D01*
X2423Y1006D02*
X2430Y1006D01*
X0Y1005D02*
X7Y1005D01*
X2423Y1005D02*
X2430Y1005D01*
X0Y1004D02*
X7Y1004D01*
X2423Y1004D02*
X2430Y1004D01*
X0Y1003D02*
X7Y1003D01*
X2423Y1003D02*
X2430Y1003D01*
X0Y1002D02*
X7Y1002D01*
X2423Y1002D02*
X2430Y1002D01*
X0Y1001D02*
X7Y1001D01*
X2423Y1001D02*
X2430Y1001D01*
X0Y1000D02*
X7Y1000D01*
X2423Y1000D02*
X2430Y1000D01*
X0Y999D02*
X7Y999D01*
X2423Y999D02*
X2430Y999D01*
X0Y998D02*
X7Y998D01*
X2423Y998D02*
X2430Y998D01*
X0Y997D02*
X7Y997D01*
X2423Y997D02*
X2430Y997D01*
X0Y996D02*
X7Y996D01*
X2423Y996D02*
X2430Y996D01*
X0Y995D02*
X7Y995D01*
X2423Y995D02*
X2430Y995D01*
X0Y994D02*
X7Y994D01*
X2423Y994D02*
X2430Y994D01*
X0Y993D02*
X7Y993D01*
X2423Y993D02*
X2430Y993D01*
X0Y992D02*
X7Y992D01*
X2423Y992D02*
X2430Y992D01*
X0Y991D02*
X7Y991D01*
X2423Y991D02*
X2430Y991D01*
X0Y990D02*
X7Y990D01*
X2423Y990D02*
X2430Y990D01*
X0Y989D02*
X7Y989D01*
X2423Y989D02*
X2430Y989D01*
X0Y988D02*
X7Y988D01*
X2423Y988D02*
X2430Y988D01*
X0Y987D02*
X7Y987D01*
X2423Y987D02*
X2430Y987D01*
X0Y986D02*
X7Y986D01*
X2423Y986D02*
X2430Y986D01*
X0Y985D02*
X7Y985D01*
X2423Y985D02*
X2430Y985D01*
X0Y984D02*
X7Y984D01*
X2423Y984D02*
X2430Y984D01*
X0Y983D02*
X7Y983D01*
X2423Y983D02*
X2430Y983D01*
X0Y982D02*
X7Y982D01*
X2423Y982D02*
X2430Y982D01*
X0Y981D02*
X7Y981D01*
X2423Y981D02*
X2430Y981D01*
X0Y980D02*
X7Y980D01*
X2423Y980D02*
X2430Y980D01*
X0Y979D02*
X7Y979D01*
X2423Y979D02*
X2430Y979D01*
X0Y978D02*
X7Y978D01*
X2423Y978D02*
X2430Y978D01*
X0Y977D02*
X7Y977D01*
X2423Y977D02*
X2430Y977D01*
X0Y976D02*
X7Y976D01*
X2423Y976D02*
X2430Y976D01*
X0Y975D02*
X7Y975D01*
X2423Y975D02*
X2430Y975D01*
X0Y974D02*
X7Y974D01*
X2423Y974D02*
X2430Y974D01*
X0Y973D02*
X7Y973D01*
X2423Y973D02*
X2430Y973D01*
X0Y972D02*
X7Y972D01*
X2423Y972D02*
X2430Y972D01*
X0Y971D02*
X7Y971D01*
X2423Y971D02*
X2430Y971D01*
X0Y970D02*
X7Y970D01*
X2423Y970D02*
X2430Y970D01*
X0Y969D02*
X7Y969D01*
X2423Y969D02*
X2430Y969D01*
X0Y968D02*
X7Y968D01*
X2423Y968D02*
X2430Y968D01*
X0Y967D02*
X7Y967D01*
X2423Y967D02*
X2430Y967D01*
X0Y966D02*
X7Y966D01*
X2423Y966D02*
X2430Y966D01*
X0Y965D02*
X7Y965D01*
X2423Y965D02*
X2430Y965D01*
X0Y964D02*
X7Y964D01*
X2423Y964D02*
X2430Y964D01*
X0Y963D02*
X7Y963D01*
X2423Y963D02*
X2430Y963D01*
X0Y962D02*
X7Y962D01*
X2423Y962D02*
X2430Y962D01*
X0Y961D02*
X7Y961D01*
X2423Y961D02*
X2430Y961D01*
X0Y960D02*
X7Y960D01*
X2423Y960D02*
X2430Y960D01*
X0Y959D02*
X7Y959D01*
X2423Y959D02*
X2430Y959D01*
X0Y958D02*
X7Y958D01*
X2423Y958D02*
X2430Y958D01*
X0Y957D02*
X7Y957D01*
X2423Y957D02*
X2430Y957D01*
X0Y956D02*
X7Y956D01*
X2423Y956D02*
X2430Y956D01*
X0Y955D02*
X7Y955D01*
X2423Y955D02*
X2430Y955D01*
X0Y954D02*
X7Y954D01*
X2423Y954D02*
X2430Y954D01*
X0Y953D02*
X7Y953D01*
X2423Y953D02*
X2430Y953D01*
X0Y952D02*
X7Y952D01*
X2423Y952D02*
X2430Y952D01*
X0Y951D02*
X7Y951D01*
X2423Y951D02*
X2430Y951D01*
X0Y950D02*
X7Y950D01*
X2423Y950D02*
X2430Y950D01*
X0Y949D02*
X7Y949D01*
X2423Y949D02*
X2430Y949D01*
X0Y948D02*
X7Y948D01*
X2423Y948D02*
X2430Y948D01*
X0Y947D02*
X7Y947D01*
X2423Y947D02*
X2430Y947D01*
X0Y946D02*
X7Y946D01*
X2423Y946D02*
X2430Y946D01*
X0Y945D02*
X7Y945D01*
X2423Y945D02*
X2430Y945D01*
X0Y944D02*
X7Y944D01*
X2423Y944D02*
X2430Y944D01*
X0Y943D02*
X7Y943D01*
X2423Y943D02*
X2430Y943D01*
X0Y942D02*
X7Y942D01*
X2423Y942D02*
X2430Y942D01*
X0Y941D02*
X7Y941D01*
X2423Y941D02*
X2430Y941D01*
X0Y940D02*
X7Y940D01*
X2423Y940D02*
X2430Y940D01*
X0Y939D02*
X7Y939D01*
X2423Y939D02*
X2430Y939D01*
X0Y938D02*
X7Y938D01*
X2423Y938D02*
X2430Y938D01*
X0Y937D02*
X7Y937D01*
X2423Y937D02*
X2430Y937D01*
X0Y936D02*
X7Y936D01*
X2423Y936D02*
X2430Y936D01*
X0Y935D02*
X7Y935D01*
X2423Y935D02*
X2430Y935D01*
X0Y934D02*
X7Y934D01*
X2423Y934D02*
X2430Y934D01*
X0Y933D02*
X7Y933D01*
X2423Y933D02*
X2430Y933D01*
X0Y932D02*
X7Y932D01*
X2423Y932D02*
X2430Y932D01*
X0Y931D02*
X7Y931D01*
X2423Y931D02*
X2430Y931D01*
X0Y930D02*
X7Y930D01*
X2423Y930D02*
X2430Y930D01*
X0Y929D02*
X7Y929D01*
X2423Y929D02*
X2430Y929D01*
X0Y928D02*
X7Y928D01*
X2423Y928D02*
X2430Y928D01*
X0Y927D02*
X7Y927D01*
X2423Y927D02*
X2430Y927D01*
X0Y926D02*
X7Y926D01*
X2423Y926D02*
X2430Y926D01*
X0Y925D02*
X7Y925D01*
X2423Y925D02*
X2430Y925D01*
X0Y924D02*
X7Y924D01*
X2423Y924D02*
X2430Y924D01*
X0Y923D02*
X7Y923D01*
X2423Y923D02*
X2430Y923D01*
X0Y922D02*
X7Y922D01*
X2423Y922D02*
X2430Y922D01*
X0Y921D02*
X7Y921D01*
X2423Y921D02*
X2430Y921D01*
X0Y920D02*
X7Y920D01*
X2423Y920D02*
X2430Y920D01*
X0Y919D02*
X7Y919D01*
X2423Y919D02*
X2430Y919D01*
X0Y918D02*
X7Y918D01*
X2423Y918D02*
X2430Y918D01*
X0Y917D02*
X7Y917D01*
X2423Y917D02*
X2430Y917D01*
X0Y916D02*
X7Y916D01*
X2423Y916D02*
X2430Y916D01*
X0Y915D02*
X7Y915D01*
X2423Y915D02*
X2430Y915D01*
X0Y914D02*
X7Y914D01*
X2423Y914D02*
X2430Y914D01*
X0Y913D02*
X7Y913D01*
X2423Y913D02*
X2430Y913D01*
X0Y912D02*
X7Y912D01*
X2423Y912D02*
X2430Y912D01*
X0Y911D02*
X7Y911D01*
X2423Y911D02*
X2430Y911D01*
X0Y910D02*
X7Y910D01*
X2423Y910D02*
X2430Y910D01*
X0Y909D02*
X7Y909D01*
X2423Y909D02*
X2430Y909D01*
X0Y908D02*
X7Y908D01*
X2423Y908D02*
X2430Y908D01*
X0Y907D02*
X7Y907D01*
X2423Y907D02*
X2430Y907D01*
X0Y906D02*
X7Y906D01*
X2423Y906D02*
X2430Y906D01*
X0Y905D02*
X7Y905D01*
X2423Y905D02*
X2430Y905D01*
X0Y904D02*
X7Y904D01*
X2423Y904D02*
X2430Y904D01*
X0Y903D02*
X7Y903D01*
X2423Y903D02*
X2430Y903D01*
X0Y902D02*
X7Y902D01*
X2423Y902D02*
X2430Y902D01*
X0Y901D02*
X7Y901D01*
X2423Y901D02*
X2430Y901D01*
X0Y900D02*
X7Y900D01*
X2423Y900D02*
X2430Y900D01*
X0Y899D02*
X7Y899D01*
X2423Y899D02*
X2430Y899D01*
X0Y898D02*
X7Y898D01*
X2423Y898D02*
X2430Y898D01*
X0Y897D02*
X7Y897D01*
X2423Y897D02*
X2430Y897D01*
X0Y896D02*
X7Y896D01*
X2423Y896D02*
X2430Y896D01*
X0Y895D02*
X7Y895D01*
X2423Y895D02*
X2430Y895D01*
X0Y894D02*
X7Y894D01*
X2423Y894D02*
X2430Y894D01*
X0Y893D02*
X7Y893D01*
X2423Y893D02*
X2430Y893D01*
X0Y892D02*
X7Y892D01*
X2423Y892D02*
X2430Y892D01*
X0Y891D02*
X7Y891D01*
X2423Y891D02*
X2430Y891D01*
X0Y890D02*
X7Y890D01*
X2423Y890D02*
X2430Y890D01*
X0Y889D02*
X7Y889D01*
X2423Y889D02*
X2430Y889D01*
X0Y888D02*
X7Y888D01*
X2423Y888D02*
X2430Y888D01*
X0Y887D02*
X7Y887D01*
X2423Y887D02*
X2430Y887D01*
X0Y886D02*
X7Y886D01*
X2423Y886D02*
X2430Y886D01*
X0Y885D02*
X7Y885D01*
X2423Y885D02*
X2430Y885D01*
X0Y884D02*
X7Y884D01*
X2423Y884D02*
X2430Y884D01*
X0Y883D02*
X7Y883D01*
X2423Y883D02*
X2430Y883D01*
X0Y882D02*
X7Y882D01*
X2423Y882D02*
X2430Y882D01*
X0Y881D02*
X7Y881D01*
X2423Y881D02*
X2430Y881D01*
X0Y880D02*
X7Y880D01*
X2423Y880D02*
X2430Y880D01*
X0Y879D02*
X7Y879D01*
X2423Y879D02*
X2430Y879D01*
X0Y878D02*
X7Y878D01*
X2423Y878D02*
X2430Y878D01*
X0Y877D02*
X7Y877D01*
X2423Y877D02*
X2430Y877D01*
X0Y876D02*
X7Y876D01*
X2423Y876D02*
X2430Y876D01*
X0Y875D02*
X7Y875D01*
X2423Y875D02*
X2430Y875D01*
X0Y874D02*
X7Y874D01*
X2423Y874D02*
X2430Y874D01*
X0Y873D02*
X7Y873D01*
X2423Y873D02*
X2430Y873D01*
X0Y872D02*
X7Y872D01*
X2423Y872D02*
X2430Y872D01*
X0Y871D02*
X7Y871D01*
X2423Y871D02*
X2430Y871D01*
X0Y870D02*
X7Y870D01*
X2423Y870D02*
X2430Y870D01*
X0Y869D02*
X7Y869D01*
X2423Y869D02*
X2430Y869D01*
X0Y868D02*
X7Y868D01*
X2423Y868D02*
X2430Y868D01*
X0Y867D02*
X7Y867D01*
X2423Y867D02*
X2430Y867D01*
X0Y866D02*
X7Y866D01*
X2423Y866D02*
X2430Y866D01*
X0Y865D02*
X7Y865D01*
X2423Y865D02*
X2430Y865D01*
X0Y864D02*
X7Y864D01*
X2423Y864D02*
X2430Y864D01*
X0Y863D02*
X7Y863D01*
X2423Y863D02*
X2430Y863D01*
X0Y862D02*
X7Y862D01*
X2423Y862D02*
X2430Y862D01*
X0Y861D02*
X7Y861D01*
X2423Y861D02*
X2430Y861D01*
X0Y860D02*
X7Y860D01*
X2423Y860D02*
X2430Y860D01*
X0Y859D02*
X7Y859D01*
X2423Y859D02*
X2430Y859D01*
X0Y858D02*
X7Y858D01*
X2423Y858D02*
X2430Y858D01*
X0Y857D02*
X7Y857D01*
X2423Y857D02*
X2430Y857D01*
X0Y856D02*
X7Y856D01*
X2423Y856D02*
X2430Y856D01*
X0Y855D02*
X7Y855D01*
X2423Y855D02*
X2430Y855D01*
X0Y854D02*
X7Y854D01*
X2423Y854D02*
X2430Y854D01*
X0Y853D02*
X7Y853D01*
X2423Y853D02*
X2430Y853D01*
X0Y852D02*
X7Y852D01*
X2423Y852D02*
X2430Y852D01*
X0Y851D02*
X7Y851D01*
X2423Y851D02*
X2430Y851D01*
X0Y850D02*
X7Y850D01*
X2423Y850D02*
X2430Y850D01*
X0Y849D02*
X7Y849D01*
X2423Y849D02*
X2430Y849D01*
X0Y848D02*
X7Y848D01*
X2423Y848D02*
X2430Y848D01*
X0Y847D02*
X7Y847D01*
X2423Y847D02*
X2430Y847D01*
X0Y846D02*
X7Y846D01*
X2423Y846D02*
X2430Y846D01*
X0Y845D02*
X7Y845D01*
X2423Y845D02*
X2430Y845D01*
X0Y844D02*
X7Y844D01*
X2423Y844D02*
X2430Y844D01*
X0Y843D02*
X7Y843D01*
X2423Y843D02*
X2430Y843D01*
X0Y842D02*
X7Y842D01*
X2423Y842D02*
X2430Y842D01*
X0Y841D02*
X7Y841D01*
X2423Y841D02*
X2430Y841D01*
X0Y840D02*
X7Y840D01*
X2423Y840D02*
X2430Y840D01*
X0Y839D02*
X7Y839D01*
X2423Y839D02*
X2430Y839D01*
X0Y838D02*
X7Y838D01*
X2423Y838D02*
X2430Y838D01*
X0Y837D02*
X7Y837D01*
X2423Y837D02*
X2430Y837D01*
X0Y836D02*
X7Y836D01*
X2423Y836D02*
X2430Y836D01*
X0Y835D02*
X7Y835D01*
X2423Y835D02*
X2430Y835D01*
X0Y834D02*
X7Y834D01*
X2423Y834D02*
X2430Y834D01*
X0Y833D02*
X7Y833D01*
X2423Y833D02*
X2430Y833D01*
X0Y832D02*
X7Y832D01*
X2423Y832D02*
X2430Y832D01*
X0Y831D02*
X7Y831D01*
X2423Y831D02*
X2430Y831D01*
X0Y830D02*
X7Y830D01*
X2423Y830D02*
X2430Y830D01*
X0Y829D02*
X7Y829D01*
X2423Y829D02*
X2430Y829D01*
X0Y828D02*
X7Y828D01*
X2423Y828D02*
X2430Y828D01*
X0Y827D02*
X7Y827D01*
X2423Y827D02*
X2430Y827D01*
X0Y826D02*
X7Y826D01*
X2423Y826D02*
X2430Y826D01*
X0Y825D02*
X7Y825D01*
X2423Y825D02*
X2430Y825D01*
X0Y824D02*
X7Y824D01*
X2423Y824D02*
X2430Y824D01*
X0Y823D02*
X7Y823D01*
X2423Y823D02*
X2430Y823D01*
X0Y822D02*
X7Y822D01*
X2423Y822D02*
X2430Y822D01*
X0Y821D02*
X7Y821D01*
X2423Y821D02*
X2430Y821D01*
X0Y820D02*
X7Y820D01*
X2423Y820D02*
X2430Y820D01*
X0Y819D02*
X7Y819D01*
X2423Y819D02*
X2430Y819D01*
X0Y818D02*
X7Y818D01*
X2423Y818D02*
X2430Y818D01*
X0Y817D02*
X7Y817D01*
X2423Y817D02*
X2430Y817D01*
X0Y816D02*
X7Y816D01*
X2423Y816D02*
X2430Y816D01*
X0Y815D02*
X7Y815D01*
X2423Y815D02*
X2430Y815D01*
X0Y814D02*
X7Y814D01*
X2423Y814D02*
X2430Y814D01*
X0Y813D02*
X7Y813D01*
X2423Y813D02*
X2430Y813D01*
X0Y812D02*
X7Y812D01*
X2423Y812D02*
X2430Y812D01*
X0Y811D02*
X7Y811D01*
X2423Y811D02*
X2430Y811D01*
X0Y810D02*
X7Y810D01*
X2423Y810D02*
X2430Y810D01*
X0Y809D02*
X7Y809D01*
X2423Y809D02*
X2430Y809D01*
X0Y808D02*
X7Y808D01*
X2423Y808D02*
X2430Y808D01*
X0Y807D02*
X7Y807D01*
X2423Y807D02*
X2430Y807D01*
X0Y806D02*
X7Y806D01*
X2423Y806D02*
X2430Y806D01*
X0Y805D02*
X7Y805D01*
X2423Y805D02*
X2430Y805D01*
X0Y804D02*
X7Y804D01*
X2423Y804D02*
X2430Y804D01*
X0Y803D02*
X7Y803D01*
X2423Y803D02*
X2430Y803D01*
X0Y802D02*
X7Y802D01*
X2423Y802D02*
X2430Y802D01*
X0Y801D02*
X7Y801D01*
X2423Y801D02*
X2430Y801D01*
X0Y800D02*
X7Y800D01*
X2423Y800D02*
X2430Y800D01*
X0Y799D02*
X7Y799D01*
X2423Y799D02*
X2430Y799D01*
X0Y798D02*
X7Y798D01*
X2423Y798D02*
X2430Y798D01*
X0Y797D02*
X7Y797D01*
X2423Y797D02*
X2430Y797D01*
X0Y796D02*
X7Y796D01*
X2423Y796D02*
X2430Y796D01*
X0Y795D02*
X7Y795D01*
X2423Y795D02*
X2430Y795D01*
X0Y794D02*
X7Y794D01*
X2423Y794D02*
X2430Y794D01*
X0Y793D02*
X7Y793D01*
X2423Y793D02*
X2430Y793D01*
X0Y792D02*
X7Y792D01*
X2423Y792D02*
X2430Y792D01*
X0Y791D02*
X7Y791D01*
X2423Y791D02*
X2430Y791D01*
X0Y790D02*
X7Y790D01*
X2423Y790D02*
X2430Y790D01*
X0Y789D02*
X7Y789D01*
X2423Y789D02*
X2430Y789D01*
X0Y788D02*
X7Y788D01*
X2423Y788D02*
X2430Y788D01*
X0Y787D02*
X7Y787D01*
X2423Y787D02*
X2430Y787D01*
X0Y786D02*
X7Y786D01*
X2423Y786D02*
X2430Y786D01*
X0Y785D02*
X7Y785D01*
X2423Y785D02*
X2430Y785D01*
X0Y784D02*
X7Y784D01*
X2423Y784D02*
X2430Y784D01*
X0Y783D02*
X7Y783D01*
X2423Y783D02*
X2430Y783D01*
X0Y782D02*
X7Y782D01*
X2423Y782D02*
X2430Y782D01*
X0Y781D02*
X7Y781D01*
X2423Y781D02*
X2430Y781D01*
X0Y780D02*
X7Y780D01*
X2423Y780D02*
X2430Y780D01*
X0Y779D02*
X7Y779D01*
X2423Y779D02*
X2430Y779D01*
X0Y778D02*
X7Y778D01*
X2423Y778D02*
X2430Y778D01*
X0Y777D02*
X7Y777D01*
X2423Y777D02*
X2430Y777D01*
X0Y776D02*
X7Y776D01*
X2423Y776D02*
X2430Y776D01*
X0Y775D02*
X7Y775D01*
X2423Y775D02*
X2430Y775D01*
X0Y774D02*
X7Y774D01*
X2423Y774D02*
X2430Y774D01*
X0Y773D02*
X7Y773D01*
X2423Y773D02*
X2430Y773D01*
X0Y772D02*
X7Y772D01*
X2423Y772D02*
X2430Y772D01*
X0Y771D02*
X7Y771D01*
X2423Y771D02*
X2430Y771D01*
X0Y770D02*
X7Y770D01*
X2423Y770D02*
X2430Y770D01*
X0Y769D02*
X7Y769D01*
X2423Y769D02*
X2430Y769D01*
X0Y768D02*
X7Y768D01*
X2423Y768D02*
X2430Y768D01*
X0Y767D02*
X7Y767D01*
X2423Y767D02*
X2430Y767D01*
X0Y766D02*
X7Y766D01*
X2423Y766D02*
X2430Y766D01*
X0Y765D02*
X7Y765D01*
X2423Y765D02*
X2430Y765D01*
X0Y764D02*
X7Y764D01*
X2423Y764D02*
X2430Y764D01*
X0Y763D02*
X7Y763D01*
X2423Y763D02*
X2430Y763D01*
X0Y762D02*
X7Y762D01*
X2423Y762D02*
X2430Y762D01*
X0Y761D02*
X7Y761D01*
X2423Y761D02*
X2430Y761D01*
X0Y760D02*
X7Y760D01*
X2423Y760D02*
X2430Y760D01*
X0Y759D02*
X7Y759D01*
X2423Y759D02*
X2430Y759D01*
X0Y758D02*
X7Y758D01*
X2423Y758D02*
X2430Y758D01*
X0Y757D02*
X7Y757D01*
X2423Y757D02*
X2430Y757D01*
X0Y756D02*
X7Y756D01*
X2423Y756D02*
X2430Y756D01*
X0Y755D02*
X7Y755D01*
X2423Y755D02*
X2430Y755D01*
X0Y754D02*
X7Y754D01*
X2423Y754D02*
X2430Y754D01*
X0Y753D02*
X7Y753D01*
X2423Y753D02*
X2430Y753D01*
X0Y752D02*
X7Y752D01*
X2423Y752D02*
X2430Y752D01*
X0Y751D02*
X7Y751D01*
X2423Y751D02*
X2430Y751D01*
X0Y750D02*
X7Y750D01*
X2423Y750D02*
X2430Y750D01*
X0Y749D02*
X7Y749D01*
X2423Y749D02*
X2430Y749D01*
X0Y748D02*
X7Y748D01*
X2423Y748D02*
X2430Y748D01*
X0Y747D02*
X7Y747D01*
X2423Y747D02*
X2430Y747D01*
X0Y746D02*
X7Y746D01*
X2423Y746D02*
X2430Y746D01*
X0Y745D02*
X7Y745D01*
X2423Y745D02*
X2430Y745D01*
X0Y744D02*
X7Y744D01*
X2423Y744D02*
X2430Y744D01*
X0Y743D02*
X7Y743D01*
X2423Y743D02*
X2430Y743D01*
X0Y742D02*
X7Y742D01*
X2423Y742D02*
X2430Y742D01*
X0Y741D02*
X7Y741D01*
X2423Y741D02*
X2430Y741D01*
X0Y740D02*
X7Y740D01*
X2423Y740D02*
X2430Y740D01*
X0Y739D02*
X7Y739D01*
X2423Y739D02*
X2430Y739D01*
X0Y738D02*
X7Y738D01*
X2423Y738D02*
X2430Y738D01*
X0Y737D02*
X7Y737D01*
X2423Y737D02*
X2430Y737D01*
X0Y736D02*
X7Y736D01*
X2423Y736D02*
X2430Y736D01*
X0Y735D02*
X7Y735D01*
X2423Y735D02*
X2430Y735D01*
X0Y734D02*
X7Y734D01*
X2423Y734D02*
X2430Y734D01*
X0Y733D02*
X7Y733D01*
X2423Y733D02*
X2430Y733D01*
X0Y732D02*
X7Y732D01*
X2423Y732D02*
X2430Y732D01*
X0Y731D02*
X7Y731D01*
X2423Y731D02*
X2430Y731D01*
X0Y730D02*
X7Y730D01*
X2423Y730D02*
X2430Y730D01*
X0Y729D02*
X7Y729D01*
X2423Y729D02*
X2430Y729D01*
X0Y728D02*
X7Y728D01*
X2423Y728D02*
X2430Y728D01*
X0Y727D02*
X7Y727D01*
X2423Y727D02*
X2430Y727D01*
X0Y726D02*
X7Y726D01*
X2423Y726D02*
X2430Y726D01*
X0Y725D02*
X7Y725D01*
X2423Y725D02*
X2430Y725D01*
X0Y724D02*
X7Y724D01*
X2423Y724D02*
X2430Y724D01*
X0Y723D02*
X7Y723D01*
X2423Y723D02*
X2430Y723D01*
X0Y722D02*
X7Y722D01*
X2423Y722D02*
X2430Y722D01*
X0Y721D02*
X7Y721D01*
X2423Y721D02*
X2430Y721D01*
X0Y720D02*
X7Y720D01*
X2423Y720D02*
X2430Y720D01*
X0Y719D02*
X7Y719D01*
X2423Y719D02*
X2430Y719D01*
X0Y718D02*
X7Y718D01*
X2423Y718D02*
X2430Y718D01*
X0Y717D02*
X7Y717D01*
X2423Y717D02*
X2430Y717D01*
X0Y716D02*
X7Y716D01*
X2423Y716D02*
X2430Y716D01*
X0Y715D02*
X7Y715D01*
X2423Y715D02*
X2430Y715D01*
X0Y714D02*
X7Y714D01*
X2423Y714D02*
X2430Y714D01*
X0Y713D02*
X7Y713D01*
X2423Y713D02*
X2430Y713D01*
X0Y712D02*
X7Y712D01*
X2423Y712D02*
X2430Y712D01*
X0Y711D02*
X7Y711D01*
X2423Y711D02*
X2430Y711D01*
X0Y710D02*
X7Y710D01*
X2423Y710D02*
X2430Y710D01*
X0Y709D02*
X7Y709D01*
X2423Y709D02*
X2430Y709D01*
X0Y708D02*
X7Y708D01*
X2423Y708D02*
X2430Y708D01*
X0Y707D02*
X7Y707D01*
X2423Y707D02*
X2430Y707D01*
X0Y706D02*
X7Y706D01*
X2423Y706D02*
X2430Y706D01*
X0Y705D02*
X7Y705D01*
X2423Y705D02*
X2430Y705D01*
X0Y704D02*
X7Y704D01*
X2423Y704D02*
X2430Y704D01*
X0Y703D02*
X7Y703D01*
X2423Y703D02*
X2430Y703D01*
X0Y702D02*
X7Y702D01*
X2423Y702D02*
X2430Y702D01*
X0Y701D02*
X7Y701D01*
X2423Y701D02*
X2430Y701D01*
X0Y700D02*
X7Y700D01*
X2423Y700D02*
X2430Y700D01*
X0Y699D02*
X7Y699D01*
X2423Y699D02*
X2430Y699D01*
X0Y698D02*
X7Y698D01*
X2423Y698D02*
X2430Y698D01*
X0Y697D02*
X7Y697D01*
X2423Y697D02*
X2430Y697D01*
X0Y696D02*
X7Y696D01*
X2423Y696D02*
X2430Y696D01*
X0Y695D02*
X7Y695D01*
X2423Y695D02*
X2430Y695D01*
X0Y694D02*
X7Y694D01*
X2423Y694D02*
X2430Y694D01*
X0Y693D02*
X7Y693D01*
X2423Y693D02*
X2430Y693D01*
X0Y692D02*
X7Y692D01*
X2423Y692D02*
X2430Y692D01*
X0Y691D02*
X7Y691D01*
X2423Y691D02*
X2430Y691D01*
X0Y690D02*
X7Y690D01*
X2423Y690D02*
X2430Y690D01*
X0Y689D02*
X7Y689D01*
X2423Y689D02*
X2430Y689D01*
X0Y688D02*
X7Y688D01*
X2423Y688D02*
X2430Y688D01*
X0Y687D02*
X7Y687D01*
X2423Y687D02*
X2430Y687D01*
X0Y686D02*
X7Y686D01*
X2423Y686D02*
X2430Y686D01*
X0Y685D02*
X7Y685D01*
X2423Y685D02*
X2430Y685D01*
X0Y684D02*
X7Y684D01*
X2423Y684D02*
X2430Y684D01*
X0Y683D02*
X7Y683D01*
X2423Y683D02*
X2430Y683D01*
X0Y682D02*
X7Y682D01*
X2423Y682D02*
X2430Y682D01*
X0Y681D02*
X7Y681D01*
X2423Y681D02*
X2430Y681D01*
X0Y680D02*
X7Y680D01*
X2423Y680D02*
X2430Y680D01*
X0Y679D02*
X7Y679D01*
X2423Y679D02*
X2430Y679D01*
X0Y678D02*
X7Y678D01*
X2423Y678D02*
X2430Y678D01*
X0Y677D02*
X7Y677D01*
X2423Y677D02*
X2430Y677D01*
X0Y676D02*
X7Y676D01*
X2423Y676D02*
X2430Y676D01*
X0Y675D02*
X7Y675D01*
X2423Y675D02*
X2430Y675D01*
X0Y674D02*
X7Y674D01*
X2423Y674D02*
X2430Y674D01*
X0Y673D02*
X7Y673D01*
X2423Y673D02*
X2430Y673D01*
X0Y672D02*
X7Y672D01*
X2423Y672D02*
X2430Y672D01*
X0Y671D02*
X7Y671D01*
X2423Y671D02*
X2430Y671D01*
X0Y670D02*
X7Y670D01*
X2423Y670D02*
X2430Y670D01*
X0Y669D02*
X7Y669D01*
X2423Y669D02*
X2430Y669D01*
X0Y668D02*
X7Y668D01*
X2423Y668D02*
X2430Y668D01*
X0Y667D02*
X7Y667D01*
X2423Y667D02*
X2430Y667D01*
X0Y666D02*
X7Y666D01*
X2423Y666D02*
X2430Y666D01*
X0Y665D02*
X7Y665D01*
X2423Y665D02*
X2430Y665D01*
X0Y664D02*
X7Y664D01*
X2423Y664D02*
X2430Y664D01*
X0Y663D02*
X7Y663D01*
X2423Y663D02*
X2430Y663D01*
X0Y662D02*
X7Y662D01*
X2423Y662D02*
X2430Y662D01*
X0Y661D02*
X7Y661D01*
X2423Y661D02*
X2430Y661D01*
X0Y660D02*
X7Y660D01*
X2423Y660D02*
X2430Y660D01*
X0Y659D02*
X7Y659D01*
X2423Y659D02*
X2430Y659D01*
X0Y658D02*
X7Y658D01*
X2423Y658D02*
X2430Y658D01*
X0Y657D02*
X7Y657D01*
X2423Y657D02*
X2430Y657D01*
X0Y656D02*
X7Y656D01*
X1624Y656D02*
X1633Y656D01*
X2423Y656D02*
X2430Y656D01*
X0Y655D02*
X7Y655D01*
X1624Y655D02*
X1633Y655D01*
X2423Y655D02*
X2430Y655D01*
X0Y654D02*
X7Y654D01*
X1624Y654D02*
X1633Y654D01*
X2423Y654D02*
X2430Y654D01*
X0Y653D02*
X7Y653D01*
X1624Y653D02*
X1633Y653D01*
X2423Y653D02*
X2430Y653D01*
X0Y652D02*
X7Y652D01*
X1624Y652D02*
X1633Y652D01*
X2423Y652D02*
X2430Y652D01*
X0Y651D02*
X7Y651D01*
X1624Y651D02*
X1633Y651D01*
X2423Y651D02*
X2430Y651D01*
X0Y650D02*
X7Y650D01*
X1624Y650D02*
X1633Y650D01*
X2423Y650D02*
X2430Y650D01*
X0Y649D02*
X7Y649D01*
X1624Y649D02*
X1633Y649D01*
X2423Y649D02*
X2430Y649D01*
X0Y648D02*
X7Y648D01*
X1624Y648D02*
X1633Y648D01*
X2423Y648D02*
X2430Y648D01*
X0Y647D02*
X7Y647D01*
X1624Y647D02*
X1633Y647D01*
X2423Y647D02*
X2430Y647D01*
X0Y646D02*
X7Y646D01*
X1624Y646D02*
X1633Y646D01*
X2423Y646D02*
X2430Y646D01*
X0Y645D02*
X7Y645D01*
X1624Y645D02*
X1633Y645D01*
X2423Y645D02*
X2430Y645D01*
X0Y644D02*
X7Y644D01*
X1624Y644D02*
X1633Y644D01*
X2423Y644D02*
X2430Y644D01*
X0Y643D02*
X7Y643D01*
X1624Y643D02*
X1633Y643D01*
X2423Y643D02*
X2430Y643D01*
X0Y642D02*
X7Y642D01*
X1624Y642D02*
X1633Y642D01*
X2423Y642D02*
X2430Y642D01*
X0Y641D02*
X7Y641D01*
X1624Y641D02*
X1633Y641D01*
X2423Y641D02*
X2430Y641D01*
X0Y640D02*
X7Y640D01*
X1624Y640D02*
X1633Y640D01*
X2423Y640D02*
X2430Y640D01*
X0Y639D02*
X7Y639D01*
X1624Y639D02*
X1633Y639D01*
X2423Y639D02*
X2430Y639D01*
X0Y638D02*
X7Y638D01*
X1624Y638D02*
X1633Y638D01*
X2423Y638D02*
X2430Y638D01*
X0Y637D02*
X7Y637D01*
X1624Y637D02*
X1633Y637D01*
X2423Y637D02*
X2430Y637D01*
X0Y636D02*
X7Y636D01*
X1624Y636D02*
X1633Y636D01*
X2423Y636D02*
X2430Y636D01*
X0Y635D02*
X7Y635D01*
X1624Y635D02*
X1633Y635D01*
X2423Y635D02*
X2430Y635D01*
X0Y634D02*
X7Y634D01*
X1624Y634D02*
X1633Y634D01*
X2423Y634D02*
X2430Y634D01*
X0Y633D02*
X7Y633D01*
X1624Y633D02*
X1633Y633D01*
X2423Y633D02*
X2430Y633D01*
X0Y632D02*
X7Y632D01*
X1624Y632D02*
X1633Y632D01*
X2423Y632D02*
X2430Y632D01*
X0Y631D02*
X7Y631D01*
X1624Y631D02*
X1633Y631D01*
X2423Y631D02*
X2430Y631D01*
X0Y630D02*
X7Y630D01*
X1624Y630D02*
X1633Y630D01*
X2423Y630D02*
X2430Y630D01*
X0Y629D02*
X7Y629D01*
X1624Y629D02*
X1633Y629D01*
X2423Y629D02*
X2430Y629D01*
X0Y628D02*
X7Y628D01*
X1624Y628D02*
X1633Y628D01*
X2423Y628D02*
X2430Y628D01*
X0Y627D02*
X7Y627D01*
X1624Y627D02*
X1633Y627D01*
X2423Y627D02*
X2430Y627D01*
X0Y626D02*
X7Y626D01*
X1624Y626D02*
X1633Y626D01*
X2423Y626D02*
X2430Y626D01*
X0Y625D02*
X7Y625D01*
X1624Y625D02*
X1633Y625D01*
X2423Y625D02*
X2430Y625D01*
X0Y624D02*
X7Y624D01*
X1624Y624D02*
X1633Y624D01*
X2423Y624D02*
X2430Y624D01*
X0Y623D02*
X7Y623D01*
X1624Y623D02*
X1633Y623D01*
X2423Y623D02*
X2430Y623D01*
X0Y622D02*
X7Y622D01*
X1624Y622D02*
X1633Y622D01*
X2423Y622D02*
X2430Y622D01*
X0Y621D02*
X7Y621D01*
X1624Y621D02*
X1633Y621D01*
X2423Y621D02*
X2430Y621D01*
X0Y620D02*
X7Y620D01*
X1624Y620D02*
X1633Y620D01*
X2423Y620D02*
X2430Y620D01*
X0Y619D02*
X7Y619D01*
X1624Y619D02*
X1633Y619D01*
X2423Y619D02*
X2430Y619D01*
X0Y618D02*
X7Y618D01*
X1624Y618D02*
X1633Y618D01*
X2423Y618D02*
X2430Y618D01*
X0Y617D02*
X7Y617D01*
X1624Y617D02*
X1633Y617D01*
X2423Y617D02*
X2430Y617D01*
X0Y616D02*
X7Y616D01*
X1624Y616D02*
X1633Y616D01*
X2423Y616D02*
X2430Y616D01*
X0Y615D02*
X7Y615D01*
X1624Y615D02*
X1633Y615D01*
X2423Y615D02*
X2430Y615D01*
X0Y614D02*
X7Y614D01*
X1624Y614D02*
X1633Y614D01*
X2423Y614D02*
X2430Y614D01*
X0Y613D02*
X7Y613D01*
X1624Y613D02*
X1633Y613D01*
X2423Y613D02*
X2430Y613D01*
X0Y612D02*
X7Y612D01*
X1624Y612D02*
X1633Y612D01*
X2423Y612D02*
X2430Y612D01*
X0Y611D02*
X7Y611D01*
X1624Y611D02*
X1633Y611D01*
X2423Y611D02*
X2430Y611D01*
X0Y610D02*
X7Y610D01*
X1624Y610D02*
X1633Y610D01*
X2423Y610D02*
X2430Y610D01*
X0Y609D02*
X7Y609D01*
X1624Y609D02*
X1633Y609D01*
X2423Y609D02*
X2430Y609D01*
X0Y608D02*
X7Y608D01*
X2423Y608D02*
X2430Y608D01*
X0Y607D02*
X7Y607D01*
X2423Y607D02*
X2430Y607D01*
X0Y606D02*
X7Y606D01*
X2423Y606D02*
X2430Y606D01*
X0Y605D02*
X7Y605D01*
X2423Y605D02*
X2430Y605D01*
X0Y604D02*
X7Y604D01*
X2423Y604D02*
X2430Y604D01*
X0Y603D02*
X7Y603D01*
X2423Y603D02*
X2430Y603D01*
X0Y602D02*
X7Y602D01*
X2423Y602D02*
X2430Y602D01*
X0Y601D02*
X7Y601D01*
X2423Y601D02*
X2430Y601D01*
X0Y600D02*
X7Y600D01*
X2423Y600D02*
X2430Y600D01*
X0Y599D02*
X7Y599D01*
X2423Y599D02*
X2430Y599D01*
X0Y598D02*
X7Y598D01*
X2423Y598D02*
X2430Y598D01*
X0Y597D02*
X7Y597D01*
X2423Y597D02*
X2430Y597D01*
X0Y596D02*
X7Y596D01*
X2423Y596D02*
X2430Y596D01*
X0Y595D02*
X7Y595D01*
X2423Y595D02*
X2430Y595D01*
X0Y594D02*
X7Y594D01*
X2423Y594D02*
X2430Y594D01*
X0Y593D02*
X7Y593D01*
X2423Y593D02*
X2430Y593D01*
X0Y592D02*
X7Y592D01*
X2423Y592D02*
X2430Y592D01*
X0Y591D02*
X7Y591D01*
X2423Y591D02*
X2430Y591D01*
X0Y590D02*
X7Y590D01*
X2423Y590D02*
X2430Y590D01*
X0Y589D02*
X7Y589D01*
X2423Y589D02*
X2430Y589D01*
X0Y588D02*
X7Y588D01*
X2423Y588D02*
X2430Y588D01*
X0Y587D02*
X7Y587D01*
X2423Y587D02*
X2430Y587D01*
X0Y586D02*
X7Y586D01*
X2423Y586D02*
X2430Y586D01*
X0Y585D02*
X7Y585D01*
X2423Y585D02*
X2430Y585D01*
X0Y584D02*
X7Y584D01*
X2423Y584D02*
X2430Y584D01*
X0Y583D02*
X7Y583D01*
X2423Y583D02*
X2430Y583D01*
X0Y582D02*
X7Y582D01*
X2423Y582D02*
X2430Y582D01*
X0Y581D02*
X7Y581D01*
X2423Y581D02*
X2430Y581D01*
X0Y580D02*
X7Y580D01*
X2423Y580D02*
X2430Y580D01*
X0Y579D02*
X7Y579D01*
X2423Y579D02*
X2430Y579D01*
X0Y578D02*
X7Y578D01*
X2423Y578D02*
X2430Y578D01*
X0Y577D02*
X7Y577D01*
X2423Y577D02*
X2430Y577D01*
X0Y576D02*
X7Y576D01*
X2423Y576D02*
X2430Y576D01*
X0Y575D02*
X7Y575D01*
X2423Y575D02*
X2430Y575D01*
X0Y574D02*
X7Y574D01*
X1652Y574D02*
X1656Y574D01*
X2423Y574D02*
X2430Y574D01*
X0Y573D02*
X7Y573D01*
X1651Y573D02*
X1657Y573D01*
X2423Y573D02*
X2430Y573D01*
X0Y572D02*
X7Y572D01*
X1650Y572D02*
X1657Y572D01*
X2423Y572D02*
X2430Y572D01*
X0Y571D02*
X7Y571D01*
X1620Y571D02*
X1623Y571D01*
X1650Y571D02*
X1657Y571D01*
X2423Y571D02*
X2430Y571D01*
X0Y570D02*
X7Y570D01*
X1619Y570D02*
X1624Y570D01*
X1649Y570D02*
X1657Y570D01*
X2423Y570D02*
X2430Y570D01*
X0Y569D02*
X7Y569D01*
X1619Y569D02*
X1625Y569D01*
X1648Y569D02*
X1656Y569D01*
X2423Y569D02*
X2430Y569D01*
X0Y568D02*
X7Y568D01*
X1619Y568D02*
X1626Y568D01*
X1647Y568D02*
X1655Y568D01*
X2423Y568D02*
X2430Y568D01*
X0Y567D02*
X7Y567D01*
X1619Y567D02*
X1626Y567D01*
X1646Y567D02*
X1654Y567D01*
X2423Y567D02*
X2430Y567D01*
X0Y566D02*
X7Y566D01*
X1619Y566D02*
X1627Y566D01*
X1645Y566D02*
X1654Y566D01*
X2423Y566D02*
X2430Y566D01*
X0Y565D02*
X7Y565D01*
X1620Y565D02*
X1628Y565D01*
X1644Y565D02*
X1653Y565D01*
X2423Y565D02*
X2430Y565D01*
X0Y564D02*
X7Y564D01*
X1621Y564D02*
X1629Y564D01*
X1644Y564D02*
X1652Y564D01*
X2423Y564D02*
X2430Y564D01*
X0Y563D02*
X7Y563D01*
X1622Y563D02*
X1630Y563D01*
X1643Y563D02*
X1651Y563D01*
X2423Y563D02*
X2430Y563D01*
X0Y562D02*
X7Y562D01*
X1623Y562D02*
X1631Y562D01*
X1642Y562D02*
X1650Y562D01*
X2423Y562D02*
X2430Y562D01*
X0Y561D02*
X7Y561D01*
X1623Y561D02*
X1632Y561D01*
X1641Y561D02*
X1649Y561D01*
X2423Y561D02*
X2430Y561D01*
X0Y560D02*
X7Y560D01*
X1624Y560D02*
X1632Y560D01*
X1640Y560D02*
X1648Y560D01*
X2423Y560D02*
X2430Y560D01*
X0Y559D02*
X7Y559D01*
X1625Y559D02*
X1633Y559D01*
X1639Y559D02*
X1648Y559D01*
X2423Y559D02*
X2430Y559D01*
X0Y558D02*
X7Y558D01*
X1626Y558D02*
X1634Y558D01*
X1638Y558D02*
X1647Y558D01*
X2423Y558D02*
X2430Y558D01*
X0Y557D02*
X7Y557D01*
X1627Y557D02*
X1635Y557D01*
X1638Y557D02*
X1646Y557D01*
X2423Y557D02*
X2430Y557D01*
X0Y556D02*
X7Y556D01*
X1628Y556D02*
X1645Y556D01*
X2423Y556D02*
X2430Y556D01*
X0Y555D02*
X7Y555D01*
X1628Y555D02*
X1644Y555D01*
X2423Y555D02*
X2430Y555D01*
X0Y554D02*
X7Y554D01*
X1629Y554D02*
X1643Y554D01*
X2423Y554D02*
X2430Y554D01*
X0Y553D02*
X7Y553D01*
X1630Y553D02*
X1642Y553D01*
X2423Y553D02*
X2430Y553D01*
X0Y552D02*
X7Y552D01*
X1631Y552D02*
X1642Y552D01*
X2423Y552D02*
X2430Y552D01*
X0Y551D02*
X7Y551D01*
X1632Y551D02*
X1641Y551D01*
X2423Y551D02*
X2430Y551D01*
X0Y550D02*
X7Y550D01*
X1633Y550D02*
X1641Y550D01*
X2423Y550D02*
X2430Y550D01*
X0Y549D02*
X7Y549D01*
X1634Y549D02*
X1642Y549D01*
X2423Y549D02*
X2430Y549D01*
X0Y548D02*
X7Y548D01*
X1634Y548D02*
X1643Y548D01*
X2423Y548D02*
X2430Y548D01*
X0Y547D02*
X7Y547D01*
X1606Y547D02*
X1655Y547D01*
X2423Y547D02*
X2430Y547D01*
X0Y546D02*
X7Y546D01*
X1605Y546D02*
X1656Y546D01*
X2423Y546D02*
X2430Y546D01*
X0Y545D02*
X7Y545D01*
X1604Y545D02*
X1657Y545D01*
X2423Y545D02*
X2430Y545D01*
X0Y544D02*
X7Y544D01*
X1604Y544D02*
X1657Y544D01*
X2423Y544D02*
X2430Y544D01*
X0Y543D02*
X7Y543D01*
X1604Y543D02*
X1657Y543D01*
X2423Y543D02*
X2430Y543D01*
X0Y542D02*
X7Y542D01*
X1604Y542D02*
X1656Y542D01*
X2423Y542D02*
X2430Y542D01*
X0Y541D02*
X7Y541D01*
X1605Y541D02*
X1655Y541D01*
X2423Y541D02*
X2430Y541D01*
X0Y540D02*
X7Y540D01*
X2423Y540D02*
X2430Y540D01*
X0Y539D02*
X7Y539D01*
X2423Y539D02*
X2430Y539D01*
X0Y538D02*
X7Y538D01*
X2423Y538D02*
X2430Y538D01*
X0Y537D02*
X7Y537D01*
X2423Y537D02*
X2430Y537D01*
X0Y536D02*
X7Y536D01*
X2423Y536D02*
X2430Y536D01*
X0Y535D02*
X7Y535D01*
X2423Y535D02*
X2430Y535D01*
X0Y534D02*
X7Y534D01*
X2423Y534D02*
X2430Y534D01*
X0Y533D02*
X7Y533D01*
X2423Y533D02*
X2430Y533D01*
X0Y532D02*
X7Y532D01*
X2423Y532D02*
X2430Y532D01*
X0Y531D02*
X7Y531D01*
X2423Y531D02*
X2430Y531D01*
X0Y530D02*
X7Y530D01*
X2423Y530D02*
X2430Y530D01*
X0Y529D02*
X7Y529D01*
X2423Y529D02*
X2430Y529D01*
X0Y528D02*
X7Y528D01*
X2423Y528D02*
X2430Y528D01*
X0Y527D02*
X7Y527D01*
X2423Y527D02*
X2430Y527D01*
X0Y526D02*
X7Y526D01*
X2423Y526D02*
X2430Y526D01*
X0Y525D02*
X7Y525D01*
X2423Y525D02*
X2430Y525D01*
X0Y524D02*
X7Y524D01*
X1608Y524D02*
X1653Y524D01*
X2423Y524D02*
X2430Y524D01*
X0Y523D02*
X7Y523D01*
X1606Y523D02*
X1654Y523D01*
X2423Y523D02*
X2430Y523D01*
X0Y522D02*
X7Y522D01*
X1605Y522D02*
X1655Y522D01*
X2423Y522D02*
X2430Y522D01*
X0Y521D02*
X7Y521D01*
X1605Y521D02*
X1656Y521D01*
X2423Y521D02*
X2430Y521D01*
X0Y520D02*
X7Y520D01*
X1604Y520D02*
X1657Y520D01*
X2423Y520D02*
X2430Y520D01*
X0Y519D02*
X7Y519D01*
X1604Y519D02*
X1657Y519D01*
X2423Y519D02*
X2430Y519D01*
X0Y518D02*
X7Y518D01*
X1604Y518D02*
X1657Y518D01*
X2423Y518D02*
X2430Y518D01*
X0Y517D02*
X7Y517D01*
X1604Y517D02*
X1610Y517D01*
X1651Y517D02*
X1657Y517D01*
X2423Y517D02*
X2430Y517D01*
X0Y516D02*
X7Y516D01*
X1604Y516D02*
X1610Y516D01*
X1651Y516D02*
X1657Y516D01*
X2423Y516D02*
X2430Y516D01*
X0Y515D02*
X7Y515D01*
X1604Y515D02*
X1610Y515D01*
X1651Y515D02*
X1657Y515D01*
X2423Y515D02*
X2430Y515D01*
X0Y514D02*
X7Y514D01*
X1604Y514D02*
X1610Y514D01*
X1651Y514D02*
X1657Y514D01*
X2423Y514D02*
X2430Y514D01*
X0Y513D02*
X7Y513D01*
X1604Y513D02*
X1610Y513D01*
X1651Y513D02*
X1657Y513D01*
X2423Y513D02*
X2430Y513D01*
X0Y512D02*
X7Y512D01*
X1604Y512D02*
X1610Y512D01*
X1651Y512D02*
X1657Y512D01*
X2423Y512D02*
X2430Y512D01*
X0Y511D02*
X7Y511D01*
X1604Y511D02*
X1610Y511D01*
X1651Y511D02*
X1657Y511D01*
X2423Y511D02*
X2430Y511D01*
X0Y510D02*
X7Y510D01*
X1604Y510D02*
X1610Y510D01*
X1651Y510D02*
X1657Y510D01*
X2423Y510D02*
X2430Y510D01*
X0Y509D02*
X7Y509D01*
X1604Y509D02*
X1610Y509D01*
X1651Y509D02*
X1657Y509D01*
X2423Y509D02*
X2430Y509D01*
X0Y508D02*
X7Y508D01*
X1604Y508D02*
X1610Y508D01*
X1651Y508D02*
X1657Y508D01*
X2423Y508D02*
X2430Y508D01*
X0Y507D02*
X7Y507D01*
X1604Y507D02*
X1610Y507D01*
X1651Y507D02*
X1657Y507D01*
X2423Y507D02*
X2430Y507D01*
X0Y506D02*
X7Y506D01*
X1604Y506D02*
X1610Y506D01*
X1651Y506D02*
X1657Y506D01*
X2423Y506D02*
X2430Y506D01*
X0Y505D02*
X7Y505D01*
X1604Y505D02*
X1610Y505D01*
X1651Y505D02*
X1657Y505D01*
X2423Y505D02*
X2430Y505D01*
X0Y504D02*
X7Y504D01*
X1604Y504D02*
X1610Y504D01*
X1651Y504D02*
X1657Y504D01*
X2423Y504D02*
X2430Y504D01*
X0Y503D02*
X7Y503D01*
X1604Y503D02*
X1610Y503D01*
X1651Y503D02*
X1657Y503D01*
X2423Y503D02*
X2430Y503D01*
X0Y502D02*
X7Y502D01*
X1604Y502D02*
X1610Y502D01*
X1651Y502D02*
X1657Y502D01*
X2423Y502D02*
X2430Y502D01*
X0Y501D02*
X7Y501D01*
X1604Y501D02*
X1610Y501D01*
X1651Y501D02*
X1657Y501D01*
X2423Y501D02*
X2430Y501D01*
X0Y500D02*
X7Y500D01*
X1604Y500D02*
X1610Y500D01*
X1651Y500D02*
X1657Y500D01*
X2423Y500D02*
X2430Y500D01*
X0Y499D02*
X7Y499D01*
X1604Y499D02*
X1610Y499D01*
X1651Y499D02*
X1657Y499D01*
X2423Y499D02*
X2430Y499D01*
X0Y498D02*
X7Y498D01*
X1604Y498D02*
X1610Y498D01*
X1651Y498D02*
X1657Y498D01*
X2423Y498D02*
X2430Y498D01*
X0Y497D02*
X7Y497D01*
X1604Y497D02*
X1657Y497D01*
X2423Y497D02*
X2430Y497D01*
X0Y496D02*
X7Y496D01*
X1604Y496D02*
X1657Y496D01*
X2423Y496D02*
X2430Y496D01*
X0Y495D02*
X7Y495D01*
X1604Y495D02*
X1657Y495D01*
X2423Y495D02*
X2430Y495D01*
X0Y494D02*
X7Y494D01*
X1605Y494D02*
X1656Y494D01*
X2423Y494D02*
X2430Y494D01*
X0Y493D02*
X7Y493D01*
X1605Y493D02*
X1656Y493D01*
X2423Y493D02*
X2430Y493D01*
X0Y492D02*
X7Y492D01*
X1606Y492D02*
X1655Y492D01*
X2423Y492D02*
X2430Y492D01*
X0Y491D02*
X7Y491D01*
X1608Y491D02*
X1653Y491D01*
X2423Y491D02*
X2430Y491D01*
X0Y490D02*
X7Y490D01*
X2423Y490D02*
X2430Y490D01*
X0Y489D02*
X7Y489D01*
X2423Y489D02*
X2430Y489D01*
X0Y488D02*
X7Y488D01*
X2423Y488D02*
X2430Y488D01*
X0Y487D02*
X7Y487D01*
X2423Y487D02*
X2430Y487D01*
X0Y486D02*
X7Y486D01*
X2423Y486D02*
X2430Y486D01*
X0Y485D02*
X7Y485D01*
X2423Y485D02*
X2430Y485D01*
X0Y484D02*
X7Y484D01*
X2423Y484D02*
X2430Y484D01*
X0Y483D02*
X7Y483D01*
X2423Y483D02*
X2430Y483D01*
X0Y482D02*
X7Y482D01*
X2423Y482D02*
X2430Y482D01*
X0Y481D02*
X7Y481D01*
X2423Y481D02*
X2430Y481D01*
X0Y480D02*
X7Y480D01*
X2423Y480D02*
X2430Y480D01*
X0Y479D02*
X7Y479D01*
X2423Y479D02*
X2430Y479D01*
X0Y478D02*
X7Y478D01*
X2423Y478D02*
X2430Y478D01*
X0Y477D02*
X7Y477D01*
X2423Y477D02*
X2430Y477D01*
X0Y476D02*
X7Y476D01*
X2423Y476D02*
X2430Y476D01*
X0Y475D02*
X7Y475D01*
X2423Y475D02*
X2430Y475D01*
X0Y474D02*
X7Y474D01*
X1608Y474D02*
X1629Y474D01*
X1653Y474D02*
X1655Y474D01*
X2423Y474D02*
X2430Y474D01*
X0Y473D02*
X7Y473D01*
X1607Y473D02*
X1631Y473D01*
X1652Y473D02*
X1656Y473D01*
X2423Y473D02*
X2430Y473D01*
X0Y472D02*
X7Y472D01*
X1606Y472D02*
X1632Y472D01*
X1651Y472D02*
X1657Y472D01*
X2423Y472D02*
X2430Y472D01*
X0Y471D02*
X7Y471D01*
X1605Y471D02*
X1632Y471D01*
X1651Y471D02*
X1657Y471D01*
X2423Y471D02*
X2430Y471D01*
X0Y470D02*
X7Y470D01*
X1604Y470D02*
X1633Y470D01*
X1651Y470D02*
X1657Y470D01*
X2423Y470D02*
X2430Y470D01*
X0Y469D02*
X7Y469D01*
X1604Y469D02*
X1633Y469D01*
X1651Y469D02*
X1657Y469D01*
X2423Y469D02*
X2430Y469D01*
X0Y468D02*
X7Y468D01*
X1604Y468D02*
X1633Y468D01*
X1651Y468D02*
X1657Y468D01*
X2423Y468D02*
X2430Y468D01*
X0Y467D02*
X7Y467D01*
X1604Y467D02*
X1610Y467D01*
X1627Y467D02*
X1633Y467D01*
X1651Y467D02*
X1657Y467D01*
X2423Y467D02*
X2430Y467D01*
X0Y466D02*
X7Y466D01*
X1604Y466D02*
X1610Y466D01*
X1627Y466D02*
X1633Y466D01*
X1651Y466D02*
X1657Y466D01*
X2423Y466D02*
X2430Y466D01*
X0Y465D02*
X7Y465D01*
X1604Y465D02*
X1610Y465D01*
X1627Y465D02*
X1633Y465D01*
X1651Y465D02*
X1657Y465D01*
X2423Y465D02*
X2430Y465D01*
X0Y464D02*
X7Y464D01*
X1604Y464D02*
X1610Y464D01*
X1627Y464D02*
X1633Y464D01*
X1651Y464D02*
X1657Y464D01*
X2423Y464D02*
X2430Y464D01*
X0Y463D02*
X7Y463D01*
X1604Y463D02*
X1610Y463D01*
X1627Y463D02*
X1633Y463D01*
X1651Y463D02*
X1657Y463D01*
X2423Y463D02*
X2430Y463D01*
X0Y462D02*
X7Y462D01*
X1604Y462D02*
X1610Y462D01*
X1627Y462D02*
X1633Y462D01*
X1651Y462D02*
X1657Y462D01*
X2423Y462D02*
X2430Y462D01*
X0Y461D02*
X7Y461D01*
X1604Y461D02*
X1610Y461D01*
X1627Y461D02*
X1633Y461D01*
X1651Y461D02*
X1657Y461D01*
X2423Y461D02*
X2430Y461D01*
X0Y460D02*
X7Y460D01*
X1604Y460D02*
X1610Y460D01*
X1627Y460D02*
X1633Y460D01*
X1651Y460D02*
X1657Y460D01*
X2423Y460D02*
X2430Y460D01*
X0Y459D02*
X7Y459D01*
X1604Y459D02*
X1610Y459D01*
X1627Y459D02*
X1633Y459D01*
X1651Y459D02*
X1657Y459D01*
X2423Y459D02*
X2430Y459D01*
X0Y458D02*
X7Y458D01*
X1604Y458D02*
X1610Y458D01*
X1627Y458D02*
X1633Y458D01*
X1651Y458D02*
X1657Y458D01*
X2423Y458D02*
X2430Y458D01*
X0Y457D02*
X7Y457D01*
X1604Y457D02*
X1610Y457D01*
X1627Y457D02*
X1633Y457D01*
X1651Y457D02*
X1657Y457D01*
X2423Y457D02*
X2430Y457D01*
X0Y456D02*
X7Y456D01*
X1604Y456D02*
X1610Y456D01*
X1627Y456D02*
X1633Y456D01*
X1651Y456D02*
X1657Y456D01*
X2423Y456D02*
X2430Y456D01*
X0Y455D02*
X7Y455D01*
X1604Y455D02*
X1610Y455D01*
X1627Y455D02*
X1633Y455D01*
X1651Y455D02*
X1657Y455D01*
X2423Y455D02*
X2430Y455D01*
X0Y454D02*
X7Y454D01*
X1604Y454D02*
X1610Y454D01*
X1627Y454D02*
X1633Y454D01*
X1651Y454D02*
X1657Y454D01*
X2423Y454D02*
X2430Y454D01*
X0Y453D02*
X7Y453D01*
X1604Y453D02*
X1610Y453D01*
X1627Y453D02*
X1633Y453D01*
X1651Y453D02*
X1657Y453D01*
X2423Y453D02*
X2430Y453D01*
X0Y452D02*
X7Y452D01*
X1604Y452D02*
X1610Y452D01*
X1627Y452D02*
X1633Y452D01*
X1651Y452D02*
X1657Y452D01*
X2423Y452D02*
X2430Y452D01*
X0Y451D02*
X7Y451D01*
X1604Y451D02*
X1610Y451D01*
X1627Y451D02*
X1633Y451D01*
X1651Y451D02*
X1657Y451D01*
X2423Y451D02*
X2430Y451D01*
X0Y450D02*
X7Y450D01*
X1604Y450D02*
X1610Y450D01*
X1627Y450D02*
X1633Y450D01*
X1651Y450D02*
X1657Y450D01*
X2423Y450D02*
X2430Y450D01*
X0Y449D02*
X7Y449D01*
X1604Y449D02*
X1610Y449D01*
X1627Y449D02*
X1633Y449D01*
X1651Y449D02*
X1657Y449D01*
X2423Y449D02*
X2430Y449D01*
X0Y448D02*
X7Y448D01*
X1604Y448D02*
X1610Y448D01*
X1627Y448D02*
X1633Y448D01*
X1651Y448D02*
X1657Y448D01*
X2423Y448D02*
X2430Y448D01*
X0Y447D02*
X7Y447D01*
X1604Y447D02*
X1610Y447D01*
X1627Y447D02*
X1634Y447D01*
X1651Y447D02*
X1657Y447D01*
X2423Y447D02*
X2430Y447D01*
X0Y446D02*
X7Y446D01*
X1604Y446D02*
X1610Y446D01*
X1628Y446D02*
X1657Y446D01*
X2423Y446D02*
X2430Y446D01*
X0Y445D02*
X7Y445D01*
X1604Y445D02*
X1610Y445D01*
X1628Y445D02*
X1657Y445D01*
X2423Y445D02*
X2430Y445D01*
X0Y444D02*
X7Y444D01*
X1604Y444D02*
X1610Y444D01*
X1628Y444D02*
X1657Y444D01*
X2423Y444D02*
X2430Y444D01*
X0Y443D02*
X7Y443D01*
X1604Y443D02*
X1610Y443D01*
X1629Y443D02*
X1657Y443D01*
X2423Y443D02*
X2430Y443D01*
X0Y442D02*
X7Y442D01*
X1604Y442D02*
X1610Y442D01*
X1630Y442D02*
X1657Y442D01*
X2423Y442D02*
X2430Y442D01*
X0Y441D02*
X7Y441D01*
X1605Y441D02*
X1609Y441D01*
X1631Y441D02*
X1657Y441D01*
X2423Y441D02*
X2430Y441D01*
X0Y440D02*
X7Y440D01*
X1607Y440D02*
X1607Y440D01*
X1634Y440D02*
X1657Y440D01*
X2423Y440D02*
X2430Y440D01*
X0Y439D02*
X7Y439D01*
X2423Y439D02*
X2430Y439D01*
X0Y438D02*
X7Y438D01*
X2423Y438D02*
X2430Y438D01*
X0Y437D02*
X7Y437D01*
X2423Y437D02*
X2430Y437D01*
X0Y436D02*
X7Y436D01*
X2423Y436D02*
X2430Y436D01*
X0Y435D02*
X7Y435D01*
X2423Y435D02*
X2430Y435D01*
X0Y434D02*
X7Y434D01*
X2423Y434D02*
X2430Y434D01*
X0Y433D02*
X7Y433D01*
X2423Y433D02*
X2430Y433D01*
X0Y432D02*
X7Y432D01*
X2423Y432D02*
X2430Y432D01*
X0Y431D02*
X7Y431D01*
X2423Y431D02*
X2430Y431D01*
X0Y430D02*
X7Y430D01*
X2423Y430D02*
X2430Y430D01*
X0Y429D02*
X7Y429D01*
X2423Y429D02*
X2430Y429D01*
X0Y428D02*
X7Y428D01*
X2423Y428D02*
X2430Y428D01*
X0Y427D02*
X7Y427D01*
X2423Y427D02*
X2430Y427D01*
X0Y426D02*
X7Y426D01*
X2423Y426D02*
X2430Y426D01*
X0Y425D02*
X7Y425D01*
X2423Y425D02*
X2430Y425D01*
X0Y424D02*
X7Y424D01*
X2423Y424D02*
X2430Y424D01*
X0Y423D02*
X7Y423D01*
X2423Y423D02*
X2430Y423D01*
X0Y422D02*
X7Y422D01*
X2423Y422D02*
X2430Y422D01*
X0Y421D02*
X7Y421D01*
X2423Y421D02*
X2430Y421D01*
X0Y420D02*
X7Y420D01*
X2423Y420D02*
X2430Y420D01*
X0Y419D02*
X7Y419D01*
X2423Y419D02*
X2430Y419D01*
X0Y418D02*
X7Y418D01*
X2423Y418D02*
X2430Y418D01*
X0Y417D02*
X7Y417D01*
X2423Y417D02*
X2430Y417D01*
X0Y416D02*
X7Y416D01*
X2423Y416D02*
X2430Y416D01*
X0Y415D02*
X7Y415D01*
X2423Y415D02*
X2430Y415D01*
X0Y414D02*
X7Y414D01*
X2423Y414D02*
X2430Y414D01*
X0Y413D02*
X7Y413D01*
X2423Y413D02*
X2430Y413D01*
X0Y412D02*
X7Y412D01*
X2423Y412D02*
X2430Y412D01*
X0Y411D02*
X7Y411D01*
X2423Y411D02*
X2430Y411D01*
X0Y410D02*
X7Y410D01*
X2423Y410D02*
X2430Y410D01*
X0Y409D02*
X7Y409D01*
X2423Y409D02*
X2430Y409D01*
X0Y408D02*
X7Y408D01*
X1624Y408D02*
X1633Y408D01*
X2423Y408D02*
X2430Y408D01*
X0Y407D02*
X7Y407D01*
X1624Y407D02*
X1633Y407D01*
X2423Y407D02*
X2430Y407D01*
X0Y406D02*
X7Y406D01*
X1624Y406D02*
X1633Y406D01*
X2423Y406D02*
X2430Y406D01*
X0Y405D02*
X7Y405D01*
X1624Y405D02*
X1633Y405D01*
X2423Y405D02*
X2430Y405D01*
X0Y404D02*
X7Y404D01*
X1624Y404D02*
X1633Y404D01*
X2423Y404D02*
X2430Y404D01*
X0Y403D02*
X7Y403D01*
X1624Y403D02*
X1633Y403D01*
X2423Y403D02*
X2430Y403D01*
X0Y402D02*
X7Y402D01*
X1624Y402D02*
X1633Y402D01*
X2423Y402D02*
X2430Y402D01*
X0Y401D02*
X7Y401D01*
X1624Y401D02*
X1633Y401D01*
X2423Y401D02*
X2430Y401D01*
X0Y400D02*
X7Y400D01*
X1624Y400D02*
X1633Y400D01*
X2423Y400D02*
X2430Y400D01*
X0Y399D02*
X7Y399D01*
X1624Y399D02*
X1633Y399D01*
X2423Y399D02*
X2430Y399D01*
X0Y398D02*
X7Y398D01*
X1624Y398D02*
X1633Y398D01*
X2423Y398D02*
X2430Y398D01*
X0Y397D02*
X7Y397D01*
X1624Y397D02*
X1633Y397D01*
X2423Y397D02*
X2430Y397D01*
X0Y396D02*
X7Y396D01*
X1624Y396D02*
X1633Y396D01*
X2423Y396D02*
X2430Y396D01*
X0Y395D02*
X7Y395D01*
X1624Y395D02*
X1633Y395D01*
X2423Y395D02*
X2430Y395D01*
X0Y394D02*
X7Y394D01*
X1624Y394D02*
X1633Y394D01*
X2423Y394D02*
X2430Y394D01*
X0Y393D02*
X7Y393D01*
X1624Y393D02*
X1633Y393D01*
X2423Y393D02*
X2430Y393D01*
X0Y392D02*
X7Y392D01*
X1624Y392D02*
X1633Y392D01*
X2423Y392D02*
X2430Y392D01*
X0Y391D02*
X7Y391D01*
X1624Y391D02*
X1633Y391D01*
X2423Y391D02*
X2430Y391D01*
X0Y390D02*
X7Y390D01*
X1624Y390D02*
X1633Y390D01*
X2423Y390D02*
X2430Y390D01*
X0Y389D02*
X7Y389D01*
X1624Y389D02*
X1633Y389D01*
X2423Y389D02*
X2430Y389D01*
X0Y388D02*
X7Y388D01*
X1624Y388D02*
X1633Y388D01*
X2423Y388D02*
X2430Y388D01*
X0Y387D02*
X7Y387D01*
X1624Y387D02*
X1633Y387D01*
X2423Y387D02*
X2430Y387D01*
X0Y386D02*
X7Y386D01*
X1624Y386D02*
X1633Y386D01*
X2423Y386D02*
X2430Y386D01*
X0Y385D02*
X7Y385D01*
X1624Y385D02*
X1633Y385D01*
X2423Y385D02*
X2430Y385D01*
X0Y384D02*
X7Y384D01*
X1624Y384D02*
X1633Y384D01*
X2423Y384D02*
X2430Y384D01*
X0Y383D02*
X7Y383D01*
X1624Y383D02*
X1633Y383D01*
X2423Y383D02*
X2430Y383D01*
X0Y382D02*
X7Y382D01*
X1624Y382D02*
X1633Y382D01*
X2423Y382D02*
X2430Y382D01*
X0Y381D02*
X7Y381D01*
X1624Y381D02*
X1633Y381D01*
X2423Y381D02*
X2430Y381D01*
X0Y380D02*
X7Y380D01*
X1624Y380D02*
X1633Y380D01*
X2423Y380D02*
X2430Y380D01*
X0Y379D02*
X7Y379D01*
X1624Y379D02*
X1633Y379D01*
X2423Y379D02*
X2430Y379D01*
X0Y378D02*
X7Y378D01*
X1624Y378D02*
X1633Y378D01*
X2423Y378D02*
X2430Y378D01*
X0Y377D02*
X7Y377D01*
X1624Y377D02*
X1633Y377D01*
X2423Y377D02*
X2430Y377D01*
X0Y376D02*
X7Y376D01*
X1624Y376D02*
X1633Y376D01*
X2423Y376D02*
X2430Y376D01*
X0Y375D02*
X7Y375D01*
X1624Y375D02*
X1633Y375D01*
X2423Y375D02*
X2430Y375D01*
X0Y374D02*
X7Y374D01*
X1624Y374D02*
X1633Y374D01*
X2423Y374D02*
X2430Y374D01*
X0Y373D02*
X7Y373D01*
X1624Y373D02*
X1633Y373D01*
X2423Y373D02*
X2430Y373D01*
X0Y372D02*
X7Y372D01*
X1624Y372D02*
X1633Y372D01*
X2423Y372D02*
X2430Y372D01*
X0Y371D02*
X7Y371D01*
X1624Y371D02*
X1633Y371D01*
X2423Y371D02*
X2430Y371D01*
X0Y370D02*
X7Y370D01*
X1624Y370D02*
X1633Y370D01*
X2423Y370D02*
X2430Y370D01*
X0Y369D02*
X7Y369D01*
X1624Y369D02*
X1633Y369D01*
X2423Y369D02*
X2430Y369D01*
X0Y368D02*
X7Y368D01*
X1624Y368D02*
X1633Y368D01*
X2423Y368D02*
X2430Y368D01*
X0Y367D02*
X7Y367D01*
X1624Y367D02*
X1633Y367D01*
X2423Y367D02*
X2430Y367D01*
X0Y366D02*
X7Y366D01*
X1624Y366D02*
X1633Y366D01*
X2423Y366D02*
X2430Y366D01*
X0Y365D02*
X7Y365D01*
X1624Y365D02*
X1633Y365D01*
X2423Y365D02*
X2430Y365D01*
X0Y364D02*
X7Y364D01*
X1624Y364D02*
X1633Y364D01*
X2423Y364D02*
X2430Y364D01*
X0Y363D02*
X7Y363D01*
X1624Y363D02*
X1633Y363D01*
X2423Y363D02*
X2430Y363D01*
X0Y362D02*
X7Y362D01*
X1624Y362D02*
X1633Y362D01*
X2423Y362D02*
X2430Y362D01*
X0Y361D02*
X7Y361D01*
X1624Y361D02*
X1633Y361D01*
X2423Y361D02*
X2430Y361D01*
X0Y360D02*
X7Y360D01*
X1624Y360D02*
X1633Y360D01*
X2423Y360D02*
X2430Y360D01*
X0Y359D02*
X7Y359D01*
X1624Y359D02*
X1633Y359D01*
X2423Y359D02*
X2430Y359D01*
X0Y358D02*
X7Y358D01*
X1624Y358D02*
X1633Y358D01*
X2423Y358D02*
X2430Y358D01*
X0Y357D02*
X7Y357D01*
X1624Y357D02*
X1633Y357D01*
X2423Y357D02*
X2430Y357D01*
X0Y356D02*
X7Y356D01*
X1624Y356D02*
X1633Y356D01*
X2423Y356D02*
X2430Y356D01*
X0Y355D02*
X7Y355D01*
X1624Y355D02*
X1633Y355D01*
X2423Y355D02*
X2430Y355D01*
X0Y354D02*
X7Y354D01*
X1624Y354D02*
X1633Y354D01*
X2423Y354D02*
X2430Y354D01*
X0Y353D02*
X7Y353D01*
X1624Y353D02*
X1633Y353D01*
X2423Y353D02*
X2430Y353D01*
X0Y352D02*
X7Y352D01*
X1624Y352D02*
X1633Y352D01*
X2423Y352D02*
X2430Y352D01*
X0Y351D02*
X7Y351D01*
X1624Y351D02*
X1633Y351D01*
X2423Y351D02*
X2430Y351D01*
X0Y350D02*
X7Y350D01*
X1624Y350D02*
X1633Y350D01*
X2423Y350D02*
X2430Y350D01*
X0Y349D02*
X7Y349D01*
X1624Y349D02*
X1633Y349D01*
X2423Y349D02*
X2430Y349D01*
X0Y348D02*
X7Y348D01*
X1624Y348D02*
X1633Y348D01*
X2423Y348D02*
X2430Y348D01*
X0Y347D02*
X7Y347D01*
X1624Y347D02*
X1633Y347D01*
X2423Y347D02*
X2430Y347D01*
X0Y346D02*
X7Y346D01*
X1624Y346D02*
X1633Y346D01*
X2423Y346D02*
X2430Y346D01*
X0Y345D02*
X7Y345D01*
X1624Y345D02*
X1633Y345D01*
X2423Y345D02*
X2430Y345D01*
X0Y344D02*
X7Y344D01*
X1624Y344D02*
X1633Y344D01*
X2423Y344D02*
X2430Y344D01*
X0Y343D02*
X7Y343D01*
X1624Y343D02*
X1633Y343D01*
X2423Y343D02*
X2430Y343D01*
X0Y342D02*
X7Y342D01*
X1624Y342D02*
X1633Y342D01*
X2423Y342D02*
X2430Y342D01*
X0Y341D02*
X7Y341D01*
X2423Y341D02*
X2430Y341D01*
X0Y340D02*
X7Y340D01*
X2423Y340D02*
X2430Y340D01*
X0Y339D02*
X7Y339D01*
X2423Y339D02*
X2430Y339D01*
X0Y338D02*
X7Y338D01*
X2423Y338D02*
X2430Y338D01*
X0Y337D02*
X7Y337D01*
X2423Y337D02*
X2430Y337D01*
X0Y336D02*
X7Y336D01*
X2423Y336D02*
X2430Y336D01*
X0Y335D02*
X7Y335D01*
X2423Y335D02*
X2430Y335D01*
X0Y334D02*
X7Y334D01*
X2423Y334D02*
X2430Y334D01*
X0Y333D02*
X7Y333D01*
X2423Y333D02*
X2430Y333D01*
X0Y332D02*
X7Y332D01*
X2423Y332D02*
X2430Y332D01*
X0Y331D02*
X7Y331D01*
X2423Y331D02*
X2430Y331D01*
X0Y330D02*
X7Y330D01*
X2423Y330D02*
X2430Y330D01*
X0Y329D02*
X7Y329D01*
X2423Y329D02*
X2430Y329D01*
X0Y328D02*
X7Y328D01*
X2423Y328D02*
X2430Y328D01*
X0Y327D02*
X7Y327D01*
X2423Y327D02*
X2430Y327D01*
X0Y326D02*
X7Y326D01*
X2423Y326D02*
X2430Y326D01*
X0Y325D02*
X7Y325D01*
X2423Y325D02*
X2430Y325D01*
X0Y324D02*
X7Y324D01*
X2423Y324D02*
X2430Y324D01*
X0Y323D02*
X7Y323D01*
X2423Y323D02*
X2430Y323D01*
X0Y322D02*
X7Y322D01*
X2423Y322D02*
X2430Y322D01*
X0Y321D02*
X7Y321D01*
X2423Y321D02*
X2430Y321D01*
X0Y320D02*
X7Y320D01*
X2423Y320D02*
X2430Y320D01*
X0Y319D02*
X7Y319D01*
X2423Y319D02*
X2430Y319D01*
X0Y318D02*
X7Y318D01*
X2423Y318D02*
X2430Y318D01*
X0Y317D02*
X7Y317D01*
X2423Y317D02*
X2430Y317D01*
X0Y316D02*
X7Y316D01*
X2423Y316D02*
X2430Y316D01*
X0Y315D02*
X7Y315D01*
X2423Y315D02*
X2430Y315D01*
X0Y314D02*
X7Y314D01*
X2423Y314D02*
X2430Y314D01*
X0Y313D02*
X7Y313D01*
X2423Y313D02*
X2430Y313D01*
X0Y312D02*
X7Y312D01*
X2423Y312D02*
X2430Y312D01*
X0Y311D02*
X7Y311D01*
X2423Y311D02*
X2430Y311D01*
X0Y310D02*
X7Y310D01*
X2423Y310D02*
X2430Y310D01*
X0Y309D02*
X7Y309D01*
X2423Y309D02*
X2430Y309D01*
X0Y308D02*
X7Y308D01*
X2423Y308D02*
X2430Y308D01*
X0Y307D02*
X7Y307D01*
X2423Y307D02*
X2430Y307D01*
X0Y306D02*
X7Y306D01*
X2423Y306D02*
X2430Y306D01*
X0Y305D02*
X7Y305D01*
X2423Y305D02*
X2430Y305D01*
X0Y304D02*
X7Y304D01*
X2423Y304D02*
X2430Y304D01*
X0Y303D02*
X7Y303D01*
X2423Y303D02*
X2430Y303D01*
X0Y302D02*
X7Y302D01*
X2423Y302D02*
X2430Y302D01*
X0Y301D02*
X7Y301D01*
X2423Y301D02*
X2430Y301D01*
X0Y300D02*
X7Y300D01*
X2423Y300D02*
X2430Y300D01*
X0Y299D02*
X7Y299D01*
X2423Y299D02*
X2430Y299D01*
X0Y298D02*
X7Y298D01*
X2423Y298D02*
X2430Y298D01*
X0Y297D02*
X7Y297D01*
X2423Y297D02*
X2430Y297D01*
X0Y296D02*
X7Y296D01*
X2423Y296D02*
X2430Y296D01*
X0Y295D02*
X7Y295D01*
X2423Y295D02*
X2430Y295D01*
X0Y294D02*
X7Y294D01*
X2423Y294D02*
X2430Y294D01*
X0Y293D02*
X7Y293D01*
X2423Y293D02*
X2430Y293D01*
X0Y292D02*
X7Y292D01*
X2423Y292D02*
X2430Y292D01*
X0Y291D02*
X7Y291D01*
X2423Y291D02*
X2430Y291D01*
X0Y290D02*
X7Y290D01*
X2423Y290D02*
X2430Y290D01*
X0Y289D02*
X7Y289D01*
X2423Y289D02*
X2430Y289D01*
X0Y288D02*
X7Y288D01*
X2423Y288D02*
X2430Y288D01*
X0Y287D02*
X7Y287D01*
X2423Y287D02*
X2430Y287D01*
X0Y286D02*
X7Y286D01*
X2423Y286D02*
X2430Y286D01*
X0Y285D02*
X7Y285D01*
X2423Y285D02*
X2430Y285D01*
X0Y284D02*
X7Y284D01*
X2423Y284D02*
X2430Y284D01*
X0Y283D02*
X7Y283D01*
X2423Y283D02*
X2430Y283D01*
X0Y282D02*
X7Y282D01*
X2423Y282D02*
X2430Y282D01*
X0Y281D02*
X7Y281D01*
X2423Y281D02*
X2430Y281D01*
X0Y280D02*
X7Y280D01*
X2423Y280D02*
X2430Y280D01*
X0Y279D02*
X7Y279D01*
X2423Y279D02*
X2430Y279D01*
X0Y278D02*
X7Y278D01*
X2423Y278D02*
X2430Y278D01*
X0Y277D02*
X7Y277D01*
X2423Y277D02*
X2430Y277D01*
X0Y276D02*
X7Y276D01*
X2423Y276D02*
X2430Y276D01*
X0Y275D02*
X7Y275D01*
X2423Y275D02*
X2430Y275D01*
X0Y274D02*
X7Y274D01*
X2423Y274D02*
X2430Y274D01*
X0Y273D02*
X7Y273D01*
X2423Y273D02*
X2430Y273D01*
X0Y272D02*
X7Y272D01*
X2423Y272D02*
X2430Y272D01*
X0Y271D02*
X7Y271D01*
X2423Y271D02*
X2430Y271D01*
X0Y270D02*
X7Y270D01*
X2423Y270D02*
X2430Y270D01*
X0Y269D02*
X7Y269D01*
X2423Y269D02*
X2430Y269D01*
X0Y268D02*
X7Y268D01*
X2423Y268D02*
X2430Y268D01*
X0Y267D02*
X7Y267D01*
X2423Y267D02*
X2430Y267D01*
X0Y266D02*
X7Y266D01*
X2423Y266D02*
X2430Y266D01*
X0Y265D02*
X7Y265D01*
X2423Y265D02*
X2430Y265D01*
X0Y264D02*
X7Y264D01*
X2423Y264D02*
X2430Y264D01*
X0Y263D02*
X7Y263D01*
X2423Y263D02*
X2430Y263D01*
X0Y262D02*
X7Y262D01*
X2423Y262D02*
X2430Y262D01*
X0Y261D02*
X7Y261D01*
X2423Y261D02*
X2430Y261D01*
X0Y260D02*
X7Y260D01*
X2423Y260D02*
X2430Y260D01*
X0Y259D02*
X7Y259D01*
X2423Y259D02*
X2430Y259D01*
X0Y258D02*
X7Y258D01*
X2423Y258D02*
X2430Y258D01*
X0Y257D02*
X7Y257D01*
X2423Y257D02*
X2430Y257D01*
X0Y256D02*
X7Y256D01*
X2423Y256D02*
X2430Y256D01*
X0Y255D02*
X7Y255D01*
X2423Y255D02*
X2430Y255D01*
X0Y254D02*
X7Y254D01*
X2423Y254D02*
X2430Y254D01*
X0Y253D02*
X7Y253D01*
X2423Y253D02*
X2430Y253D01*
X0Y252D02*
X7Y252D01*
X2423Y252D02*
X2430Y252D01*
X0Y251D02*
X7Y251D01*
X2423Y251D02*
X2430Y251D01*
X0Y250D02*
X7Y250D01*
X2423Y250D02*
X2430Y250D01*
X0Y249D02*
X7Y249D01*
X2423Y249D02*
X2430Y249D01*
X0Y248D02*
X7Y248D01*
X2423Y248D02*
X2430Y248D01*
X0Y247D02*
X7Y247D01*
X2423Y247D02*
X2430Y247D01*
X0Y246D02*
X7Y246D01*
X2423Y246D02*
X2430Y246D01*
X0Y245D02*
X7Y245D01*
X2423Y245D02*
X2430Y245D01*
X0Y244D02*
X7Y244D01*
X2423Y244D02*
X2430Y244D01*
X0Y243D02*
X7Y243D01*
X2423Y243D02*
X2430Y243D01*
X0Y242D02*
X7Y242D01*
X2423Y242D02*
X2430Y242D01*
X0Y241D02*
X7Y241D01*
X2423Y241D02*
X2430Y241D01*
X0Y240D02*
X7Y240D01*
X2423Y240D02*
X2430Y240D01*
X0Y239D02*
X7Y239D01*
X2423Y239D02*
X2430Y239D01*
X0Y238D02*
X7Y238D01*
X2423Y238D02*
X2430Y238D01*
X0Y237D02*
X7Y237D01*
X2423Y237D02*
X2430Y237D01*
X0Y236D02*
X7Y236D01*
X2423Y236D02*
X2430Y236D01*
X0Y235D02*
X7Y235D01*
X2423Y235D02*
X2430Y235D01*
X0Y234D02*
X7Y234D01*
X2423Y234D02*
X2430Y234D01*
X0Y233D02*
X7Y233D01*
X2423Y233D02*
X2430Y233D01*
X0Y232D02*
X7Y232D01*
X2423Y232D02*
X2430Y232D01*
X0Y231D02*
X7Y231D01*
X2423Y231D02*
X2430Y231D01*
X0Y230D02*
X7Y230D01*
X2423Y230D02*
X2430Y230D01*
X0Y229D02*
X7Y229D01*
X2423Y229D02*
X2430Y229D01*
X0Y228D02*
X7Y228D01*
X2423Y228D02*
X2430Y228D01*
X0Y227D02*
X7Y227D01*
X2423Y227D02*
X2430Y227D01*
X0Y226D02*
X7Y226D01*
X2423Y226D02*
X2430Y226D01*
X0Y225D02*
X7Y225D01*
X2423Y225D02*
X2430Y225D01*
X0Y224D02*
X7Y224D01*
X2423Y224D02*
X2430Y224D01*
X0Y223D02*
X7Y223D01*
X2423Y223D02*
X2430Y223D01*
X0Y222D02*
X7Y222D01*
X2423Y222D02*
X2430Y222D01*
X0Y221D02*
X7Y221D01*
X2423Y221D02*
X2430Y221D01*
X0Y220D02*
X7Y220D01*
X2423Y220D02*
X2430Y220D01*
X0Y219D02*
X7Y219D01*
X2423Y219D02*
X2430Y219D01*
X0Y218D02*
X7Y218D01*
X2423Y218D02*
X2430Y218D01*
X0Y217D02*
X7Y217D01*
X2423Y217D02*
X2430Y217D01*
X0Y216D02*
X7Y216D01*
X2423Y216D02*
X2430Y216D01*
X0Y215D02*
X7Y215D01*
X2423Y215D02*
X2430Y215D01*
X0Y214D02*
X7Y214D01*
X2423Y214D02*
X2430Y214D01*
X0Y213D02*
X7Y213D01*
X2423Y213D02*
X2430Y213D01*
X0Y212D02*
X7Y212D01*
X2423Y212D02*
X2430Y212D01*
X0Y211D02*
X7Y211D01*
X2423Y211D02*
X2430Y211D01*
X0Y210D02*
X7Y210D01*
X2423Y210D02*
X2430Y210D01*
X0Y209D02*
X7Y209D01*
X2423Y209D02*
X2430Y209D01*
X0Y208D02*
X7Y208D01*
X2423Y208D02*
X2430Y208D01*
X0Y207D02*
X7Y207D01*
X2423Y207D02*
X2430Y207D01*
X0Y206D02*
X7Y206D01*
X2423Y206D02*
X2430Y206D01*
X0Y205D02*
X7Y205D01*
X2423Y205D02*
X2430Y205D01*
X0Y204D02*
X7Y204D01*
X2423Y204D02*
X2430Y204D01*
X0Y203D02*
X7Y203D01*
X2423Y203D02*
X2430Y203D01*
X0Y202D02*
X7Y202D01*
X2423Y202D02*
X2430Y202D01*
X0Y201D02*
X7Y201D01*
X2423Y201D02*
X2430Y201D01*
X0Y200D02*
X7Y200D01*
X2423Y200D02*
X2430Y200D01*
X0Y199D02*
X7Y199D01*
X2423Y199D02*
X2430Y199D01*
X0Y198D02*
X7Y198D01*
X2423Y198D02*
X2430Y198D01*
X0Y197D02*
X7Y197D01*
X2423Y197D02*
X2430Y197D01*
X0Y196D02*
X7Y196D01*
X2423Y196D02*
X2430Y196D01*
X0Y195D02*
X7Y195D01*
X2423Y195D02*
X2430Y195D01*
X0Y194D02*
X7Y194D01*
X2423Y194D02*
X2430Y194D01*
X0Y193D02*
X7Y193D01*
X2423Y193D02*
X2430Y193D01*
X0Y192D02*
X7Y192D01*
X2423Y192D02*
X2430Y192D01*
X0Y191D02*
X7Y191D01*
X2423Y191D02*
X2430Y191D01*
X0Y190D02*
X7Y190D01*
X2423Y190D02*
X2430Y190D01*
X0Y189D02*
X7Y189D01*
X2423Y189D02*
X2430Y189D01*
X0Y188D02*
X7Y188D01*
X2423Y188D02*
X2430Y188D01*
X0Y187D02*
X7Y187D01*
X2423Y187D02*
X2430Y187D01*
X0Y186D02*
X7Y186D01*
X2423Y186D02*
X2430Y186D01*
X0Y185D02*
X7Y185D01*
X2423Y185D02*
X2430Y185D01*
X0Y184D02*
X7Y184D01*
X2423Y184D02*
X2430Y184D01*
X0Y183D02*
X7Y183D01*
X2423Y183D02*
X2430Y183D01*
X0Y182D02*
X7Y182D01*
X2423Y182D02*
X2430Y182D01*
X0Y181D02*
X7Y181D01*
X2423Y181D02*
X2430Y181D01*
X0Y180D02*
X7Y180D01*
X2423Y180D02*
X2430Y180D01*
X0Y179D02*
X7Y179D01*
X2423Y179D02*
X2430Y179D01*
X0Y178D02*
X7Y178D01*
X2423Y178D02*
X2430Y178D01*
X0Y177D02*
X7Y177D01*
X2423Y177D02*
X2430Y177D01*
X0Y176D02*
X7Y176D01*
X2423Y176D02*
X2430Y176D01*
X0Y175D02*
X7Y175D01*
X2423Y175D02*
X2430Y175D01*
X0Y174D02*
X7Y174D01*
X2423Y174D02*
X2430Y174D01*
X0Y173D02*
X7Y173D01*
X2423Y173D02*
X2430Y173D01*
X0Y172D02*
X7Y172D01*
X2423Y172D02*
X2430Y172D01*
X0Y171D02*
X7Y171D01*
X2423Y171D02*
X2430Y171D01*
X0Y170D02*
X7Y170D01*
X2423Y170D02*
X2430Y170D01*
X0Y169D02*
X7Y169D01*
X2423Y169D02*
X2430Y169D01*
X0Y168D02*
X7Y168D01*
X2423Y168D02*
X2430Y168D01*
X0Y167D02*
X7Y167D01*
X2423Y167D02*
X2430Y167D01*
X0Y166D02*
X7Y166D01*
X2423Y166D02*
X2430Y166D01*
X0Y165D02*
X7Y165D01*
X2423Y165D02*
X2430Y165D01*
X0Y164D02*
X7Y164D01*
X2423Y164D02*
X2430Y164D01*
X0Y163D02*
X7Y163D01*
X2423Y163D02*
X2430Y163D01*
X0Y162D02*
X7Y162D01*
X2423Y162D02*
X2430Y162D01*
X0Y161D02*
X7Y161D01*
X2423Y161D02*
X2430Y161D01*
X0Y160D02*
X7Y160D01*
X2423Y160D02*
X2430Y160D01*
X0Y159D02*
X7Y159D01*
X2423Y159D02*
X2430Y159D01*
X0Y158D02*
X7Y158D01*
X2423Y158D02*
X2430Y158D01*
X0Y157D02*
X7Y157D01*
X2423Y157D02*
X2430Y157D01*
X0Y156D02*
X7Y156D01*
X2423Y156D02*
X2430Y156D01*
X0Y155D02*
X7Y155D01*
X2423Y155D02*
X2430Y155D01*
X0Y154D02*
X7Y154D01*
X2423Y154D02*
X2430Y154D01*
X0Y153D02*
X7Y153D01*
X2423Y153D02*
X2430Y153D01*
X0Y152D02*
X7Y152D01*
X2423Y152D02*
X2430Y152D01*
X0Y151D02*
X7Y151D01*
X2423Y151D02*
X2430Y151D01*
X0Y150D02*
X7Y150D01*
X2423Y150D02*
X2430Y150D01*
X0Y149D02*
X7Y149D01*
X2423Y149D02*
X2430Y149D01*
X0Y148D02*
X7Y148D01*
X2423Y148D02*
X2430Y148D01*
X0Y147D02*
X7Y147D01*
X2423Y147D02*
X2430Y147D01*
X0Y146D02*
X7Y146D01*
X2423Y146D02*
X2430Y146D01*
X0Y145D02*
X7Y145D01*
X2423Y145D02*
X2430Y145D01*
X0Y144D02*
X7Y144D01*
X2423Y144D02*
X2430Y144D01*
X0Y143D02*
X7Y143D01*
X2423Y143D02*
X2430Y143D01*
X0Y142D02*
X7Y142D01*
X2423Y142D02*
X2430Y142D01*
X0Y141D02*
X7Y141D01*
X2423Y141D02*
X2430Y141D01*
X0Y140D02*
X7Y140D01*
X2423Y140D02*
X2430Y140D01*
X0Y139D02*
X7Y139D01*
X2423Y139D02*
X2430Y139D01*
X0Y138D02*
X7Y138D01*
X2423Y138D02*
X2430Y138D01*
X0Y137D02*
X7Y137D01*
X2423Y137D02*
X2430Y137D01*
X0Y136D02*
X7Y136D01*
X2423Y136D02*
X2430Y136D01*
X0Y135D02*
X7Y135D01*
X2423Y135D02*
X2430Y135D01*
X0Y134D02*
X7Y134D01*
X2423Y134D02*
X2430Y134D01*
X0Y133D02*
X7Y133D01*
X2423Y133D02*
X2430Y133D01*
X0Y132D02*
X7Y132D01*
X2423Y132D02*
X2430Y132D01*
X0Y131D02*
X7Y131D01*
X2423Y131D02*
X2430Y131D01*
X0Y130D02*
X7Y130D01*
X2423Y130D02*
X2430Y130D01*
X0Y129D02*
X7Y129D01*
X2423Y129D02*
X2430Y129D01*
X0Y128D02*
X7Y128D01*
X2423Y128D02*
X2430Y128D01*
X0Y127D02*
X7Y127D01*
X2423Y127D02*
X2430Y127D01*
X0Y126D02*
X7Y126D01*
X2423Y126D02*
X2430Y126D01*
X0Y125D02*
X7Y125D01*
X2423Y125D02*
X2430Y125D01*
X0Y124D02*
X7Y124D01*
X2423Y124D02*
X2430Y124D01*
X0Y123D02*
X7Y123D01*
X2423Y123D02*
X2430Y123D01*
X0Y122D02*
X7Y122D01*
X2423Y122D02*
X2430Y122D01*
X0Y121D02*
X7Y121D01*
X2423Y121D02*
X2430Y121D01*
X0Y120D02*
X7Y120D01*
X2423Y120D02*
X2430Y120D01*
X0Y119D02*
X7Y119D01*
X2423Y119D02*
X2430Y119D01*
X0Y118D02*
X7Y118D01*
X2423Y118D02*
X2430Y118D01*
X0Y117D02*
X7Y117D01*
X2423Y117D02*
X2430Y117D01*
X0Y116D02*
X7Y116D01*
X2423Y116D02*
X2430Y116D01*
X0Y115D02*
X7Y115D01*
X2423Y115D02*
X2430Y115D01*
X0Y114D02*
X7Y114D01*
X2423Y114D02*
X2430Y114D01*
X0Y113D02*
X7Y113D01*
X2423Y113D02*
X2430Y113D01*
X0Y112D02*
X7Y112D01*
X2423Y112D02*
X2430Y112D01*
X0Y111D02*
X7Y111D01*
X2423Y111D02*
X2430Y111D01*
X0Y110D02*
X7Y110D01*
X2423Y110D02*
X2430Y110D01*
X0Y109D02*
X7Y109D01*
X2423Y109D02*
X2430Y109D01*
X0Y108D02*
X7Y108D01*
X2423Y108D02*
X2430Y108D01*
X0Y107D02*
X7Y107D01*
X2423Y107D02*
X2430Y107D01*
X0Y106D02*
X7Y106D01*
X2423Y106D02*
X2430Y106D01*
X0Y105D02*
X7Y105D01*
X2423Y105D02*
X2430Y105D01*
X0Y104D02*
X7Y104D01*
X2423Y104D02*
X2430Y104D01*
X0Y103D02*
X7Y103D01*
X2423Y103D02*
X2430Y103D01*
X0Y102D02*
X7Y102D01*
X2423Y102D02*
X2430Y102D01*
X0Y101D02*
X7Y101D01*
X2423Y101D02*
X2430Y101D01*
X0Y100D02*
X7Y100D01*
X2423Y100D02*
X2430Y100D01*
X0Y99D02*
X7Y99D01*
X2423Y99D02*
X2430Y99D01*
X0Y98D02*
X7Y98D01*
X2423Y98D02*
X2430Y98D01*
X0Y97D02*
X7Y97D01*
X2423Y97D02*
X2430Y97D01*
X0Y96D02*
X7Y96D01*
X2423Y96D02*
X2430Y96D01*
X0Y95D02*
X7Y95D01*
X2423Y95D02*
X2430Y95D01*
X0Y94D02*
X7Y94D01*
X2423Y94D02*
X2430Y94D01*
X0Y93D02*
X7Y93D01*
X2423Y93D02*
X2430Y93D01*
X0Y92D02*
X7Y92D01*
X2423Y92D02*
X2430Y92D01*
X0Y91D02*
X7Y91D01*
X2423Y91D02*
X2430Y91D01*
X0Y90D02*
X7Y90D01*
X2423Y90D02*
X2430Y90D01*
X0Y89D02*
X7Y89D01*
X2423Y89D02*
X2430Y89D01*
X0Y88D02*
X7Y88D01*
X2423Y88D02*
X2430Y88D01*
X0Y87D02*
X7Y87D01*
X2423Y87D02*
X2430Y87D01*
X0Y86D02*
X7Y86D01*
X2423Y86D02*
X2430Y86D01*
X0Y85D02*
X7Y85D01*
X2423Y85D02*
X2430Y85D01*
X0Y84D02*
X7Y84D01*
X2423Y84D02*
X2430Y84D01*
X0Y83D02*
X7Y83D01*
X2423Y83D02*
X2430Y83D01*
X0Y82D02*
X7Y82D01*
X2423Y82D02*
X2430Y82D01*
X0Y81D02*
X7Y81D01*
X2423Y81D02*
X2430Y81D01*
X0Y80D02*
X7Y80D01*
X2423Y80D02*
X2430Y80D01*
X0Y79D02*
X7Y79D01*
X2423Y79D02*
X2430Y79D01*
X0Y78D02*
X7Y78D01*
X2423Y78D02*
X2430Y78D01*
X0Y77D02*
X7Y77D01*
X2423Y77D02*
X2430Y77D01*
X0Y76D02*
X7Y76D01*
X2423Y76D02*
X2430Y76D01*
X0Y75D02*
X7Y75D01*
X2423Y75D02*
X2430Y75D01*
X0Y74D02*
X7Y74D01*
X2423Y74D02*
X2430Y74D01*
X0Y73D02*
X7Y73D01*
X2423Y73D02*
X2430Y73D01*
X0Y72D02*
X7Y72D01*
X2423Y72D02*
X2430Y72D01*
X0Y71D02*
X7Y71D01*
X2423Y71D02*
X2430Y71D01*
X0Y70D02*
X7Y70D01*
X2423Y70D02*
X2430Y70D01*
X0Y69D02*
X7Y69D01*
X2423Y69D02*
X2430Y69D01*
X0Y68D02*
X7Y68D01*
X2423Y68D02*
X2430Y68D01*
X0Y67D02*
X7Y67D01*
X2423Y67D02*
X2430Y67D01*
X0Y66D02*
X7Y66D01*
X2423Y66D02*
X2430Y66D01*
X0Y65D02*
X7Y65D01*
X2423Y65D02*
X2430Y65D01*
X0Y64D02*
X7Y64D01*
X2423Y64D02*
X2430Y64D01*
X0Y63D02*
X7Y63D01*
X2423Y63D02*
X2430Y63D01*
X0Y62D02*
X7Y62D01*
X2423Y62D02*
X2430Y62D01*
X0Y61D02*
X7Y61D01*
X2423Y61D02*
X2430Y61D01*
X0Y60D02*
X7Y60D01*
X2423Y60D02*
X2430Y60D01*
X0Y59D02*
X7Y59D01*
X2423Y59D02*
X2430Y59D01*
X0Y58D02*
X7Y58D01*
X2423Y58D02*
X2430Y58D01*
X0Y57D02*
X7Y57D01*
X2423Y57D02*
X2430Y57D01*
X0Y56D02*
X7Y56D01*
X2423Y56D02*
X2430Y56D01*
X0Y55D02*
X7Y55D01*
X2423Y55D02*
X2430Y55D01*
X0Y54D02*
X7Y54D01*
X2423Y54D02*
X2430Y54D01*
X0Y53D02*
X7Y53D01*
X2423Y53D02*
X2430Y53D01*
X0Y52D02*
X7Y52D01*
X2423Y52D02*
X2430Y52D01*
X0Y51D02*
X7Y51D01*
X2423Y51D02*
X2430Y51D01*
X0Y50D02*
X7Y50D01*
X2423Y50D02*
X2430Y50D01*
X0Y49D02*
X7Y49D01*
X2423Y49D02*
X2430Y49D01*
X0Y48D02*
X7Y48D01*
X2423Y48D02*
X2430Y48D01*
X0Y47D02*
X7Y47D01*
X2423Y47D02*
X2430Y47D01*
X0Y46D02*
X7Y46D01*
X2423Y46D02*
X2430Y46D01*
X0Y45D02*
X7Y45D01*
X2423Y45D02*
X2430Y45D01*
X0Y44D02*
X7Y44D01*
X2423Y44D02*
X2430Y44D01*
X0Y43D02*
X7Y43D01*
X2423Y43D02*
X2430Y43D01*
X0Y42D02*
X7Y42D01*
X2423Y42D02*
X2430Y42D01*
X0Y41D02*
X7Y41D01*
X2423Y41D02*
X2430Y41D01*
X0Y40D02*
X7Y40D01*
X2423Y40D02*
X2430Y40D01*
X0Y39D02*
X7Y39D01*
X2423Y39D02*
X2430Y39D01*
X0Y38D02*
X7Y38D01*
X2423Y38D02*
X2430Y38D01*
X0Y37D02*
X7Y37D01*
X2423Y37D02*
X2430Y37D01*
X0Y36D02*
X7Y36D01*
X2423Y36D02*
X2430Y36D01*
X0Y35D02*
X7Y35D01*
X2423Y35D02*
X2430Y35D01*
X0Y34D02*
X7Y34D01*
X2423Y34D02*
X2430Y34D01*
X0Y33D02*
X7Y33D01*
X2423Y33D02*
X2430Y33D01*
X0Y32D02*
X7Y32D01*
X2423Y32D02*
X2430Y32D01*
X0Y31D02*
X7Y31D01*
X2423Y31D02*
X2430Y31D01*
X0Y30D02*
X7Y30D01*
X2423Y30D02*
X2430Y30D01*
X0Y29D02*
X7Y29D01*
X2423Y29D02*
X2430Y29D01*
X0Y28D02*
X7Y28D01*
X2423Y28D02*
X2430Y28D01*
X0Y27D02*
X7Y27D01*
X2423Y27D02*
X2430Y27D01*
X0Y26D02*
X7Y26D01*
X2423Y26D02*
X2430Y26D01*
X0Y25D02*
X7Y25D01*
X2423Y25D02*
X2430Y25D01*
X0Y24D02*
X7Y24D01*
X2423Y24D02*
X2430Y24D01*
X0Y23D02*
X7Y23D01*
X2423Y23D02*
X2430Y23D01*
X0Y22D02*
X7Y22D01*
X2423Y22D02*
X2430Y22D01*
X0Y21D02*
X7Y21D01*
X2423Y21D02*
X2430Y21D01*
X0Y20D02*
X7Y20D01*
X2423Y20D02*
X2430Y20D01*
X0Y19D02*
X7Y19D01*
X2423Y19D02*
X2430Y19D01*
X0Y18D02*
X7Y18D01*
X2423Y18D02*
X2430Y18D01*
X0Y17D02*
X7Y17D01*
X2423Y17D02*
X2430Y17D01*
X0Y16D02*
X7Y16D01*
X2423Y16D02*
X2430Y16D01*
X0Y15D02*
X7Y15D01*
X2423Y15D02*
X2430Y15D01*
X0Y14D02*
X7Y14D01*
X2423Y14D02*
X2430Y14D01*
X0Y13D02*
X7Y13D01*
X2423Y13D02*
X2430Y13D01*
X0Y12D02*
X7Y12D01*
X2423Y12D02*
X2430Y12D01*
X0Y11D02*
X7Y11D01*
X2423Y11D02*
X2430Y11D01*
X0Y10D02*
X7Y10D01*
X2423Y10D02*
X2430Y10D01*
X0Y9D02*
X7Y9D01*
X2423Y9D02*
X2430Y9D01*
X0Y8D02*
X2430Y8D01*
X0Y7D02*
X2430Y7D01*
X0Y6D02*
X2430Y6D01*
X0Y5D02*
X2430Y5D01*
X0Y4D02*
X2430Y4D01*
X0Y3D02*
X2430Y3D01*
X0Y2D02*
X2430Y2D01*
X0Y1D02*
X2430Y1D01*
D02*
G04 End of Silk0*
M02*