<svg height="1.64939in" viewBox="0 0 154.893 118.756" width="2.15129in" xmlns="http://www.w3.org/2000/svg"><path d="m.288.288h154.317v117.76h-154.317z" fill="#fff" fill-opacity=".5" stroke="#111" stroke-width=".576" xmlns="http://www.w3.org/2000/svg"/><g fill="#f9a435" transform="translate(2.88 2.88)" xmlns="http://www.w3.org/2000/svg"><path d="m0 0v6.912h51.84v.144h.576v.144h.432v.144h.288v.144h.144v.144h.288v.144h.144v.144h.144v.144h.144v.144h.144v.288h.144v.144h.144v.288h.144v.432h.144v.576h.144v.864h-.144v.576h-.144v.432h-.144v.288h-.144v.144h-.144v.288h-.144v.144h-.144v.144h-.144v.144h-.144v.144h-.144v.144h-.288v.144h-.288v.144h-.432v.144h-.576v.144h37.44v-13.824z" xmlns="http://www.w3.org/2000/svg"/><path d="m136.224 0v28.512h9.648v.144h.432v.144h.288v.144h.288v.144h.144v.144h.288v.144h.144v.144h.144v.144h1.44v-29.664z" xmlns="http://www.w3.org/2000/svg"/><path d="m0 6.912v8.496h1.296v.144h.576v.144h.288v.144h.144v.144h.144v.144h.144v.144h.144v.144h.144v.288h.144v.432h.144v.864h-.144v.432h-.144v.288h-.144v.144h-.144v16.704h5.472v-.144h-.864v-.144h-.432v-.144h-.288v-.144h-.144v-.144h-.288v-.144h-.144v-.144h-.144v-.144h-.144v-.144h-.144v-.144h-.144v-.288h-.144v-.144h-.144v-.288h-.144v-.432h-.144v-1.872h.144v-.576h.144v-.144h.144v-.288h.144v-.288h.144v-.144h.144v-.144h.144v-.144h.144v-.144h.144v-.144h.288v-1.44h-.288v-.144h-.144v-.144h-.144v-.144h-.144v-.144h-.144v-.144h-.144v-.288h-.144v-.144h-.144v-.288h-.144v-.432h-.144v-1.872h.144v-.576h.144v-.144h.144v-.288h.144v-.288h.144v-.144h.144v-.144h.144v-.144h.144v-.144h.144v-.144h.288v-1.44h-.288v-.144h-.144v-.144h-.144v-.144h-.144v-.144h-.144v-.144h-.144v-.288h-.144v-.144h-.144v-.288h-.144v-.432h-.144v-1.872h.144v-.576h.144v-.144h.144v-.288h.144v-.288h.144v-.144h.144v-.144h.144v-.144h.144v-.144h.144v-.144h.288v-1.44h-.288v-.144h-.144v-.144h-.144v-.144h-.144v-.144h-.144v-.144h-.144v-.288h-.144v-.144h-.144v-.288h-.144v-.432h-.144v-1.872h.144v-.576h.144v-.144h.144v-.288h.144v-.288h.144v-.144h.144v-.144h.144v-.144h.144v-.144h.144v-.144h.288v-.144h.288v-.144h.288v-.144h.432v-.144z" xmlns="http://www.w3.org/2000/svg"/><path d="m9.072 6.912v.144h.432v.144h.288v.144h.288v.144h.288v.144h.144v.144h.144v.144h.144v.144h.144v.144h.144v.288h1.44v-.288h.144v-.144h.144v-.144h.144v-.144h.144v-.144h.144v-.144h.288v-.144h.288v-.144h.288v-.144h.432v-.144z" xmlns="http://www.w3.org/2000/svg"/><path d="m16.272 6.912v.144h.432v.144h.288v.144h.288v.144h.288v.144h.144v.144h.144v.144h.144v.144h.144v.144h4.752v.144h.576v.144h.288v.144h.144v.144h.144v.144h.144v.144h.144v.144h.144v.288h.144v.432h.144v.864h-.144v.432h-.144v.288h-.144v.144h-.144v.144h-.144v.144h-.144v.144h-.144v.144h-.288v.144h-.432v.144h-.432v.144h-.144v.144h-.144v.144h-.144v.144h-.144v.144h-.144v.144h-.144v.144h-.144v.144h-.144v.144h15.12v-.144h-.576v-.144h-.432v-.144h-.288v-.144h-.288v-.144h-.144v-.144h-.144v-.144h-.144v-.144h-.144v-.144h-.144v-.144h-.144v-.288h-.144v-.288h-.144v-.432h-.144v-.576h-.144v-.864h.144v-.576h.144v-.432h.144v-.288h.144v-.144h.144v-.288h.144v-.144h.144v-.144h.144v-.144h.144v-.144h.288v-.144h.144v-.144h.288v-.144h.432v-.144h.576v-.144z" xmlns="http://www.w3.org/2000/svg"/><path d="m37.44 6.912v.144h.576v.144h.432v.144h.288v.144h.144v.144h.288v.144h.144v.144h.144v.144h.144v.144h.144v.288h.144v.144h1.44v-.144h.144v-.288h.144v-.144h.144v-.144h.144v-.144h.144v-.144h.288v-.144h.144v-.144h.288v-.144h.432v-.144h.576v-.144z" xmlns="http://www.w3.org/2000/svg"/><path d="m44.64 6.912v.144h.576v.144h.432v.144h.288v.144h.144v.144h.288v.144h.144v.144h.144v.144h.144v.144h.144v.288h.144v.144h1.44v-.144h.144v-.288h.144v-.144h.144v-.144h.144v-.144h.144v-.144h.288v-.144h.144v-.144h.288v-.144h.432v-.144h.576v-.144z" xmlns="http://www.w3.org/2000/svg"/><path d="m18.288 8.208v.288h.144v.288h.144v.144h.144v.576h.144v1.008h1.44v-.144h.144v-.432h.144v-.432h.144v-.288h.144v-.144h.144v-.144h.144v-.144h.144v-.144h.144v-.144h.288v-.144h.576v-.144z" xmlns="http://www.w3.org/2000/svg"/><path d="m39.888 12.096v.144h-.144v.288h-.144v.144h-.144v.144h-.144v.144h-.144v.144h-.144v.144h-.288v.144h-.288v.144h-.432v.144h-.576v.144h6.336v-.144h-.576v-.144h-.432v-.144h-.288v-.144h-.288v-.144h-.144v-.144h-.144v-.144h-.144v-.144h-.144v-.144h-.144v-.144h-.144v-.288z" xmlns="http://www.w3.org/2000/svg"/><path d="m47.088 12.096v.144h-.144v.288h-.144v.144h-.144v.144h-.144v.144h-.144v.144h-.144v.144h-.288v.144h-.288v.144h-.432v.144h-.576v.144h6.336v-.144h-.576v-.144h-.432v-.144h-.288v-.144h-.288v-.144h-.144v-.144h-.144v-.144h-.144v-.144h-.144v-.144h-.144v-.144h-.144v-.288z" xmlns="http://www.w3.org/2000/svg"/><path d="m21.312 13.824v.144h67.968v-.144z" xmlns="http://www.w3.org/2000/svg"/><path d="m21.312 13.824v.144h67.968v-.144z" xmlns="http://www.w3.org/2000/svg"/><path d="m21.312 13.824v.144h67.968v-.144z" xmlns="http://www.w3.org/2000/svg"/><path d="m21.312 13.824v.144h67.968v-.144z" xmlns="http://www.w3.org/2000/svg"/><path d="m21.168 13.968v.144h-.144v.144h-.144v.144h-.144v.144h-.144v.144h-.144v.144h-.144v.144h-.144v.144h-.144v.144h-.144v.144h39.024v.144h.576v.144h.288v.144h.144v.144h.144v.144h.144v.144h.144v.144h.144v.288h.144v.432h.144v.864h-.144v.432h-.144v.288h-.144v.144h-.144v.144h-.144v.144h-.144v.144h-.144v.144h-.288v.144h-.432v.144h30.24v-5.76z" xmlns="http://www.w3.org/2000/svg"/><path d="m19.728 15.408v.144h-.144v.144h-.144v.144h-.144v.144h-.144v.144h-.144v.144h-.144v1.44h1.44v-.144h.144v-.144h.144v-.144h.144v-.144h.144v-.144h.144v-.144h.144v-.144h.144v-.144h.144v-.144h.144v-.144h.288v-.144h.288v-.144h35.136v-.144h.144v-.144h.288v-.144h.576v-.144z" xmlns="http://www.w3.org/2000/svg"/><path d="m23.184 19.152v.144h-.144v.144h-.144v.144h-.144v.144h35.424v-.144h-.432v-.144h-.288v-.144h-.144v-.144z" xmlns="http://www.w3.org/2000/svg"/><path d="m22.608 19.728v.144h66.672v-.144z" xmlns="http://www.w3.org/2000/svg"/><path d="m22.608 19.728v.144h66.672v-.144z" xmlns="http://www.w3.org/2000/svg"/><path d="m22.464 19.872v.144h-.144v.144h-.144v.144h-.144v.144h-.144v.144h-.144v.144h-.144v.144h-.144v.144h-.144v.144h-.144v.144h23.472v.144h.576v.144h.432v.144h.288v.144h.144v.144h.288v.144h.144v.144h.144v.144h.144v.144h.144v.288h.144v.144h.144v.288h.144v.432h.144v.576h.144v.864h-.144v.576h-.144v.432h-.144v.288h-.144v.144h-.144v.288h-.144v.144h-.144v.144h-.144v.144h-.144v.144h-.144v.144h-.288v.144h-.288v.144h-.432v.144h-.576v.144h44.64v-8.352z" xmlns="http://www.w3.org/2000/svg"/><path d="m21.024 21.312v.144h-.144v.144h-.144v.144h-.144v.144h-.144v.144h-.144v.144h-.144v.144h-.144v.144h-.144v.144h-.144v.144h-.144v.144h-.144v.144h-.144v.144h-.144v.144h-.144v.144h-.144v2.16h-.144v.576h-.144v.144h-.144v.288h-.144v.288h-.144v.144h-.144v.144h-.144v.144h-.144v.144h-.144v.144h-.288v.576h26.496v-.144h-.576v-.144h-.432v-.144h-.288v-.144h-.288v-.144h-.144v-.144h-.144v-.144h-.144v-.144h-.144v-.144h-.144v-.144h-.144v-.288h-.144v-.288h-.144v-.432h-.144v-.576h-.144v-.864h.144v-.576h.144v-.432h.144v-.288h.144v-.144h.144v-.288h.144v-.144h.144v-.144h.144v-.144h.144v-.144h.288v-.144h.144v-.144h.288v-.144h.432v-.144h.576v-.144z" xmlns="http://www.w3.org/2000/svg"/><path d="m17.28 28.224v.144h72v-.144z" xmlns="http://www.w3.org/2000/svg"/><path d="m17.28 28.224v.144h72v-.144z" xmlns="http://www.w3.org/2000/svg"/><path d="m17.28 28.368v.144h63.792v.144h.432v.144h.288v.144h.288v.144h.144v.144h.288v.144h.144v.144h.144v.144h.144v.288h.144v.144h.144v.288h.144v.288h.144v.432h.144v1.728h-.144v.576h-.144v.144h-.144v.288h-.144v.288h-.144v.144h-.144v.144h-.144v.144h-.144v.144h-.144v.144h-.288v1.44h.144v.144h7.056v-8.064z" xmlns="http://www.w3.org/2000/svg"/><path d="m17.28 28.512v.576h.288v.144h.144v.144h.144v.144h.144v.144h.144v.144h.144v.288h.144v.288h.144v.144h.144v.576h.144v1.728h-.144v.576h-.144v.144h-.144v.288h-.144v.288h-.144v.144h-.144v.144h-.144v.144h-.144v.144h-.144v.144h-.288v.144h-.144v.144h-.288v.144h-.432v.144h-.864v.144h62.784v-.72h-.288v-.144h-.144v-.144h-.144v-.144h-.144v-.144h-.144v-.144h-.144v-.288h-.144v-.288h-.144v-.144h-.144v-.576h-.144v-1.728h.144v-.432h.144v-.288h.144v-.288h.144v-.288h.144v-.144h.144v-.144h.144v-.144h.144v-.144h.288v-.144h.144v-.144h.288v-.144h.288v-.144h.432v-.144z" xmlns="http://www.w3.org/2000/svg"/><path d="m136.224 28.512v7.92h6.768v-.144h.144v-1.44h-.288v-.144h-.144v-.144h-.144v-.144h-.144v-.144h-.144v-.144h-.144v-.288h-.144v-.288h-.144v-.144h-.144v-.576h-.144v-1.728h.144v-.432h.144v-.288h.144v-.288h.144v-.288h.144v-.144h.144v-.144h.144v-.144h.144v-.144h.288v-.144h.144v-.144h.288v-.144h.288v-.144h.432v-.144z" xmlns="http://www.w3.org/2000/svg"/><path d="m11.088 33.84v.288h-.144v.144h-.144v.144h-.144v.144h-.144v.144h-.144v.144h-.288v.144h-.144v.144h-.288v.144h-.432v.144h-.864v.144h6.912v-.144h-.864v-.144h-.432v-.144h-.288v-.144h-.144v-.144h-.288v-.144h-.144v-.144h-.144v-.144h-.144v-.144h-.144v-.144h-.144v-.288z" xmlns="http://www.w3.org/2000/svg"/><path d="m2.592 35.568v.144h75.744v-.144z" xmlns="http://www.w3.org/2000/svg"/><path d="m2.592 35.568v.144h75.744v-.144z" xmlns="http://www.w3.org/2000/svg"/><path d="m2.592 35.568v.144h75.744v-.144z" xmlns="http://www.w3.org/2000/svg"/><path d="m2.592 35.712v8.496h70.704v.144h.576v.144h.288v.144h.144v.144h.144v.144h.144v.144h.144v.144h.144v.288h.144v.432h.144v.864h-.144v.432h-.144v.288h-.144v.144h-.144v.144h-.144v.144h-.144v.144h-.144v.144h-.288v.144h-.432v.144h2.448v-.144h.144v-.144h.144v-.144h.144v-.144h.144v-.144h.144v-.144h.144v-2.16h.144v-.432h.144v-.288h.144v-.288h.144v-.288h.144v-.144h.144v-.144h.144v-.144h.144v-.144h.288v-.144h.144v-1.44h-.288v-.144h-.144v-.144h-.144v-.144h-.144v-.144h-.144v-.144h-.144v-.288h-.144v-.288h-.144v-.144h-.144v-.576h-.144v-1.728h.144v-.432h.144v-.288h.144v-.288h.144v-.288h.144v-.144h.144v-.144h.144v-.144h.144v-.144h.288v-.144h.144v-.576z" xmlns="http://www.w3.org/2000/svg"/><path d="m82.512 36.432v.144h60.192v-.144z" xmlns="http://www.w3.org/2000/svg"/><path d="m82.512 36.432v.144h60.192v-.144z" xmlns="http://www.w3.org/2000/svg"/><path d="m82.656 36.576v.144h.144v.144h.144v.288h.144v.144h.144v.288h.144v.288h.144v.432h.144v1.728h-.144v.576h-.144v.144h-.144v.288h-.144v.288h-.144v.144h-.144v.144h-.144v.144h-.144v.144h-.144v.144h-.288v1.44h.144v.144h.288v.144h.144v.144h.144v.144h.144v.288h.144v.144h.144v.288h.144v.288h.144v.432h.144v1.728h-.144v.576h-.144v.144h-.144v.288h-.144v.288h-.144v.144h-.144v.144h-.144v.144h-.144v.144h-.144v.144h-.288v1.44h.144v.144h.288v.144h.144v.144h.144v.144h.144v.288h.144v.144h.144v.288h.144v.288h.144v.432h.144v1.728h-.144v.576h-.144v.144h-.144v.288h-.144v.288h-.144v.144h-.144v.144h-.144v.144h-.144v.144h-.144v.144h-.288v1.44h.144v.144h.288v.144h.144v.144h.144v.144h.144v.288h.144v.144h.144v.288h.144v.288h.144v.432h.144v1.728h-.144v.576h-.144v.144h-.144v.288h-.144v.288h-.144v.144h-.144v.144h-.144v.144h-.144v.144h-.144v.144h-.288v1.44h.144v.144h.288v.144h.144v.144h.144v.144h.144v.288h.144v.144h.144v.288h.144v.288h.144v.432h.144v1.728h-.144v.576h-.144v.144h-.144v.288h-.144v.288h-.144v.144h-.144v.144h-.144v.144h-.144v.144h-.144v.144h-.288v1.44h.144v.144h.288v.144h.144v.144h.144v.144h.144v.288h.144v.144h.144v.288h.144v.288h.144v.432h.144v1.728h-.144v.576h-.144v.144h-.144v.288h-.144v.288h-.144v.144h-.144v.144h-.144v.144h-.144v.144h-.144v.144h-.288v1.44h.144v.144h.288v.144h.144v.144h.144v.144h.144v.288h.144v.144h.144v.288h.144v.288h.144v.432h.144v1.728h-.144v.576h-.144v.144h-.144v.288h-.144v.288h-.144v.144h-.144v.144h-.144v.144h-.144v.144h-.144v.144h-.288v.144h-.288v.144h-.144v.144h-.576v.144h63.072v-.144h-.576v-.144h-.144v-.144h-.288v-.144h-.288v-.144h-.144v-.144h-.144v-.144h-.144v-.144h-.144v-.144h-.144v-.288h-.144v-.288h-.144v-.144h-.144v-.576h-.144v-1.728h.144v-.432h.144v-.288h.144v-.288h.144v-.288h.144v-.144h.144v-.144h.144v-.144h.144v-.144h.288v-.144h.144v-1.44h-.288v-.144h-.144v-.144h-.144v-.144h-.144v-.144h-.144v-.144h-.144v-.288h-.144v-.288h-.144v-.144h-.144v-.576h-.144v-1.728h.144v-.432h.144v-.288h.144v-.288h.144v-.288h.144v-.144h.144v-.144h.144v-.144h.144v-.144h.288v-.144h.144v-1.44h-.288v-.144h-.144v-.144h-.144v-.144h-.144v-.144h-.144v-.144h-.144v-.288h-.144v-.288h-.144v-.144h-.144v-.576h-.144v-1.728h.144v-.432h.144v-.288h.144v-.288h.144v-.288h.144v-.144h.144v-.144h.144v-.144h.144v-.144h.288v-.144h.144v-1.44h-.288v-.144h-.144v-.144h-.144v-.144h-.144v-.144h-.144v-.144h-.144v-.288h-.144v-.288h-.144v-.144h-.144v-.576h-.144v-1.728h.144v-.432h.144v-.288h.144v-.288h.144v-.288h.144v-.144h.144v-.144h.144v-.144h.144v-.144h.288v-.144h.144v-1.44h-.288v-.144h-.144v-.144h-.144v-.144h-.144v-.144h-.144v-.144h-.144v-.288h-.144v-.288h-.144v-.144h-.144v-.576h-.144v-1.728h.144v-.432h.144v-.288h.144v-.288h.144v-.288h.144v-.144h.144v-.144h.144v-.144h.144v-.144h.288v-.144h.144v-1.44h-.288v-.144h-.144v-.144h-.144v-.144h-.144v-.144h-.144v-.144h-.144v-.288h-.144v-.288h-.144v-.144h-.144v-.576h-.144v-1.728h.144v-.432h.144v-.288h.144v-.288h.144v-.288h.144v-.144h.144v-.144h.144v-.144h.144v-.144h.288v-.144h.144v-1.44h-.288v-.144h-.144v-.144h-.144v-.144h-.144v-.144h-.144v-.144h-.144v-.288h-.144v-.288h-.144v-.144h-.144v-.576h-.144v-1.728h.144v-.432h.144v-.288h.144v-.288h.144v-.288h.144v-.144h.144v-.144h.144v-.144z" xmlns="http://www.w3.org/2000/svg"/><path d="m2.592 44.208v5.904h42.048v.144h.576v.144h.432v.144h.288v.144h.144v.144h.288v.144h.144v.144h.144v.144h.144v.144h.144v.288h.144v.144h.144v.144h3.6v-.144h.144v-.144h.144v-.144h.144v-.144h.144v-.144h.144v-.144h.144v-.144h.144v-.144h.144v-.144h.144v-.144h.144v-.144h.144v-.144h.144v-.144h.144v-.144h.144v-.144h.144v-.144h.144v-.144h.144v-.144h.144v-.144h.144v-.144h.144v-.144h.144v-.144h.144v-.144h.144v-.144h.144v-.144h.144v-.144h.144v-.144h.144v-.144h.144v-.144h.144v-.144h.144v-.144h.144v-.144h.144v-.144h.144v-.144h.144v-.144h.144v-.144h.144v-.144h.144v-.144h.144v-.144h.144v-.144h.144v-.144h.144v-.144h.144v-.144h.144v-.144h.144v-.144h.144v-.144h.144v-.144h.288v-.144h.144v-.144h.288v-.144h13.536v-.144h.144v-.144h.288v-.144h.576v-.144z" xmlns="http://www.w3.org/2000/svg"/><path d="m59.184 47.952v.144h-.144v.144h-.144v.144h-.144v.144h13.824v-.144h-.432v-.144h-.288v-.144h-.144v-.144z" xmlns="http://www.w3.org/2000/svg"/><path d="m58.608 48.528v.144h17.136v-.144z" xmlns="http://www.w3.org/2000/svg"/><path d="m58.608 48.528v.144h17.136v-.144z" xmlns="http://www.w3.org/2000/svg"/><path d="m58.464 48.672v.144h-.144v.144h-.144v.144h-.144v.144h-.144v.144h-.144v.144h-.144v.144h-.144v.144h-.144v.144h-.144v.144h-.144v.144h-.144v.144h-.144v.144h-.144v.144h-.144v.144h-.144v.144h-.144v.144h-.144v.144h-.144v.144h-.144v.144h-.144v.144h-.144v.144h-.144v.144h-.144v.144h-.144v.144h-.144v.144h-.144v.144h-.144v.144h-.144v.144h-.144v.144h-.144v.144h-.144v.144h-.144v.144h-.144v.144h-.144v.144h-.144v.144h-.144v.144h-.144v.144h-.144v.144h-.144v.144h-.144v.144h-.144v.144h-.144v.144h-.144v.144h-.288v.144h-4.752v.144h-.144v.144h-.144v.288h-.144v.144h-.144v.144h-.144v.144h-.144v.144h-.144v.144h-.288v.144h-.288v.144h-.432v.144h-.576v.144h8.352v-.144h.144v-.144h.144v-.144h.144v-.144h.144v-.144h.144v-.144h.144v-.144h.144v-.144h.144v-.144h.144v-.144h.144v-.144h.144v-.144h.144v-.144h.144v-.144h.144v-.144h.144v-.144h.144v-.144h.144v-.144h.144v-.144h.144v-.144h.144v-.144h.144v-.144h.144v-.144h.144v-.144h.144v-.144h.144v-.144h.144v-.144h.144v-.144h.144v-.144h.144v-.144h.144v-.144h.144v-.144h.144v-.144h.288v-.144h.288v-.144h14.256v-.144h.144v-.144h.144v-.144h.144v-.144h.144v-.144h.144v-.144h.144v-.144h.144v-.144h.144v-.144h.144v-.144h.144v-.144h.144v-.144h.144v-.144h.144v-.144h.144v-.144h.144v-.144h.144v-.144h.144v-.144h.144v-.144h.144v-.144h.144v-.144h.144v-.144h.144v-.144z" xmlns="http://www.w3.org/2000/svg"/><path d="m2.592 50.112v6.912h41.184v-.144h-.576v-.144h-.432v-.144h-.288v-.144h-.288v-.144h-.144v-.144h-.144v-.144h-.144v-.144h-.144v-.144h-.144v-.144h-.144v-.288h-.144v-.288h-.144v-.432h-.144v-.576h-.144v-.864h.144v-.576h.144v-.432h.144v-.288h.144v-.144h.144v-.288h.144v-.144h.144v-.144h.144v-.144h.144v-.144h.288v-.144h.144v-.144h.288v-.144h.432v-.144h.576v-.144z" xmlns="http://www.w3.org/2000/svg"/><path d="m75.312 53.424v.144h-.144v.144h-.144v.144h-.144v.144h-.144v.144h-.144v.144h-.144v.144h-.144v.144h-.144v.144h-.144v.144h-.144v.144h-.288v.144h-14.4v.144h-.144v.144h-.144v.144h-.144v.144h-.144v.144h-.144v.144h-.144v.144h-.144v.144h-.144v.144h-.144v.144h-.144v.144h-.144v.144h-.144v.144h-.144v.144h-.144v.144h-.144v.144h-.144v.144h-.144v.144h-.144v.144h-.144v.144h-.144v.144h-.144v.144h-.144v.144h-.144v.144h17.424v.144h.576v.144h.288v.144h.144v.144h.144v.144h.144v.144h.144v.144h.144v.288h.144v.432h.144v.864h-.144v.432h-.144v.288h-.144v.144h-.144v.144h-.144v.144h-.144v.144h-.144v.144h-.288v.144h-.432v.144h3.888v-.288h-.144v-.288h-.144v-.144h-.144v-.576h-.144v-1.728h.144v-.432h.144v-.288h.144v-.288h.144v-.144h.144v-.288h.144v-.144h.144v-.144h.144v-.144h.288v-.144h.144v-1.44h-.288v-.144h-.144v-.144h-.144v-.144h-.144v-.144h-.144v-.144h-.144v-.288h-.144v-.288h-.144v-.144h-.144v-.576h-.144v-1.008z" xmlns="http://www.w3.org/2000/svg"/><path d="m2.592 57.024v.144h50.256v-.144z" xmlns="http://www.w3.org/2000/svg"/><path d="m2.592 57.024v.144h50.256v-.144z" xmlns="http://www.w3.org/2000/svg"/><path d="m2.592 57.168v1.44h34.704v.144h.576v.144h.288v.144h.144v.144h12.528v-.144h.144v-.144h.144v-.144h.144v-.144h.144v-.144h.144v-.144h.144v-.144h.144v-.144h.144v-.144h.144v-.144h.144v-.144h.144v-.144h.144v-.144h.144v-.144z" xmlns="http://www.w3.org/2000/svg"/><path d="m2.592 58.608v15.984h.144v.144h.144v.144h.144v.144h.144v.144h.144v.144h.144v.144h.144v.144h.144v.144h.144v.144h.144v.144h.144v.144h.144v.144h.144v.144h.144v.144h.144v.144h.144v.144h.144v.144h.144v.144h.144v.144h.144v.144h.144v.144h.144v.144h.144v.144h.144v.144h.144v.144h.144v.144h.144v.144h.144v.144h29.952v-.144h-.576v-.144h-.432v-.144h-.288v-.144h-.288v-.144h-.144v-.144h-.144v-.144h-.144v-.144h-.144v-.144h-.144v-.144h-.144v-.288h-.144v-.288h-.144v-.432h-.144v-.576h-.144v-.864h.144v-.576h.144v-.432h.144v-.288h.144v-.144h.144v-.288h.144v-.144h.144v-.144h.144v-.144h.144v-.144h.288v-.144h.144v-.144h.144v-10.08h-.144v-.144h-.144v-.288h-.144v-.432h-.144v-.864h.144v-.432h.144v-.288h.144v-.144h.144v-.144h.144v-.144h.144v-.144h.144v-.144h.288v-.144h.576v-.144z" xmlns="http://www.w3.org/2000/svg"/><path d="m55.728 58.608v.144h-.144v.144h-.144v.144h-.144v.144h-.144v.144h-.144v.144h-.144v.144h-.144v.144h-.144v.144h-.144v.144h-.144v.144h-.144v.144h-.144v.144h-.144v.144h-.144v.144h-.144v.144h-.144v.144h-.144v.144h-.144v.144h-.144v.144h-.144v.144h-.144v.144h-.144v.144h-.144v.144h-.144v.144h-.432v.144h-13.248v9.792h.144v.144h.144v.144h.288v.144h.144v.144h.144v.144h.144v.144h.144v.288h.144v.144h1.44v-.144h.144v-.288h.144v-.144h.144v-.144h.144v-.144h.144v-.144h.288v-.144h.144v-.144h.288v-.144h.432v-.144h.576v-.144h1.728v-.144h.144v-.144h.144v-.144h.144v-.144h.144v-.144h.144v-.144h.144v-.144h.144v-.144h.144v-.144h.144v-.144h.144v-.144h.144v-.144h.144v-.144h.144v-.144h.144v-.144h.144v-.144h.144v-.144h.144v-.144h.144v-.144h.144v-.144h.144v-.144h.144v-.144h.144v-.144h.144v-.144h.144v-.144h.144v-.144h.144v-.144h.144v-.144h.144v-.144h.144v-.144h.144v-.144h.144v-.144h.144v-.144h.144v-.144h.144v-.144h.144v-.144h.144v-.144h.144v-.144h.144v-.144h.144v-.144h.144v-.144h.144v-.144h.144v-.144h.144v-.144h.144v-.144h.144v-.144h.144v-.144h.144v-.144h.144v-.144h.144v-.144h.144v-.144h.144v-.144h.144v-.144h.144v-.144h.144v-.144h.144v-.144h.144v-.144h.144v-.144h.144v-.144h.144v-.144h.144v-.144h.144v-.144h.144v-.144h.144v-.144h.144v-.144h.144v-.144h.144v-.144h.144v-.144h.144v-.144h.144v-.144h.144v-.144h.144v-.144h.144v-.144h.144v-.144h.144v-.144h.144v-.144h.144v-.144h.144v-.144h.144v-.144h.144v-.144h.144v-.144h.144v-.144h.144v-.144h.144v-.144h.144v-.144h.288v-.144h.288v-.144h13.536v-.144h.144v-.144h.288v-.144h.576v-.144z" xmlns="http://www.w3.org/2000/svg"/><path d="m59.184 62.352v.144h-.144v.144h-.144v.144h-.144v.144h13.824v-.144h-.432v-.144h-.288v-.144h-.144v-.144z" xmlns="http://www.w3.org/2000/svg"/><path d="m58.608 62.928v.144h18.864v-.144z" xmlns="http://www.w3.org/2000/svg"/><path d="m58.608 62.928v.144h18.864v-.144z" xmlns="http://www.w3.org/2000/svg"/><path d="m58.464 63.072v.144h-.144v.144h-.144v.144h-.144v.144h-.144v.144h-.144v.144h-.144v.144h-.144v.144h-.144v.144h-.144v.144h-.144v.144h-.144v.144h-.144v.144h-.144v.144h-.144v.144h-.144v.144h-.144v.144h-.144v.144h-.144v.144h17.424v.144h.576v.144h.288v.144h.144v.144h.144v.144h.144v.144h.144v.144h.144v.288h.144v.432h.144v.864h-.144v.432h-.144v.288h-.144v.144h-.144v.144h-.144v.144h-.144v.144h-.144v.144h-.288v.144h-.432v.144h3.888v-.288h-.144v-.288h-.144v-.144h-.144v-.576h-.144v-1.728h.144v-.432h.144v-.288h.144v-.288h.144v-.144h.144v-.288h.144v-.144h.144v-.144h.144v-.144h.288v-.144h.144v-1.44h-.288v-.144h-.144v-.144h-.144v-.144h-.144v-.144z" xmlns="http://www.w3.org/2000/svg"/><path d="m55.728 65.808v.144h-.144v.144h-.144v.144h-.144v.144h-.144v.144h-.144v.144h-.144v.144h-.144v.144h-.144v.144h-.144v.144h-.144v.144h-.144v.144h-.144v.144h-.144v.144h-.144v.144h-.144v.144h-.144v.144h-.144v.144h-.144v.144h-.144v.144h-.144v.144h-.144v.144h-.144v.144h-.144v.144h-.144v.144h-.144v.144h-.144v.144h-.144v.144h-.144v.144h-.144v.144h-.144v.144h-.144v1.44h1.44v-.144h.144v-.144h.144v-.144h.144v-.144h.144v-.144h.144v-.144h.144v-.144h.144v-.144h.144v-.144h.144v-.144h.144v-.144h.144v-.144h.144v-.144h.144v-.144h.144v-.144h.144v-.144h.144v-.144h.144v-.144h.144v-.144h.144v-.144h.144v-.144h.144v-.144h.144v-.144h.144v-.144h.144v-.144h.144v-.144h.144v-.144h.144v-.144h.144v-.144h.144v-.144h.144v-.144h.144v-.144h.144v-.144h.144v-.144h.144v-.144h.288v-.144h.288v-.144h13.536v-.144h.144v-.144h.288v-.144h.576v-.144z" xmlns="http://www.w3.org/2000/svg"/><path d="m59.184 69.552v.144h-.144v.144h-.144v.144h-.144v.144h13.824v-.144h-.432v-.144h-.288v-.144h-.144v-.144z" xmlns="http://www.w3.org/2000/svg"/><path d="m58.608 70.128v.144h18.864v-.144z" xmlns="http://www.w3.org/2000/svg"/><path d="m58.608 70.128v.144h18.864v-.144z" xmlns="http://www.w3.org/2000/svg"/><path d="m58.464 70.272v1.44h.576v.144h.576v.144h.432v.144h.288v.144h.144v.144h.288v.144h.144v.144h.144v.144h.144v.144h12.096v.144h.576v.144h.288v.144h.144v.144h.144v.144h.144v.144h.144v.144h.144v.288h.144v.432h.144v.864h-.144v.432h-.144v.288h-.144v.144h-.144v.144h-.144v.144h-.144v.144h-.144v.144h-.288v.144h-.432v.144h3.888v-.288h-.144v-.288h-.144v-.144h-.144v-.576h-.144v-1.728h.144v-.432h.144v-.288h.144v-.288h.144v-.144h.144v-.288h.144v-.144h.144v-.144h.144v-.144h.288v-.144h.144v-1.44h-.288v-.144h-.144v-.144h-.144v-.144h-.144v-.144z" xmlns="http://www.w3.org/2000/svg"/><path d="m61.344 73.008v.288h.144v.144h.144v.144h10.08v-.144h.144v-.144h.288v-.144h.576v-.144z" xmlns="http://www.w3.org/2000/svg"/><path d="m61.632 76.752v.144h-.144v.144h-.144v.288h11.232v-.144h-.432v-.144h-.288v-.144h-.144v-.144z" xmlns="http://www.w3.org/2000/svg"/><path d="m39.888 76.896v.144h-.144v.288h-.144v.144h-.144v.144h-.144v.144h-.144v.144h-.144v.144h-.288v.144h-.288v.144h-.432v.144h-.576v.144h6.336v-.144h-.576v-.144h-.432v-.144h-.288v-.144h-.288v-.144h-.144v-.144h-.144v-.144h-.144v-.144h-.144v-.144h-.144v-.144h-.144v-.288z" xmlns="http://www.w3.org/2000/svg"/><path d="m54.288 76.896v.144h-.144v.288h-.144v.144h-.144v.144h-.144v.144h-.144v.144h-.144v.144h-.288v.144h-.288v.144h-.432v.144h-.576v.144h6.336v-.144h-.576v-.144h-.432v-.144h-.288v-.144h-.288v-.144h-.144v-.144h-.144v-.144h-.144v-.144h-.144v-.144h-.144v-.144h-.144v-.288z" xmlns="http://www.w3.org/2000/svg"/><path d="m61.2 77.328v.144h16.272v-.144z" xmlns="http://www.w3.org/2000/svg"/><path d="m61.2 77.328v.144h16.272v-.144z" xmlns="http://www.w3.org/2000/svg"/><path d="m61.056 77.472v.144h-.144v.144h-.144v.144h-.144v.144h-.288v.144h-.288v.144h-.432v.144h-.576v.144h19.296v-.576h-.288v-.144h-.144v-.144h-.144v-.144h-.144v-.144z" xmlns="http://www.w3.org/2000/svg"/><path d="m0 77.76v29.808h8.064v-.144h-.864v-.144h-.432v-.144h-.288v-.144h-.144v-.144h-.288v-.144h-.144v-.144h-.144v-.144h-.144v-.144h-.144v-.144h-.144v-.288h-.144v-.144h-.144v-.288h-.144v-.432h-.144v-1.872h.144v-.576h.144v-.144h.144v-.288h.144v-.288h.144v-.144h.144v-.144h.144v-.144h.144v-.144h.144v-.144h.288v-1.44h-.288v-.144h-.144v-.144h-.144v-.144h-.144v-.144h-.144v-.144h-.144v-.288h-.144v-.144h-.144v-.288h-.144v-.432h-.144v-1.872h.144v-.576h.144v-.144h.144v-.288h.144v-.288h.144v-.144h.144v-.144h.144v-.144h.144v-.144h.144v-.144h.288v-1.44h-.288v-.144h-.144v-.144h-.144v-.144h-.144v-.144h-.144v-.144h-.144v-.288h-.144v-.144h-.144v-.288h-.144v-.432h-.144v-1.872h.144v-.576h.144v-.144h.144v-.288h.144v-.288h.144v-.144h.144v-.144h.144v-.144h.144v-.144h.144v-.144h.288v-1.44h-.288v-.144h-.144v-.144h-.144v-.144h-.144v-.144h-.144v-.144h-.144v-.288h-.144v-.144h-.144v-.288h-.144v-.432h-.144v-2.304h-.144v-.144h-.144v-.144h-.144v-.144h-.144v-.144h-.144v-.144h-.144v-.144h-.144v-.144h-.144v-.144h-.144v-.144h-.144v-.144h-.144v-.144h-.144v-.144h-.144v-.144h-.144v-.144h-.144v-.144h-.144v-.144h-.144v-.144h-.144v-.144h-.144v-.144h-.144v-.144h-.144v-.144h-.144v-.144h-.144v-.144z" xmlns="http://www.w3.org/2000/svg"/><path d="m6.768 78.624v.144h38.736v-.144z" xmlns="http://www.w3.org/2000/svg"/><path d="m6.768 78.624v.144h38.736v-.144z" xmlns="http://www.w3.org/2000/svg"/><path d="m51.264 78.624v.144h27.072v-.144z" xmlns="http://www.w3.org/2000/svg"/><path d="m51.264 78.624v.144h27.072v-.144z" xmlns="http://www.w3.org/2000/svg"/><path d="m6.912 78.768v.144h9.36v.144h.432v.144h.288v.144h.288v.144h.288v.144h.144v.144h.144v.144h.144v.144h.144v.144h.144v.288h.144v.288h.144v.144h.144v.576h.144v1.728h-.144v.576h-.144v.144h-.144v.288h-.144v.288h-.144v.144h-.144v.144h-.144v.144h-.144v.144h-.144v.144h-.288v1.44h.288v.144h.144v.144h.144v.144h.144v.144h.144v.144h.144v.288h.144v.288h.144v.144h.144v.576h.144v1.728h-.144v.576h-.144v.144h-.144v.288h-.144v.288h-.144v.144h-.144v.144h-.144v.144h-.144v.144h-.144v.144h-.288v1.44h.288v.144h.144v.144h.144v.144h.144v.144h.144v.144h.144v.288h.144v.288h.144v.144h.144v.576h.144v1.728h-.144v.576h-.144v.144h-.144v.288h-.144v.288h47.088v-.144h-.432v-.144h-.288v-.144h-.144v-.144h-.288v-.288h-.144v-.144h-.144v-.288h-.144v-.432h-.144v-.432h-.144v-.144h-.144v-.144h-.144v-.144h-.144v-.144h-.144v-.144h-.144v-.144h-.144v-.144h-.144v-.144h-.144v-.144h-.144v-.144h-.144v-.144h-.144v-.144h-.144v-.144h-.144v-.144h-.144v-.144h-.144v-.144h-.144v-.144h-.144v-.144h-.144v-.144h-.144v-.144h-.144v-.144h-.144v-.144h-.144v-.144h-.144v-.144h-.144v-.144h-.144v-.144h-.144v-.144h-.144v-.144h-.144v-.144h-.144v-.144h-.144v-.144h-.144v-.144h-.144v-.144h-.144v-.144h-.144v-.144h-.144v-.144h-.144v-.144h-.144v-.144h-.144v-.144h-.144v-.144h-.144v-.144h-.144v-.144h-.144v-.144h-.144v-.144h-.144v-.144h-.144v-.144h-.144v-.144h-.144v-.144h-.144v-.144h-.144v-.144h-.144v-.144h-.144v-.144h-.144v-.144h-.144v-.144h-.144v-.144h-.144v-.144h-.144v-.144h-.144v-.144h-.144v-.144h-.144v-.144h-.144v-.144h-.144v-.144h-.144v-.144h-.144v-.144h-.144v-.144h-.144v-.144h-.144v-.144h-.144v-.144h-.144v-.144h-.144v-.144h-.144v-.144h-.144v-.144h-.144v-.144h-.144v-.144h-.144v-.144h-.144v-.144h-.144v-.144h-.144v-.144h-.144v-.144h-.144v-.144h-.144v-.144h-.144v-.144h-.144v-.144h-.144v-.144h-.144v-.144h-.144v-.144h-.144v-.144h-.144v-.144h-.144v-.144h-.144v-.144h-.144v-.144h-.144v-.144h-.144v-.144h-.144v-.144h-.144v-.144h-.144v-.144h-.144v-.144h-.144v-.144h-.144v-.144h-.144v-.144h-.144v-.144h-.144v-.144h-.144v-.144h-.144v-.144h-.144v-.144h-.144v-.144h-.144v-.144h-.144v-.144h-.144v-.144h-.144v-.144h-.144v-.144h-.144v-.144h-.144v-.144h-.144v-.144h-.144v-.144h-.144v-.144h-.144v-.144h-.144v-.144h-.144v-.144h-.144v-.144h-.144v-.144h-.144v-.144h-.144v-.144h-.144v-.144h-.144v-.144z" xmlns="http://www.w3.org/2000/svg"/><path d="m51.264 78.768v1.296h.144v.144h.144v.144h.144v.144h.144v.144h.144v.144h.144v.144h.144v.144h.144v.144h.144v.144h.144v.144h.144v.144h.144v.144h.144v.144h.144v.144h.144v.144h.144v.144h.144v.144h.144v.144h.144v.144h.144v.144h.144v.144h.144v.144h.144v.144h.144v.144h.144v.144h.144v.144h.144v.144h.144v.144h.144v.144h.144v.144h.144v.144h.144v.144h.144v.144h.144v.144h.144v.144h.144v.144h.144v.144h.144v.144h.144v.144h.144v.144h22.32v-.144h-.576v-.144h-.144v-.144h-.288v-.144h-.288v-.144h-.144v-.144h-.144v-.144h-.144v-.144h-.144v-.144h-.144v-.288h-.144v-.288h-.144v-.144h-.144v-.576h-.144v-1.728h.144v-.432h.144v-.288h.144v-.288h.144v-.144h.144v-.288h.144v-.144h.144v-.144h.144v-.144h.288v-.144h.144v-.72z" xmlns="http://www.w3.org/2000/svg"/><path d="m9.072 78.912v.144h.432v.144h.288v.144h.288v.144h.288v.144h.144v.144h.144v.144h.144v.144h.144v.144h.144v.288h1.44v-.288h.144v-.144h.144v-.144h.144v-.144h.144v-.144h.144v-.144h.288v-.144h.288v-.144h.288v-.144h.432v-.144z" xmlns="http://www.w3.org/2000/svg"/><path d="m147.6 84.672v.144h-.144v.144h-.144v.144h-.144v.144h-.288v.144h-.288v.144h-.144v.144h-.576v.144h3.168v-1.152z" xmlns="http://www.w3.org/2000/svg"/><path d="m57.168 85.824v.144h91.872v-.144z" xmlns="http://www.w3.org/2000/svg"/><path d="m57.168 85.824v.144h91.872v-.144z" xmlns="http://www.w3.org/2000/svg"/><path d="m57.168 85.824v.144h91.872v-.144z" xmlns="http://www.w3.org/2000/svg"/><path d="m57.312 85.968v.144h.144v.144h.144v.144h.144v.144h.144v.144h.144v.144h.144v.144h.144v.144h.144v.144h.144v.144h.144v.144h.144v.144h.144v.144h.144v.144h.144v.144h.144v.144h.144v.144h.144v.144h.144v.144h.144v.144h.144v.144h.144v.144h.144v.144h.144v.144h.144v.144h.144v.144h.144v.144h.144v.144h.144v.144h.144v.144h.144v.144h.144v.144h.144v.144h.144v.144h.144v.144h.144v.144h.144v.144h.144v.144h.144v.144h.144v.144h.144v.144h.144v.144h.144v.144h.144v.144h.144v.144h.144v.144h.144v.144h.144v.144h.144v.144h.144v.144h.144v.144h.144v.144h.144v.144h.144v.144h11.088v6.048h-1.872v1.44h.288v.144h.288v.144h.144v.144h.144v.144h.144v.144h.144v.144h.144v.144h.144v.288h.144v.288h.144v.432h.144v1.44h-.144v.432h-.144v.288h-.144v.288h-.144v.144h-.144v.144h-.144v.144h-.144v.144h-.144v.144h-.144v.144h-.288v.144h-.288v.144h-.432v.144h75.312v-21.024z" xmlns="http://www.w3.org/2000/svg"/><path d="m65.088 93.744v.144h.144v.144h.144v.144h.144v.144h.144v.144h.144v.144h.288v.144h.576v.144h.288v.144h.144v.144h.144v.144h.144v.144h.144v.144h.144v.288h.144v.432h.144v.864h-.144v.432h-.144v.288h-.144v.144h-.144v.144h-.144v.144h-.144v.144h-.144v.144h-.288v.144h-.432v.144h3.744v-5.184z" xmlns="http://www.w3.org/2000/svg"/><path d="m18.144 98.928v.144h51.84v-.144z" xmlns="http://www.w3.org/2000/svg"/><path d="m18.144 98.928v.144h51.84v-.144z" xmlns="http://www.w3.org/2000/svg"/><path d="m18 99.072v.144h-.144v.144h-.144v.144h-.144v.144h-.288v.864h41.76v.144h.576v.144h.432v.144h.288v.144h.144v.144h.288v.144h.144v.144h.144v.144h.144v.144h.144v.288h.144v.144h.144v.288h.144v.432h.144v.576h.144v.864h-.144v.576h-.144v.432h-.144v.288h-.144v.144h-.144v.288h-.144v.144h-.144v.144h-.144v.144h-.144v.144h-.144v.144h-.288v.144h11.952v-.144h-.576v-.144h-.144v-.144h-.288v-.144h-.144v-.144h-.288v-.144h-.144v-.288h-.144v-.144h-.144v-.288h-.144v-.288h-.144v-.432h-.144v-1.44h.144v-.432h.144v-.288h.144v-.288h.144v-.144h.144v-.144h.144v-.144h.144v-.144h.144v-.144h.144v-.144h.288v-.144h.288v-1.44h-1.872v-.72z" xmlns="http://www.w3.org/2000/svg"/><path d="m17.28 100.512v.576h.288v.144h.144v.144h.144v.144h.144v.144h.144v.144h.144v.288h.144v.288h.144v.144h.144v.576h.144v1.728h-.144v.576h-.144v.144h-.144v.288h-.144v.288h-.144v.144h-.144v.144h-.144v.144h-.144v.144h-.144v.144h-.288v.144h-.144v.144h-.288v.144h-.432v.144h20.16v-.144h-.576v-.144h-.432v-.144h-.288v-.144h-.288v-.144h-.144v-.144h-.144v-.144h-.144v-.144h-.144v-.144h-.144v-.144h-.144v-.288h-.144v-.288h-.144v-.432h-.144v-.576h-.144v-.864h.144v-.576h.144v-.432h.144v-.288h.144v-.144h.144v-.288h.144v-.144h.144v-.144h.144v-.144h.144v-.144h.288v-.144h.144v-.144h.288v-.144h.432v-.144h.576v-.144z" xmlns="http://www.w3.org/2000/svg"/><path d="m37.44 100.512v.144h.576v.144h.432v.144h.288v.144h.144v.144h.288v.144h.144v.144h.144v.144h.144v.144h.144v.288h.144v.144h1.44v-.144h.144v-.288h.144v-.144h.144v-.144h.144v-.144h.144v-.144h.288v-.144h.144v-.144h.288v-.144h.432v-.144h.576v-.144z" xmlns="http://www.w3.org/2000/svg"/><path d="m44.64 100.512v.144h.576v.144h.432v.144h.288v.144h.144v.144h.288v.144h.144v.144h.144v.144h.144v.144h.144v.288h.144v.144h1.44v-.144h.144v-.288h.144v-.144h.144v-.144h.144v-.144h.144v-.144h.288v-.144h.144v-.144h.288v-.144h.432v-.144h.576v-.144z" xmlns="http://www.w3.org/2000/svg"/><path d="m51.84 100.512v.144h.576v.144h.432v.144h.288v.144h.144v.144h.288v.144h.144v.144h.144v.144h.144v.144h.144v.288h.144v.144h1.44v-.144h.144v-.288h.144v-.144h.144v-.144h.144v-.144h.144v-.144h.288v-.144h.144v-.144h.288v-.144h.432v-.144h.576v-.144z" xmlns="http://www.w3.org/2000/svg"/><path d="m39.888 105.696v.144h-.144v.288h-.144v.144h-.144v.144h-.144v.144h-.144v.144h-.144v.144h-.288v.144h-.288v.144h-.432v.144h-.576v.144h6.336v-.144h-.576v-.144h-.432v-.144h-.288v-.144h-.288v-.144h-.144v-.144h-.144v-.144h-.144v-.144h-.144v-.144h-.144v-.144h-.144v-.288z" xmlns="http://www.w3.org/2000/svg"/><path d="m47.088 105.696v.144h-.144v.288h-.144v.144h-.144v.144h-.144v.144h-.144v.144h-.144v.144h-.288v.144h-.288v.144h-.432v.144h-.576v.144h6.336v-.144h-.576v-.144h-.432v-.144h-.288v-.144h-.288v-.144h-.144v-.144h-.144v-.144h-.144v-.144h-.144v-.144h-.144v-.144h-.144v-.288z" xmlns="http://www.w3.org/2000/svg"/><path d="m54.288 105.696v.144h-.144v.288h-.144v.144h-.144v.144h-.144v.144h-.144v.144h-.144v.144h-.288v.144h-.288v.144h-.432v.144h-.576v.144h6.336v-.144h-.576v-.144h-.432v-.144h-.288v-.144h-.288v-.144h-.144v-.144h-.144v-.144h-.144v-.144h-.144v-.144h-.144v-.144h-.144v-.288z" xmlns="http://www.w3.org/2000/svg"/><path d="m11.088 105.84v.288h-.144v.144h-.144v.144h-.144v.144h-.144v.144h-.144v.144h-.288v.144h-.144v.144h-.288v.144h-.432v.144h-.864v.144h6.912v-.144h-.864v-.144h-.432v-.144h-.288v-.144h-.144v-.144h-.288v-.144h-.144v-.144h-.144v-.144h-.144v-.144h-.144v-.144h-.144v-.288z" xmlns="http://www.w3.org/2000/svg"/><path d="m60.048 106.992v.144h88.992v-.144z" xmlns="http://www.w3.org/2000/svg"/><path d="m60.048 106.992v.144h88.992v-.144z" xmlns="http://www.w3.org/2000/svg"/><path d="m59.616 107.136v.144h-.576v.144h90v-.288z" xmlns="http://www.w3.org/2000/svg"/><path d="m15.552 107.424v.144h133.488v-.144z" xmlns="http://www.w3.org/2000/svg"/><path d="m15.552 107.424v.144h133.488v-.144z" xmlns="http://www.w3.org/2000/svg"/><path d="m15.552 107.424v.144h133.488v-.144z" xmlns="http://www.w3.org/2000/svg"/><path d="m15.552 107.424v.144h133.488v-.144z" xmlns="http://www.w3.org/2000/svg"/><path d="m15.552 107.424v.144h133.488v-.144z" xmlns="http://www.w3.org/2000/svg"/><path d="m0 107.568v.144h149.04v-.144z" xmlns="http://www.w3.org/2000/svg"/><path d="m0 107.568v.144h149.04v-.144z" xmlns="http://www.w3.org/2000/svg"/><path d="m0 107.568v.144h149.04v-.144z" xmlns="http://www.w3.org/2000/svg"/><path d="m0 107.712v4.752h149.04v-4.752z" xmlns="http://www.w3.org/2000/svg"/><circle cx="55.9399" cy="4.8042" r="2.7"/></g><path d="m0 0h2.304v3.24h-2.304z" fill="#f9a435" transform="translate(149.04 76.248)" xmlns="http://www.w3.org/2000/svg"/><path d="m0 0h2.304v3.096h-2.304z" fill="#f9a435" transform="translate(36.144 11.52)" xmlns="http://www.w3.org/2000/svg"/><path d="m0 0h2.808v2.304h-2.808z" fill="#f9a435" transform="translate(74.304 107.568)" xmlns="http://www.w3.org/2000/svg"/><path d="m0 0h3.096v2.304h-3.096z" fill="#f9a435" transform="translate(52.56 103.104)" xmlns="http://www.w3.org/2000/svg"/><path d="m0 0h3.096v2.448h-3.096z" fill="#f9a435" transform="translate(52.56 107.856)" xmlns="http://www.w3.org/2000/svg"/><path d="m0 0h3.096v2.304h-3.096z" fill="#f9a435" transform="translate(45.36 103.104)" xmlns="http://www.w3.org/2000/svg"/><path d="m0 0h3.096v2.448h-3.096z" fill="#f9a435" transform="translate(45.36 107.856)" xmlns="http://www.w3.org/2000/svg"/><path d="m0 0h3.096v2.448h-3.096z" fill="#f9a435" transform="translate(38.16 107.856)" xmlns="http://www.w3.org/2000/svg"/><path d="m0 0h3.096v2.304h-3.096z" fill="#f9a435" transform="translate(59.76 103.104)" xmlns="http://www.w3.org/2000/svg"/><path d="m0 0h3.096v2.448h-3.096z" fill="#f9a435" transform="translate(59.76 107.856)" xmlns="http://www.w3.org/2000/svg"/><path d="m0 0h3.24v2.448h-3.24z" fill="#f9a435" transform="translate(9.288 108)" xmlns="http://www.w3.org/2000/svg"/><path d="m0 0h2.16v3.24h-2.16z" fill="#f9a435" transform="translate(7.344 105.048)" xmlns="http://www.w3.org/2000/svg"/><path d="m0 0h2.16v3.24h-2.16z" fill="#f9a435" transform="translate(7.344 90.648)" xmlns="http://www.w3.org/2000/svg"/><path d="m0 0h3.24v2.448h-3.24z" fill="#f9a435" transform="translate(16.488 108)" xmlns="http://www.w3.org/2000/svg"/><path d="m0 0h3.24v2.448h-3.24z" fill="#f9a435" transform="translate(9.288 36)" xmlns="http://www.w3.org/2000/svg"/><path d="m0 0h3.24v2.448h-3.24z" fill="#f9a435" transform="translate(16.488 36)" xmlns="http://www.w3.org/2000/svg"/><path d="m.288.288h154.317v117.76h-154.317z" fill="none" stroke="#000" stroke-width=".576" xmlns="http://www.w3.org/2000/svg"/><g fill="none" stroke="#f7bd13" stroke-width="1.5" xmlns="http://www.w3.org/2000/svg"><circle cx="83.0856" cy="34.8571" r="2.05"/><circle cx="83.0856" cy="42.0571" r="2.05"/><circle cx="83.0856" cy="49.2571" r="2.05"/><circle cx="83.0856" cy="56.4571" r="2.05"/><circle cx="83.0856" cy="63.6571" r="2.05"/><circle cx="83.0856" cy="70.8571" r="2.05"/><circle cx="83.0856" cy="78.0571" r="2.05"/><circle cx="83.0856" cy="85.2571" r="2.05"/><circle cx="147.8846" cy="85.2571" r="2.05"/><circle cx="147.8846" cy="78.0571" r="2.05"/><circle cx="147.8846" cy="70.8571" r="2.05"/><circle cx="147.8846" cy="63.6571" r="2.05"/><circle cx="147.8846" cy="56.4571" r="2.05"/><circle cx="147.8846" cy="49.2571" r="2.05"/><circle cx="147.8846" cy="42.0571" r="2.05"/><circle cx="147.8846" cy="34.8571" r="2.05"/></g><g fill="none" stroke="#ffbf00" stroke-width="1.44" xmlns="http://www.w3.org/2000/svg"><circle cx="11.0856" cy="85.2571" r="2.088"/><circle cx="11.0856" cy="92.4571" r="2.088"/><circle cx="11.0856" cy="99.6571" r="2.088"/><circle cx="11.0856" cy="106.8571" r="2.088"/><circle cx="11.0856" cy="85.2571" r="2.088"/><circle cx="11.0856" cy="92.4571" r="2.088"/><circle cx="11.0856" cy="99.6571" r="2.088"/><circle cx="11.0856" cy="106.8571" r="2.088"/><circle cx="18.2856" cy="106.8571" r="2.088"/><circle cx="18.2856" cy="99.6571" r="2.088"/><circle cx="18.2856" cy="92.4571" r="2.088"/><circle cx="18.2856" cy="85.2571" r="2.088"/></g><g fill="none" stroke="#ffbf00" stroke-width="1.44" xmlns="http://www.w3.org/2000/svg"><circle cx="11.0856" cy="13.25712" r="2.088"/><circle cx="11.0856" cy="20.45712" r="2.088"/><circle cx="11.0856" cy="27.65712" r="2.088"/><circle cx="11.0856" cy="34.85712" r="2.088"/><circle cx="11.0856" cy="13.25712" r="2.088"/><circle cx="11.0856" cy="20.45712" r="2.088"/><circle cx="11.0856" cy="27.65712" r="2.088"/><circle cx="11.0856" cy="34.85712" r="2.088"/><circle cx="18.2856" cy="34.85712" r="2.088"/><circle cx="18.2856" cy="27.65712" r="2.088"/><circle cx="18.2856" cy="20.45712" r="2.088"/><circle cx="18.2856" cy="13.25712" r="2.088"/></g><g fill="none" stroke="#ffbf00" stroke-width="1.44" transform="matrix(0 1 -1 0 57.3816 75.3571)" xmlns="http://www.w3.org/2000/svg"><circle cx="2.7" cy="3.096" r="1.98"/><circle cx="31.5" cy="3.096" r="1.98"/></g><g fill="none" stroke="#ffbf00" stroke-width="1.44" transform="matrix(0 1 -1 0 50.1816 75.3571)" xmlns="http://www.w3.org/2000/svg"><circle cx="2.7" cy="3.096" r="1.98"/><circle cx="31.5" cy="3.096" r="1.98"/></g><g fill="none" stroke="#ffbf00" stroke-width="1.44" transform="matrix(0 1 -1 0 42.9816 75.3571)" xmlns="http://www.w3.org/2000/svg"><circle cx="2.7" cy="3.096" r="1.98"/><circle cx="31.5" cy="3.096" r="1.98"/></g><g fill="none" stroke="#ffbf00" stroke-width="1.44" transform="matrix(0 1 -1 0 64.5816 75.3571)" xmlns="http://www.w3.org/2000/svg"><circle cx="2.7" cy="3.096" r="1.98"/><circle cx="31.5" cy="3.096" r="1.98"/></g><g transform="matrix(0 -1 1 0 66.3848 112.758)" xmlns="http://www.w3.org/2000/svg"><circle cx="5.90061" cy="9.50062" fill="none" r="1.66607" stroke="#f7bd13" stroke-width="1.34788"/><circle cx="13.1006" cy="9.50062" fill="none" r="1.66607" stroke="#f7bd13" stroke-width="1.34788"/><path d="m10.7606 7.16061h4.68001v4.68001h-4.68001zm1.3479 2.34001a.992128.992128 0 1 0 1.98426 0 .992128.992128 0 1 0 -1.98426 0z" fill="#f7bd13" xmlns="http://www.w3.org/2000/svg"/></g><g fill="none" stroke="#ffbf00" stroke-width="1.44" transform="matrix(0 -1 1 0 43.9896 59.1571)" xmlns="http://www.w3.org/2000/svg"><circle cx="2.7" cy="3.096" r="1.98"/><circle cx="31.5" cy="3.096" r="1.98"/></g><circle cx="68.68533" cy="99.65683" fill="none" r=".992124" stroke="#f9a435" stroke-width=".850392"/><circle cx="61.48533" cy="20.45713" fill="none" r=".992124" stroke="#f9a435" stroke-width=".850392"/><circle cx="25.48533" cy="13.25713" fill="none" r=".992124" stroke="#f9a435" stroke-width=".850392"/><g fill="none" stroke="#ffbf00" stroke-width="1.44" xmlns="http://www.w3.org/2000/svg"><circle cx="39.8856" cy="13.25712" r="1.98"/><circle cx="47.0856" cy="13.25712" r="1.98"/><circle cx="54.2856" cy="13.25712" r="1.98"/></g><circle cx="75.88533" cy="49.25713" fill="none" r=".992124" stroke="#f9a435" stroke-width=".850392"/><circle cx="75.88533" cy="78.05713" fill="none" r=".992124" stroke="#f9a435" stroke-width=".850392"/><circle cx="75.88533" cy="70.85713" fill="none" r=".992124" stroke="#f9a435" stroke-width=".850392"/><circle cx="75.88533" cy="63.65713" fill="none" r=".992124" stroke="#f9a435" stroke-width=".850392"/><circle cx="39.88533" cy="63.65713" fill="none" r=".992124" stroke="#f9a435" stroke-width=".850392"/><circle cx="3.88533" cy="20.45713" fill="none" r=".992124" stroke="#f9a435" stroke-width=".850392"/><g stroke-linecap="round"><path d="m61.5552 49.244 12.9633.0118" stroke="#f28a00" stroke-width="1.728"/><path d="m54.2312 56.5174 7.3242-7.2733" stroke="#f28a00" stroke-width="1.728"/><path d="m49.1455 56.4745 5.0854.0428" stroke="#f28a00" stroke-width="1.728"/><path d="m90.2856 78.1224v-72.12192" stroke="#f28a00" stroke-width="1.728"/><path d="m90.2856 6.0005h-50.3521" stroke="#f28a00" stroke-width="1.728"/><path d="m39.9336 6.0005-.0342 5.1967" stroke="#f28a00" stroke-width="1.728"/><path d="m145.785 78.0596-55.4993.0628" stroke="#f28a00" stroke-width="1.728"/><path d="m90.2856 78.1224v-72.12192" stroke="#f28a00" stroke-width="1.728"/><path d="m90.2856 6.0005h-14.3651" stroke="#f28a00" stroke-width="1.728"/><path d="m75.92 6.0005v28.8784" stroke="#f28a00" stroke-width="1.728"/><path d="m75.92 34.8789-55.4666-.021" stroke="#f28a00" stroke-width="1.728"/><path d="m145.785 78.0596-55.4993.0628" stroke="#f28a00" stroke-width="1.728"/><path d="m126.316 78.0378 19.468.0175" stroke="#f28a00" stroke-width="1.728"/><path d="m126.286 106.857.03-28.8192" stroke="#f28a00" stroke-width="1.728"/><path d="m77.6777 106.857h48.6083" stroke="#f28a00" stroke-width="1.728"/><path d="m63.5456 106.857h10.5479" stroke="#f28a00" stroke-width="1.728"/><path d="m56.3456 106.857h3.08" stroke="#f28a00" stroke-width="1.728"/><path d="m49.1456 106.857h3.08" stroke="#f28a00" stroke-width="1.728"/><path d="m41.9456 106.857h3.08" stroke="#f28a00" stroke-width="1.728"/><path d="m74.5187 63.6571h-13.0331" stroke="#f28a00" stroke-width="1.728"/><path d="m61.4856 63.6571-12.9434 12.9434" stroke="#f28a00" stroke-width="1.728"/><path d="m74.5187 70.8571h-13.0331" stroke="#f28a00" stroke-width="1.728"/><path d="m61.4856 70.8571-5.7434 5.7434" stroke="#f28a00" stroke-width="1.728"/><path d="m63.5456 78.0571h10.9731" stroke="#f28a00" stroke-width="1.728"/><path d="m37.8256 106.857h-17.372" stroke="#f28a00" stroke-width="1.728"/><path d="m11.0856 106.857h5.032" stroke="#f28a00" stroke-width="1.728"/><path d="m13.2536 106.857h-2.168" stroke="#f28a00" stroke-width="1.728"/><path d="m18.2856 92.4571h-2.168" stroke="#f28a00" stroke-width="1.728"/><path d="m13.2536 92.4571h5.032" stroke="#f28a00" stroke-width="1.728"/><path d="m67.719 98.6906-19.1768-19.1768" stroke="#f28a00" stroke-width="1.728"/><path d="m3.8856 78.0571 5.66699 5.667" stroke="#f28a00" stroke-width="1.728"/><path d="m3.8856 21.824v56.2331" stroke="#f28a00" stroke-width="1.728"/><path d="m39.8856 92.4571h-19.432" stroke="#f28a00" stroke-width="1.728"/><path d="m39.8856 104.797v-12.3399" stroke="#f28a00" stroke-width="1.728"/><path d="m25.4856 20.4571h34.6328" stroke="#f28a00" stroke-width="1.728"/><path d="m19.8186 26.1241 5.667-5.667" stroke="#f28a00" stroke-width="1.728"/><path d="m11.0856 20.4571h5.032" stroke="#f28a00" stroke-width="1.728"/><path d="m13.2536 20.4571h-2.168" stroke="#f28a00" stroke-width="1.728"/><path d="m19.8186 18.9241 4.7004-4.7004" stroke="#f28a00" stroke-width="1.728"/><path d="m11.0856 34.8571h5.032" stroke="#f28a00" stroke-width="1.728"/><path d="m13.2536 34.8571h-2.168" stroke="#f28a00" stroke-width="1.728"/><path d="m54.3376 63.6422h-14.3957" stroke="#f28a00" stroke-width="1.728"/><path d="m39.9416 63.6422-.0483 12.3549" stroke="#f28a00" stroke-width="1.728"/><path d="m61.4856 56.4571-7.148 7.1851" stroke="#f28a00" stroke-width="1.728"/><path d="m75.8608 56.5174-14.3754-.0602" stroke="#f28a00" stroke-width="1.728"/><path d="m81.6043 50.7457-5.7433 5.7716" stroke="#f28a00" stroke-width="1.728"/><path d="m39.8856 65.024.0002 10.9731" stroke="#f28a00" stroke-width="1.728"/></g><g fill="none" stroke="#f7bd13" stroke-width="1.5" xmlns="http://www.w3.org/2000/svg"><circle cx="83.0856" cy="34.8571" r="2.05"/><circle cx="83.0856" cy="42.0571" r="2.05"/><circle cx="83.0856" cy="49.2571" r="2.05"/><circle cx="83.0856" cy="56.4571" r="2.05"/><circle cx="83.0856" cy="63.6571" r="2.05"/><circle cx="83.0856" cy="70.8571" r="2.05"/><circle cx="83.0856" cy="78.0571" r="2.05"/><circle cx="83.0856" cy="85.2571" r="2.05"/><circle cx="147.8846" cy="85.2571" r="2.05"/><circle cx="147.8846" cy="78.0571" r="2.05"/><circle cx="147.8846" cy="70.8571" r="2.05"/><circle cx="147.8846" cy="63.6571" r="2.05"/><circle cx="147.8846" cy="56.4571" r="2.05"/><circle cx="147.8846" cy="49.2571" r="2.05"/><circle cx="147.8846" cy="42.0571" r="2.05"/><circle cx="147.8846" cy="34.8571" r="2.05"/></g><g fill="none" stroke="#ffbf00" stroke-width="1.44" xmlns="http://www.w3.org/2000/svg"><circle cx="11.0856" cy="85.2571" r="2.088"/><circle cx="11.0856" cy="92.4571" r="2.088"/><circle cx="11.0856" cy="99.6571" r="2.088"/><circle cx="11.0856" cy="106.8571" r="2.088"/><circle cx="11.0856" cy="85.2571" r="2.088"/><circle cx="11.0856" cy="92.4571" r="2.088"/><circle cx="11.0856" cy="99.6571" r="2.088"/><circle cx="11.0856" cy="106.8571" r="2.088"/><circle cx="18.2856" cy="106.8571" r="2.088"/><circle cx="18.2856" cy="99.6571" r="2.088"/><circle cx="18.2856" cy="92.4571" r="2.088"/><circle cx="18.2856" cy="85.2571" r="2.088"/></g><g fill="none" stroke="#ffbf00" stroke-width="1.44" xmlns="http://www.w3.org/2000/svg"><circle cx="11.0856" cy="13.25712" r="2.088"/><circle cx="11.0856" cy="20.45712" r="2.088"/><circle cx="11.0856" cy="27.65712" r="2.088"/><circle cx="11.0856" cy="34.85712" r="2.088"/><circle cx="11.0856" cy="13.25712" r="2.088"/><circle cx="11.0856" cy="20.45712" r="2.088"/><circle cx="11.0856" cy="27.65712" r="2.088"/><circle cx="11.0856" cy="34.85712" r="2.088"/><circle cx="18.2856" cy="34.85712" r="2.088"/><circle cx="18.2856" cy="27.65712" r="2.088"/><circle cx="18.2856" cy="20.45712" r="2.088"/><circle cx="18.2856" cy="13.25712" r="2.088"/></g><g fill="none" stroke="#ffbf00" stroke-width="1.44" transform="matrix(0 1 -1 0 57.3816 75.3571)" xmlns="http://www.w3.org/2000/svg"><circle cx="2.7" cy="3.096" r="1.98"/><circle cx="31.5" cy="3.096" r="1.98"/></g><g fill="none" stroke="#ffbf00" stroke-width="1.44" transform="matrix(0 1 -1 0 50.1816 75.3571)" xmlns="http://www.w3.org/2000/svg"><circle cx="2.7" cy="3.096" r="1.98"/><circle cx="31.5" cy="3.096" r="1.98"/></g><g fill="none" stroke="#ffbf00" stroke-width="1.44" transform="matrix(0 1 -1 0 42.9816 75.3571)" xmlns="http://www.w3.org/2000/svg"><circle cx="2.7" cy="3.096" r="1.98"/><circle cx="31.5" cy="3.096" r="1.98"/></g><g fill="none" stroke="#ffbf00" stroke-width="1.44" transform="matrix(0 1 -1 0 64.5816 75.3571)" xmlns="http://www.w3.org/2000/svg"><circle cx="2.7" cy="3.096" r="1.98"/><circle cx="31.5" cy="3.096" r="1.98"/></g><g transform="matrix(0 -1 1 0 66.3848 112.758)" xmlns="http://www.w3.org/2000/svg"><circle cx="5.90061" cy="9.50062" fill="none" r="1.66607" stroke="#f7bd13" stroke-width="1.34788"/><circle cx="13.1006" cy="9.50062" fill="none" r="1.66607" stroke="#f7bd13" stroke-width="1.34788"/><path d="m10.7606 7.16061h4.68001v4.68001h-4.68001zm1.3479 2.34001a.992128.992128 0 1 0 1.98426 0 .992128.992128 0 1 0 -1.98426 0z" fill="#f7bd13" xmlns="http://www.w3.org/2000/svg"/><g xmlns="http://www.w3.org/2000/svg"><circle cx="5.90061" cy="9.50062" fill="none" r="1.66607" stroke="#f7bd13" stroke-width="1.34788"/><circle cx="13.1006" cy="9.50062" fill="none" r="1.66607" stroke="#f7bd13" stroke-width="1.34788"/><path d="m10.7606 7.16061h4.68001v4.68001h-4.68001zm1.3479 2.34001a.992128.992128 0 1 0 1.98426 0 .992128.992128 0 1 0 -1.98426 0z" fill="#f7bd13" xmlns="http://www.w3.org/2000/svg"/></g></g><g fill="none" stroke="#ffbf00" stroke-width="1.44" transform="matrix(0 -1 1 0 43.9896 59.1571)" xmlns="http://www.w3.org/2000/svg"><circle cx="2.7" cy="3.096" r="1.98"/><circle cx="31.5" cy="3.096" r="1.98"/></g><circle cx="68.68533" cy="99.65683" fill="none" r=".992124" stroke="#fdde68" stroke-width=".850392"/><circle cx="61.48533" cy="20.45713" fill="none" r=".992124" stroke="#fdde68" stroke-width=".850392"/><circle cx="25.48533" cy="13.25713" fill="none" r=".992124" stroke="#fdde68" stroke-width=".850392"/><g fill="none" stroke="#ffbf00" stroke-width="1.44" xmlns="http://www.w3.org/2000/svg"><circle cx="39.8856" cy="13.25712" r="1.98"/><circle cx="47.0856" cy="13.25712" r="1.98"/><circle cx="54.2856" cy="13.25712" r="1.98"/></g><circle cx="75.88533" cy="49.25713" fill="none" r=".992124" stroke="#fdde68" stroke-width=".850392"/><circle cx="75.88533" cy="78.05713" fill="none" r=".992124" stroke="#fdde68" stroke-width=".850392"/><circle cx="75.88533" cy="70.85713" fill="none" r=".992124" stroke="#fdde68" stroke-width=".850392"/><circle cx="75.88533" cy="63.65713" fill="none" r=".992124" stroke="#fdde68" stroke-width=".850392"/><circle cx="39.88533" cy="63.65713" fill="none" r=".992124" stroke="#fdde68" stroke-width=".850392"/><circle cx="3.88533" cy="20.45713" fill="none" r=".992124" stroke="#fdde68" stroke-width=".850392"/><path d="m75.8856 92.4571v5.4079" stroke="#f2c600" stroke-linecap="round" stroke-width="1.728"/><path d="m81.6007 86.7421-5.7151 5.715" stroke="#f2c600" stroke-linecap="round" stroke-width="1.728"/><path d="m47.0856 20.4571v5.14" stroke="#f2c600" stroke-linecap="round" stroke-width="1.728"/><path d="m47.0856 15.3171v5.14" stroke="#f2c600" stroke-linecap="round" stroke-width="1.728"/><path d="m20.4536 99.6545 19.4884-.0231" stroke="#f2c600" stroke-linecap="round" stroke-width="1.728"/><path d="m54.3376 85.2357-.0372-5.1187" stroke="#f2c600" stroke-linecap="round" stroke-width="1.728"/><path d="m39.9424 99.6315 14.3957-14.3957" stroke="#f2c600" stroke-linecap="round" stroke-width="1.728"/><path d="m11.036 114.028 50.4493.03" stroke="#f2c600" stroke-linecap="round" stroke-width="1.728"/><path d="m68.6856 106.857v-5.833" stroke="#f2c600" stroke-linecap="round" stroke-width="1.728"/><path d="m61.4856 114.057 7.2-7.2" stroke="#f2c600" stroke-linecap="round" stroke-width="1.728"/><path d="m3.8856 106.857 7.1507 7.17" stroke="#f2c600" stroke-linecap="round" stroke-width="1.728"/><path d="m3.8384 99.6315.04713 7.2255" stroke="#f2c600" stroke-linecap="round" stroke-width="1.728"/><path d="m8.91761 99.6495-5.07921-.018" stroke="#f2c600" stroke-linecap="round" stroke-width="1.728"/><path d="m25.432 70.84 28.8535.0171" stroke="#f2c600" stroke-linecap="round" stroke-width="1.728"/><path d="m54.2856 70.8571 5.7434 5.7434" stroke="#f2c600" stroke-linecap="round" stroke-width="1.728"/><path d="m12.6148 83.7204 12.8173-12.8804" stroke="#f2c600" stroke-linecap="round" stroke-width="1.728"/><path d="m19.8108 83.7164 5.6212-5.6786" stroke="#f2c600" stroke-linecap="round" stroke-width="1.728"/><path d="m25.432 78.0378 12.3935.0166" stroke="#f2c600" stroke-linecap="round" stroke-width="1.728"/><path d="m3.8856 34.8571-.04713 64.7743" stroke="#f2c600" stroke-linecap="round" stroke-width="1.728"/><path d="m3.8384 99.6315 5.07914.018" stroke="#f2c600" stroke-linecap="round" stroke-width="1.728"/><path d="m9.55259 29.1901-5.66699 5.667" stroke="#f2c600" stroke-linecap="round" stroke-width="1.728"/><path d="m54.3376 85.2357-.0372-5.1187" stroke="#f2c600" stroke-linecap="round" stroke-width="1.728"/><path d="m68.6856 27.6571v50.4" stroke="#f2c600" stroke-linecap="round" stroke-width="1.728"/><path d="m61.4856 85.2571-7.1479-.0214" stroke="#f2c600" stroke-linecap="round" stroke-width="1.728"/><path d="m68.6856 78.0571-7.2 7.2" stroke="#f2c600" stroke-linecap="round" stroke-width="1.728"/><path d="m62.4522 21.4237 6.2337 6.2334" stroke="#f2c600" stroke-linecap="round" stroke-width="1.728"/><path d="m32.6296 6.05926 14.412-.05876" stroke="#f2c600" stroke-linecap="round" stroke-width="1.728"/><path d="m47.0416 6.0005 5.7884 5.7987" stroke="#f2c600" stroke-linecap="round" stroke-width="1.728"/><path d="m26.4486 12.287 6.1816-6.22774" stroke="#f2c600" stroke-linecap="round" stroke-width="1.728"/><path d="m81.6007 54.9722-4.7488-4.7486" stroke="#f2c600" stroke-linecap="round" stroke-width="1.728"/><path d="m77.2525 78.0571 3.7331.0001" stroke="#f2c600" stroke-linecap="round" stroke-width="1.728"/><path d="m80.9856 70.8572-3.7333-.0001" stroke="#f2c600" stroke-linecap="round" stroke-width="1.728"/><path d="m80.9856 63.6571h-3.7331" stroke="#f2c600" stroke-linecap="round" stroke-width="1.728"/><path d="m25.4896 20.5165-5.6768-5.7205" stroke="#f2c600" stroke-linecap="round" stroke-width="1.728"/><path d="m25.4896 56.5174v-36.0008" stroke="#f2c600" stroke-linecap="round" stroke-width="1.728"/><path d="m32.7488 63.6286-7.2594-7.1113" stroke="#f2c600" stroke-linecap="round" stroke-width="1.728"/><path d="m38.5187 63.6517-5.7695-.0231" stroke="#f2c600" stroke-linecap="round" stroke-width="1.728"/><path d="m9.55259 14.7901-4.70043 4.7005" stroke="#f2c600" stroke-linecap="round" stroke-width="1.728"/><g transform="translate(79.2016 14.2571)"><path d="m13.607 0h45.354v68.031h-45.354z" fill="none" stroke="#000" stroke-dasharray="2 2" stroke-width=".2"/><path d="m56.907 15.289h-1.219v-12.02h-5.12v7.7h-8.344v-7.7h-5.261v7.7h-8.279v-7.7h-5.116v12.017h-1.22v-12.017h-5.044v12.02h-1.648v-13.24h14.248v7.7h5.839v-7.7h7.701v7.7h5.904v-7.7h7.559z"/><path d="m19.182 21.26h34.199v43.199h-34.199z" fill="none" stroke="#000" stroke-dasharray="2 2" stroke-width=".2"/><text font-family="'DroidSans'" font-size="4" transform="translate(27.8108 44.0007)">ESP-8266</text><path d="m59.79.576c6.728 0 12.201 5.481 12.201 12.217v82.153c0 .785-.638 1.423-1.421 1.423l-23.032.003c-.016-.006-.039-.027-.046-.027-.001 0-.002 0-.002.001v-2.3c0-.746-.676-1.376-1.475-1.376h-23.256c-.676 0-1.375.516-1.375 1.376l.003 2.274c-.006.017-.035.045-.026.049h-13.575c-.758 0-1.446-.632-1.622-1.477v-17.135c0-.436-.237-.824-.634-1.022l-4.955-2.276 0-61.666c0-6.735 5.473-12.217 12.2-12.217zm0-.576h-47.014c-6.987 0-12.777 5.697-12.777 12.793v61.665c0 .2.1.4.299.5l4.991 2.299c.2.101.299.301.299.5v17.19c.201 1.099 1.1 1.998 2.198 1.998h13.574c.3 0 .6-.3.6-.6v-2.3c0-.5.398-.8.799-.8h23.257c.499 0 .898.4.898.8v2.3c0 .3.299.6.599.6h23.058c1.099 0 1.996-.899 1.996-1.999v-82.153c0-7.096-5.69-12.793-12.777-12.793z"/><g fill="none" stroke="#000" stroke-linecap="round"><path d="m11.713 23.603h-2.26m0 0v-1.099m0 .001.387-.387m0 0h.775m0 0 .323.387m.001 0v1.099m0-.711.774-.775m-1.873-2.261-.387.388m0 0v.71m0 0 .387.388m0 0h.389m0 0 .387-.388m-.001 0v-.71m0 0 .323-.388m.001 0h.388m-.001 0 .387.388m0 0v.71m0 0-.387.388m.387-3.036h-2.26m0 .775v-1.484" stroke-width=".4"/><path d="m11.682 29.673h-1.486m0 0-.71-.71m0 0 .71-.774m0-.001h1.486m-1.099 1.485v-1.484m.776-.777h-1.55m0 0-.323-.387m0 0v-.71m0 0 .323-.388m0 0h1.55m0 0 .323.388m0 0v.71m0 0-.323.387m0 0-1.55-1.484" stroke-width=".4"/><path d="m9.453 36.873h2.26m0 0v-1.098m0 0-.387-.387m0 0h-1.486m0 0-.387.387m0 0v1.098m1.873-2.26h-1.486m0 0-.387-.388m0 0v-.71m0 0 .387-.389m0 .001h1.486m0 0 .387.389m0-.001v.71m0 0-.387.388m0 0-1.486-1.486" stroke-width=".4"/><path d="m9.453 44.073h2.26m0 0v-1.098m0 0-.387-.389m0 .001h-1.486m0 0-.387.389m0-.001v1.098m0-3.746v1.485m0 0h1.099m0 0-.389-.775m0 0v-.322m0 0 .389-.388m0 0h.774m0 0 .387.388m0 0v.71m0 0-.387.388" stroke-width=".4"/><path d="m9.453 51.273h2.26m0 0v-1.099m0 .001-.387-.387m0 0h-1.486m0 0-.387.387m0 0v1.099m0-3.747.387.71m0 0 .775.775m0 0h.711m0 0 .387-.388m0 .001v-.71m0 0-.387-.388m0 0h-.388m.001 0-.323.388m-.001 0v1.098" stroke-width=".4"/><path d="m9.453 58.473h2.26m0 0v-1.099m0 .001-.387-.387m0 0h-1.486m0 0-.387.387m0 0v1.099m0-2.262v-1.484m0-.001h.387m0 0 1.486 1.484m0 .001h.387" stroke-width=".4"/><path d="m9.453 65.673h2.26m0 0v-1.098m0 0-.387-.387m0 0h-1.486m0 0-.387.387m0 0v1.098m.387-2.261-.387-.387m0 0v-.71m0 0 .387-.388m0 0h.389m0 0 .387.388m-.001 0 .388-.388m0 0h.323m0 0 .387.388m0 0v.71m0 0-.387.387m0 0h-.323m0 0-.388-.387m0 0-.387.387m.001 0h-.389m.775-.387v-.71" stroke-width=".4"/><path d="m9.84 74.003-.387-.387m0 0v-.711m0 0 .387-.387m0 0h.323m0 0 .389.387m0 0v.388m0-.388.387-.387m0 0h.388m-.001 0 .387.387m0 0v.711m0 0-.387.387m-1.873-2.26h1.485m.001 0 .774-.775m0 0-.774-.711m0 0h-1.486m.387-.775-.387-.387m0 0v-.775m0 0 .387-.323m0 0h.323m0 0 .389.323m0 0v.387m0-.387.387-.323m0 0h.388m-.001 0 .387.323m0 0v.775m0 0-.387.387" stroke-width=".4"/><path d="m60.854 71.388v1.484m0 .001h1.098m-.001 0-.388-.71m.001 0v-.388m0 0 .388-.387m-.001 0h.775m.001 0 .387.387m0 0v.71m0 0-.387.388m-1.873-2.261h1.484m0 0 .775-.775m.001 0-.775-.71m-.001 0h-1.484" stroke-width=".4"/><path d="m61.24 63.057-.387.388m.001 0v.71m0 0 .387.388m-.001 0h1.486m.001 0 .387-.388m0 0v-.71m0 0-.387-.388m0 0h-.775m-.001 0v.774" stroke-width=".4"/><path d="m60.854 58.473h2.26m0 0v-1.099m0 .001-.387-.387m0 0h-1.487m0 0-.387.387m.001 0v1.099m2.26-3.359h-2.26m0 0 1.162 1.097m0 0v-1.484" stroke-width=".4"/><path d="m60.854 51.273h2.26m0 0v-1.099m0 .001-.387-.387m0 0h-1.487m0 0-.387.387m.001 0v1.099m.386-2.262-.387-.388m.001.001v-.71m0 0 .387-.388m-.001 0h.323m.001 0 .388.388m-.001 0v.322m0-.322.387-.388m0 0h.389m0 0 .387.388m0 0v.71m0 0-.387.388" stroke-width=".4"/><path d="m60.854 44.073h2.26m0 0v-1.098m0 0-.387-.389m0 .001h-1.487m0 0-.387.389m.001-.001v1.098m2.26-3.746v1.485m0 0-1.485-1.485m-.001 0h-.388m0 0-.387.388m.001 0v.71m0 0 .387.388" stroke-width=".4"/><path d="m60.886 36.873h2.195m0 0v-1.098m0 0-.323-.387m0 0h-1.55m0 0-.322.387m0 0v1.098m.71-2.26-.71-.776m0 0h2.195m0 .776v-1.486" stroke-width=".4"/><path d="m63.114 29.673h-2.26m0 0v-1.098m0 0 .387-.387m-.001 0h.775m.001 0 .322.387m0 0v1.098m0-.71.775-.774m-2.259-.777 2.26-1.484m-2.26-.001 2.26 1.484" stroke-width=".4"/><path d="m63.081 21.763h-2.195m0 .71v-1.485m0-.776 2.195-1.484m-2.195-.001 2.195 1.484" stroke-width=".4"/><path d="m11 85.26v-2.26m0 0h1.098m0 0 .387.389m0-.001v.774m0 .001-.387.387m0 0h-1.098m.71 0 .774.711m2.262-2.261h-1.486m0 0v2.261m0-.001h1.486m-1.486-1.097h.775m3.036-.775-.388-.388m0 0h-.774m-.001 0-.388.389m.001-.001v.387m0 0 .388.388m-.001 0h.774m.001 0 .388.387m0 0v.323m0 0-.388.388m0-.001h-.774m-.001 0-.388-.388m3.811-1.872h-1.485m0 0v2.261m0-.001h1.485m-1.485-1.097h.71m2.325 1.097v-2.26m-.775 0h1.486" stroke-width=".4"/><path d="m51.5 81v4.225m0-.001h2.052m0 0 .724-.725m0 .001v-2.775m0-.001-.724-.724m0 0h-2.052m4.224 1.448 1.448-1.448m0 0v4.225m-1.448-.001h2.776" stroke-width=".5"/><path d="m59.8 84.6v-2.07m0 0h.54m0 0 .45.54m0 0v1.53m0-1.53.54-.54m0 0 .54.54m0 0v1.53m1.08-2.07h.54m0 0v2.07m-.54 0h1.08m-.54-3.6v.54m1.62 3.06v-2.07m0 0h1.53m0 0 .54.54m0 0v1.53m1.08-2.07h.54m0 0v2.07m-.54 0h.99m-.45-3.6v.54" stroke-width=".5"/><path d="m54.175 90.619h-.76m0 0-.415-.414m0 0v-.83m0 0 .415-.346m0 0h.76m0 0 .415.346m0 0v.415m0 0h-1.59m2.519.829v-2.419m0 0 .829.829m0 0 .761-.829m0 0v2.419m1.344 0h.829m0 0 .346-.414m0 0v-.83m0 0-.346-.346m0 0h-.829m0 0-.415.346m0 0v.83m0 0 .415.414m2.173 0h1.175m0 0 .415-.414m0 0-.415-.415m0 0h-.829m0 0-.346-.415m0 0 .346-.346m0 0h1.244m.929 1.59v-.414m0 0h.415m0 0v.414m0 0h-.415m2.934-1.59h-1.244m0 0-.415.346m0 0v.83m0 0 .415.414m0 0h1.244m2.519-1.59h-1.244m0 0-.346.346m0 0v.83m0 0 .346.414m0 0h1.244m-17.448-3.619c2.5 3.5-.5 5.2-1.199 3.2-.601 2-3.801.6-1.801-3.2" stroke-width=".5"/></g></g><g stroke="#fff" xmlns="http://www.w3.org/2000/svg"><g stroke-width=".72"><path d="m7.4856 81.6571v28.8" xmlns="http://www.w3.org/2000/svg"/><path d="m7.4856 110.4571h14.4" xmlns="http://www.w3.org/2000/svg"/><path d="m21.8856 110.4571v-28.8" xmlns="http://www.w3.org/2000/svg"/><path d="m21.8856 81.6571h-14.4" xmlns="http://www.w3.org/2000/svg"/></g><path d="m7.4856 84.1771 2.52-2.52" stroke-width=".36" xmlns="http://www.w3.org/2000/svg"/></g><g stroke="#fff" xmlns="http://www.w3.org/2000/svg"><g stroke-width=".72"><path d="m7.4856 9.65712v28.8" xmlns="http://www.w3.org/2000/svg"/><path d="m7.4856 38.45712h14.4" xmlns="http://www.w3.org/2000/svg"/><path d="m21.8856 38.45712v-28.8" xmlns="http://www.w3.org/2000/svg"/><path d="m21.8856 9.65712h-14.4" xmlns="http://www.w3.org/2000/svg"/></g><path d="m7.4856 12.17712 2.52-2.52" stroke-width=".36" xmlns="http://www.w3.org/2000/svg"/></g><path d="m.288.288h154.317v117.76h-154.317z" fill="none" stroke="#000" stroke-width=".576" xmlns="http://www.w3.org/2000/svg"/><g stroke="#fff" stroke-width=".72" transform="matrix(0 1 -1 0 57.3816 75.3571)" xmlns="http://www.w3.org/2000/svg"><path d="m5.4 3.096h5.184" xmlns="http://www.w3.org/2000/svg"/><path d="m24.984 3.096h3.816" xmlns="http://www.w3.org/2000/svg"/><path d="m10.584.72h14.4" xmlns="http://www.w3.org/2000/svg"/><path d="m24.984.72v4.752" xmlns="http://www.w3.org/2000/svg"/><path d="m24.984 5.472h-14.4" xmlns="http://www.w3.org/2000/svg"/><path d="m10.584 5.472v-4.752" xmlns="http://www.w3.org/2000/svg"/></g><g stroke="#fff" stroke-width=".72" transform="matrix(0 1 -1 0 50.1816 75.3571)" xmlns="http://www.w3.org/2000/svg"><path d="m5.4 3.096h5.184" xmlns="http://www.w3.org/2000/svg"/><path d="m24.984 3.096h3.816" xmlns="http://www.w3.org/2000/svg"/><path d="m10.584.72h14.4" xmlns="http://www.w3.org/2000/svg"/><path d="m24.984.72v4.752" xmlns="http://www.w3.org/2000/svg"/><path d="m24.984 5.472h-14.4" xmlns="http://www.w3.org/2000/svg"/><path d="m10.584 5.472v-4.752" xmlns="http://www.w3.org/2000/svg"/></g><g stroke="#fff" stroke-width=".72" transform="matrix(0 1 -1 0 42.9816 75.3571)" xmlns="http://www.w3.org/2000/svg"><path d="m5.4 3.096h5.184" xmlns="http://www.w3.org/2000/svg"/><path d="m24.984 3.096h3.816" xmlns="http://www.w3.org/2000/svg"/><path d="m10.584.72h14.4" xmlns="http://www.w3.org/2000/svg"/><path d="m24.984.72v4.752" xmlns="http://www.w3.org/2000/svg"/><path d="m24.984 5.472h-14.4" xmlns="http://www.w3.org/2000/svg"/><path d="m10.584 5.472v-4.752" xmlns="http://www.w3.org/2000/svg"/></g><g stroke="#fff" stroke-width=".72" transform="matrix(0 1 -1 0 64.5816 75.3571)" xmlns="http://www.w3.org/2000/svg"><path d="m5.4 3.096h5.184" xmlns="http://www.w3.org/2000/svg"/><path d="m24.984 3.096h3.816" xmlns="http://www.w3.org/2000/svg"/><path d="m10.584.72h14.4" xmlns="http://www.w3.org/2000/svg"/><path d="m24.984.72v4.752" xmlns="http://www.w3.org/2000/svg"/><path d="m24.984 5.472h-14.4" xmlns="http://www.w3.org/2000/svg"/><path d="m10.584 5.472v-4.752" xmlns="http://www.w3.org/2000/svg"/></g><g stroke="#f0f0f0" stroke-width=".576001" transform="matrix(0 -1 1 0 66.3848 112.758)" xmlns="http://www.w3.org/2000/svg"><path d="m7.70061 5.90061h-3.6" stroke-linecap="round" xmlns="http://www.w3.org/2000/svg"/><circle cx="9.50062" cy="9.50062" fill="none" r="9.21262"/></g><g stroke="#fff" stroke-width=".72" transform="matrix(0 -1 1 0 43.9896 59.1571)" xmlns="http://www.w3.org/2000/svg"><path d="m5.4 3.096h5.184" xmlns="http://www.w3.org/2000/svg"/><path d="m24.984 3.096h3.816" xmlns="http://www.w3.org/2000/svg"/><path d="m10.584.72h14.4" xmlns="http://www.w3.org/2000/svg"/><path d="m24.984.72v4.752" xmlns="http://www.w3.org/2000/svg"/><path d="m24.984 5.472h-14.4" xmlns="http://www.w3.org/2000/svg"/><path d="m10.584 5.472v-4.752" xmlns="http://www.w3.org/2000/svg"/></g><g stroke="#fff" stroke-width=".72" transform="translate(36.2856 5.04912)" xmlns="http://www.w3.org/2000/svg"><path d="m5.76 3.6h10.08" xmlns="http://www.w3.org/2000/svg"/><path d="m16.7479 11.2431a6.11074 3.79092 0 0 1 -12.22103.0433" fill="none" stroke-linecap="round" stroke-linejoin="round" xmlns="http://www.w3.org/2000/svg"/></g><text font-family="'OCRA'" font-size="5" transform="translate(91.4344 9.12376)" y="3.75">WeMos D1 Mini</text><text font-family="'OCRA'" font-size="5" transform="translate(4.0712 111.904)" y="3.75">Mother</text><text font-family="'OCRA'" font-size="5" transform="translate(7.5776 40.1852)" y="3.75">Case</text><text font-family="'OCRA'" font-size="5" transform="translate(68.3848 113.156)" y="3.75">100uF</text><text font-family="'OCRA'" font-size="5" transform="matrix(0 1 -1 0 48.8105 34.4774)" y="3.75">9.1k</text><text font-family="'OCRA'" font-size="5" transform="matrix(0 1 -1 0 63.1736 87.8183)" y="3.75">20k</text><text font-family="'OCRA'" font-size="5" transform="matrix(0 1 -1 0 41.6016 88.0506)" y="3.75">20k</text><text font-family="'OCRA'" font-size="5" transform="matrix(0 1 -1 0 48.7088 87.904)" y="3.75">20k</text><text font-family="'OCRA'" font-size="5" transform="matrix(0 1 -1 0 55.8552 87.904)" y="3.75">20k</text><text font-family="'OCRA'" font-size="5" transform="translate(36.2128 3.89368)" y="3.75">2N3904</text></svg>