<svg height="2.49976in" viewBox="0 0 143.932 179.983" width="1.99906in" xmlns="http://www.w3.org/2000/svg"><path d="m.288.288h143.356v179.407h-143.356z" fill="#fff" fill-opacity=".5" stroke="#111" stroke-width=".576" xmlns="http://www.w3.org/2000/svg"/><g fill="#f9a435" transform="translate(2.88 2.88)" xmlns="http://www.w3.org/2000/svg"><path d="m0 0v7.776h33.264v.144h.864v.144h.432v.144h.288v.144h.288v.144h.144v.144h.144v.144h.144v.144h.144v.144h.144v.144h.144v.144h.144v.288h.144v.288h.144v.432h.144v.576h.144v.864h-.144v.576h-.144v.432h-.144v.288h-.144v.288h-.144v.144h-.144v.144h-.144v.144h-.144v.144h-.144v.144h-.144v.144h-.144v1.44h.144v.144h.144v.144h.144v.144h.144v.144h.144v.144h.144v.144h.144v.288h.144v.288h.144v.432h.144v.576h.144v.864h-.144v.576h-.144v.432h-.144v.288h-.144v.288h-.144v.144h-.144v.144h-.144v.144h-.144v.144h-.144v.144h-.144v.144h-.144v1.44h.144v.144h.144v.144h.144v.144h.144v.144h.144v.144h.144v.144h.144v.288h.144v.288h.144v.432h.144v.576h.144v.864h-.144v.576h-.144v.432h-.144v.288h-.144v.288h-.144v.144h-.144v.144h-.144v.144h-.144v.144h-.144v.144h-.144v.144h-.144v1.44h.144v.144h.144v.144h.144v.144h.144v.144h.144v.144h.144v.144h.144v.288h.144v.288h.144v.432h.144v.576h.144v.864h-.144v.576h-.144v.432h-.144v.288h-.144v.288h-.144v.144h-.144v.144h-.144v.144h-.144v.144h-.144v.144h-.144v.144h-.288v.144h-.144v.144h-.288v.144h-.432v.144h103.968v-36.432z" xmlns="http://www.w3.org/2000/svg"/><path d="m0 7.776v14.4h26.064v.144h.864v.144h.432v.144h.288v.144h.288v.144h.144v.144h.144v.144h.144v.144h.144v.144h.144v.144h.144v.144h1.584v-.288h.144v-.144h.144v-.144h.144v-.144h.288v-.144h.144v-1.44h-.144v-.144h-.288v-.144h-.144v-.144h-.144v-.144h-.144v-.288h-.144v-.144h-.144v-.288h-.144v-.288h-.144v-.576h-.144v-1.584h.144v-.432h.144v-.288h.144v-.288h.144v-.144h.144v-.288h.144v-.144h.144v-.144h.144v-.144h.288v-.144h.144v-1.44h-.144v-.144h-.288v-.144h-.144v-.144h-.144v-.144h-.144v-.288h-.144v-.144h-.144v-.288h-.144v-.288h-.144v-.576h-.144v-1.584h.144v-.432h.144v-.288h.144v-.288h.144v-.144h.144v-.288h.144v-.144h.144v-.144h.144v-.144h.288v-.144h.144v-.144h.288v-.144h.288v-.144h.432v-.144h.864v-.144z" xmlns="http://www.w3.org/2000/svg"/><path d="m0 22.176v79.776h29.088v1.44h19.008v.144h.288v.144h.144v.144h.144v.144h.144v.144h.144v.288h.144v42.192h9.792v-.288h.144v-.144h.144v-.144h.144v-.288h.144v-.144h.144v-.144h.288v-.144h.144v-1.44h-.144v-.144h-.144v-.144h-.288v-.144h-.144v-.288h-.144v-.144h-.144v-.144h-.144v-.288h-.144v-.288h-.144v-.576h-.144v-1.44h.144v-.576h.144v-.288h.144v-.288h.144v-.144h.144v-.144h.144v-.288h.144v-.144h.144v-.144h.288v-.144h.144v-1.44h-.144v-.144h-.144v-.144h-.288v-.144h-.144v-.288h-.144v-.144h-.144v-.144h-.144v-.288h-.144v-.288h-.144v-.576h-.144v-1.44h.144v-.576h.144v-.288h.144v-.288h.144v-.144h.144v-.144h.144v-.288h.144v-.144h.144v-.144h.288v-.144h.144v-1.44h-.144v-.144h-.144v-.144h-.288v-.144h-.144v-.288h-.144v-.144h-.144v-.144h-.144v-.288h-4.608v-.144h-.288v-.144h-.288v-.144h-.144v-.144h-.144v-.288h-.144v-.432h-.144v-27.504h-34.992v-.144h-.288v-.144h-.144v-.144h-.144v-.144h-.144v-.144h-.144v-.432h-.144v-72.72h.144v-.432h.144v-.288h.144v-.144h.144v-.144h.288v-.144h.288v-.144h4.608v-.288h.144v-.144h.144v-.288h.144v-.144h.144v-.144h.144v-.144h.288v-.144h.144v-.144h.288v-.144h.288v-.144h.432v-.144h.864v-.144z" xmlns="http://www.w3.org/2000/svg"/><path d="m20.304 27.36v9.072h4.752v-.144h-.432v-.144h-.288v-.144h-.288v-.144h-.144v-.144h-.288v-.144h-.144v-.144h-.144v-.144h-.144v-.288h-.144v-.144h-.144v-.288h-.144v-.288h-.144v-.576h-.144v-1.584h.144v-.432h.144v-.288h.144v-.288h.144v-.144h.144v-.288h.144v-.144h.144v-.144h.144v-.144h.288v-.144h.144v-1.44h-.144v-.144h-.288v-.144h-.144v-.144h-.144v-.144h-.144v-.288h-.144v-.144h-.144v-.288z" xmlns="http://www.w3.org/2000/svg"/><path d="m28.8 34.992v.144h-.144v.144h-.144v.144h-.144v.144h-.144v.144h-.144v.144h-.288v.144h-.144v.144h-.288v.144h-.432v.144h5.328v-.144h-.432v-.144h-.288v-.144h-.288v-.144h-.144v-.144h-.288v-.144h-.144v-.144h-.144v-.144h-.144v-.288z" xmlns="http://www.w3.org/2000/svg"/><path d="m20.304 36.432v.144h117.792v-.144z" xmlns="http://www.w3.org/2000/svg"/><path d="m20.304 36.432v.144h117.792v-.144z" xmlns="http://www.w3.org/2000/svg"/><path d="m20.304 36.432v.144h117.792v-.144z" xmlns="http://www.w3.org/2000/svg"/><path d="m20.304 36.576v21.6h12.96v.144h.864v.144h.432v.144h.288v.144h.288v.144h.144v.144h.144v.144h.144v.144h.144v.144h.144v.144h.144v.144h.144v.288h.144v.288h.144v.432h.144v.576h.144v.864h-.144v.576h-.144v.432h-.144v.288h-.144v.288h-.144v.144h-.144v.144h-.144v.144h-.144v.144h-.144v.144h-.144v.144h-.144v1.44h.144v.144h.144v.144h.144v.144h.144v.144h.144v.144h.144v.144h.144v.288h.144v.288h.144v.432h.144v.576h.144v.864h-.144v.576h-.144v.432h-.144v.288h-.144v.288h-.144v.144h-.144v.144h-.144v.144h-.144v.144h-.144v.144h-.144v.144h-.144v1.44h.144v.144h.144v.144h.144v.144h.144v.144h.144v.144h.144v.144h.144v.288h.144v.288h.144v.432h.144v.576h.144v.864h-.144v.576h-.144v.432h-.144v.288h-.144v.288h-.144v.144h-.144v.144h-.144v.144h-.144v.144h-.144v.144h-.144v.144h-.144v1.44h.144v.144h.144v.144h.144v.144h.144v.144h.144v.144h.144v.144h.144v.288h.144v.288h.144v.432h.144v.576h.144v.864h-.144v.576h-.144v.432h-.144v.288h-.144v.288h-.144v.144h-.144v.144h-.144v.144h-.144v.144h-.144v.144h-.144v.144h-.288v.144h-.144v.144h-.288v.144h-.432v.144h103.968v-50.256z" xmlns="http://www.w3.org/2000/svg"/><path d="m20.304 58.176v14.4h5.76v.144h.864v.144h.432v.144h.288v.144h.288v.144h.144v.144h.144v.144h.144v.144h.144v.144h.144v.144h.144v.144h1.584v-.288h.144v-.144h.144v-.144h.144v-.144h.288v-.144h.144v-1.44h-.144v-.144h-.288v-.144h-.144v-.144h-.144v-.144h-.144v-.288h-.144v-.144h-.144v-.288h-.144v-.288h-.144v-.576h-.144v-1.584h.144v-.432h.144v-.288h.144v-.288h.144v-.144h.144v-.288h.144v-.144h.144v-.144h.144v-.144h.288v-.144h.144v-1.44h-.144v-.144h-.288v-.144h-.144v-.144h-.144v-.144h-.144v-.288h-.144v-.144h-.144v-.288h-.144v-.288h-.144v-.576h-.144v-1.584h.144v-.432h.144v-.288h.144v-.288h.144v-.144h.144v-.288h.144v-.144h.144v-.144h.144v-.144h.288v-.144h.144v-.144h.288v-.144h.288v-.144h.432v-.144h.864v-.144z" xmlns="http://www.w3.org/2000/svg"/><path d="m20.304 72.576v2.016h2.592v-.288h.144v-.144h.144v-.288h.144v-.144h.144v-.144h.144v-.144h.288v-.144h.144v-.144h.288v-.144h.288v-.144h.432v-.144h.864v-.144z" xmlns="http://www.w3.org/2000/svg"/><path d="m20.304 77.76v9.072h4.752v-.144h-.432v-.144h-.288v-.144h-.288v-.144h-.144v-.144h-.288v-.144h-.144v-.144h-.144v-.144h-.144v-.288h-.144v-.144h-.144v-.288h-.144v-.288h-.144v-.576h-.144v-1.584h.144v-.432h.144v-.288h.144v-.288h.144v-.144h.144v-.288h.144v-.144h.144v-.144h.144v-.144h.288v-.144h.144v-1.44h-.144v-.144h-.288v-.144h-.144v-.144h-.144v-.144h-.144v-.288h-.144v-.144h-.144v-.288z" xmlns="http://www.w3.org/2000/svg"/><path d="m28.8 85.392v.144h-.144v.144h-.144v.144h-.144v.144h-.144v.144h-.144v.144h-.288v.144h-.144v.144h-.288v.144h-.432v.144h5.328v-.144h-.432v-.144h-.288v-.144h-.288v-.144h-.144v-.144h-.288v-.144h-.144v-.144h-.144v-.144h-.144v-.288z" xmlns="http://www.w3.org/2000/svg"/><path d="m20.304 86.832v.144h117.792v-.144z" xmlns="http://www.w3.org/2000/svg"/><path d="m20.304 86.832v.144h117.792v-.144z" xmlns="http://www.w3.org/2000/svg"/><path d="m20.304 86.832v.144h117.792v-.144z" xmlns="http://www.w3.org/2000/svg"/><path d="m20.304 86.976v7.344h107.424v.144h.432v.144h.288v.144h.288v.144h.144v.144h.144v.144h.144v.144h.144v.144h.144v.144h.144v.144h.144v.288h.144v.288h.144v.432h.144v.576h.144v.864h-.144v.576h-.144v.432h-.144v.288h-.144v.288h-.144v.144h-.144v.144h-.144v.144h-.144v.144h-.144v.144h-.144v.144h-.144v1.44h.144v.144h.144v.144h.144v.144h.144v.144h.144v.144h.144v.144h.144v.288h.144v.288h.144v.432h.144v.576h.144v.864h-.144v.576h-.144v.432h-.144v.288h-.144v.288h-.144v.144h-.144v.144h-.144v.144h-.144v.144h-.144v.144h-.144v.144h-.144v1.44h.144v.144h.144v.144h.144v.144h.144v.144h.144v.144h.144v.144h.144v.288h.144v.288h.144v.432h.144v.576h.144v.864h-.144v.576h-.144v.432h-.144v.288h-.144v.288h-.144v.144h-.144v.144h-.144v.144h-.144v.144h-.144v.144h-.144v.144h-.144v1.44h.144v.144h.144v.144h.144v.144h.144v.144h.144v.144h.144v.144h.144v.288h.144v.288h.144v.432h.144v.576h.144v.864h-.144v.576h-.144v.432h-.144v.288h-.144v.288h-.144v.144h-.144v.144h-.144v.144h-.144v.144h-.144v.144h-.144v.144h-.144v1.44h.144v.144h.144v.144h.144v.144h.144v.144h.144v.144h.144v.144h.144v.288h.144v.288h.144v.432h.144v.576h.144v.864h-.144v.576h-.144v.432h-.144v.288h-.144v.288h-.144v.144h-.144v.144h-.144v.144h-.144v.144h-.144v.144h-.144v.144h-.144v1.44h.144v.144h.144v.144h.144v.144h.144v.144h.144v.144h.144v.144h.144v.288h.144v.288h.144v.432h.144v.576h.144v.864h-.144v.576h-.144v.432h-.144v.288h-.144v.288h-.144v.144h-.144v.144h-.144v.144h-.144v.144h-.144v.144h-.144v.144h-.144v1.44h.144v.144h.144v.144h.144v.144h.144v.144h.144v.144h.144v.144h.144v.288h.144v.288h.144v.432h.144v.576h.144v.864h-.144v.576h-.144v.432h-.144v.288h-.144v.288h-.144v.144h-.144v.144h-.144v.144h-.144v.144h-.144v.144h-.144v.144h-.144v1.44h.144v.144h.144v.144h.144v.144h.144v.144h.144v.144h.144v.144h.144v.288h.144v.288h.144v.432h.144v.576h.144v.864h-.144v.576h-.144v.432h-.144v.288h-.144v.288h-.144v.144h-.144v.144h-.144v.144h-.144v.144h-.144v.144h-.144v.144h-.288v.144h-.144v.144h-.288v.144h-.576v.144h10.512v-64.656z" xmlns="http://www.w3.org/2000/svg"/><path d="m20.304 94.32v1.872h34.704v.144h.432v.144h.288v.144h.144v.144h.144v.288h.144v.288h.144v27.648h2.592v-.288h.144v-.144h.144v-.144h.144v-.288h.144v-.144h.144v-.144h.288v-.144h.144v-1.44h-.144v-.144h-.144v-.144h-.288v-.144h-.144v-.288h-.144v-.144h-.144v-.144h-.144v-.288h-.144v-.288h-.144v-.576h-.144v-1.44h.144v-.576h.144v-.288h.144v-.288h.144v-.144h.144v-.144h.144v-.288h.144v-.144h.144v-.144h.288v-.144h.144v-1.44h-.144v-.144h-.144v-.144h-.288v-.144h-.144v-.288h-.144v-.144h-.144v-.144h-.144v-.288h-.144v-.288h-.144v-.576h-.144v-1.44h.144v-.576h.144v-.288h.144v-.288h.144v-.144h.144v-.144h.144v-.288h.144v-.144h.144v-.144h.288v-.144h.144v-1.44h-.144v-.144h-.144v-.144h-.288v-.144h-.144v-.288h-.144v-.144h-.144v-.144h-.144v-.288h-.144v-.288h-.144v-.576h-.144v-1.44h.144v-.576h.144v-.288h.144v-.288h.144v-.144h.144v-.144h.144v-.288h.144v-.144h.144v-.144h.288v-.144h.144v-1.44h-.144v-.144h-.144v-.144h-.288v-.144h-.144v-.288h-.144v-.144h-.144v-.144h-.144v-.288h-.144v-.288h-.144v-.576h-.144v-1.44h.144v-.576h.144v-.288h.144v-.288h.144v-.144h.144v-.144h.144v-.288h.144v-.144h.144v-.144h.288v-.144h.144v-.144h.288v-.144h.288v-.144h.432v-.144z" xmlns="http://www.w3.org/2000/svg"/><path d="m62.928 94.32v.144h.432v.144h.288v.144h.288v.144h.144v.144h.144v.144h.144v.144h.144v.144h.144v.144h.144v.144h.144v.288h.144v.288h.144v.432h.144v.576h.144v.864h-.144v.576h-.144v.432h-.144v.288h-.144v.288h-.144v.144h-.144v.144h-.144v.144h-.144v.144h-.144v.144h-.144v.144h-.144v1.44h.144v.144h.144v.144h.144v.144h.144v.144h.144v.144h.144v.144h.144v.288h.144v.288h.144v.432h.144v.576h.144v.864h-.144v.576h-.144v.432h-.144v.288h-.144v.288h-.144v.144h-.144v.144h-.144v.144h-.144v.144h-.144v.144h-.144v.144h-.144v1.44h.144v.144h.144v.144h.144v.144h.144v.144h.144v.144h.144v.144h.144v.288h.144v.288h.144v.432h.144v.576h.144v.864h-.144v.576h-.144v.432h-.144v.288h-.144v.288h-.144v.144h-.144v.144h-.144v.144h-.144v.144h-.144v.144h-.144v.144h-.144v1.44h.144v.144h.144v.144h.144v.144h.144v.144h.144v.144h.144v.144h.144v.288h.144v.288h.144v.432h.144v.576h.144v.864h-.144v.576h-.144v.432h-.144v.288h-.144v.288h-.144v.144h-.144v.144h-.144v.144h-.144v.144h-.144v.144h-.144v.144h-.144v1.44h.144v.144h.144v.144h.144v.144h.144v.144h.144v.144h.144v.144h.144v.288h.144v.288h.144v.432h.144v.576h.144v.864h-.144v.576h-.144v.432h-.144v.288h-.144v.288h-.144v.144h-.144v.144h-.144v.144h-.144v.144h-.144v.144h-.144v.144h-.144v1.44h.144v.144h.144v.144h.144v.144h.144v.144h.144v.144h.144v.144h.144v.288h.144v.288h.144v.432h.144v.576h.144v.864h-.144v.576h-.144v.432h-.144v.288h-.144v.288h-.144v.144h-.144v.144h-.144v.144h-.144v.144h-.144v.144h-.144v.144h-.144v1.44h.144v.144h.144v.144h.144v.144h.144v.144h.144v.144h.144v.144h.144v.288h.144v.288h.144v.432h.144v.576h.144v.864h-.144v.576h-.144v.432h-.144v.288h-.144v.288h-.144v.144h-.144v.144h-.144v.144h-.144v.144h-.144v.144h-.144v.144h-.144v1.44h.144v.144h.144v.144h.144v.144h.144v.144h.144v.144h.144v.144h.144v.288h.144v.288h.144v.432h.144v.576h.144v.864h-.144v.576h-.144v.432h-.144v.288h-.144v.288h-.144v.144h-.144v.144h-.144v.144h-.144v.144h-.144v.144h-.144v.144h-.288v.144h-.144v.144h-.288v.144h-.576v.144h63.072v-.144h-.432v-.144h-.288v-.144h-.288v-.144h-.144v-.144h-.144v-.144h-.288v-.144h-.144v-.288h-.144v-.144h-.144v-.144h-.144v-.288h-.144v-.288h-.144v-.576h-.144v-1.44h.144v-.576h.144v-.288h.144v-.288h.144v-.144h.144v-.144h.144v-.288h.144v-.144h.144v-.144h.288v-.144h.144v-1.44h-.144v-.144h-.144v-.144h-.288v-.144h-.144v-.288h-.144v-.144h-.144v-.144h-.144v-.288h-.144v-.288h-.144v-.576h-.144v-1.44h.144v-.576h.144v-.288h.144v-.288h.144v-.144h.144v-.144h.144v-.288h.144v-.144h.144v-.144h.288v-.144h.144v-1.44h-.144v-.144h-.144v-.144h-.288v-.144h-.144v-.288h-.144v-.144h-.144v-.144h-.144v-.288h-.144v-.288h-.144v-.576h-.144v-1.44h.144v-.576h.144v-.288h.144v-.288h.144v-.144h.144v-.144h.144v-.288h.144v-.144h.144v-.144h.288v-.144h.144v-1.44h-.144v-.144h-.144v-.144h-.288v-.144h-.144v-.288h-.144v-.144h-.144v-.144h-.144v-.288h-.144v-.288h-.144v-.576h-.144v-1.44h.144v-.576h.144v-.288h.144v-.288h.144v-.144h.144v-.144h.144v-.288h.144v-.144h.144v-.144h.288v-.144h.144v-1.44h-.144v-.144h-.144v-.144h-.288v-.144h-.144v-.288h-.144v-.144h-.144v-.144h-.144v-.288h-.144v-.288h-.144v-.576h-.144v-1.44h.144v-.576h.144v-.288h.144v-.288h.144v-.144h.144v-.144h.144v-.288h.144v-.144h.144v-.144h.288v-.144h.144v-1.44h-.144v-.144h-.144v-.144h-.288v-.144h-.144v-.288h-.144v-.144h-.144v-.144h-.144v-.288h-.144v-.288h-.144v-.576h-.144v-1.44h.144v-.576h.144v-.288h.144v-.288h.144v-.144h.144v-.144h.144v-.288h.144v-.144h.144v-.144h.288v-.144h.144v-1.44h-.144v-.144h-.144v-.144h-.288v-.144h-.144v-.288h-.144v-.144h-.144v-.144h-.144v-.288h-.144v-.288h-.144v-.576h-.144v-1.44h.144v-.576h.144v-.288h.144v-.288h.144v-.144h.144v-.144h.144v-.288h.144v-.144h.144v-.144h.288v-.144h.144v-1.44h-.144v-.144h-.144v-.144h-.288v-.144h-.144v-.288h-.144v-.144h-.144v-.144h-.144v-.288h-.144v-.288h-.144v-.576h-.144v-1.44h.144v-.576h.144v-.288h.144v-.288h.144v-.144h.144v-.144h.144v-.288h.144v-.144h.144v-.144h.288v-.144h.144v-.144h.288v-.144h.288v-.144h.432v-.144z" xmlns="http://www.w3.org/2000/svg"/><path d="m0 101.952v6.048h18v-.144h-.432v-.144h-.288v-.144h-.288v-.144h-.144v-.144h-.144v-.144h-.144v-.144h-.144v-.144h-.144v-.288h-.144v-.144h-.144v-.288h-.144v-.576h-.144v-1.152h.144v-.576h.144v-.288h.144v-.288h.144v-.144h.144v-.144h.144v-.144h.144v-.144h.144v-.144h.144v-.144h.288v-.144h.288v-.144h.432v-.144z" xmlns="http://www.w3.org/2000/svg"/><path d="m19.584 101.952v.144h.432v.144h.288v.144h.144v.144h.288v.144h.144v.144h.144v.144h.144v.288h.144v.144h.144v.288h1.44v-1.728z" xmlns="http://www.w3.org/2000/svg"/><path d="m21.456 106.272v.288h-.144v.144h-.144v.288h-.144v.144h-.144v.144h-.288v.144h-.144v.144h-.288v.144h-.144v.144h-.576v.144h3.456v-1.728z" xmlns="http://www.w3.org/2000/svg"/><path d="m29.088 106.56v1.44h16.848v-1.44z" xmlns="http://www.w3.org/2000/svg"/><path d="m0 108v.144h45.936v-.144z" xmlns="http://www.w3.org/2000/svg"/><path d="m0 108v.144h45.936v-.144z" xmlns="http://www.w3.org/2000/svg"/><path d="m0 108v.144h45.936v-.144z" xmlns="http://www.w3.org/2000/svg"/><path d="m0 108.144v7.776h33.696v.144h.576v.144h.288v.144h.288v.144h.288v.144h.144v.144h.144v.144h.144v.144h.144v.144h.144v.144h.144v.288h.144v.288h.144v.288h.144v.432h.144v1.44h-.144v.432h-.144v.288h-.144v.288h-.144v.288h-.144v.144h-.144v.144h-.144v.144h-.144v.144h-.144v.144h-.144v.144h-.288v.144h-.288v.144h-.432v.144h-.576v.144h12.384v-14.688z" xmlns="http://www.w3.org/2000/svg"/><path d="m0 115.92v6.912h18.288v-.144h-.576v-.144h-.432v-.144h-.144v-.144h-.288v-.144h-.144v-.144h-.288v-.144h-.144v-.144h-.144v-.288h-.144v-.144h-.144v-.288h-.144v-.288h-.144v-.432h-.144v-1.728h.144v-.432h.144v-.288h.144v-.288h.144v-.144h.144v-.288h.144v-.144h.144v-.144h.288v-.144h.144v-.144h.144v-.144h.288v-.144h.432v-.144h.576v-.144z" xmlns="http://www.w3.org/2000/svg"/><path d="m19.296 115.92v.144h.576v.144h.288v.144h.288v.144h.288v.144h.144v.144h.144v.144h.144v.144h.144v.144h.144v.144h.144v.288h1.44v-.144h.144v-.144h.144v-.288h.144v-.144h.144v-.144h.288v-.144h.144v-.144h.144v-.144h.288v-.144h.432v-.144h.576v-.144z" xmlns="http://www.w3.org/2000/svg"/><path d="m26.496 115.92v.144h.576v.144h.288v.144h.288v.144h.288v.144h.144v.144h.144v.144h.144v.144h.144v.144h.144v.144h.144v.288h1.44v-.144h.144v-.144h.144v-.288h.144v-.144h.144v-.144h.288v-.144h.144v-.144h.144v-.144h.288v-.144h.432v-.144h.576v-.144z" xmlns="http://www.w3.org/2000/svg"/><path d="m21.6 121.104v.288h-.144v.144h-.144v.144h-.144v.144h-.144v.144h-.144v.144h-.144v.144h-.288v.144h-.288v.144h-.432v.144h-.576v.144h6.336v-.144h-.576v-.144h-.432v-.144h-.144v-.144h-.288v-.144h-.144v-.144h-.288v-.144h-.144v-.144h-.144v-.288h-.144v-.144h-.144v-.144z" xmlns="http://www.w3.org/2000/svg"/><path d="m28.8 121.104v.288h-.144v.144h-.144v.144h-.144v.144h-.144v.144h-.144v.144h-.144v.144h-.288v.144h-.288v.144h-.432v.144h-.576v.144h6.336v-.144h-.576v-.144h-.432v-.144h-.144v-.144h-.288v-.144h-.144v-.144h-.288v-.144h-.144v-.144h-.144v-.288h-.144v-.144h-.144v-.144z" xmlns="http://www.w3.org/2000/svg"/><path d="m0 122.832v.144h45.936v-.144z" xmlns="http://www.w3.org/2000/svg"/><path d="m0 122.832v.144h45.936v-.144z" xmlns="http://www.w3.org/2000/svg"/><path d="m0 122.832v.144h45.936v-.144z" xmlns="http://www.w3.org/2000/svg"/><path d="m0 122.832v.144h45.936v-.144z" xmlns="http://www.w3.org/2000/svg"/><path d="m0 122.976v21.744h33.696v.144h.576v.144h.288v.144h.288v.144h.288v.144h.144v.144h.144v.144h.144v.144h.144v.144h.144v.144h.144v.288h.144v.288h.144v.288h.144v.432h.144v1.44h-.144v.432h-.144v.288h-.144v.288h-.144v.288h-.144v.144h-.144v.144h-.144v.144h-.144v.144h-.144v.144h-.144v.144h-.288v.144h-.288v.144h-.432v.144h-.576v.144h27.504v-.144h-.432v-.144h-.288v-.144h-.288v-.144h-.144v-.144h-.144v-.144h-.288v-.144h-.144v-.288h-.144v-.144h-.144v-.144h-.144v-.288h-11.808v-.144h-.288v-.144h-.288v-.144h-.144v-.144h-.144v-.288h-.144v-.432h-.144v-25.488z" xmlns="http://www.w3.org/2000/svg"/><path d="m0 144.72v6.912h18.288v-.144h-.576v-.144h-.432v-.144h-.144v-.144h-.288v-.144h-.144v-.144h-.288v-.144h-.144v-.144h-.144v-.288h-.144v-.144h-.144v-.288h-.144v-.288h-.144v-.432h-.144v-1.728h.144v-.432h.144v-.288h.144v-.288h.144v-.144h.144v-.288h.144v-.144h.144v-.144h.288v-.144h.144v-.144h.144v-.144h.288v-.144h.432v-.144h.576v-.144z" xmlns="http://www.w3.org/2000/svg"/><path d="m19.296 144.72v.144h.576v.144h.288v.144h.288v.144h.288v.144h.144v.144h.144v.144h.144v.144h.144v.144h.144v.144h.144v.288h1.44v-.144h.144v-.144h.144v-.288h.144v-.144h.144v-.144h.288v-.144h.144v-.144h.144v-.144h.288v-.144h.432v-.144h.576v-.144z" xmlns="http://www.w3.org/2000/svg"/><path d="m26.496 144.72v.144h.576v.144h.288v.144h.288v.144h.288v.144h.144v.144h.144v.144h.144v.144h.144v.144h.144v.144h.144v.288h1.44v-.144h.144v-.144h.144v-.288h.144v-.144h.144v-.144h.288v-.144h.144v-.144h.144v-.144h.288v-.144h.432v-.144h.576v-.144z" xmlns="http://www.w3.org/2000/svg"/><path d="m21.6 149.904v.288h-.144v.144h-.144v.144h-.144v.144h-.144v.144h-.144v.144h-.144v.144h-.288v.144h-.288v.144h-.432v.144h-.576v.144h6.336v-.144h-.576v-.144h-.432v-.144h-.144v-.144h-.288v-.144h-.144v-.144h-.288v-.144h-.144v-.144h-.144v-.288h-.144v-.144h-.144v-.144z" xmlns="http://www.w3.org/2000/svg"/><path d="m28.8 149.904v.288h-.144v.144h-.144v.144h-.144v.144h-.144v.144h-.144v.144h-.144v.144h-.288v.144h-.288v.144h-.432v.144h-.576v.144h6.336v-.144h-.576v-.144h-.432v-.144h-.144v-.144h-.288v-.144h-.144v-.144h-.288v-.144h-.144v-.144h-.144v-.288h-.144v-.144h-.144v-.144z" xmlns="http://www.w3.org/2000/svg"/><path d="m0 151.632v.144h138.096v-.144z" xmlns="http://www.w3.org/2000/svg"/><path d="m0 151.632v.144h138.096v-.144z" xmlns="http://www.w3.org/2000/svg"/><path d="m0 151.632v.144h138.096v-.144z" xmlns="http://www.w3.org/2000/svg"/><path d="m0 151.632v.144h138.096v-.144z" xmlns="http://www.w3.org/2000/svg"/><path d="m0 151.632v.144h138.096v-.144z" xmlns="http://www.w3.org/2000/svg"/><path d="m0 151.632v.144h138.096v-.144z" xmlns="http://www.w3.org/2000/svg"/><path d="m0 151.776v22.32h138.096v-22.32z" xmlns="http://www.w3.org/2000/svg"/><circle cx="39.4505" cy="5.50029" r="2.7"/></g><path d="m0 0h2.448v3.24h-2.448z" fill="#f9a435" transform="translate(130.752 142.056)" xmlns="http://www.w3.org/2000/svg"/><path d="m0 0h2.304v3.24h-2.304z" fill="#f9a435" transform="translate(32.256 19.656)" xmlns="http://www.w3.org/2000/svg"/><path d="m0 0h3.096v2.448h-3.096z" fill="#f9a435" transform="translate(20.016 123.264)" xmlns="http://www.w3.org/2000/svg"/><path d="m0 0h2.304v3.096h-2.304z" fill="#f9a435" transform="translate(18 120.528)" xmlns="http://www.w3.org/2000/svg"/><path d="m0 0h3.096v2.304h-3.096z" fill="#f9a435" transform="translate(34.416 118.512)" xmlns="http://www.w3.org/2000/svg"/><path d="m0 0h3.096v2.448h-3.096z" fill="#f9a435" transform="translate(34.416 123.264)" xmlns="http://www.w3.org/2000/svg"/><path d="m0 0h2.304v3.096h-2.304z" fill="#f9a435" transform="translate(37.152 120.528)" xmlns="http://www.w3.org/2000/svg"/><path d="m0 0h3.096v2.304h-3.096z" fill="#f9a435" transform="translate(27.216 118.512)" xmlns="http://www.w3.org/2000/svg"/><path d="m0 0h3.096v2.448h-3.096z" fill="#f9a435" transform="translate(27.216 123.264)" xmlns="http://www.w3.org/2000/svg"/><path d="m0 0h3.24v2.304h-3.24z" fill="#f9a435" transform="translate(34.344 37.008)" xmlns="http://www.w3.org/2000/svg"/><path d="m0 0h3.24v2.304h-3.24z" fill="#f9a435" transform="translate(27.144 37.008)" xmlns="http://www.w3.org/2000/svg"/><path d="m0 0h2.304v3.24h-2.304z" fill="#f9a435" transform="translate(32.256 70.056)" xmlns="http://www.w3.org/2000/svg"/><path d="m0 0h3.24v2.304h-3.24z" fill="#f9a435" transform="translate(27.144 87.408)" xmlns="http://www.w3.org/2000/svg"/><path d="m0 0h3.24v2.304h-3.24z" fill="#f9a435" transform="translate(34.344 87.408)" xmlns="http://www.w3.org/2000/svg"/><path d="m.288.288h143.356v179.407h-143.356z" fill="none" stroke="#000" stroke-width=".576" xmlns="http://www.w3.org/2000/svg"/><g fill="none" stroke="#f7bd13" stroke-width="1.5" xmlns="http://www.w3.org/2000/svg"><circle cx="64.84" cy="100.6511" r="2.05"/><circle cx="64.84" cy="107.8511" r="2.05"/><circle cx="64.84" cy="115.0511" r="2.05"/><circle cx="64.84" cy="122.2511" r="2.05"/><circle cx="64.84" cy="129.4511" r="2.05"/><circle cx="64.84" cy="136.6511" r="2.05"/><circle cx="64.84" cy="143.8511" r="2.05"/><circle cx="64.84" cy="151.0511" r="2.05"/><circle cx="129.639" cy="151.0511" r="2.05"/><circle cx="129.639" cy="143.8511" r="2.05"/><circle cx="129.639" cy="136.6511" r="2.05"/><circle cx="129.639" cy="129.4511" r="2.05"/><circle cx="129.639" cy="122.2511" r="2.05"/><circle cx="129.639" cy="115.0511" r="2.05"/><circle cx="129.639" cy="107.8511" r="2.05"/><circle cx="129.639" cy="100.6511" r="2.05"/></g><g fill="none" stroke="#ffbf00" stroke-width="1.44" transform="matrix(0 -1 1 0 32.9432 153.751)" xmlns="http://www.w3.org/2000/svg"><circle cx="2.7" cy="3.096" r="1.98"/><circle cx="31.5" cy="3.096" r="1.98"/></g><g fill="none" stroke="#ffbf00" stroke-width="1.44" transform="matrix(0 -1 1 0 25.7432 153.751)" xmlns="http://www.w3.org/2000/svg"><circle cx="2.7" cy="3.096" r="1.98"/><circle cx="31.5" cy="3.096" r="1.98"/></g><g transform="translate(17.8648 100.477)" xmlns="http://www.w3.org/2000/svg"><circle cx="10.9746" cy="7.3746" fill="none" r="1.66606" stroke="#f7bd13" stroke-width="1.34787"/><path d="m8.6346 5.0346h4.67999v4.67999h-4.67999zm1.34787 2.34a.992124.992124 0 1 0 1.98425 0 .992124.992124 0 1 0 -1.98425 0z" fill="#f7bd13" xmlns="http://www.w3.org/2000/svg"/><circle cx="3.77461" cy="7.3746" fill="none" r="1.66606" stroke="#f7bd13" stroke-width="1.34787"/></g><g fill="none" stroke="#ffbf00" stroke-width="1.44" transform="matrix(0 -1 1 0 18.5432 153.751)" xmlns="http://www.w3.org/2000/svg"><circle cx="2.7" cy="3.096" r="1.98"/><circle cx="31.5" cy="3.096" r="1.98"/></g><g fill="none" stroke="#ffbf00" stroke-width="1.44" xmlns="http://www.w3.org/2000/svg"><circle cx="36.0392" cy="64.6511" r="2.088"/><circle cx="36.0392" cy="71.8511" r="2.088"/></g><g fill="none" stroke="#ffbf00" stroke-width="1.44" xmlns="http://www.w3.org/2000/svg"><circle cx="28.8392" cy="79.0511" r="2.088"/><circle cx="28.8392" cy="86.2511" r="2.088"/></g><g fill="none" stroke="#ffbf00" stroke-width="1.44" xmlns="http://www.w3.org/2000/svg"><circle cx="36.0392" cy="79.0511" r="2.088"/><circle cx="36.0392" cy="86.2511" r="2.088"/></g><g fill="none" stroke="#ffbf00" stroke-width="1.44" xmlns="http://www.w3.org/2000/svg"><circle cx="36.0392" cy="28.6511" r="2.088"/><circle cx="36.0392" cy="35.8511" r="2.088"/></g><g fill="none" stroke="#ffbf00" stroke-width="1.44" xmlns="http://www.w3.org/2000/svg"><circle cx="28.8392" cy="28.6511" r="2.088"/><circle cx="28.8392" cy="35.8511" r="2.088"/></g><g fill="none" stroke="#ffbf00" stroke-width="1.44" xmlns="http://www.w3.org/2000/svg"><circle cx="36.0392" cy="14.25112" r="2.088"/><circle cx="36.0392" cy="21.45112" r="2.088"/></g><g stroke="#f28a00" stroke-linecap="round" stroke-width="1.728"><path d="m122.361 71.9499-84.1538-.0963"/><path d="m122.361 86.3193v-14.3694"/><path d="m31.0072 86.2527 91.3538.0666"/><path d="m33.8712 86.2511h-2.864"/><path d="m122.361 71.9499-84.1538-.0963"/><path d="m122.439 143.851-.078-71.9011"/><path d="m127.539 143.851h-5.1"/><path d="m7.23891 107.851h12.60839"/><path d="m7.18504 172.757.05387-64.906"/><path d="m122.361 172.757h-115.17596"/><path d="m122.439 143.851-.078 28.906"/><path d="m127.539 143.851h-5.1"/><path d="m28.8392 122.251h-5.14"/><path d="m30.8992 122.251h-2.06"/><path d="m36.0392 122.251h-5.14"/><path d="m38.0992 122.251h-2.06"/><path d="m28.8392 107.851h1.7921"/><path d="m50.4392 151.051v-43.2"/><path d="m50.4392 107.851h-21.6"/><path d="m62.74 151.051h-12.301"/><path d="m31.0072 35.8511h2.864"/><path d="m122.439 143.851v-122.3999"/><path d="m122.439 21.4511h-84.2318"/><path d="m127.539 143.851h-5.1"/><path d="m21.6392 122.251v-12.608"/><path d="m26.7792 122.251h-5.14"/><path d="m57.5888 100.691.0502 28.76"/><path d="m21.5992 79.0545v21.6365"/><path d="m57.6392 129.451h5.1011"/><path d="m21.5992 100.691h35.9899"/><path d="m26.6712 79.0521-5.0722.0024"/><path d="m43.2392 21.4511v14.4"/><path d="m43.2392 35.8511h-5.032"/><path d="m38.2072 21.4511h5.032"/><path d="m21.6392 28.6511h5.032"/><path d="m21.6392 79.0511v-50.4"/><path d="m26.6712 79.0511h-5.032"/></g><g fill="none" stroke="#f7bd13" stroke-width="1.5" xmlns="http://www.w3.org/2000/svg"><circle cx="64.84" cy="100.6511" r="2.05"/><circle cx="64.84" cy="107.8511" r="2.05"/><circle cx="64.84" cy="115.0511" r="2.05"/><circle cx="64.84" cy="122.2511" r="2.05"/><circle cx="64.84" cy="129.4511" r="2.05"/><circle cx="64.84" cy="136.6511" r="2.05"/><circle cx="64.84" cy="143.8511" r="2.05"/><circle cx="64.84" cy="151.0511" r="2.05"/><circle cx="129.639" cy="151.0511" r="2.05"/><circle cx="129.639" cy="143.8511" r="2.05"/><circle cx="129.639" cy="136.6511" r="2.05"/><circle cx="129.639" cy="129.4511" r="2.05"/><circle cx="129.639" cy="122.2511" r="2.05"/><circle cx="129.639" cy="115.0511" r="2.05"/><circle cx="129.639" cy="107.8511" r="2.05"/><circle cx="129.639" cy="100.6511" r="2.05"/></g><g fill="none" stroke="#ffbf00" stroke-width="1.44" transform="matrix(0 -1 1 0 32.9432 153.751)" xmlns="http://www.w3.org/2000/svg"><circle cx="2.7" cy="3.096" r="1.98"/><circle cx="31.5" cy="3.096" r="1.98"/></g><g fill="none" stroke="#ffbf00" stroke-width="1.44" transform="matrix(0 -1 1 0 25.7432 153.751)" xmlns="http://www.w3.org/2000/svg"><circle cx="2.7" cy="3.096" r="1.98"/><circle cx="31.5" cy="3.096" r="1.98"/></g><g transform="translate(17.8648 100.477)" xmlns="http://www.w3.org/2000/svg"><circle cx="10.9746" cy="7.3746" fill="none" r="1.66606" stroke="#f7bd13" stroke-width="1.34787"/><path d="m8.6346 5.0346h4.67999v4.67999h-4.67999zm1.34787 2.34a.992124.992124 0 1 0 1.98425 0 .992124.992124 0 1 0 -1.98425 0z" fill="#f7bd13" xmlns="http://www.w3.org/2000/svg"/><circle cx="3.77461" cy="7.3746" fill="none" r="1.66606" stroke="#f7bd13" stroke-width="1.34787"/><g xmlns="http://www.w3.org/2000/svg"><circle cx="10.9746" cy="7.3746" fill="none" r="1.66606" stroke="#f7bd13" stroke-width="1.34787"/><path d="m8.6346 5.0346h4.67999v4.67999h-4.67999zm1.34787 2.34a.992124.992124 0 1 0 1.98425 0 .992124.992124 0 1 0 -1.98425 0z" fill="#f7bd13" xmlns="http://www.w3.org/2000/svg"/><circle cx="3.77461" cy="7.3746" fill="none" r="1.66606" stroke="#f7bd13" stroke-width="1.34787"/></g></g><g fill="none" stroke="#ffbf00" stroke-width="1.44" transform="matrix(0 -1 1 0 18.5432 153.751)" xmlns="http://www.w3.org/2000/svg"><circle cx="2.7" cy="3.096" r="1.98"/><circle cx="31.5" cy="3.096" r="1.98"/></g><g fill="none" stroke="#ffbf00" stroke-width="1.44" xmlns="http://www.w3.org/2000/svg"><circle cx="36.0392" cy="64.6511" r="2.088"/><circle cx="36.0392" cy="71.8511" r="2.088"/></g><g fill="none" stroke="#ffbf00" stroke-width="1.44" xmlns="http://www.w3.org/2000/svg"><circle cx="28.8392" cy="79.0511" r="2.088"/><circle cx="28.8392" cy="86.2511" r="2.088"/></g><g fill="none" stroke="#ffbf00" stroke-width="1.44" xmlns="http://www.w3.org/2000/svg"><circle cx="36.0392" cy="79.0511" r="2.088"/><circle cx="36.0392" cy="86.2511" r="2.088"/></g><g fill="none" stroke="#ffbf00" stroke-width="1.44" xmlns="http://www.w3.org/2000/svg"><circle cx="36.0392" cy="28.6511" r="2.088"/><circle cx="36.0392" cy="35.8511" r="2.088"/></g><g fill="none" stroke="#ffbf00" stroke-width="1.44" xmlns="http://www.w3.org/2000/svg"><circle cx="28.8392" cy="28.6511" r="2.088"/><circle cx="28.8392" cy="35.8511" r="2.088"/></g><g fill="none" stroke="#ffbf00" stroke-width="1.44" xmlns="http://www.w3.org/2000/svg"><circle cx="36.0392" cy="14.25112" r="2.088"/><circle cx="36.0392" cy="21.45112" r="2.088"/></g><g stroke="#f2c600" stroke-linecap="round" stroke-width="1.728"><path d="m14.4392 151.051-.0167-86.3495"/><path d="m14.4224 64.7014 19.4487-.0452"/><path d="m19.5792 151.051h-5.14"/><path d="m43.2392 28.6511h-5.032"/><path d="m43.236 79.0545.0033-50.4034"/><path d="m38.2072 79.0521 5.0287.0024"/><path d="m43.2392 79.0511v71.9999"/><path d="m43.2392 151.051h-5.14"/><path d="m38.2072 79.0511h5.032"/><path d="m43.2392 136.651h19.501"/><path d="m36.0392 151.051h7.2"/><path d="m43.2392 151.051v-14.4"/><path d="m38.0992 151.051h-2.06"/><path d="m72.0392 129.451h-5.0989"/><path d="m28.8392 158.251h43.2"/><path d="m72.0392 158.251v-28.8"/><path d="m28.8392 153.111v5.14"/><path d="m79.2392 115.051h-12.299"/><path d="m79.2392 165.451v-50.4"/><path d="m21.6392 165.451h57.6"/><path d="m21.6392 153.111v12.34"/><path d="m14.4224 64.7014v-50.4503"/><path d="m14.4224 14.2511h19.4487"/><path d="m33.8712 64.6562-19.4487.0451"/></g><path d="m.288.288h143.356v179.407h-143.356z" fill="none" stroke="#000" stroke-width=".576" xmlns="http://www.w3.org/2000/svg"/><g transform="translate(60.956 80.0511)"><path d="m13.607 0h45.354v68.031h-45.354z" fill="none" stroke="#000" stroke-dasharray="2 2" stroke-width=".2"/><path d="m56.907 15.289h-1.219v-12.02h-5.12v7.7h-8.344v-7.7h-5.261v7.7h-8.279v-7.7h-5.116v12.017h-1.22v-12.017h-5.044v12.02h-1.648v-13.24h14.248v7.7h5.839v-7.7h7.701v7.7h5.904v-7.7h7.559z"/><path d="m19.182 21.26h34.199v43.199h-34.199z" fill="none" stroke="#000" stroke-dasharray="2 2" stroke-width=".2"/><text font-family="'DroidSans'" font-size="4" transform="translate(27.8108 44.0007)">ESP-8266</text><path d="m59.79.576c6.728 0 12.201 5.481 12.201 12.217v82.153c0 .785-.638 1.423-1.421 1.423l-23.032.003c-.016-.006-.039-.027-.046-.027-.001 0-.002 0-.002.001v-2.3c0-.746-.676-1.376-1.475-1.376h-23.256c-.676 0-1.375.516-1.375 1.376l.003 2.274c-.006.017-.035.045-.026.049h-13.575c-.758 0-1.446-.632-1.622-1.477v-17.135c0-.436-.237-.824-.634-1.022l-4.955-2.276v-61.666c0-6.735 5.473-12.217 12.2-12.217zm0-.576h-47.014c-6.987 0-12.777 5.697-12.777 12.793v61.665c0 .2.1.4.299.5l4.991 2.299c.2.101.299.301.299.5v17.19c.201 1.099 1.1 1.998 2.198 1.998h13.574c.3 0 .6-.3.6-.6v-2.3c0-.5.398-.8.799-.8h23.257c.499 0 .898.4.898.8v2.3c0 .3.299.6.599.6h23.058c1.099 0 1.996-.899 1.996-1.999v-82.153c0-7.096-5.69-12.793-12.777-12.793z"/><g fill="none" stroke="#000" stroke-linecap="round"><g stroke-width=".4"><path d="m11.713 23.603h-2.26m0 0v-1.099m0 .001.387-.387m0 0h.775m0 0 .323.387m.001 0v1.099m0-.711.774-.775m-1.873-2.261-.387.388m0 0v.71m0 0 .387.388m0 0h.389m0 0 .387-.388m-.001 0v-.71m0 0 .323-.388m.001 0h.388m-.001 0 .387.388m0 0v.71m0 0-.387.388m.387-3.036h-2.26m0 .775v-1.484"/><path d="m11.682 29.673h-1.486m0 0-.71-.71m0 0 .71-.774m0-.001h1.486m-1.099 1.485v-1.484m.776-.777h-1.55m0 0-.323-.387m0 0v-.71m0 0 .323-.388m0 0h1.55m0 0 .323.388m0 0v.71m0 0-.323.387m0 0-1.55-1.484"/><path d="m9.453 36.873h2.26m0 0v-1.098m0 0-.387-.387m0 0h-1.486m0 0-.387.387m0 0v1.098m1.873-2.26h-1.486m0 0-.387-.388m0 0v-.71m0 0 .387-.389m0 .001h1.486m0 0 .387.389m0-.001v.71m0 0-.387.388m0 0-1.486-1.486"/><path d="m9.453 44.073h2.26m0 0v-1.098m0 0-.387-.389m0 .001h-1.486m0 0-.387.389m0-.001v1.098m0-3.746v1.485m0 0h1.099m0 0-.389-.775m0 0v-.322m0 0 .389-.388m0 0h.774m0 0 .387.388m0 0v.71m0 0-.387.388"/><path d="m9.453 51.273h2.26m0 0v-1.099m0 .001-.387-.387m0 0h-1.486m0 0-.387.387m0 0v1.099m0-3.747.387.71m0 0 .775.775m0 0h.711m0 0 .387-.388m0 .001v-.71m0 0-.387-.388m0 0h-.388m.001 0-.323.388m-.001 0v1.098"/><path d="m9.453 58.473h2.26m0 0v-1.099m0 .001-.387-.387m0 0h-1.486m0 0-.387.387m0 0v1.099m0-2.262v-1.484m0-.001h.387m0 0 1.486 1.484m0 .001h.387"/><path d="m9.453 65.673h2.26m0 0v-1.098m0 0-.387-.387m0 0h-1.486m0 0-.387.387m0 0v1.098m.387-2.261-.387-.387m0 0v-.71m0 0 .387-.388m0 0h.389m0 0 .387.388m-.001 0 .388-.388m0 0h.323m0 0 .387.388m0 0v.71m0 0-.387.387m0 0h-.323m0 0-.388-.387m0 0-.387.387m.001 0h-.389m.775-.387v-.71"/><path d="m9.84 74.003-.387-.387m0 0v-.711m0 0 .387-.387m0 0h.323m0 0 .389.387m0 0v.388m0-.388.387-.387m0 0h.388m-.001 0 .387.387m0 0v.711m0 0-.387.387m-1.873-2.26h1.485m.001 0 .774-.775m0 0-.774-.711m0 0h-1.486m.387-.775-.387-.387m0 0v-.775m0 0 .387-.323m0 0h.323m0 0 .389.323m0 0v.387m0-.387.387-.323m0 0h.388m-.001 0 .387.323m0 0v.775m0 0-.387.387"/><path d="m60.854 71.388v1.484m0 .001h1.098m-.001 0-.388-.71m.001 0v-.388m0 0 .388-.387m-.001 0h.775m.001 0 .387.387m0 0v.71m0 0-.387.388m-1.873-2.261h1.484m0 0 .775-.775m.001 0-.775-.71m-.001 0h-1.484"/><path d="m61.24 63.057-.387.388m.001 0v.71m0 0 .387.388m-.001 0h1.486m.001 0 .387-.388m0 0v-.71m0 0-.387-.388m0 0h-.775m-.001 0v.774"/><path d="m60.854 58.473h2.26m0 0v-1.099m0 .001-.387-.387m0 0h-1.487m0 0-.387.387m.001 0v1.099m2.26-3.359h-2.26m0 0 1.162 1.097m0 0v-1.484"/><path d="m60.854 51.273h2.26m0 0v-1.099m0 .001-.387-.387m0 0h-1.487m0 0-.387.387m.001 0v1.099m.386-2.262-.387-.388m.001.001v-.71m0 0 .387-.388m-.001 0h.323m.001 0 .388.388m-.001 0v.322m0-.322.387-.388m0 0h.389m0 0 .387.388m0 0v.71m0 0-.387.388"/><path d="m60.854 44.073h2.26m0 0v-1.098m0 0-.387-.389m0 .001h-1.487m0 0-.387.389m.001-.001v1.098m2.26-3.746v1.485m0 0-1.485-1.485m-.001 0h-.388m0 0-.387.388m.001 0v.71m0 0 .387.388"/><path d="m60.886 36.873h2.195m0 0v-1.098m0 0-.323-.387m0 0h-1.55m0 0-.322.387m0 0v1.098m.71-2.26-.71-.776m0 0h2.195m0 .776v-1.486"/><path d="m63.114 29.673h-2.26m0 0v-1.098m0 0 .387-.387m-.001 0h.775m.001 0 .322.387m0 0v1.098m0-.71.775-.774m-2.259-.777 2.26-1.484m-2.26-.001 2.26 1.484"/><path d="m63.081 21.763h-2.195m0 .71v-1.485m0-.776 2.195-1.484m-2.195-.001 2.195 1.484"/><path d="m11 85.26v-2.26m0 0h1.098m0 0 .387.389m0-.001v.774m0 .001-.387.387m0 0h-1.098m.71 0 .774.711m2.262-2.261h-1.486m0 0v2.261m0-.001h1.486m-1.486-1.097h.775m3.036-.775-.388-.388m0 0h-.774m-.001 0-.388.389m.001-.001v.387m0 0 .388.388m-.001 0h.774m.001 0 .388.387m0 0v.323m0 0-.388.388m0-.001h-.774m-.001 0-.388-.388m3.811-1.872h-1.485m0 0v2.261m0-.001h1.485m-1.485-1.097h.71m2.325 1.097v-2.26m-.775 0h1.486"/></g><path d="m51.5 81v4.225m0-.001h2.052m0 0 .724-.725m0 .001v-2.775m0-.001-.724-.724m0 0h-2.052m4.224 1.448 1.448-1.448m0 0v4.225m-1.448-.001h2.776" stroke-width=".5"/><path d="m59.8 84.6v-2.07m0 0h.54m0 0 .45.54m0 0v1.53m0-1.53.54-.54m0 0 .54.54m0 0v1.53m1.08-2.07h.54m0 0v2.07m-.54 0h1.08m-.54-3.6v.54m1.62 3.06v-2.07m0 0h1.53m0 0 .54.54m0 0v1.53m1.08-2.07h.54m0 0v2.07m-.54 0h.99m-.45-3.6v.54" stroke-width=".5"/><path d="m54.175 90.619h-.76m0 0-.415-.414m0 0v-.83m0 0 .415-.346m0 0h.76m0 0 .415.346m0 0v.415m0 0h-1.59m2.519.829v-2.419m0 0 .829.829m0 0 .761-.829m0 0v2.419m1.344 0h.829m0 0 .346-.414m0 0v-.83m0 0-.346-.346m0 0h-.829m0 0-.415.346m0 0v.83m0 0 .415.414m2.173 0h1.175m0 0 .415-.414m0 0-.415-.415m0 0h-.829m0 0-.346-.415m0 0 .346-.346m0 0h1.244m.929 1.59v-.414m0 0h.415m0 0v.414m0 0h-.415m2.934-1.59h-1.244m0 0-.415.346m0 0v.83m0 0 .415.414m0 0h1.244m2.519-1.59h-1.244m0 0-.346.346m0 0v.83m0 0 .346.414m0 0h1.244m-17.448-3.619c2.5 3.5-.5 5.2-1.199 3.2-.601 2-3.801.6-1.801-3.2" stroke-width=".5"/></g></g><g stroke="#fff" stroke-width=".72" transform="matrix(0 -1 1 0 32.9432 153.751)" xmlns="http://www.w3.org/2000/svg"><path d="m5.4 3.096h5.184" xmlns="http://www.w3.org/2000/svg"/><path d="m24.984 3.096h3.816" xmlns="http://www.w3.org/2000/svg"/><path d="m10.584.72h14.4" xmlns="http://www.w3.org/2000/svg"/><path d="m24.984.72v4.752" xmlns="http://www.w3.org/2000/svg"/><path d="m24.984 5.472h-14.4" xmlns="http://www.w3.org/2000/svg"/><path d="m10.584 5.472v-4.752" xmlns="http://www.w3.org/2000/svg"/></g><g stroke="#fff" stroke-width=".72" transform="matrix(0 -1 1 0 25.7432 153.751)" xmlns="http://www.w3.org/2000/svg"><path d="m5.4 3.096h5.184" xmlns="http://www.w3.org/2000/svg"/><path d="m24.984 3.096h3.816" xmlns="http://www.w3.org/2000/svg"/><path d="m10.584.72h14.4" xmlns="http://www.w3.org/2000/svg"/><path d="m24.984.72v4.752" xmlns="http://www.w3.org/2000/svg"/><path d="m24.984 5.472h-14.4" xmlns="http://www.w3.org/2000/svg"/><path d="m10.584 5.472v-4.752" xmlns="http://www.w3.org/2000/svg"/></g><g stroke="#f0f0f0" stroke-width=".575999" xmlns="http://www.w3.org/2000/svg"><path d="m23.0794 103.89161h-2.87999" stroke-linecap="round" xmlns="http://www.w3.org/2000/svg"/><circle cx="25.2394" cy="107.8516" fill="none" r="7.0866"/></g><g stroke="#fff" stroke-width=".72" transform="matrix(0 -1 1 0 18.5432 153.751)" xmlns="http://www.w3.org/2000/svg"><path d="m5.4 3.096h5.184" xmlns="http://www.w3.org/2000/svg"/><path d="m24.984 3.096h3.816" xmlns="http://www.w3.org/2000/svg"/><path d="m10.584.72h14.4" xmlns="http://www.w3.org/2000/svg"/><path d="m24.984.72v4.752" xmlns="http://www.w3.org/2000/svg"/><path d="m24.984 5.472h-14.4" xmlns="http://www.w3.org/2000/svg"/><path d="m10.584 5.472v-4.752" xmlns="http://www.w3.org/2000/svg"/></g><g stroke="#fff" xmlns="http://www.w3.org/2000/svg"><g stroke-width=".72"><path d="m32.4392 61.0511v14.4" xmlns="http://www.w3.org/2000/svg"/><path d="m32.4392 75.4511h7.2" xmlns="http://www.w3.org/2000/svg"/><path d="m39.6392 75.4511v-14.4" xmlns="http://www.w3.org/2000/svg"/><path d="m39.6392 61.0511h-7.2" xmlns="http://www.w3.org/2000/svg"/></g><path d="m32.4392 63.5711 2.52-2.52" stroke-width=".36" xmlns="http://www.w3.org/2000/svg"/></g><g stroke="#fff" xmlns="http://www.w3.org/2000/svg"><g stroke-width=".72"><path d="m25.2392 75.4511v14.4" xmlns="http://www.w3.org/2000/svg"/><path d="m25.2392 89.8511h7.2" xmlns="http://www.w3.org/2000/svg"/><path d="m32.4392 89.8511v-14.4" xmlns="http://www.w3.org/2000/svg"/><path d="m32.4392 75.4511h-7.2" xmlns="http://www.w3.org/2000/svg"/></g><path d="m25.2392 77.9711 2.52-2.52" stroke-width=".36" xmlns="http://www.w3.org/2000/svg"/></g><g stroke="#fff" xmlns="http://www.w3.org/2000/svg"><g stroke-width=".72"><path d="m32.4392 75.4511v14.4" xmlns="http://www.w3.org/2000/svg"/><path d="m32.4392 89.8511h7.2" xmlns="http://www.w3.org/2000/svg"/><path d="m39.6392 89.8511v-14.4" xmlns="http://www.w3.org/2000/svg"/><path d="m39.6392 75.4511h-7.2" xmlns="http://www.w3.org/2000/svg"/></g><path d="m32.4392 77.9711 2.52-2.52" stroke-width=".36" xmlns="http://www.w3.org/2000/svg"/></g><g stroke="#fff" xmlns="http://www.w3.org/2000/svg"><g stroke-width=".72"><path d="m32.4392 25.0511v14.4" xmlns="http://www.w3.org/2000/svg"/><path d="m32.4392 39.4511h7.2" xmlns="http://www.w3.org/2000/svg"/><path d="m39.6392 39.4511v-14.4" xmlns="http://www.w3.org/2000/svg"/><path d="m39.6392 25.0511h-7.2" xmlns="http://www.w3.org/2000/svg"/></g><path d="m32.4392 27.5711 2.52-2.52" stroke-width=".36" xmlns="http://www.w3.org/2000/svg"/></g><g stroke="#fff" xmlns="http://www.w3.org/2000/svg"><g stroke-width=".72"><path d="m25.2392 25.0511v14.4" xmlns="http://www.w3.org/2000/svg"/><path d="m25.2392 39.4511h7.2" xmlns="http://www.w3.org/2000/svg"/><path d="m32.4392 39.4511v-14.4" xmlns="http://www.w3.org/2000/svg"/><path d="m32.4392 25.0511h-7.2" xmlns="http://www.w3.org/2000/svg"/></g><path d="m25.2392 27.5711 2.52-2.52" stroke-width=".36" xmlns="http://www.w3.org/2000/svg"/></g><g stroke="#fff" xmlns="http://www.w3.org/2000/svg"><g stroke-width=".72"><path d="m32.4392 10.65112v14.4" xmlns="http://www.w3.org/2000/svg"/><path d="m32.4392 25.05112h7.2" xmlns="http://www.w3.org/2000/svg"/><path d="m39.6392 25.05112v-14.4" xmlns="http://www.w3.org/2000/svg"/><path d="m39.6392 10.65112h-7.2" xmlns="http://www.w3.org/2000/svg"/></g><path d="m32.4392 13.17112 2.52-2.52" stroke-width=".36" xmlns="http://www.w3.org/2000/svg"/></g><text font-family="'OCRA'" font-size="5" transform="translate(74.3224 75.0911)" y="3.75">WeMos D1 Mini</text><text font-family="'OCRA'" font-size="5" transform="matrix(0 1 -1 0 30.5792 130.547)" y="3.75">20k</text><text font-family="'OCRA'" font-size="5" transform="matrix(0 1 -1 0 45.6435 26.5634)" y="3.75">PSW</text><text font-family="'OCRA'" font-size="5" transform="matrix(0 1 -1 0 23.7192 26.689)" y="3.75">RST</text><text font-family="'OCRA'" font-size="5" transform="matrix(0 1 -1 0 45.4603 10.8034)" y="3.75">PLED</text><text font-family="'OCRA'" font-size="5" transform="matrix(0 1 -1 0 45.6053 77.2003)" y="3.75">PSW</text><text font-family="'OCRA'" font-size="5" transform="matrix(0 1 -1 0 23.3421 77.5322)" y="3.75">RST</text><text font-family="'OCRA'" font-size="5" transform="matrix(0 1 -1 0 37.7392 130.747)" y="3.75">20k</text><text font-family="'OCRA'" font-size="5" transform="matrix(0 1 -1 0 16.3448 99.0367)" y="3.75">100uF</text><text font-family="'OCRA'" font-size="5" transform="matrix(0 1 -1 0 45.6853 60.953)" y="3.75">PLED</text><text font-family="'OCRA'" font-size="5" transform="matrix(0 1 -1 0 23.3792 130.307)" y="3.75">20k</text></svg>